<?xml version="1.0" encoding="utf-8"?>
<!-- Generator: Adobe Illustrator 16.0.0, SVG Export Plug-In . SVG Version: 6.00 Build 0)  -->
<!DOCTYPE svg PUBLIC "-//W3C//DTD SVG 1.1//EN" "http://www.w3.org/Graphics/SVG/1.1/DTD/svg11.dtd">
<svg version="1.1" id="Layer_1" xmlns="http://www.w3.org/2000/svg" xmlns:xlink="http://www.w3.org/1999/xlink" x="0px" y="0px"
	 width="1046px" height="206.958px" viewBox="0 0 1046 206.958" enable-background="new 0 0 1046 206.958" xml:space="preserve">
<g>
	<path d="M298.224,4.522c0.131,0.363,0.277,0.705,0.434,1.035H285.57l13.799,2.952l0.753-0.697c0,0,0,0,0.001,0.002
		c0.004-0.004,0.006-0.008,0.008-0.01l0.015-0.014h-0.001c0.687-0.681,1.233-1.525,1.69-2.46c-0.658-1.475-1.088-3.229-1.23-5.33
		h-3.317h-13.266l13.793,3.166C297.933,3.641,298.067,4.095,298.224,4.522z"/>
	<polygon points="124.633,37.799 121.316,37.799 108.05,37.799 121.316,41.022 121.316,44.33 121.316,44.437 108.05,44.437 
		121.316,47.66 121.316,50.948 121.316,51.074 108.05,51.074 121.316,54.297 121.316,57.568 121.316,57.711 108.05,57.711 
		121.316,60.935 121.316,64.189 121.316,64.349 108.05,64.349 121.316,67.574 121.316,70.81 121.316,70.986 108.05,70.986 
		121.316,74.212 121.316,77.43 121.316,77.622 108.05,77.622 121.316,80.848 121.316,84.05 121.316,84.262 108.05,84.262 
		121.316,87.487 121.316,90.674 121.316,90.898 108.05,90.898 121.316,94.122 121.316,97.292 121.316,97.534 108.05,97.534 
		121.316,100.762 121.316,103.912 121.316,104.172 108.05,104.172 121.316,107.397 121.316,110.532 121.316,110.812 108.05,110.812 
		121.316,114.035 121.316,117.15 121.316,117.447 108.05,117.447 121.316,120.671 121.316,123.771 121.316,124.084 108.05,124.084 
		121.316,127.31 121.316,130.394 121.316,130.722 108.05,130.722 121.316,133.947 121.316,137.012 121.316,137.359 108.05,137.359 
		121.316,140.585 121.316,143.636 121.316,143.997 108.05,143.997 121.316,147.223 121.316,150.254 121.316,150.635 108.05,150.635 
		121.316,153.86 121.316,156.876 121.316,157.27 108.05,157.27 121.316,160.495 121.316,163.496 121.316,163.909 108.05,163.909 
		121.316,167.133 121.316,170.116 121.316,170.549 108.05,170.549 121.316,173.771 121.316,176.738 121.316,177.185 108.05,177.185 
		121.316,180.41 121.316,183.354 121.316,183.822 108.05,183.822 121.316,187.046 121.316,189.975 121.316,190.458 108.05,190.458 
		121.316,193.683 121.316,196.597 121.316,197.095 108.05,197.095 121.316,200.32 121.316,203.218 121.316,203.732 108.05,203.732 
		121.316,206.958 121.814,206.958 121.862,206.762 124.633,195.496 	"/>
	<polygon points="669.304,123.898 669.304,123.818 656.039,123.818 668.687,126.893 668.646,127.089 667.977,130.394 
		667.967,130.438 654.711,130.438 667.336,133.507 667.299,133.713 666.628,137.012 666.616,137.061 653.353,137.061 
		665.981,140.131 665.94,140.331 665.266,143.636 651.998,143.636 664.607,146.857 664.586,146.951 664.236,148.636 
		667.556,148.636 671.505,129.34 669.846,121.235 669.331,123.771 	"/>
	<polygon points="184.392,123.91 184.392,123.818 171.125,123.818 183.781,126.895 183.742,127.089 183.065,130.394 
		183.055,130.438 169.8,130.438 182.427,133.509 182.386,133.713 181.708,137.012 181.7,137.061 168.442,137.061 181.07,140.131 
		181.028,140.331 180.351,143.636 167.084,143.636 179.694,146.857 179.674,146.951 179.335,148.636 182.65,148.636 186.599,129.33 
		184.942,121.231 184.42,123.771 	"/>
	<polygon points="173.286,176.736 160.015,176.736 172.646,179.954 171.946,183.479 158.678,183.479 171.306,186.696 
		170.59,190.302 170.603,190.232 157.337,190.232 169.965,193.454 169.263,196.982 156.019,196.982 168.623,200.206 
		167.922,203.732 154.666,203.732 167.283,206.958 170.6,206.958 177.087,174.289 173.771,174.289 	"/>
	<polygon points="842.213,37.799 838.896,37.799 825.631,37.799 837.338,41.022 835.732,44.33 835.732,44.324 822.467,44.324 
		834.174,47.549 834.126,47.645 832.569,50.851 819.302,50.851 831.009,54.076 830.919,54.263 829.405,57.377 816.143,57.377 
		827.846,60.601 827.705,60.886 826.24,63.902 812.979,63.902 824.682,67.126 824.499,67.507 823.08,70.428 809.815,70.428 
		821.521,73.653 821.287,74.127 819.917,76.956 806.651,76.956 818.354,80.178 818.079,80.745 816.754,83.481 803.486,83.481 
		815.193,86.705 814.875,87.368 813.59,90.006 800.323,90.006 812.025,93.229 811.655,93.988 810.425,96.531 797.159,96.531 
		808.862,99.755 808.449,100.606 807.261,103.056 793.998,103.056 805.701,106.281 805.243,107.229 804.921,107.889 
		805.969,110.532 805.986,110.578 792.721,110.578 807.261,113.802 807.282,113.849 808.589,117.15 808.618,117.231 
		795.353,117.231 809.895,120.455 809.9,120.469 811.203,123.771 811.205,123.771 811.251,123.885 797.984,123.885 812.53,127.11 
		813.829,130.394 813.883,130.541 800.62,130.541 815.162,133.761 816.447,137.012 816.519,137.194 803.254,137.194 
		817.794,140.418 819.067,143.636 819.152,143.848 805.887,143.848 820.424,147.069 821.688,150.254 821.784,150.501 
		808.519,150.501 823.062,153.726 824.303,156.876 824.418,157.155 811.15,157.155 825.693,160.381 826.931,163.496 
		827.626,165.255 827.054,163.811 813.788,163.811 828.33,167.032 829.545,170.116 829.549,170.116 829.688,170.464 816.42,170.464 
		830.96,173.688 832.165,176.738 832.314,177.116 819.056,177.116 833.592,180.342 834.783,183.354 834.952,183.771 
		821.689,183.771 836.228,186.995 837.405,189.975 837.409,189.975 838.04,191.567 837.588,190.425 824.322,190.425 
		838.855,193.648 840.023,196.597 840.22,197.079 826.954,197.079 841.497,200.303 842.647,203.218 842.852,203.732 829.59,203.732 
		844.125,206.958 844.129,206.958 845.403,206.958 845.403,201.802 808.239,107.889 	"/>
	<polygon points="930.994,133.782 930.994,109.786 927.68,109.786 927.68,109.788 914.412,109.788 927.68,113.014 927.68,113.849 
		927.68,116.711 914.412,116.711 927.68,119.935 927.68,120.469 927.68,123.634 914.412,123.634 927.68,126.857 927.68,127.089 
		927.68,130.394 927.68,130.557 914.412,130.557 927.68,133.782 927.68,133.782 	"/>
	<path d="M983.928,143.636v0.045h-13.266l13.266,3.226v0.045v3.303v0.099h-13.266l13.266,3.227v3.297v0.149h-13.266l13.266,3.226
		v3.245v0.2h-13.266l13.266,3.226v3.194v0.256h-13.266l13.266,3.222v3.145v0.307h-13.266l13.266,3.222v3.088v0.36h-13.266
		l13.266,3.224v3.036v0.413h-13.266l13.266,3.226v2.983v0.463h-13.266l13.266,3.227v2.932v0.515h-13.266l13.266,3.226h3.318v-65.353
		c-1.093,0.055-2.186,0.102-3.318,0.111V143.636z"/>
	<path d="M983.928,112.852h-13.266l13.266,3.224c1.193-0.01,2.286-0.137,3.318-0.326v-52.79c-1.032-0.194-2.125-0.318-3.318-0.326
		v1.556v0.047h-13.266l13.266,3.226v0.045v3.303v0.369h-13.266l13.266,3.228v3.023v0.697h-13.266l13.266,3.224v2.699v1.021h-13.266
		l13.266,3.226v2.378v1.341h-13.266l13.266,3.226v2.052v1.669h-13.266l13.266,3.226v1.726v1.993h-13.266l13.266,3.226v1.401V112.852
		z"/>
	<path d="M455.72,157.695c1.283-1.425,2.393-3.022,3.317-4.788V82c-0.925-1.756-2.024-3.355-3.317-4.747v0.002l-2.567-1.811h-10.691
		l13.258,3.222v2.079v1.488h-13.258l13.258,3.222v1.913v1.654h-13.258l13.258,3.222v1.744v1.822h-13.258l13.258,3.224v1.572v1.993
		h-13.258l13.258,3.224v1.405v2.162h-13.258l13.258,3.222v1.236v2.331h-13.258l13.258,3.222v1.067v2.5h-13.258l13.258,3.224v0.896
		v2.669h-13.258l13.258,3.222v0.733v2.833h-13.258l13.258,3.222v0.563v3.004h-13.258l13.258,3.224v0.393v3.175h-13.258l13.258,3.222
		v0.224v3.305v0.039h-13.258l11.247,2.713l2.011-1.935V157.695z"/>
	<path d="M292.366,26.049c14.388,0,28.776-6.379,29.507-26.049H304.02c-0.55,8.014-5.103,11.292-11.654,11.292
		c-6.563,0-11.114-3.278-11.663-11.292h-17.854C263.58,19.67,277.971,26.049,292.366,26.049z"/>
	<path d="M25.261,37.799v98.361c0,41.261-8.255,46.973-25.261,46.973v23.825c1.045,0,2.082,0,3.113,0
		c0.648,0,1.282-0.008,1.923-0.01c0.834-0.004,1.662-0.016,2.482-0.029c0.613-0.012,1.228-0.028,1.836-0.05
		c0.775-0.02,1.536-0.059,2.297-0.1c0.605-0.03,1.208-0.063,1.804-0.108c0.752-0.055,1.488-0.134,2.221-0.212
		c0.587-0.06,1.168-0.124,1.74-0.203c0.737-0.104,1.458-0.235,2.179-0.367c0.546-0.101,1.098-0.194,1.634-0.314
		c0.734-0.165,1.452-0.378,2.167-0.586c0.492-0.142,0.995-0.268,1.477-0.429c0.779-0.266,1.526-0.598,2.274-0.922
		c0.396-0.175,0.8-0.311,1.186-0.501c1.116-0.547,2.203-1.17,3.248-1.889c11.276-7.769,19.491-23.289,19.491-62.489V61.795h27.051
		v145.163h26.609V37.799H25.261z"/>
	<polygon points="314.8,37.799 276.774,138.297 276.774,37.799 249.538,37.799 249.538,206.958 273.292,206.958 311.72,104.577 
		311.72,206.958 338.956,206.958 338.956,37.799 	"/>
	<polygon points="568.899,37.799 552.035,94.342 535.16,37.799 505.943,37.799 536.825,119.289 503.329,206.958 532.548,206.958 
		552.035,146.134 571.516,206.958 600.736,206.958 566.525,119.289 598.121,37.799 	"/>
	<path d="M649.156,37.799l-41.581,169.159h28.034l6.655-33.498h39.2l6.892,33.498h27.8L675.053,37.799H649.156z M667.389,149.464
		h-3.319h-13.267h-3.317l14.5-70.8l14.494,70.8H667.389z"/>
	<path d="M231.241,206.958L190.14,37.799h-25.896l-41.576,169.159h28.029l6.651-33.498h39.203l6.892,33.498H231.241z
		 M182.476,149.464h-3.316h-13.267h-3.316l14.493-70.8l14.496,70.8H182.476z"/>
	<polygon points="822.312,37.799 795.469,37.799 758.641,117.391 758.641,37.799 732.032,37.799 732.032,206.958 758.641,206.958 
		758.641,163.479 771.473,137.346 798.794,206.958 827.544,206.958 788.339,107.889 	"/>
	<polygon points="872.843,182.962 872.843,133.782 911.096,133.782 911.096,109.786 872.843,109.786 872.843,61.793 917.273,61.793 
		917.273,37.799 846.232,37.799 846.232,206.958 917.273,206.958 917.273,182.962 	"/>
	<path d="M1026.733,89.117c0-35.4-12.828-51.318-43.478-51.318h-42.526v169.159h26.618v-66.051h15.908
		C1015.331,140.907,1026.733,123.323,1026.733,89.117z M967.348,116.917V61.793h3.314h13.071c14.251,0,16.396,12.596,16.396,27.564
		c0,14.964-2.145,27.56-16.396,27.56h-13.071H967.348z"/>
	<path d="M491.631,117.375c-0.016-41.418-11.296-69.398-45.356-69.398h-6.511V30.719h-26.605v17.258h-6.58
		c-34.053,0-45.345,27.98-45.356,69.398c0.012,41.425,11.401,70.023,45.459,70.023h6.404v0.068v20.891h26.678v-20.891l0.007-0.068
		h6.402C480.231,187.398,491.616,158.8,491.631,117.375z M413.407,164.973h-2.595c-24.189-0.683-23.311-32.236-23.294-47.346
		c-0.017-15.108-0.895-46.656,23.294-46.656h2.595V164.973z M441.732,164.727h-2.595V70.721h2.595
		c24.198,0,23.307,31.549,23.298,46.656C465.04,132.486,465.931,164.041,441.732,164.727z"/>
	<path d="M67.655,64.189v0.047h-13.26l13.26,3.222v0.049v3.303v0.047h-13.26l13.26,3.222v0.049v3.303v0.045h-13.26l13.26,3.224
		v0.047v3.305v0.045h-13.26l13.26,3.222v0.052v3.306v0.041h-13.26l13.26,3.222v0.052v3.304v0.041h-13.26l13.26,3.226v0.048v3.306
		v0.04h-13.26l13.26,3.224v0.053v3.304v0.038h-13.26l13.26,3.226v0.053v3.302v0.04h-13.26l13.26,3.224v0.055v3.303v0.041h-13.26
		l13.26,3.22v0.057v3.305v0.037h-13.26l13.26,3.222v0.061v3.299v0.039H54.388l13.247,3.218c0,0.021,0,0.041,0,0.062
		c-0.008,1.123-0.024,2.214-0.048,3.305H54.32l13.194,3.206c0,0.037-0.001,0.072-0.002,0.109c-0.039,1.127-0.094,2.214-0.145,3.303
		H54.101l13.092,3.183c-0.004,0.045-0.006,0.092-0.009,0.135c-0.065,1.127-0.154,2.222-0.244,3.305H53.674l12.961,3.15
		c-0.005,0.054-0.011,0.112-0.017,0.166c-0.118,1.118-0.233,2.24-0.373,3.304H52.979l12.801,3.111
		c-0.011,0.067-0.021,0.138-0.032,0.205c-0.172,1.128-0.358,2.242-0.562,3.304H51.921l12.646,3.074
		c-0.019,0.079-0.036,0.163-0.054,0.242c-0.259,1.151-0.544,2.232-0.834,3.306H50.413l12.375,3.008
		c-0.031,0.102-0.063,0.204-0.096,0.303c-0.376,1.151-0.765,2.254-1.172,3.306H48.255l12.026,2.923
		c-0.061,0.132-0.12,0.266-0.18,0.394c-0.55,1.17-1.123,2.271-1.723,3.304c-0.005,0.012-0.01,0.021-0.017,0.026v-0.026H45.096
		l11.52,2.8c-0.121,0.175-0.241,0.35-0.365,0.521c-0.873,1.199-1.786,2.294-2.729,3.302c-0.017,0.019-0.037,0.036-0.054,0.056
		v-0.056H40.202l10.627,2.583c-0.294,0.25-0.592,0.497-0.892,0.733c-0.584,0.458-1.173,0.91-1.772,1.325
		c-1.119,0.771-2.292,1.405-3.497,1.979H31.405l8.017,1.949c-0.504,0.134-1.011,0.258-1.521,0.374
		c-0.486,0.111-0.983,0.202-1.476,0.297c-0.606,0.117-1.218,0.22-1.834,0.311c-0.599,0.092-1.197,0.181-1.804,0.255
		c-0.164,0.018-0.329,0.025-0.491,0.042c-3.982,0.428-8.146,0.505-12.394,0.513c11.636,0,22.931,0.237,31.581-5.72
		c11.275-7.769,19.488-23.289,19.488-62.489V62.625h-3.316V64.189z"/>
	<polygon points="226.073,117.447 212.807,117.447 226.858,120.671 	"/>
	<polygon points="235.746,157.27 222.479,157.27 236.53,160.495 	"/>
	<polygon points="206.73,37.799 206.724,37.799 193.464,37.799 207.506,41.022 207.508,41.022 208.31,44.33 208.332,44.423 
		195.067,44.423 209.118,47.646 208.958,46.988 209.118,47.645 209.917,50.948 209.948,51.074 196.707,51.074 210.731,54.292 
		211.531,57.568 211.565,57.711 198.317,57.711 212.346,60.929 213.135,64.189 213.173,64.349 199.941,64.349 213.958,67.564 
		214.745,70.81 214.787,70.986 201.539,70.986 215.571,74.206 216.353,77.43 216.402,77.622 203.15,77.622 217.181,80.844 
		217.961,84.05 218.011,84.262 204.746,84.262 218.796,87.487 219.569,90.674 219.625,90.898 206.377,90.898 220.413,94.118 
		221.18,97.292 221.238,97.534 207.996,97.534 222.018,100.754 222.787,103.912 222.85,104.172 209.614,104.172 223.632,107.392 
		224.397,110.532 224.465,110.812 211.209,110.812 225.249,114.031 226.005,117.15 226.809,120.469 227.611,123.771 
		227.686,124.084 214.45,124.084 228.47,127.302 229.224,130.394 229.303,130.722 216.092,130.722 230.083,133.932 230.829,137.012 
		230.913,137.359 217.688,137.359 231.694,140.573 232.439,143.636 232.526,143.997 219.333,143.997 233.301,147.203 
		234.046,150.254 234.138,150.635 220.929,150.635 234.919,153.847 235.658,156.876 236.456,160.192 237.266,163.496 
		237.366,163.909 224.169,163.909 238.146,167.115 238.871,170.116 238.976,170.549 225.767,170.549 239.755,173.755 
		240.481,176.738 240.59,177.185 227.363,177.185 241.373,180.398 242.092,183.354 242.205,183.822 228.961,183.822 
		242.984,187.042 243.694,189.975 243.811,190.458 230.557,190.458 244.598,193.681 245.304,196.597 245.428,197.095 
		232.166,197.095 246.212,200.32 246.915,203.218 247.042,203.732 233.778,203.732 247.823,206.958 247.824,206.958 248.71,206.958 
		248.71,196.938 210.039,37.799 	"/>
	<polygon points="184.714,120.117 184.098,117.15 172.511,117.15 	"/>
	<polygon points="183.211,112.803 182.755,110.532 173.869,110.532 	"/>
	<polygon points="181.711,105.485 181.391,103.912 175.226,103.912 	"/>
	<polygon points="180.214,98.173 180.032,97.292 176.581,97.292 	"/>
	<path d="M325.191,0l12.982,3.156c-0.055,0.466-0.117,0.922-0.188,1.366c-0.059,0.351-0.124,0.693-0.189,1.035h-13.079l12.313,2.991
		c-0.216,0.707-0.448,1.392-0.713,2.045c-0.071,0.175-0.148,0.348-0.222,0.518h-13.046l11.61,2.822
		c-0.585,0.97-1.206,1.89-1.901,2.73c0,0,0,0.002-0.002,0.004H319.56l10.649,2.587c-0.287,0.25-0.58,0.491-0.881,0.726
		c-0.692,0.543-1.413,1.046-2.162,1.512H314.07l8.792,2.135c-3.804,1.493-8.003,2.228-12.254,2.374
		c0.553,0.021,1.104,0.048,1.66,0.048c7.488,0,14.977-1.729,20.54-6.164l0.018,0.006v-0.018c5.114-4.082,8.597-10.455,8.948-19.874
		h-3.316H325.191z"/>
	<polygon points="309.932,153.524 308.721,156.756 295.474,156.756 307.493,160.026 306.203,163.461 292.94,163.461 
		304.958,166.731 303.687,170.165 290.453,170.165 302.46,173.433 301.171,176.868 287.964,176.868 299.946,180.131 
		298.655,183.573 285.477,183.573 297.434,186.828 296.139,190.279 282.989,190.279 294.918,193.524 293.622,196.982 
		280.501,196.982 292.407,200.222 291.105,203.688 277.88,203.688 289.879,206.954 289.878,206.958 293.194,206.958 310.89,159.809 
		310.89,151.022 310.893,150.254 297.916,150.254 	"/>
	<polygon points="300.404,143.469 310.889,146.32 310.889,143.469 	"/>
	<polygon points="302.892,136.824 310.893,139.001 310.888,136.824 	"/>
	<polygon points="305.379,130.179 310.896,131.681 310.89,130.179 	"/>
	<polygon points="310.89,123.771 307.835,123.771 310.893,124.603 	"/>
	<polygon points="296.676,83.354 296.676,37.799 293.36,37.799 280.095,37.799 293.36,41.022 293.36,44.33 293.36,44.437 
		280.106,44.437 293.36,47.658 293.36,50.948 293.36,51.074 280.106,51.074 293.36,54.295 293.36,57.568 293.36,57.711 
		280.106,57.711 293.36,60.931 293.36,64.189 293.36,64.349 280.106,64.349 293.36,67.57 293.36,70.81 293.36,70.986 
		280.106,70.986 293.36,74.208 293.36,77.43 293.36,77.622 280.106,77.622 293.36,80.846 293.36,84.05 293.36,84.262 
		280.106,84.262 293.36,87.483 293.36,90.674 293.36,90.878 280.1,90.878 292.67,93.933 	"/>
	<polygon points="291.306,97.534 280.093,97.534 290.365,100.032 	"/>
	<polygon points="288.803,104.172 280.093,104.172 288.067,106.112 	"/>
	<polygon points="286.289,110.812 280.093,110.812 285.767,112.189 	"/>
	<polygon points="283.464,118.266 283.779,117.447 280.093,117.447 	"/>
	<polygon points="342.275,37.799 355.54,41.022 355.54,44.33 355.54,44.437 342.275,44.437 355.54,47.66 355.54,50.948 
		355.54,51.074 342.275,51.074 355.54,54.297 355.54,57.568 355.54,57.711 342.275,57.711 355.54,60.935 355.54,64.189 
		355.54,64.349 342.275,64.349 355.54,67.574 355.54,70.81 355.54,70.986 342.275,70.986 355.54,74.212 355.54,77.43 355.54,77.622 
		342.275,77.622 355.54,80.848 355.54,84.05 355.54,84.262 342.275,84.262 355.54,87.487 355.54,90.674 355.54,90.898 
		342.275,90.898 355.54,94.122 355.54,97.292 355.54,97.534 342.275,97.534 355.54,100.762 355.54,103.912 355.54,104.172 
		342.275,104.172 355.54,107.397 355.54,110.532 355.54,110.812 342.275,110.812 355.54,114.035 355.54,117.15 355.54,117.447 
		342.275,117.447 355.54,120.671 355.54,123.771 355.54,124.084 342.275,124.084 355.54,127.31 355.54,130.394 355.54,130.722 
		342.275,130.722 355.54,133.947 355.54,137.012 355.54,137.359 342.275,137.359 355.54,140.585 355.54,143.636 355.54,143.997 
		342.275,143.997 355.54,147.223 355.54,150.254 355.54,150.635 342.275,150.635 355.54,153.86 355.54,156.876 355.54,157.27 
		342.275,157.27 355.54,160.495 355.54,163.496 355.54,163.909 342.275,163.909 355.54,167.133 355.54,170.116 355.54,170.549 
		342.275,170.549 355.54,173.771 355.54,176.738 355.54,177.185 342.275,177.185 355.54,180.41 355.54,183.354 355.54,183.822 
		342.275,183.822 355.54,187.046 355.54,189.975 355.54,190.458 342.275,190.458 355.54,193.683 355.54,196.597 355.54,197.095 
		342.275,197.095 355.54,200.32 355.54,203.218 355.54,203.732 342.275,203.732 355.54,206.958 358.857,206.958 358.857,37.799 
		355.54,37.799 	"/>
	<path d="M1003.176,37.799h-3.314c6.08,0,11.443,0.641,16.155,1.925h-13.403l19.631,2.257c1.493,0.694,2.895,1.479,4.214,2.348
		h-13.25l17.45,3.309c0,0.004,0.004,0.004,0.004,0.006c1.067,1.015,2.059,2.123,2.988,3.303h-13.246l15.548,3.311
		c0,0,0.004,0.002,0.004,0.004c0.641,1.056,1.25,2.145,1.807,3.305v0.002h-13.247l14.639,3.313c0.004,0.001,0.004,0.001,0.004,0.003
		c0.395,1.054,0.747,2.172,1.087,3.303h-0.004h-13.265l14.157,3.267c0.002,0.02,0.006,0.033,0.014,0.051
		c0.254,1.077,0.502,2.162,0.708,3.303h-13.249l13.745,3.312c0,0.002,0.004,0.004,0.004,0.006c0.152,1.079,0.307,2.156,0.424,3.287
		h-13.239l13.491,3.331c0.074,1.082,0.144,2.177,0.187,3.305h-13.251l13.328,3.311c0,0.002,0,0.004,0,0.008
		c0.008,0.591,0.043,1.144,0.043,1.749c0,0.532-0.031,1.028-0.035,1.557h-13.248l13.179,3.314c-0.043,1.126-0.105,2.221-0.171,3.302
		h-13.245l13.004,3.311c0,0.002,0,0.004,0,0.006c-0.104,1.138-0.26,2.217-0.399,3.306h-13.241l12.76,3.311c0,0,0,0.002,0,0.006
		c-0.194,1.132-0.419,2.227-0.665,3.304h-13.245l12.386,3.311c0,0.002,0,0.002,0,0.006c-0.277,0.973-0.572,1.924-0.895,2.846
		h-13.002l11.542,3.774c-0.521,1.158-1.115,2.241-1.725,3.303h-13.244l11.051,3.317c-0.873,1.172-2.824,3.305-2.824,3.305h-13.265
		l10.34,2.603c-0.312,0.245-0.627,0.481-0.949,0.717c-1.793,1.278-5.931,3.299-5.931,3.299h-13.268l8.736,1.648
		c-2.51,0.745-5.221,1.304-8.147,1.671c-2.809,0.353-5.763,0.576-8.975,0.576h3.314c32.074,0,43.477-17.584,43.477-51.79
		C1046.652,53.717,1033.827,37.799,1003.176,37.799z"/>
	<polygon points="456.35,43.996 443.096,43.996 456.35,47.215 456.35,47.645 456.35,47.977 459.666,47.977 459.666,30.719 
		456.361,30.719 456.35,30.719 443.096,30.719 456.35,33.94 456.35,34.404 456.35,37.356 443.096,37.356 456.35,40.578 
		456.35,41.022 	"/>
	<path d="M411.854,78.109c-0.667,0.826-1.279,1.702-1.834,2.636c-0.288,0.482-0.561,0.979-0.823,1.488h-13.239l11.943,2.903
		c-0.286,0.728-0.558,1.469-0.806,2.231c-0.174,0.544-0.337,1.097-0.493,1.656h-13.258l12.511,3.041
		c-0.137,0.637-0.267,1.275-0.38,1.923c-0.107,0.607-0.205,1.215-0.3,1.824h-13.28l12.863,3.125
		c-0.064,0.555-0.124,1.114-0.171,1.669c-0.06,0.668-0.114,1.334-0.161,1.997h-13.283l13.103,3.182
		c-0.02,0.484-0.038,0.966-0.053,1.443c-0.022,0.733-0.041,1.454-0.054,2.162h-13.287l13.249,3.222
		c-0.002,0.417-0.006,0.833-0.006,1.236c0,0.808,0.002,1.586,0.004,2.333h-13.247l13.245,3.22c0,0.352-0.002,0.704-0.002,1.067
		c0,0.806,0,1.642,0.006,2.504h-13.233l13.267,3.226v-0.438c0.009,0.44,0.016,0.881,0.027,1.329c0.024,0.873,0.06,1.77,0.103,2.674
		h-13.238l13.433,3.213c0.018,0.244,0.034,0.486,0.054,0.737c0.074,0.928,0.171,1.859,0.274,2.795H391.61l13.618,3.295
		c0.027,0.177,0.051,0.354,0.081,0.528c0.161,1.005,0.345,2.001,0.552,2.988h-13.204l13.993,3.245
		c0.035,0.128,0.064,0.26,0.102,0.387c0.312,1.075,0.653,2.135,1.044,3.157h-13.213l14.652,3.245
		c0.037,0.073,0.073,0.147,0.108,0.218c0.61,1.166,1.291,2.267,2.048,3.305c0.01,0.014,0.023,0.029,0.034,0.045h-13.182l14.33,3.271
		v-1.923v-1.394v-3.493c-5.488-10.732-5.164-26.393-5.154-35.756c-0.01-9.36-0.334-25.022,5.154-35.59v-3.753v-1.031v-1.809h-11.692
		L411.854,78.109z"/>
	<polygon points="456.35,187.467 456.35,189.975 456.35,191.853 443.096,191.853 456.35,195.072 456.35,196.597 456.35,198.49 
		443.096,198.49 456.35,201.71 456.35,203.218 456.35,205.126 443.096,205.126 456.35,208.348 456.35,208.357 459.603,208.357 
		459.666,208.357 459.666,187.467 459.673,187.398 456.354,187.398 	"/>
	<polygon points="612.142,44.417 598.894,44.417 610.896,47.637 610.892,47.645 609.604,50.948 609.568,51.035 596.305,51.035 
		608.322,54.261 608.322,54.263 607.043,57.568 607.011,57.653 593.743,57.653 605.759,60.877 605.753,60.886 604.476,64.189 
		604.444,64.273 591.201,64.273 603.196,67.493 603.193,67.507 601.906,70.81 601.875,70.892 588.625,70.892 600.629,74.111 
		600.625,74.127 599.341,77.43 599.31,77.512 586.077,77.512 598.062,80.728 598.056,80.745 596.771,84.05 596.74,84.129 
		583.52,84.129 595.496,87.344 595.486,87.368 594.205,90.674 594.178,90.747 580.943,90.747 592.932,93.965 592.92,93.988 
		591.636,97.292 591.604,97.365 578.368,97.365 590.362,100.587 590.354,100.606 589.073,103.912 589.047,103.983 575.797,103.983 
		587.797,107.203 587.787,107.229 586.508,110.532 586.479,110.604 573.248,110.604 585.23,113.817 585.217,113.849 583.938,117.15 
		583.921,117.198 570.671,117.198 583.569,120.469 584.858,123.771 571.599,123.771 586.15,127.087 586.15,127.089 587.436,130.394 
		574.172,130.394 588.736,133.711 588.736,133.713 590.022,137.012 590.024,137.014 576.76,137.014 591.319,140.331 
		591.321,140.331 592.575,143.545 579.351,143.545 593.867,146.852 593.906,146.951 595.16,150.165 581.932,150.165 
		596.448,153.474 596.487,153.571 597.741,156.785 584.513,156.785 599.034,160.094 599.072,160.192 600.326,163.407 
		587.094,163.407 601.615,166.716 601.654,166.812 602.909,170.028 589.675,170.028 604.2,173.336 604.239,173.433 605.492,176.646 
		592.257,176.646 606.789,179.958 606.824,180.049 606.816,180.049 608.074,183.269 594.838,183.269 609.37,186.58 609.405,186.671 
		610.659,189.891 597.419,189.891 610.197,192.8 610.811,190.285 610.816,190.297 612.104,185.079 586.427,119.289 618.026,37.799 
		614.708,37.799 601.44,37.799 613.458,41.022 612.177,44.33 	"/>
	<polygon points="609.275,196.603 599.982,196.603 608.776,198.604 	"/>
	<polygon points="602.566,203.222 607.373,204.318 607.643,203.222 	"/>
	<polygon points="552.707,41.022 553.695,44.33 540.441,44.33 554.655,47.547 554.683,47.645 555.642,50.856 542.405,50.856 
		556.599,54.072 556.656,54.263 557.645,57.568 544.389,57.568 558.605,60.79 558.634,60.886 559.62,64.189 559.892,65.098 
		561.549,59.54 555.063,37.799 551.752,37.799 551.746,37.799 538.485,37.799 552.707,41.022 	"/>
	<polygon points="559.868,65.096 559.597,64.189 546.33,64.189 559.284,67.126 	"/>
	<polygon points="558.188,70.81 548.294,70.81 557.566,72.911 	"/>
	<polygon points="556.216,77.43 550.301,77.43 555.844,78.684 	"/>
	<polygon points="559.886,173.391 558.852,170.122 547.671,170.122 559.87,173.437 558.811,176.742 545.55,176.742 557.749,180.057 
		556.693,183.358 543.426,183.358 555.63,186.677 554.574,189.979 541.311,189.979 553.511,193.293 552.451,196.597 
		539.188,196.597 551.39,199.911 550.195,203.64 536.929,203.64 549.132,206.958 552.447,206.958 561.549,178.559 559.888,173.381 	
		"/>
	<polygon points="557.381,165.567 556.729,163.504 549.794,163.504 	"/>
	<polygon points="551.915,156.886 554.854,157.684 554.609,156.886 	"/>
	<polygon points="920.592,37.799 933.854,41.022 933.854,44.33 933.854,44.724 920.592,44.724 933.854,47.947 933.854,50.948 
		933.854,51.646 920.592,51.646 933.854,54.868 933.854,57.568 933.854,58.567 920.592,58.567 933.854,61.793 937.176,61.793 
		937.176,37.799 933.854,37.799 	"/>
	<polygon points="892.743,108.956 892.743,62.622 889.429,62.622 889.429,64.189 876.173,64.189 889.429,67.411 889.429,67.507 
		889.429,70.81 889.429,71.112 876.173,71.112 889.429,74.336 889.429,77.43 889.429,78.037 876.173,78.037 889.429,81.257 
		889.429,84.05 889.429,84.962 876.173,84.962 889.429,88.182 889.429,90.674 889.429,91.885 876.173,91.885 889.429,95.106 
		889.429,97.292 889.429,98.81 876.173,98.81 889.429,102.029 889.429,103.912 889.429,105.73 876.173,105.73 889.429,108.954 
		889.429,108.956 	"/>
	<polygon points="892.743,182.134 892.743,134.613 889.429,134.613 889.429,137.012 889.429,137.367 876.173,137.367 
		889.429,140.589 889.429,143.636 889.429,144.29 876.173,144.29 889.429,147.512 889.429,150.254 889.429,151.215 876.173,151.215 
		889.429,154.437 889.429,156.876 889.429,158.14 876.173,158.14 889.429,161.361 889.429,163.496 889.429,165.062 876.173,165.062 
		889.429,168.282 889.429,170.116 889.429,171.987 876.173,171.987 889.429,175.207 889.429,176.738 889.429,178.91 876.173,178.91 
		889.429,182.132 889.429,182.134 	"/>
	<polygon points="933.854,182.962 920.592,182.962 933.854,186.186 933.854,186.671 933.854,189.887 920.592,189.887 
		933.854,193.108 933.854,193.295 933.854,196.597 933.854,196.81 920.592,196.81 933.854,200.033 933.854,203.218 933.854,203.732 
		920.592,203.732 933.854,206.958 933.854,206.958 937.176,206.958 937.176,182.962 933.857,182.962 	"/>
	<path d="M466.177,47.977h-3.317c6.496,0,12.157,1.034,17.077,2.971h-13.269l19.573,3.315c1.518,0.992,2.958,2.094,4.301,3.305l0,0
		h-12.549l15.778,3.309c0.004,0.004,0.005,0.007,0.009,0.009c0.897,1.044,1.762,2.141,2.568,3.301h-13.306l15.42,3.278
		c0.009,0.016,0.018,0.027,0.024,0.041c0.602,1.054,1.153,2.174,1.693,3.303h0.002h-13.232l14.664,3.3
		c0.002,0.004,0.003,0.012,0.007,0.018c0.439,1.086,0.893,2.156,1.284,3.303l0,0h-13.26l14.252,3.312c0,0.002,0,0.002,0,0.004
		c0.315,1.082,0.623,2.175,0.901,3.305c0,0,0.001,0,0.001,0.002h-13.247l13.987,3.312c0,0,0,0.002,0,0.004
		c0.225,1.081,0.436,2.184,0.63,3.306h-0.002h-13.265l13.784,3.269c0.002,0.016,0.006,0.03,0.007,0.046
		c0.153,1.087,0.302,2.188,0.43,3.304l0.002,0.002h-13.233l13.573,3.283c0.002,0.01,0.002,0.018,0.003,0.029
		c0.098,1.091,0.196,2.188,0.277,3.306c0,0,0,0,0,0.002h-13.258l13.45,3.318c0.06,1.097,0.121,2.18,0.164,3.3v0.002h-13.263
		l13.321,3.316c0.016,1.101,0.056,2.178,0.06,3.3c0,0.002,0,0.006,0,0.006h-13.264l13.206,3.318
		c-0.009,1.104-0.022,2.215-0.053,3.297c0,0.002-0.002,0.004-0.002,0.006l-12.771,0.125l12.626,3.169c0,0.004,0,0.012-0.002,0.018
		c-0.052,1.112-0.113,2.216-0.188,3.305c0,0-0.001,0.002-0.001,0.004h-13.256l12.998,3.308c-0.001,0.002-0.003,0-0.003,0.008
		c-0.094,1.114-0.221,2.208-0.342,3.299c0,0.004-0.002,0.004-0.002,0.008h-13.274l12.878,3.294c0,0.006-0.001,0.014-0.001,0.018
		c-0.158,1.119-0.341,2.212-0.529,3.305c0,0.002,0,0.002,0,0.002h-13.26l12.669,3.306c0,0.002,0,0.006,0,0.008
		c-0.228,1.121-0.479,2.214-0.737,3.303c0,0.002,0,0.006,0,0.006h-13.258l12.4,3.306c-0.001,0.002-0.001,0.004-0.001,0.006
		c-0.311,1.123-0.631,2.228-0.984,3.305c-0.002,0-0.002,0.002-0.004,0.008h-13.264l12.047,3.312c-0.437,1.12-0.866,2.244-1.342,3.3
		c0,0.002-0.002,0.004-0.003,0.006H487.25l11.562,3.316c-0.626,1.149-1.303,2.236-1.994,3.298l-0.006,0.006h-13.267l10.88,3.305
		v0.006c-0.938,1.159-1.912,2.273-2.958,3.306c-0.002,0.002-0.006,0.004-0.007,0.006h-13.238l9.377,3.281
		c-0.013,0.008-0.022,0.018-0.033,0.023c-1.728,1.268-3.603,2.356-5.587,3.306c-0.009,0.004-0.016,0.006-0.023,0.012h-13.243
		l6.973,2.321c-1.452,0.399-2.956,0.731-4.522,0.983c-2.652,0.433-5.412,0.728-8.407,0.728h3.317
		c34.057,0,45.443-28.599,45.46-70.023C511.517,75.957,500.235,47.977,466.177,47.977z"/>
	<polygon points="778.25,156.876 765.259,156.876 777.059,159.744 776.841,160.192 775.227,163.479 775.227,163.496 
		775.227,163.543 761.982,163.543 775.227,166.761 775.227,166.812 775.227,170.116 775.227,170.24 761.982,170.24 775.227,173.46 
		775.227,176.738 775.227,176.939 761.982,176.939 775.227,180.157 775.227,183.354 775.227,183.64 761.982,183.64 775.227,186.855 
		775.227,189.975 775.227,190.337 761.982,190.337 775.227,193.553 775.227,196.597 775.227,197.035 761.982,197.035 
		775.227,200.253 775.227,203.218 775.227,203.732 761.982,203.732 775.227,206.95 775.227,206.958 778.537,206.958 
		778.537,163.479 779.82,160.876 778.348,157.122 	"/>
	<polygon points="768.449,150.254 776.41,152.189 775.649,150.254 	"/>
	<polygon points="775.227,77.43 775.227,77.465 761.982,77.465 774.784,80.58 778.537,72.413 778.537,37.799 775.25,37.799 
		775.227,37.799 761.982,37.799 775.227,41.017 775.227,41.022 775.227,44.33 775.227,44.409 761.982,44.409 775.227,47.629 
		775.227,47.645 775.227,50.948 775.227,51.021 761.982,51.021 775.227,54.241 775.227,54.263 775.227,57.568 775.227,57.634 
		761.982,57.634 775.227,60.852 775.227,60.886 775.227,64.189 775.227,64.242 761.982,64.242 775.227,67.462 775.227,67.507 
		775.227,70.81 775.227,70.856 761.982,70.856 775.227,74.072 775.227,74.127 	"/>
	<polygon points="773.143,84.077 761.959,84.077 772.013,86.521 	"/>
	<polygon points="770.079,90.689 761.959,90.689 769.261,92.463 	"/>
	<polygon points="767.021,97.3 761.959,97.3 766.509,98.406 	"/>
	<polygon points="658.197,176.736 644.938,176.736 657.553,179.958 656.854,183.484 643.597,183.484 656.213,186.708 
		655.515,190.232 642.255,190.232 654.872,193.458 654.176,196.982 640.932,196.982 653.535,200.206 652.836,203.732 
		639.577,203.732 652.196,206.958 655.515,206.958 662.001,174.289 658.682,174.289 	"/>
	<polygon points="669.626,120.117 669.011,117.15 657.427,117.15 	"/>
	<polygon points="668.124,112.803 667.664,110.532 658.781,110.532 	"/>
	<polygon points="666.624,105.485 666.306,103.912 660.138,103.912 	"/>
	<polygon points="665.129,98.173 664.943,97.292 661.494,97.292 	"/>
	<polygon points="678.369,37.799 692.413,41.022 692.419,41.022 693.225,44.33 693.243,44.423 679.98,44.423 694.021,47.645 
		694.827,50.948 694.858,51.074 681.62,51.074 695.639,54.292 696.438,57.568 696.473,57.711 683.233,57.711 697.253,60.929 
		698.045,64.189 698.084,64.349 684.855,64.349 698.864,67.564 699.658,70.81 699.698,70.986 686.453,70.986 700.479,74.204 
		701.267,77.43 701.31,77.622 688.065,77.622 702.094,80.844 702.874,84.05 702.924,84.262 689.659,84.262 703.706,87.483 
		704.48,90.674 704.535,90.898 691.291,90.898 705.317,94.118 706.092,97.292 706.149,97.534 692.908,97.534 706.932,100.754 
		707.698,103.912 707.765,104.172 694.526,104.172 708.539,107.386 709.308,110.532 709.371,110.812 696.124,110.812 
		710.157,114.029 710.914,117.15 710.99,117.447 697.729,117.447 711.772,120.671 712.523,123.771 712.598,124.084 699.363,124.084 
		713.387,127.302 714.135,130.394 714.212,130.722 701.005,130.722 714.992,133.932 715.733,137.012 715.741,137.012 
		715.826,137.359 702.603,137.359 716.606,140.573 717.349,143.636 717.438,143.997 704.248,143.997 718.22,147.203 
		718.959,150.254 719.053,150.635 705.843,150.635 719.832,153.847 720.566,156.876 720.568,156.876 720.663,157.27 707.403,157.27 
		721.445,160.493 722.183,163.496 722.281,163.909 709.084,163.909 723.058,167.113 723.788,170.116 723.889,170.549 
		710.678,170.549 724.671,173.755 725.391,176.738 725.395,176.738 725.504,177.185 712.275,177.185 726.285,180.398 
		727.002,183.354 727.006,183.354 727.118,183.822 713.874,183.822 727.898,187.04 728.608,189.975 728.726,190.458 715.47,190.458 
		729.511,193.681 730.216,196.597 730.416,197.409 717.158,197.409 731.209,200.654 731.209,187.005 694.955,37.799 	"/>
	<polygon points="731.209,206.958 731.209,203.732 718.68,203.732 	"/>
</g>
</svg>
