<?xml version="1.0" encoding="utf-8"?>
<!-- Generator: Adobe Illustrator 16.0.0, SVG Export Plug-In . SVG Version: 6.00 Build 0)  -->
<!DOCTYPE svg PUBLIC "-//W3C//DTD SVG 1.1//EN" "http://www.w3.org/Graphics/SVG/1.1/DTD/svg11.dtd">
<svg version="1.1" id="Layer_1" xmlns="http://www.w3.org/2000/svg" xmlns:xlink="http://www.w3.org/1999/xlink" x="0px" y="0px"
	 width="1046px" height="148.141px" viewBox="0 0 1046 148.141" enable-background="new 0 0 1046 148.141" xml:space="preserve">
<g>
	<path fill="#231F20" d="M265.593,18.717V1.934l-5.332,11.761h-1.215l-5.299-11.761v16.783H252V0h2.586l5.083,10.949L264.784,0
		h2.558v18.717H265.593z"/>
	<path fill="#231F20" d="M272.145,18.717V0h10.726v1.75h-8.919v6.737h8.452v1.743h-8.452v6.74h8.919v1.746H272.145z"/>
	<path fill="#231F20" d="M299.454,16.067c-0.34,0.528-1.559,1.807-2.122,2.15c-0.433,0.279-1.088,0.499-1.587,0.499h-8.232V0h8.232
		c0.5,0,1.155,0.191,1.587,0.471c0.563,0.344,1.781,1.68,2.122,2.214c0.283,0.439,0.372,0.968,0.372,1.495v10.39
		C299.826,15.1,299.737,15.628,299.454,16.067z M297.924,3.779c-0.401-0.719-1.432-1.687-1.931-1.935
		c-0.092-0.063-0.248-0.095-0.404-0.095h-6.267v15.221h6.267c0.156,0,0.312-0.032,0.404-0.096c0.5-0.248,1.53-1.247,1.931-1.963
		c0.063-0.124,0.095-0.251,0.095-0.403V4.243C298.019,4.084,297.988,3.9,297.924,3.779z"/>
	<path fill="#231F20" d="M304.467,18.717V0h1.81v18.717H304.467z"/>
	<path fill="#231F20" d="M322.154,14.381h-8.671l-1.435,4.336h-1.902L316.415,0h2.806l6.27,18.717h-1.934L322.154,14.381z
		 M321.591,12.635l-3.588-10.854h-0.404l-3.557,10.854H321.591z"/>
	<path fill="#231F20" d="M343.072,18.717V3.836l-4.896,10.049h-1.686l-4.835-10.049v14.881h-2.526V0h3.245l4.988,10.198L342.385,0
		h3.178v18.717H343.072z"/>
	<path fill="#231F20" d="M350.009,18.717V0h11.477v2.437h-8.919v5.707h8.417v2.43h-8.417v5.71h8.919v2.434H350.009z"/>
	<path fill="#231F20" d="M378.393,16.004c-0.372,0.56-1.622,1.81-2.246,2.182c-0.5,0.28-1.183,0.531-1.778,0.531h-8.604V0h8.604
		c0.563,0,1.279,0.191,1.778,0.503c0.624,0.375,1.874,1.711,2.246,2.245c0.344,0.496,0.436,1.057,0.436,1.616v10.017
		C378.829,14.941,378.737,15.504,378.393,16.004z M376.271,4.428c0-0.121,0-0.185-0.029-0.248c-0.314-0.655-1.339-1.495-1.81-1.711
		c-0.064-0.032-0.096-0.032-0.22-0.032h-5.895v13.847h5.895c0.124,0,0.188-0.031,0.22-0.031c0.499-0.248,1.838-1.403,1.838-1.932
		V4.428z"/>
	<path fill="#231F20" d="M383.199,18.717V0h2.558v18.717H383.199z"/>
	<path fill="#231F20" d="M402.88,18.717l-1.403-4.177h-8.108l-1.435,4.177h-2.71L395.739,0h3.365l6.521,18.717H402.88z
		 M397.425,2.621l-3.245,9.512h6.483L397.425,2.621z"/>
	<path fill="#231F20" d="M421.991,18.717V5.961l-3.709,8.172h-2.154l-3.712-8.146v12.73h-3.273V0.063h3.741l4.368,9.199l4.304-9.199
		h3.709v18.653H421.991z"/>
	<path fill="#231F20" d="M429.788,18.717V0.063h11.725v3.117h-8.452v4.708h7.86v3.124h-7.86v4.584h8.452v3.12H429.788z"/>
	<path fill="#231F20" d="M458.518,15.972c-0.375,0.563-1.619,1.81-2.306,2.183c-0.5,0.279-1.218,0.562-1.874,0.562h-8.541V0.063
		h8.541c0.595,0,1.374,0.191,1.905,0.528c0.684,0.407,1.868,1.75,2.243,2.277c0.407,0.561,0.5,1.189,0.5,1.781v9.547
		C458.986,14.757,458.894,15.412,458.518,15.972z M454.122,15.597c0,0,0.185,0,0.216-0.032c0.439-0.248,1.374-1.056,1.374-1.432
		V4.74c0,0,0-0.09-0.032-0.153c-0.375-0.623-0.999-1.184-1.374-1.374c-0.029-0.032-0.216-0.032-0.277-0.032h-4.959v12.416H454.122z"
		/>
	<path fill="#231F20" d="M463.388,18.717V0.063h3.276v18.653H463.388z"/>
	<path fill="#231F20" d="M483.263,18.717l-1.375-3.96h-7.078l-1.374,3.96h-3.49l6.518-18.653h3.804l6.483,18.653H483.263z
		 M478.365,4.275l-2.522,7.36h5.02L478.365,4.275z"/>
	<path fill="#231F20" d="M502.737,18.717V7.456c-1.062,2.278-2.185,4.556-3.248,6.801h-2.494l-3.212-6.769v11.229h-3.805V0h4.148
		l4.18,8.487c1.375-2.812,2.745-5.707,4.116-8.487h4.116v18.717H502.737z"/>
	<path fill="#231F20" d="M510.515,18.717V0H522.8v3.652h-8.48v3.836h8.201v3.646h-8.201v3.935h8.48v3.648H510.515z"/>
	<path fill="#231F20" d="M539.948,15.908c-0.437,0.627-1.623,1.813-2.307,2.214c-0.528,0.283-1.282,0.595-1.997,0.595h-9.076V0
		h9.076c0.655,0,1.469,0.191,2.061,0.566c0.685,0.433,1.839,1.775,2.214,2.271c0.433,0.623,0.528,1.278,0.528,1.934v9.234
		C540.448,14.569,540.321,15.316,539.948,15.908z M536.643,4.931c-0.283-0.688-0.687-0.999-1.151-1.278h-5.118v11.416h5.118
		c0.433-0.248,0.84-0.592,1.151-1.184V4.931z"/>
	<path fill="#231F20" d="M544.293,18.717V0h3.833v18.717H544.293z"/>
	<path fill="#231F20" d="M564.289,18.717l-1.247-3.585h-6.518c-0.404,1.151-0.872,2.431-1.279,3.585h-4.053L557.679,0h4.212
		l6.454,18.717H564.289z M559.769,5.459c-0.688,1.997-1.402,4.026-2.09,6.018h4.212L559.769,5.459z"/>
	<path fill="#231F20" d="M584.355,18.717V5.961l-3.712,8.172h-2.15l-3.716-8.146v12.73h-3.271V0.063h3.741l4.364,9.199l4.308-9.199
		h3.709v18.653H584.355z"/>
	<path fill="#231F20" d="M592.151,18.717V0.063h11.723v3.117h-8.452v4.708h7.863v3.124h-7.863v4.584h8.452v3.12H592.151z"/>
	<path fill="#231F20" d="M620.882,15.972c-0.376,0.563-1.623,1.81-2.307,2.183c-0.499,0.279-1.219,0.562-1.874,0.562h-8.544V0.063
		h8.544c0.592,0,1.375,0.191,1.902,0.528c0.688,0.407,1.874,1.75,2.246,2.277c0.407,0.561,0.503,1.189,0.503,1.781v9.547
		C621.353,14.757,621.257,15.412,620.882,15.972z M616.486,15.597c0,0,0.185,0,0.216-0.032c0.439-0.248,1.375-1.056,1.375-1.432
		V4.74c0,0,0-0.09-0.032-0.153c-0.372-0.623-0.999-1.184-1.374-1.374c-0.032-0.032-0.217-0.032-0.28-0.032h-4.956v12.416H616.486z"
		/>
	<path fill="#231F20" d="M625.755,18.717V0.063h3.27v18.653H625.755z"/>
	<path fill="#231F20" d="M645.62,18.717l-1.368-3.96h-7.081l-1.371,3.96h-3.492l6.521-18.653h3.802l6.482,18.653H645.62z
		 M640.728,4.275l-2.522,7.36h5.017L640.728,4.275z"/>
	<path fill="#231F20" d="M666.341,18.717V3.836l-4.898,10.049h-1.68l-4.835-10.049v14.881h-2.526V0h3.245l4.994,10.198L665.654,0
		h3.182v18.717H666.341z"/>
	<path fill="#231F20" d="M673.281,18.717V0h11.471v2.437h-8.913v5.707h8.417v2.43h-8.417v5.71h8.913v2.434H673.281z"/>
	<path fill="#231F20" d="M701.669,16.004c-0.376,0.56-1.623,1.81-2.246,2.182c-0.503,0.28-1.189,0.531-1.781,0.531h-8.607V0h8.607
		c0.56,0,1.278,0.191,1.781,0.503c0.623,0.375,1.87,1.711,2.246,2.245c0.337,0.496,0.433,1.057,0.433,1.616v10.017
		C702.102,14.941,702.006,15.504,701.669,16.004z M699.544,4.428c0-0.121,0-0.185-0.032-0.248c-0.312-0.655-1.342-1.495-1.807-1.711
		c-0.063-0.032-0.089-0.032-0.217-0.032h-5.897v13.847h5.897c0.128,0,0.185-0.031,0.217-0.031c0.496-0.248,1.839-1.403,1.839-1.932
		V4.428z"/>
	<path fill="#231F20" d="M706.472,18.717V0h2.558v18.717H706.472z"/>
	<path fill="#231F20" d="M726.156,18.717l-1.405-4.177h-8.105l-1.438,4.177h-2.717L719.012,0h3.371l6.515,18.717H726.156z
		 M720.698,2.621l-3.245,9.512h6.489L720.698,2.621z"/>
	<path fill="#231F20" d="M746.107,18.717V1.934l-5.331,11.761h-1.222l-5.3-11.761v16.783h-1.749V0h2.589l5.09,10.949L745.292,0
		h2.558v18.717H746.107z"/>
	<path fill="#231F20" d="M752.654,18.717V0h10.732v1.75h-8.919v6.737h8.448v1.743h-8.448v6.74h8.919v1.746H752.654z"/>
	<path fill="#231F20" d="M779.965,16.067c-0.337,0.528-1.559,1.807-2.118,2.15c-0.439,0.279-1.088,0.499-1.591,0.499h-8.232V0h8.232
		c0.503,0,1.151,0.191,1.591,0.471c0.56,0.344,1.781,1.68,2.118,2.214c0.28,0.439,0.375,0.968,0.375,1.495v10.39
		C780.34,15.1,780.245,15.628,779.965,16.067z M778.439,3.779c-0.407-0.719-1.432-1.687-1.935-1.935
		c-0.096-0.063-0.248-0.095-0.4-0.095h-6.273v15.221h6.273c0.152,0,0.305-0.032,0.4-0.096c0.503-0.248,1.527-1.247,1.935-1.963
		c0.063-0.124,0.095-0.251,0.095-0.403V4.243C778.533,4.084,778.502,3.9,778.439,3.779z"/>
	<path fill="#231F20" d="M784.979,18.717V0h1.807v18.717H784.979z"/>
	<path fill="#231F20" d="M802.658,14.381h-8.665l-1.432,4.336h-1.908L796.92,0h2.812l6.267,18.717h-1.934L802.658,14.381z
		 M802.105,12.635l-3.588-10.854h-0.407l-3.557,10.854H802.105z"/>
	<path fill="#231F20" d="M265.593,44.718V27.938l-5.332,11.757h-1.215l-5.299-11.757v16.779H252V26.005h2.586l5.083,10.948
		l5.115-10.948h2.558v18.713H265.593z"/>
	<path fill="#231F20" d="M272.145,44.718V26.005h10.726v1.749h-8.919v6.737h8.452v1.743h-8.452v6.737h8.919v1.746H272.145z"/>
	<path fill="#231F20" d="M299.454,42.068c-0.34,0.528-1.559,1.807-2.122,2.15c-0.433,0.28-1.088,0.499-1.587,0.499h-8.232V26.005
		h8.232c0.5,0,1.155,0.19,1.587,0.471c0.563,0.343,1.781,1.686,2.122,2.214c0.283,0.438,0.372,0.967,0.372,1.495V40.57
		C299.826,41.102,299.737,41.629,299.454,42.068z M297.924,29.783c-0.401-0.719-1.432-1.686-1.931-1.934
		c-0.092-0.063-0.248-0.096-0.404-0.096h-6.267v15.218h6.267c0.156,0,0.312-0.032,0.404-0.096c0.5-0.248,1.53-1.247,1.931-1.962
		c0.063-0.124,0.095-0.252,0.095-0.404V30.248C298.019,30.092,297.988,29.904,297.924,29.783z"/>
	<path fill="#231F20" d="M304.467,44.718V26.005h1.81v18.713H304.467z"/>
	<path fill="#231F20" d="M322.154,40.383h-8.671l-1.435,4.335h-1.902l6.27-18.713h2.806l6.27,18.713h-1.934L322.154,40.383z
		 M321.591,38.636l-3.588-10.85h-0.404l-3.557,10.85H321.591z"/>
	<path fill="#231F20" d="M343.072,44.718V29.844l-4.896,10.043h-1.686l-4.835-10.043v14.874h-2.526V26.005h3.245l4.988,10.198
		l5.023-10.198h3.178v18.713H343.072z"/>
	<path fill="#231F20" d="M350.009,44.718V26.005h11.477v2.437h-8.919v5.706h8.417v2.431h-8.417v5.707h8.919v2.433H350.009z"/>
	<path fill="#231F20" d="M378.393,42.005c-0.372,0.56-1.622,1.81-2.246,2.182c-0.5,0.283-1.183,0.531-1.778,0.531h-8.604V26.005
		h8.604c0.563,0,1.279,0.19,1.778,0.502c0.624,0.376,1.874,1.715,2.246,2.246c0.344,0.496,0.436,1.06,0.436,1.622v10.008
		C378.829,40.945,378.737,41.509,378.393,42.005z M376.271,30.436c0-0.124,0-0.188-0.029-0.251c-0.314-0.655-1.339-1.495-1.81-1.712
		c-0.064-0.031-0.096-0.031-0.22-0.031h-5.895v13.844h5.895c0.124,0,0.188-0.032,0.22-0.032c0.499-0.248,1.838-1.399,1.838-1.931
		V30.436z"/>
	<path fill="#231F20" d="M383.199,44.718V26.005h2.558v18.713H383.199z"/>
	<path fill="#231F20" d="M402.88,44.718l-1.403-4.177h-8.108l-1.435,4.177h-2.71l6.515-18.713h3.365l6.521,18.713H402.88z
		 M397.425,28.626l-3.245,9.511h6.483L397.425,28.626z"/>
	<path fill="#231F20" d="M421.991,44.718V31.966l-3.709,8.169h-2.154l-3.712-8.141v12.724h-3.273V26.068h3.741l4.368,9.199
		l4.304-9.199h3.709v18.649H421.991z"/>
	<path fill="#231F20" d="M429.788,44.718V26.068h11.725v3.12h-8.452v4.711h7.86v3.117h-7.86v4.584h8.452v3.117H429.788z"/>
	<path fill="#231F20" d="M458.518,41.973c-0.375,0.563-1.619,1.811-2.306,2.183c-0.5,0.283-1.218,0.562-1.874,0.562h-8.541V26.068
		h8.541c0.595,0,1.374,0.19,1.905,0.531c0.684,0.403,1.868,1.746,2.243,2.274c0.407,0.562,0.5,1.189,0.5,1.781v9.543
		C458.986,40.758,458.894,41.413,458.518,41.973z M454.122,41.601c0,0,0.185,0,0.216-0.031c0.439-0.252,1.374-1.06,1.374-1.435
		v-9.388c0,0,0-0.092-0.032-0.155c-0.375-0.624-0.999-1.184-1.374-1.375c-0.029-0.028-0.216-0.028-0.277-0.028h-4.959v12.412
		H454.122z"/>
	<path fill="#231F20" d="M463.388,44.718V26.068h3.276v18.649H463.388z"/>
	<path fill="#231F20" d="M483.263,44.718l-1.375-3.96h-7.078l-1.374,3.96h-3.49l6.518-18.649h3.804l6.483,18.649H483.263z
		 M478.365,30.279l-2.522,7.361h5.02L478.365,30.279z"/>
	<path fill="#231F20" d="M502.737,44.718V33.461c-1.062,2.277-2.185,4.555-3.248,6.801h-2.494l-3.212-6.77v11.226h-3.805V26.005
		h4.148l4.18,8.486c1.375-2.809,2.745-5.706,4.116-8.486h4.116v18.713H502.737z"/>
	<path fill="#231F20" d="M510.515,44.718V26.005H522.8v3.651h-8.48v3.836h8.201v3.646h-8.201v3.932h8.48v3.648H510.515z"/>
	<path fill="#231F20" d="M539.948,41.909c-0.437,0.627-1.623,1.813-2.307,2.214c-0.528,0.283-1.282,0.595-1.997,0.595h-9.076V26.005
		h9.076c0.655,0,1.469,0.19,2.061,0.565c0.685,0.433,1.839,1.775,2.214,2.274c0.433,0.624,0.528,1.279,0.528,1.935v9.228
		C540.448,40.57,540.321,41.317,539.948,41.909z M536.643,30.936c-0.283-0.688-0.687-0.999-1.151-1.279h-5.118v11.413h5.118
		c0.433-0.248,0.84-0.592,1.151-1.183V30.936z"/>
	<path fill="#231F20" d="M544.293,44.718V26.005h3.833v18.713H544.293z"/>
	<path fill="#231F20" d="M564.289,44.718l-1.247-3.585h-6.518c-0.404,1.152-0.872,2.431-1.279,3.585h-4.053l6.486-18.713h4.212
		l6.454,18.713H564.289z M559.769,31.463c-0.688,1.998-1.402,4.027-2.09,6.021h4.212L559.769,31.463z"/>
	<path fill="#231F20" d="M584.355,44.718V31.966l-3.712,8.169h-2.15l-3.716-8.141v12.724h-3.271V26.068h3.741l4.364,9.199
		l4.308-9.199h3.709v18.649H584.355z"/>
	<path fill="#231F20" d="M592.151,44.718V26.068h11.723v3.12h-8.452v4.711h7.863v3.117h-7.863v4.584h8.452v3.117H592.151z"/>
	<path fill="#231F20" d="M620.882,41.973c-0.376,0.563-1.623,1.811-2.307,2.183c-0.499,0.283-1.219,0.562-1.874,0.562h-8.544V26.068
		h8.544c0.592,0,1.375,0.19,1.902,0.531c0.688,0.403,1.874,1.746,2.246,2.274c0.407,0.562,0.503,1.189,0.503,1.781v9.543
		C621.353,40.758,621.257,41.413,620.882,41.973z M616.486,41.601c0,0,0.185,0,0.216-0.031c0.439-0.252,1.375-1.06,1.375-1.435
		v-9.388c0,0,0-0.092-0.032-0.155c-0.372-0.624-0.999-1.184-1.374-1.375c-0.032-0.028-0.217-0.028-0.28-0.028h-4.956v12.412H616.486
		z"/>
	<path fill="#231F20" d="M625.755,44.718V26.068h3.27v18.649H625.755z"/>
	<path fill="#231F20" d="M645.62,44.718l-1.368-3.96h-7.081l-1.371,3.96h-3.492l6.521-18.649h3.802l6.482,18.649H645.62z
		 M640.728,30.279l-2.522,7.361h5.017L640.728,30.279z"/>
	<path fill="#231F20" d="M666.341,44.718V29.844l-4.898,10.043h-1.68l-4.835-10.043v14.874h-2.526V26.005h3.245l4.994,10.198
		l5.013-10.198h3.182v18.713H666.341z"/>
	<path fill="#231F20" d="M673.281,44.718V26.005h11.471v2.437h-8.913v5.706h8.417v2.431h-8.417v5.707h8.913v2.433H673.281z"/>
	<path fill="#231F20" d="M701.669,42.005c-0.376,0.56-1.623,1.81-2.246,2.182c-0.503,0.283-1.189,0.531-1.781,0.531h-8.607V26.005
		h8.607c0.56,0,1.278,0.19,1.781,0.502c0.623,0.376,1.87,1.715,2.246,2.246c0.337,0.496,0.433,1.06,0.433,1.622v10.008
		C702.102,40.945,702.006,41.509,701.669,42.005z M699.544,30.436c0-0.124,0-0.188-0.032-0.251
		c-0.312-0.655-1.342-1.495-1.807-1.712c-0.063-0.031-0.089-0.031-0.217-0.031h-5.897v13.844h5.897c0.128,0,0.185-0.032,0.217-0.032
		c0.496-0.248,1.839-1.399,1.839-1.931V30.436z"/>
	<path fill="#231F20" d="M706.472,44.718V26.005h2.558v18.713H706.472z"/>
	<path fill="#231F20" d="M726.156,44.718l-1.405-4.177h-8.105l-1.438,4.177h-2.717l6.521-18.713h3.371l6.515,18.713H726.156z
		 M720.698,28.626l-3.245,9.511h6.489L720.698,28.626z"/>
	<path fill="#231F20" d="M746.107,44.718V27.938l-5.331,11.757h-1.222l-5.3-11.757v16.779h-1.749V26.005h2.589l5.09,10.948
		l5.108-10.948h2.558v18.713H746.107z"/>
	<path fill="#231F20" d="M752.654,44.718V26.005h10.732v1.749h-8.919v6.737h8.448v1.743h-8.448v6.737h8.919v1.746H752.654z"/>
	<path fill="#231F20" d="M779.965,42.068c-0.337,0.528-1.559,1.807-2.118,2.15c-0.439,0.28-1.088,0.499-1.591,0.499h-8.232V26.005
		h8.232c0.503,0,1.151,0.19,1.591,0.471c0.56,0.343,1.781,1.686,2.118,2.214c0.28,0.438,0.375,0.967,0.375,1.495V40.57
		C780.34,41.102,780.245,41.629,779.965,42.068z M778.439,29.783c-0.407-0.719-1.432-1.686-1.935-1.934
		c-0.096-0.063-0.248-0.096-0.4-0.096h-6.273v15.218h6.273c0.152,0,0.305-0.032,0.4-0.096c0.503-0.248,1.527-1.247,1.935-1.962
		c0.063-0.124,0.095-0.252,0.095-0.404V30.248C778.533,30.092,778.502,29.904,778.439,29.783z"/>
	<path fill="#231F20" d="M784.979,44.718V26.005h1.807v18.713H784.979z"/>
	<path fill="#231F20" d="M802.658,40.383h-8.665l-1.432,4.335h-1.908l6.267-18.713h2.812l6.267,18.713h-1.934L802.658,40.383z
		 M802.105,38.636l-3.588-10.85h-0.407l-3.557,10.85H802.105z"/>
	<path fill="#231F20" d="M265.593,70.72v-16.78l-5.332,11.757h-1.215l-5.299-11.757v16.78H252V52.009h2.586l5.083,10.946
		l5.115-10.946h2.558V70.72H265.593z"/>
	<path fill="#231F20" d="M272.145,70.72V52.009h10.726v1.746h-8.919v6.737h8.452v1.743h-8.452v6.737h8.919v1.747H272.145z"/>
	<path fill="#231F20" d="M299.454,68.069c-0.34,0.528-1.559,1.808-2.122,2.15c-0.433,0.28-1.088,0.5-1.587,0.5h-8.232V52.009h8.232
		c0.5,0,1.155,0.188,1.587,0.468c0.563,0.344,1.781,1.686,2.122,2.214c0.283,0.439,0.372,0.967,0.372,1.495v10.386
		C299.826,67.103,299.737,67.631,299.454,68.069z M297.924,55.785c-0.401-0.719-1.432-1.687-1.931-1.935
		c-0.092-0.063-0.248-0.096-0.404-0.096h-6.267v15.218h6.267c0.156,0,0.312-0.031,0.404-0.092c0.5-0.251,1.53-1.25,1.931-1.966
		c0.063-0.124,0.095-0.251,0.095-0.404V56.249C298.019,56.094,297.988,55.905,297.924,55.785z"/>
	<path fill="#231F20" d="M304.467,70.72V52.009h1.81V70.72H304.467z"/>
	<path fill="#231F20" d="M322.154,66.384h-8.671l-1.435,4.336h-1.902l6.27-18.711h2.806l6.27,18.711h-1.934L322.154,66.384z
		 M321.591,64.641l-3.588-10.854h-0.404l-3.557,10.854H321.591z"/>
	<path fill="#231F20" d="M343.072,70.72V55.846l-4.896,10.042h-1.686l-4.835-10.042V70.72h-2.526V52.009h3.245l4.988,10.195
		l5.023-10.195h3.178V70.72H343.072z"/>
	<path fill="#231F20" d="M350.009,70.72V52.009h11.477v2.434h-8.919v5.707h8.417v2.43h-8.417v5.707h8.919v2.434H350.009z"/>
	<path fill="#231F20" d="M378.393,68.006c-0.372,0.561-1.622,1.811-2.246,2.183c-0.5,0.283-1.183,0.531-1.778,0.531h-8.604V52.009
		h8.604c0.563,0,1.279,0.188,1.778,0.499c0.624,0.376,1.874,1.715,2.246,2.246c0.344,0.496,0.436,1.06,0.436,1.623v10.007
		C378.829,66.947,378.737,67.51,378.393,68.006z M376.271,56.437c0-0.124,0-0.188-0.029-0.251c-0.314-0.652-1.339-1.495-1.81-1.711
		c-0.064-0.032-0.096-0.032-0.22-0.032h-5.895v13.844h5.895c0.124,0,0.188-0.028,0.22-0.028c0.499-0.252,1.838-1.403,1.838-1.935
		V56.437z"/>
	<path fill="#231F20" d="M383.199,70.72V52.009h2.558V70.72H383.199z"/>
	<path fill="#231F20" d="M402.88,70.72l-1.403-4.177h-8.108l-1.435,4.177h-2.71l6.515-18.711h3.365l6.521,18.711H402.88z
		 M397.425,54.627l-3.245,9.511h6.483L397.425,54.627z"/>
	<path fill="#231F20" d="M421.991,70.72V57.967l-3.709,8.169h-2.154l-3.712-8.141V70.72h-3.273V52.072h3.741l4.368,9.199
		l4.304-9.199h3.709V70.72H421.991z"/>
	<path fill="#231F20" d="M429.788,70.72V52.072h11.725v3.117h-8.452V59.9h7.86v3.118h-7.86v4.583h8.452v3.118H429.788z"/>
	<path fill="#231F20" d="M458.518,67.975c-0.375,0.562-1.619,1.81-2.306,2.182c-0.5,0.283-1.218,0.563-1.874,0.563h-8.541V52.072
		h8.541c0.595,0,1.374,0.188,1.905,0.528c0.684,0.404,1.868,1.746,2.243,2.277c0.407,0.563,0.5,1.187,0.5,1.778v9.543
		C458.986,66.759,458.894,67.414,458.518,67.975z M454.122,67.602c0,0,0.185,0,0.216-0.031c0.439-0.251,1.374-1.06,1.374-1.435
		v-9.387c0,0,0-0.093-0.032-0.156c-0.375-0.624-0.999-1.184-1.374-1.374c-0.029-0.029-0.216-0.029-0.277-0.029h-4.959v12.412
		H454.122z"/>
	<path fill="#231F20" d="M463.388,70.72V52.072h3.276V70.72H463.388z"/>
	<path fill="#231F20" d="M483.263,70.72l-1.375-3.961h-7.078l-1.374,3.961h-3.49l6.518-18.647h3.804l6.483,18.647H483.263z
		 M478.365,56.281l-2.522,7.36h5.02L478.365,56.281z"/>
	<path fill="#231F20" d="M502.737,70.72V59.462c-1.062,2.277-2.185,4.556-3.248,6.801h-2.494l-3.212-6.769V70.72h-3.805V52.009
		h4.148l4.18,8.483c1.375-2.805,2.745-5.706,4.116-8.483h4.116V70.72H502.737z"/>
	<path fill="#231F20" d="M510.515,70.72V52.009H522.8v3.648h-8.48v3.837h8.201v3.645h-8.201v3.932h8.48v3.649H510.515z"/>
	<path fill="#231F20" d="M539.948,67.91c-0.437,0.627-1.623,1.813-2.307,2.215c-0.528,0.283-1.282,0.595-1.997,0.595h-9.076V52.009
		h9.076c0.655,0,1.469,0.188,2.061,0.563c0.685,0.433,1.839,1.774,2.214,2.277c0.433,0.62,0.528,1.275,0.528,1.931v9.229
		C540.448,66.571,540.321,67.319,539.948,67.91z M536.643,56.937c-0.283-0.688-0.687-0.999-1.151-1.279h-5.118V67.07h5.118
		c0.433-0.248,0.84-0.591,1.151-1.183V56.937z"/>
	<path fill="#231F20" d="M544.293,70.72V52.009h3.833V70.72H544.293z"/>
	<path fill="#231F20" d="M564.289,70.72l-1.247-3.585h-6.518c-0.404,1.151-0.872,2.43-1.279,3.585h-4.053l6.486-18.711h4.212
		l6.454,18.711H564.289z M559.769,57.465c-0.688,1.997-1.402,4.026-2.09,6.021h4.212L559.769,57.465z"/>
	<path fill="#231F20" d="M584.355,70.72V57.967l-3.712,8.169h-2.15l-3.716-8.141V70.72h-3.271V52.072h3.741l4.364,9.199l4.308-9.199
		h3.709V70.72H584.355z"/>
	<path fill="#231F20" d="M592.151,70.72V52.072h11.723v3.117h-8.452V59.9h7.863v3.118h-7.863v4.583h8.452v3.118H592.151z"/>
	<path fill="#231F20" d="M620.882,67.975c-0.376,0.562-1.623,1.81-2.307,2.182c-0.499,0.283-1.219,0.563-1.874,0.563h-8.544V52.072
		h8.544c0.592,0,1.375,0.188,1.902,0.528c0.688,0.404,1.874,1.746,2.246,2.277c0.407,0.563,0.503,1.187,0.503,1.778v9.543
		C621.353,66.759,621.257,67.414,620.882,67.975z M616.486,67.602c0,0,0.185,0,0.216-0.031c0.439-0.251,1.375-1.06,1.375-1.435
		v-9.387c0,0,0-0.093-0.032-0.156c-0.372-0.624-0.999-1.184-1.374-1.374c-0.032-0.029-0.217-0.029-0.28-0.029h-4.956v12.412H616.486
		z"/>
	<path fill="#231F20" d="M625.755,70.72V52.072h3.27V70.72H625.755z"/>
	<path fill="#231F20" d="M645.62,70.72l-1.368-3.961h-7.081L635.8,70.72h-3.492l6.521-18.647h3.802l6.482,18.647H645.62z
		 M640.728,56.281l-2.522,7.36h5.017L640.728,56.281z"/>
	<path fill="#231F20" d="M666.341,70.72V55.846l-4.898,10.042h-1.68l-4.835-10.042V70.72h-2.526V52.009h3.245l4.994,10.195
		l5.013-10.195h3.182V70.72H666.341z"/>
	<path fill="#231F20" d="M673.281,70.72V52.009h11.471v2.434h-8.913v5.707h8.417v2.43h-8.417v5.707h8.913v2.434H673.281z"/>
	<path fill="#231F20" d="M701.669,68.006c-0.376,0.561-1.623,1.811-2.246,2.183c-0.503,0.283-1.189,0.531-1.781,0.531h-8.607V52.009
		h8.607c0.56,0,1.278,0.188,1.781,0.499c0.623,0.376,1.87,1.715,2.246,2.246c0.337,0.496,0.433,1.06,0.433,1.623v10.007
		C702.102,66.947,702.006,67.51,701.669,68.006z M699.544,56.437c0-0.124,0-0.188-0.032-0.251c-0.312-0.652-1.342-1.495-1.807-1.711
		c-0.063-0.032-0.089-0.032-0.217-0.032h-5.897v13.844h5.897c0.128,0,0.185-0.028,0.217-0.028c0.496-0.252,1.839-1.403,1.839-1.935
		V56.437z"/>
	<path fill="#231F20" d="M706.472,70.72V52.009h2.558V70.72H706.472z"/>
	<path fill="#231F20" d="M726.156,70.72l-1.405-4.177h-8.105l-1.438,4.177h-2.717l6.521-18.711h3.371l6.515,18.711H726.156z
		 M720.698,54.627l-3.245,9.511h6.489L720.698,54.627z"/>
	<path fill="#231F20" d="M746.107,70.72v-16.78l-5.331,11.757h-1.222l-5.3-11.757v16.78h-1.749V52.009h2.589l5.09,10.946
		l5.108-10.946h2.558V70.72H746.107z"/>
	<path fill="#231F20" d="M752.654,70.72V52.009h10.732v1.746h-8.919v6.737h8.448v1.743h-8.448v6.737h8.919v1.747H752.654z"/>
	<path fill="#231F20" d="M779.965,68.069c-0.337,0.528-1.559,1.808-2.118,2.15c-0.439,0.28-1.088,0.5-1.591,0.5h-8.232V52.009h8.232
		c0.503,0,1.151,0.188,1.591,0.468c0.56,0.344,1.781,1.686,2.118,2.214c0.28,0.439,0.375,0.967,0.375,1.495v10.386
		C780.34,67.103,780.245,67.631,779.965,68.069z M778.439,55.785c-0.407-0.719-1.432-1.687-1.935-1.935
		c-0.096-0.063-0.248-0.096-0.4-0.096h-6.273v15.218h6.273c0.152,0,0.305-0.031,0.4-0.092c0.503-0.251,1.527-1.25,1.935-1.966
		c0.063-0.124,0.095-0.251,0.095-0.404V56.249C778.533,56.094,778.502,55.905,778.439,55.785z"/>
	<path fill="#231F20" d="M784.979,70.72V52.009h1.807V70.72H784.979z"/>
	<path fill="#231F20" d="M802.658,66.384h-8.665l-1.432,4.336h-1.908l6.267-18.711h2.812l6.267,18.711h-1.934L802.658,66.384z
		 M802.105,64.641l-3.588-10.854h-0.407l-3.557,10.854H802.105z"/>
	<path fill="#231F20" d="M265.593,96.724V79.947l-5.332,11.757h-1.215l-5.299-11.757v16.776H252v-18.71h2.586l5.083,10.948
		l5.115-10.948h2.558v18.71H265.593z"/>
	<path fill="#231F20" d="M272.145,96.724v-18.71h10.726v1.749h-8.919V86.5h8.452v1.743h-8.452v6.737h8.919v1.743H272.145z"/>
	<path fill="#231F20" d="M299.454,94.077c-0.34,0.528-1.559,1.807-2.122,2.15c-0.433,0.28-1.088,0.496-1.587,0.496h-8.232v-18.71
		h8.232c0.5,0,1.155,0.19,1.587,0.471c0.563,0.344,1.781,1.686,2.122,2.214c0.283,0.438,0.372,0.967,0.372,1.495v10.389
		C299.826,93.11,299.737,93.639,299.454,94.077z M297.924,81.792c-0.401-0.719-1.432-1.686-1.931-1.934
		c-0.092-0.063-0.248-0.096-0.404-0.096h-6.267V94.98h6.267c0.156,0,0.312-0.031,0.404-0.096c0.5-0.248,1.53-1.246,1.931-1.965
		c0.063-0.121,0.095-0.249,0.095-0.401V82.257C298.019,82.104,297.988,81.913,297.924,81.792z"/>
	<path fill="#231F20" d="M304.467,96.724v-18.71h1.81v18.71H304.467z"/>
	<path fill="#231F20" d="M322.154,92.392h-8.671l-1.435,4.332h-1.902l6.27-18.71h2.806l6.27,18.71h-1.934L322.154,92.392z
		 M321.591,90.648l-3.588-10.854h-0.404l-3.557,10.854H321.591z"/>
	<path fill="#231F20" d="M343.072,96.724V81.85l-4.896,10.046h-1.686l-4.835-10.046v14.874h-2.526v-18.71h3.245l4.988,10.198
		l5.023-10.198h3.178v18.71H343.072z"/>
	<path fill="#231F20" d="M350.009,96.724v-18.71h11.477v2.437h-8.919v5.706h8.417v2.431h-8.417v5.707h8.919v2.43H350.009z"/>
	<path fill="#231F20" d="M378.393,94.014c-0.372,0.56-1.622,1.807-2.246,2.182c-0.5,0.28-1.183,0.528-1.778,0.528h-8.604v-18.71
		h8.604c0.563,0,1.279,0.19,1.778,0.502c0.624,0.376,1.874,1.712,2.246,2.246c0.344,0.496,0.436,1.056,0.436,1.622v10.008
		C378.829,92.951,378.737,93.518,378.393,94.014z M376.271,82.441c0-0.121,0-0.185-0.029-0.248c-0.314-0.655-1.339-1.495-1.81-1.712
		c-0.064-0.031-0.096-0.031-0.22-0.031h-5.895v13.844h5.895c0.124,0,0.188-0.032,0.22-0.032c0.499-0.248,1.838-1.399,1.838-1.934
		V82.441z"/>
	<path fill="#231F20" d="M383.199,96.724v-18.71h2.558v18.71H383.199z"/>
	<path fill="#231F20" d="M402.88,96.724l-1.403-4.173h-8.108l-1.435,4.173h-2.71l6.515-18.71h3.365l6.521,18.71H402.88z
		 M397.425,80.635l-3.245,9.511h6.483L397.425,80.635z"/>
	<path fill="#231F20" d="M421.991,96.724V83.975l-3.709,8.169h-2.154L412.417,84v12.724h-3.273V78.077h3.741l4.368,9.199
		l4.304-9.199h3.709v18.646H421.991z"/>
	<path fill="#231F20" d="M429.788,96.724V78.077h11.725v3.117h-8.452v4.714h7.86v3.118h-7.86v4.58h8.452v3.117H429.788z"/>
	<path fill="#231F20" d="M458.518,93.981c-0.375,0.561-1.619,1.808-2.306,2.183c-0.5,0.28-1.218,0.56-1.874,0.56h-8.541V78.077
		h8.541c0.595,0,1.374,0.19,1.905,0.534c0.684,0.4,1.868,1.743,2.243,2.271c0.407,0.566,0.5,1.189,0.5,1.781v9.543
		C458.986,92.767,458.894,93.422,458.518,93.981z M454.122,93.606c0,0,0.185,0,0.216-0.032c0.439-0.248,1.374-1.056,1.374-1.431
		v-9.391c0,0,0-0.089-0.032-0.152c-0.375-0.624-0.999-1.184-1.374-1.374c-0.029-0.032-0.216-0.032-0.277-0.032h-4.959v12.412
		H454.122z"/>
	<path fill="#231F20" d="M463.388,96.724V78.077h3.276v18.646H463.388z"/>
	<path fill="#231F20" d="M483.263,96.724l-1.375-3.957h-7.078l-1.374,3.957h-3.49l6.518-18.646h3.804l6.483,18.646H483.263z
		 M478.365,82.289l-2.522,7.36h5.02L478.365,82.289z"/>
	<path fill="#231F20" d="M502.737,96.724V85.47c-1.062,2.277-2.185,4.555-3.248,6.801h-2.494l-3.212-6.77v11.223h-3.805v-18.71
		h4.148l4.18,8.486c1.375-2.806,2.745-5.706,4.116-8.486h4.116v18.71H502.737z"/>
	<path fill="#231F20" d="M510.515,96.724v-18.71H522.8v3.651h-8.48v3.836h8.201v3.646h-8.201v3.932h8.48v3.646H510.515z"/>
	<path fill="#231F20" d="M539.948,93.918c-0.437,0.624-1.623,1.813-2.307,2.214c-0.528,0.28-1.282,0.592-1.997,0.592h-9.076v-18.71
		h9.076c0.655,0,1.469,0.19,2.061,0.566c0.685,0.432,1.839,1.774,2.214,2.277c0.433,0.623,0.528,1.278,0.528,1.928v9.23
		C540.448,92.582,540.321,93.326,539.948,93.918z M536.643,82.944c-0.283-0.688-0.687-0.999-1.151-1.279h-5.118v11.413h5.118
		c0.433-0.248,0.84-0.592,1.151-1.183V82.944z"/>
	<path fill="#231F20" d="M544.293,96.724v-18.71h3.833v18.71H544.293z"/>
	<path fill="#231F20" d="M564.289,96.724l-1.247-3.581h-6.518c-0.404,1.151-0.872,2.43-1.279,3.581h-4.053l6.486-18.71h4.212
		l6.454,18.71H564.289z M559.769,83.472c-0.688,1.998-1.402,4.027-2.09,6.019h4.212L559.769,83.472z"/>
	<path fill="#231F20" d="M584.355,96.724V83.975l-3.712,8.169h-2.15L574.777,84v12.724h-3.271V78.077h3.741l4.364,9.199l4.308-9.199
		h3.709v18.646H584.355z"/>
	<path fill="#231F20" d="M592.151,96.724V78.077h11.723v3.117h-8.452v4.714h7.863v3.118h-7.863v4.58h8.452v3.117H592.151z"/>
	<path fill="#231F20" d="M620.882,93.981c-0.376,0.561-1.623,1.808-2.307,2.183c-0.499,0.28-1.219,0.56-1.874,0.56h-8.544V78.077
		h8.544c0.592,0,1.375,0.19,1.902,0.534c0.688,0.4,1.874,1.743,2.246,2.271c0.407,0.566,0.503,1.189,0.503,1.781v9.543
		C621.353,92.767,621.257,93.422,620.882,93.981z M616.486,93.606c0,0,0.185,0,0.216-0.032c0.439-0.248,1.375-1.056,1.375-1.431
		v-9.391c0,0,0-0.089-0.032-0.152c-0.372-0.624-0.999-1.184-1.374-1.374c-0.032-0.032-0.217-0.032-0.28-0.032h-4.956v12.412H616.486
		z"/>
	<path fill="#231F20" d="M625.755,96.724V78.077h3.27v18.646H625.755z"/>
	<path fill="#231F20" d="M645.62,96.724l-1.368-3.957h-7.081l-1.371,3.957h-3.492l6.521-18.646h3.802l6.482,18.646H645.62z
		 M640.728,82.289l-2.522,7.36h5.017L640.728,82.289z"/>
	<path fill="#231F20" d="M666.341,96.724V81.85l-4.898,10.046h-1.68l-4.835-10.046v14.874h-2.526v-18.71h3.245l4.994,10.198
		l5.013-10.198h3.182v18.71H666.341z"/>
	<path fill="#231F20" d="M673.281,96.724v-18.71h11.471v2.437h-8.913v5.706h8.417v2.431h-8.417v5.707h8.913v2.43H673.281z"/>
	<path fill="#231F20" d="M701.669,94.014c-0.376,0.56-1.623,1.807-2.246,2.182c-0.503,0.28-1.189,0.528-1.781,0.528h-8.607v-18.71
		h8.607c0.56,0,1.278,0.19,1.781,0.502c0.623,0.376,1.87,1.712,2.246,2.246c0.337,0.496,0.433,1.056,0.433,1.622v10.008
		C702.102,92.951,702.006,93.518,701.669,94.014z M699.544,82.441c0-0.121,0-0.185-0.032-0.248
		c-0.312-0.655-1.342-1.495-1.807-1.712c-0.063-0.031-0.089-0.031-0.217-0.031h-5.897v13.844h5.897c0.128,0,0.185-0.032,0.217-0.032
		c0.496-0.248,1.839-1.399,1.839-1.934V82.441z"/>
	<path fill="#231F20" d="M706.472,96.724v-18.71h2.558v18.71H706.472z"/>
	<path fill="#231F20" d="M726.156,96.724l-1.405-4.173h-8.105l-1.438,4.173h-2.717l6.521-18.71h3.371l6.515,18.71H726.156z
		 M720.698,80.635l-3.245,9.511h6.489L720.698,80.635z"/>
	<path fill="#231F20" d="M746.107,96.724V79.947l-5.331,11.757h-1.222l-5.3-11.757v16.776h-1.749v-18.71h2.589l5.09,10.948
		l5.108-10.948h2.558v18.71H746.107z"/>
	<path fill="#231F20" d="M752.654,96.724v-18.71h10.732v1.749h-8.919V86.5h8.448v1.743h-8.448v6.737h8.919v1.743H752.654z"/>
	<path fill="#231F20" d="M779.965,94.077c-0.337,0.528-1.559,1.807-2.118,2.15c-0.439,0.28-1.088,0.496-1.591,0.496h-8.232v-18.71
		h8.232c0.503,0,1.151,0.19,1.591,0.471c0.56,0.344,1.781,1.686,2.118,2.214c0.28,0.438,0.375,0.967,0.375,1.495v10.389
		C780.34,93.11,780.245,93.639,779.965,94.077z M778.439,81.792c-0.407-0.719-1.432-1.686-1.935-1.934
		c-0.096-0.063-0.248-0.096-0.4-0.096h-6.273V94.98h6.273c0.152,0,0.305-0.031,0.4-0.096c0.503-0.248,1.527-1.246,1.935-1.965
		c0.063-0.121,0.095-0.249,0.095-0.401V82.257C778.533,82.104,778.502,81.913,778.439,81.792z"/>
	<path fill="#231F20" d="M784.979,96.724v-18.71h1.807v18.71H784.979z"/>
	<path fill="#231F20" d="M802.658,92.392h-8.665l-1.432,4.332h-1.908l6.267-18.71h2.812l6.267,18.71h-1.934L802.658,92.392z
		 M802.105,90.648l-3.588-10.854h-0.407l-3.557,10.854H802.105z"/>
	<path fill="#231F20" d="M265.593,122.731v-16.783l-5.332,11.757h-1.215l-5.299-11.757v16.783H252v-18.717h2.586l5.083,10.949
		l5.115-10.949h2.558v18.717H265.593z"/>
	<path fill="#231F20" d="M272.145,122.731v-18.717h10.726v1.75h-8.919v6.737h8.452v1.743h-8.452v6.737h8.919v1.749H272.145z"/>
	<path fill="#231F20" d="M299.454,120.078c-0.34,0.528-1.559,1.808-2.122,2.15c-0.433,0.28-1.088,0.503-1.587,0.503h-8.232v-18.717
		h8.232c0.5,0,1.155,0.19,1.587,0.471c0.563,0.344,1.781,1.686,2.122,2.214c0.283,0.439,0.372,0.967,0.372,1.495v10.39
		C299.826,119.111,299.737,119.64,299.454,120.078z M297.924,107.794c-0.401-0.719-1.432-1.687-1.931-1.935
		c-0.092-0.063-0.248-0.095-0.404-0.095h-6.267v15.218h6.267c0.156,0,0.312-0.032,0.404-0.096c0.5-0.248,1.53-1.247,1.931-1.966
		c0.063-0.121,0.095-0.248,0.095-0.401v-10.262C298.019,108.105,297.988,107.914,297.924,107.794z"/>
	<path fill="#231F20" d="M304.467,122.731v-18.717h1.81v18.717H304.467z"/>
	<path fill="#231F20" d="M322.154,118.393h-8.671l-1.435,4.339h-1.902l6.27-18.717h2.806l6.27,18.717h-1.934L322.154,118.393z
		 M321.591,116.649l-3.588-10.854h-0.404l-3.557,10.854H321.591z"/>
	<path fill="#231F20" d="M343.072,122.731v-14.881l-4.896,10.046h-1.686l-4.835-10.046v14.881h-2.526v-18.717h3.245l4.988,10.198
		l5.023-10.198h3.178v18.717H343.072z"/>
	<path fill="#231F20" d="M350.009,122.731v-18.717h11.477v2.437h-8.919v5.707h8.417v2.43h-8.417v5.707h8.919v2.437H350.009z"/>
	<path fill="#231F20" d="M378.393,120.015c-0.372,0.561-1.622,1.807-2.246,2.183c-0.5,0.279-1.183,0.534-1.778,0.534h-8.604v-18.717
		h8.604c0.563,0,1.279,0.19,1.778,0.503c0.624,0.375,1.874,1.711,2.246,2.245c0.344,0.497,0.436,1.057,0.436,1.623v10.007
		C378.829,118.952,378.737,119.519,378.393,120.015z M376.271,108.442c0-0.121,0-0.185-0.029-0.248
		c-0.314-0.655-1.339-1.495-1.81-1.711c-0.064-0.032-0.096-0.032-0.22-0.032h-5.895v13.844h5.895c0.124,0,0.188-0.032,0.22-0.032
		c0.499-0.248,1.838-1.399,1.838-1.934V108.442z"/>
	<path fill="#231F20" d="M383.199,122.731v-18.717h2.558v18.717H383.199z"/>
	<path fill="#231F20" d="M402.88,122.731l-1.403-4.18h-8.108l-1.435,4.18h-2.71l6.515-18.717h3.365l6.521,18.717H402.88z
		 M397.425,106.636l-3.245,9.511h6.483L397.425,106.636z"/>
	<path fill="#231F20" d="M421.991,122.731v-12.756l-3.709,8.169h-2.154l-3.712-8.137v12.724h-3.273v-18.653h3.741l4.368,9.199
		l4.304-9.199h3.709v18.653H421.991z"/>
	<path fill="#231F20" d="M429.788,122.731v-18.653h11.725v3.117h-8.452v4.715h7.86v3.117h-7.86v4.58h8.452v3.124H429.788z"/>
	<path fill="#231F20" d="M458.518,119.983c-0.375,0.56-1.619,1.807-2.306,2.182c-0.5,0.28-1.218,0.566-1.874,0.566h-8.541v-18.653
		h8.541c0.595,0,1.374,0.191,1.905,0.534c0.684,0.401,1.868,1.743,2.243,2.271c0.407,0.566,0.5,1.189,0.5,1.781v9.543
		C458.986,118.768,458.894,119.423,458.518,119.983z M454.122,119.607c0,0,0.185,0,0.216-0.031c0.439-0.248,1.374-1.057,1.374-1.432
		v-9.384c0,0,0-0.096-0.032-0.159c-0.375-0.623-0.999-1.184-1.374-1.374c-0.029-0.032-0.216-0.032-0.277-0.032h-4.959v12.412
		H454.122z"/>
	<path fill="#231F20" d="M463.388,122.731v-18.653h3.276v18.653H463.388z"/>
	<path fill="#231F20" d="M483.263,122.731l-1.375-3.964h-7.078l-1.374,3.964h-3.49l6.518-18.653h3.804l6.483,18.653H483.263z
		 M478.365,108.29l-2.522,7.36h5.02L478.365,108.29z"/>
	<path fill="#231F20" d="M502.737,122.731v-11.261c-1.062,2.277-2.185,4.556-3.248,6.801h-2.494l-3.212-6.769v11.229h-3.805v-18.717
		h4.148l4.18,8.487c1.375-2.806,2.745-5.707,4.116-8.487h4.116v18.717H502.737z"/>
	<path fill="#231F20" d="M510.515,122.731v-18.717H522.8v3.651h-8.48v3.837h8.201v3.646h-8.201v3.932h8.48v3.651H510.515z"/>
	<path fill="#231F20" d="M539.948,119.92c-0.437,0.623-1.623,1.812-2.307,2.214c-0.528,0.279-1.282,0.598-1.997,0.598h-9.076
		v-18.717h9.076c0.655,0,1.469,0.19,2.061,0.566c0.685,0.433,1.839,1.774,2.214,2.277c0.433,0.624,0.528,1.278,0.528,1.935v9.225
		C540.448,118.584,540.321,119.328,539.948,119.92z M536.643,108.945c-0.283-0.688-0.687-0.999-1.151-1.279h-5.118v11.414h5.118
		c0.433-0.248,0.84-0.592,1.151-1.184V108.945z"/>
	<path fill="#231F20" d="M544.293,122.731v-18.717h3.833v18.717H544.293z"/>
	<path fill="#231F20" d="M564.289,122.731l-1.247-3.588h-6.518c-0.404,1.151-0.872,2.43-1.279,3.588h-4.053l6.486-18.717h4.212
		l6.454,18.717H564.289z M559.769,109.474c-0.688,1.997-1.402,4.026-2.09,6.018h4.212L559.769,109.474z"/>
	<path fill="#231F20" d="M584.355,122.731v-12.756l-3.712,8.169h-2.15l-3.716-8.137v12.724h-3.271v-18.653h3.741l4.364,9.199
		l4.308-9.199h3.709v18.653H584.355z"/>
	<path fill="#231F20" d="M592.151,122.731v-18.653h11.723v3.117h-8.452v4.715h7.863v3.117h-7.863v4.58h8.452v3.124H592.151z"/>
	<path fill="#231F20" d="M620.882,119.983c-0.376,0.56-1.623,1.807-2.307,2.182c-0.499,0.28-1.219,0.566-1.874,0.566h-8.544v-18.653
		h8.544c0.592,0,1.375,0.191,1.902,0.534c0.688,0.401,1.874,1.743,2.246,2.271c0.407,0.566,0.503,1.189,0.503,1.781v9.543
		C621.353,118.768,621.257,119.423,620.882,119.983z M616.486,119.607c0,0,0.185,0,0.216-0.031c0.439-0.248,1.375-1.057,1.375-1.432
		v-9.384c0,0,0-0.096-0.032-0.159c-0.372-0.623-0.999-1.184-1.374-1.374c-0.032-0.032-0.217-0.032-0.28-0.032h-4.956v12.412H616.486
		z"/>
	<path fill="#231F20" d="M625.755,122.731v-18.653h3.27v18.653H625.755z"/>
	<path fill="#231F20" d="M645.62,122.731l-1.368-3.964h-7.081l-1.371,3.964h-3.492l6.521-18.653h3.802l6.482,18.653H645.62z
		 M640.728,108.29l-2.522,7.36h5.017L640.728,108.29z"/>
	<path fill="#231F20" d="M666.341,122.731v-14.881l-4.898,10.046h-1.68l-4.835-10.046v14.881h-2.526v-18.717h3.245l4.994,10.198
		l5.013-10.198h3.182v18.717H666.341z"/>
	<path fill="#231F20" d="M673.281,122.731v-18.717h11.471v2.437h-8.913v5.707h8.417v2.43h-8.417v5.707h8.913v2.437H673.281z"/>
	<path fill="#231F20" d="M701.669,120.015c-0.376,0.561-1.623,1.807-2.246,2.183c-0.503,0.279-1.189,0.534-1.781,0.534h-8.607
		v-18.717h8.607c0.56,0,1.278,0.19,1.781,0.503c0.623,0.375,1.87,1.711,2.246,2.245c0.337,0.497,0.433,1.057,0.433,1.623v10.007
		C702.102,118.952,702.006,119.519,701.669,120.015z M699.544,108.442c0-0.121,0-0.185-0.032-0.248
		c-0.312-0.655-1.342-1.495-1.807-1.711c-0.063-0.032-0.089-0.032-0.217-0.032h-5.897v13.844h5.897c0.128,0,0.185-0.032,0.217-0.032
		c0.496-0.248,1.839-1.399,1.839-1.934V108.442z"/>
	<path fill="#231F20" d="M706.472,122.731v-18.717h2.558v18.717H706.472z"/>
	<path fill="#231F20" d="M726.156,122.731l-1.405-4.18h-8.105l-1.438,4.18h-2.717l6.521-18.717h3.371l6.515,18.717H726.156z
		 M720.698,106.636l-3.245,9.511h6.489L720.698,106.636z"/>
	<path fill="#231F20" d="M746.107,122.731v-16.783l-5.331,11.757h-1.222l-5.3-11.757v16.783h-1.749v-18.717h2.589l5.09,10.949
		l5.108-10.949h2.558v18.717H746.107z"/>
	<path fill="#231F20" d="M752.654,122.731v-18.717h10.732v1.75h-8.919v6.737h8.448v1.743h-8.448v6.737h8.919v1.749H752.654z"/>
	<path fill="#231F20" d="M779.965,120.078c-0.337,0.528-1.559,1.808-2.118,2.15c-0.439,0.28-1.088,0.503-1.591,0.503h-8.232v-18.717
		h8.232c0.503,0,1.151,0.19,1.591,0.471c0.56,0.344,1.781,1.686,2.118,2.214c0.28,0.439,0.375,0.967,0.375,1.495v10.39
		C780.34,119.111,780.245,119.64,779.965,120.078z M778.439,107.794c-0.407-0.719-1.432-1.687-1.935-1.935
		c-0.096-0.063-0.248-0.095-0.4-0.095h-6.273v15.218h6.273c0.152,0,0.305-0.032,0.4-0.096c0.503-0.248,1.527-1.247,1.935-1.966
		c0.063-0.121,0.095-0.248,0.095-0.401v-10.262C778.533,108.105,778.502,107.914,778.439,107.794z"/>
	<path fill="#231F20" d="M784.979,122.731v-18.717h1.807v18.717H784.979z"/>
	<path fill="#231F20" d="M802.658,118.393h-8.665l-1.432,4.339h-1.908l6.267-18.717h2.812l6.267,18.717h-1.934L802.658,118.393z
		 M802.105,116.649l-3.588-10.854h-0.407l-3.557,10.854H802.105z"/>
	<path fill="#231F20" d="M265.593,148.732V131.95l-5.332,11.763h-1.215l-5.299-11.763v16.782H252v-18.717h2.586l5.083,10.949
		l5.115-10.949h2.558v18.717H265.593z"/>
	<path fill="#231F20" d="M272.145,148.732v-18.717h10.726v1.75h-8.919v6.737h8.452v1.749h-8.452v6.731h8.919v1.749H272.145z"/>
	<path fill="#231F20" d="M299.454,146.08c-0.34,0.534-1.559,1.807-2.122,2.15c-0.433,0.279-1.088,0.502-1.587,0.502h-8.232v-18.717
		h8.232c0.5,0,1.155,0.191,1.587,0.471c0.563,0.344,1.781,1.687,2.122,2.215c0.283,0.438,0.372,0.967,0.372,1.494v10.39
		C299.826,145.113,299.737,145.641,299.454,146.08z M297.924,133.795c-0.401-0.719-1.432-1.686-1.931-1.934
		c-0.092-0.064-0.248-0.096-0.404-0.096h-6.267v15.218h6.267c0.156,0,0.312-0.032,0.404-0.089c0.5-0.255,1.53-1.254,1.931-1.966
		c0.063-0.128,0.095-0.249,0.095-0.407V134.26C298.019,134.106,297.988,133.916,297.924,133.795z"/>
	<path fill="#231F20" d="M304.467,148.732v-18.717h1.81v18.717H304.467z"/>
	<path fill="#231F20" d="M322.154,144.394h-8.671l-1.435,4.339h-1.902l6.27-18.717h2.806l6.27,18.717h-1.934L322.154,144.394z
		 M321.591,142.65l-3.588-10.854h-0.404l-3.557,10.854H321.591z"/>
	<path fill="#231F20" d="M343.072,148.732v-14.88l-4.896,10.045h-1.686l-4.835-10.045v14.88h-2.526v-18.717h3.245l4.988,10.205
		l5.023-10.205h3.178v18.717H343.072z"/>
	<path fill="#231F20" d="M350.009,148.732v-18.717h11.477v2.437h-8.919v5.707h8.417v2.431h-8.417v5.706h8.919v2.437H350.009z"/>
	<path fill="#231F20" d="M378.393,146.017c-0.372,0.565-1.622,1.812-2.246,2.182c-0.5,0.286-1.183,0.534-1.778,0.534h-8.604v-18.717
		h8.604c0.563,0,1.279,0.191,1.778,0.503c0.624,0.375,1.874,1.711,2.246,2.246c0.344,0.496,0.436,1.056,0.436,1.622v10.007
		C378.829,144.96,378.737,145.52,378.393,146.017z M376.271,134.443c0-0.12,0-0.184-0.029-0.248
		c-0.314-0.655-1.339-1.494-1.81-1.711c-0.064-0.032-0.096-0.032-0.22-0.032h-5.895v13.844h5.895c0.124,0,0.188-0.025,0.22-0.025
		c0.499-0.254,1.838-1.406,1.838-1.934V134.443z"/>
	<path fill="#231F20" d="M383.199,148.732v-18.717h2.558v18.717H383.199z"/>
	<path fill="#231F20" d="M402.88,148.732l-1.403-4.18h-8.108l-1.435,4.18h-2.71l6.515-18.717h3.365l6.521,18.717H402.88z
		 M397.425,132.637l-3.245,9.512h6.483L397.425,132.637z"/>
	<path fill="#231F20" d="M421.991,148.732v-12.756l-3.709,8.169h-2.154l-3.712-8.137v12.724h-3.273v-18.653h3.741l4.368,9.2
		l4.304-9.2h3.709v18.653H421.991z"/>
	<path fill="#231F20" d="M429.788,148.732v-18.653h11.725v3.124h-8.452v4.708h7.86v3.117h-7.86v4.587h8.452v3.117H429.788z"/>
	<path fill="#231F20" d="M458.518,145.984c-0.375,0.566-1.619,1.813-2.306,2.188c-0.5,0.28-1.218,0.56-1.874,0.56h-8.541v-18.653
		h8.541c0.595,0,1.374,0.191,1.905,0.535c0.684,0.4,1.868,1.743,2.243,2.271c0.407,0.566,0.5,1.19,0.5,1.781v9.543
		C458.986,144.77,458.894,145.425,458.518,145.984z M454.122,145.615c0,0,0.185,0,0.216-0.031c0.439-0.248,1.374-1.062,1.374-1.438
		v-9.384c0,0,0-0.096-0.032-0.159c-0.375-0.623-0.999-1.183-1.374-1.374c-0.029-0.025-0.216-0.025-0.277-0.025h-4.959v12.412
		H454.122z"/>
	<path fill="#231F20" d="M463.388,148.732v-18.653h3.276v18.653H463.388z"/>
	<path fill="#231F20" d="M483.263,148.732l-1.375-3.963h-7.078l-1.374,3.963h-3.49l6.518-18.653h3.804l6.483,18.653H483.263z
		 M478.365,134.291l-2.522,7.361h5.02L478.365,134.291z"/>
	<path fill="#231F20" d="M502.737,148.732v-11.261c-1.062,2.278-2.185,4.556-3.248,6.802h-2.494l-3.212-6.77v11.229h-3.805v-18.717
		h4.148l4.18,8.487c1.375-2.806,2.745-5.707,4.116-8.487h4.116v18.717H502.737z"/>
	<path fill="#231F20" d="M510.515,148.732v-18.717H522.8v3.652h-8.48v3.836h8.201v3.651h-8.201v3.926h8.48v3.651H510.515z"/>
	<path fill="#231F20" d="M539.948,145.927c-0.437,0.624-1.623,1.808-2.307,2.214c-0.528,0.28-1.282,0.592-1.997,0.592h-9.076
		v-18.717h9.076c0.655,0,1.469,0.191,2.061,0.566c0.685,0.433,1.839,1.775,2.214,2.277c0.433,0.624,0.528,1.279,0.528,1.935v9.231
		C540.448,144.585,540.321,145.336,539.948,145.927z M536.643,134.946c-0.283-0.687-0.687-0.999-1.151-1.278h-5.118v11.413h5.118
		c0.433-0.248,0.84-0.592,1.151-1.184V134.946z"/>
	<path fill="#231F20" d="M544.293,148.732v-18.717h3.833v18.717H544.293z"/>
	<path fill="#231F20" d="M564.289,148.732l-1.247-3.588h-6.518c-0.404,1.151-0.872,2.431-1.279,3.588h-4.053l6.486-18.717h4.212
		l6.454,18.717H564.289z M559.769,135.475c-0.688,1.997-1.402,4.027-2.09,6.024h4.212L559.769,135.475z"/>
	<path fill="#231F20" d="M584.355,148.732v-12.756l-3.712,8.169h-2.15l-3.716-8.137v12.724h-3.271v-18.653h3.741l4.364,9.2
		l4.308-9.2h3.709v18.653H584.355z"/>
	<path fill="#231F20" d="M592.151,148.732v-18.653h11.723v3.124h-8.452v4.708h7.863v3.117h-7.863v4.587h8.452v3.117H592.151z"/>
	<path fill="#231F20" d="M620.882,145.984c-0.376,0.566-1.623,1.813-2.307,2.188c-0.499,0.28-1.219,0.56-1.874,0.56h-8.544v-18.653
		h8.544c0.592,0,1.375,0.191,1.902,0.535c0.688,0.4,1.874,1.743,2.246,2.271c0.407,0.566,0.503,1.19,0.503,1.781v9.543
		C621.353,144.77,621.257,145.425,620.882,145.984z M616.486,145.615c0,0,0.185,0,0.216-0.031c0.439-0.248,1.375-1.062,1.375-1.438
		v-9.384c0,0,0-0.096-0.032-0.159c-0.372-0.623-0.999-1.183-1.374-1.374c-0.032-0.025-0.217-0.025-0.28-0.025h-4.956v12.412H616.486
		z"/>
	<path fill="#231F20" d="M625.755,148.732v-18.653h3.27v18.653H625.755z"/>
	<path fill="#231F20" d="M645.62,148.732l-1.368-3.963h-7.081l-1.371,3.963h-3.492l6.521-18.653h3.802l6.482,18.653H645.62z
		 M640.728,134.291l-2.522,7.361h5.017L640.728,134.291z"/>
	<path fill="#231F20" d="M666.341,148.732v-14.88l-4.898,10.045h-1.68l-4.835-10.045v14.88h-2.526v-18.717h3.245l4.994,10.205
		l5.013-10.205h3.182v18.717H666.341z"/>
	<path fill="#231F20" d="M673.281,148.732v-18.717h11.471v2.437h-8.913v5.707h8.417v2.431h-8.417v5.706h8.913v2.437H673.281z"/>
	<path fill="#231F20" d="M701.669,146.017c-0.376,0.565-1.623,1.812-2.246,2.182c-0.503,0.286-1.189,0.534-1.781,0.534h-8.607
		v-18.717h8.607c0.56,0,1.278,0.191,1.781,0.503c0.623,0.375,1.87,1.711,2.246,2.246c0.337,0.496,0.433,1.056,0.433,1.622v10.007
		C702.102,144.96,702.006,145.52,701.669,146.017z M699.544,134.443c0-0.12,0-0.184-0.032-0.248
		c-0.312-0.655-1.342-1.494-1.807-1.711c-0.063-0.032-0.089-0.032-0.217-0.032h-5.897v13.844h5.897c0.128,0,0.185-0.025,0.217-0.025
		c0.496-0.254,1.839-1.406,1.839-1.934V134.443z"/>
	<path fill="#231F20" d="M706.472,148.732v-18.717h2.558v18.717H706.472z"/>
	<path fill="#231F20" d="M726.156,148.732l-1.405-4.18h-8.105l-1.438,4.18h-2.717l6.521-18.717h3.371l6.515,18.717H726.156z
		 M720.698,132.637l-3.245,9.512h6.489L720.698,132.637z"/>
	<path fill="#231F20" d="M746.107,148.732V131.95l-5.331,11.763h-1.222l-5.3-11.763v16.782h-1.749v-18.717h2.589l5.09,10.949
		l5.108-10.949h2.558v18.717H746.107z"/>
	<path fill="#231F20" d="M752.654,148.732v-18.717h10.732v1.75h-8.919v6.737h8.448v1.749h-8.448v6.731h8.919v1.749H752.654z"/>
	<path fill="#231F20" d="M779.965,146.08c-0.337,0.534-1.559,1.807-2.118,2.15c-0.439,0.279-1.088,0.502-1.591,0.502h-8.232v-18.717
		h8.232c0.503,0,1.151,0.191,1.591,0.471c0.56,0.344,1.781,1.687,2.118,2.215c0.28,0.438,0.375,0.967,0.375,1.494v10.39
		C780.34,145.113,780.245,145.641,779.965,146.08z M778.439,133.795c-0.407-0.719-1.432-1.686-1.935-1.934
		c-0.096-0.064-0.248-0.096-0.4-0.096h-6.273v15.218h6.273c0.152,0,0.305-0.032,0.4-0.089c0.503-0.255,1.527-1.254,1.935-1.966
		c0.063-0.128,0.095-0.249,0.095-0.407V134.26C778.533,134.106,778.502,133.916,778.439,133.795z"/>
	<path fill="#231F20" d="M784.979,148.732v-18.717h1.807v18.717H784.979z"/>
	<path fill="#231F20" d="M802.658,144.394h-8.665l-1.432,4.339h-1.908l6.267-18.717h2.812l6.267,18.717h-1.934L802.658,144.394z
		 M802.105,142.65l-3.588-10.854h-0.407l-3.557,10.854H802.105z"/>
</g>
</svg>
