<?xml version="1.0" encoding="utf-8"?>
<!-- Generator: Adobe Illustrator 16.0.0, SVG Export Plug-In . SVG Version: 6.00 Build 0)  -->
<!DOCTYPE svg PUBLIC "-//W3C//DTD SVG 1.1//EN" "http://www.w3.org/Graphics/SVG/1.1/DTD/svg11.dtd">
<svg version="1.1" id="Layer_1" xmlns="http://www.w3.org/2000/svg" xmlns:xlink="http://www.w3.org/1999/xlink" x="0px" y="0px"
	 width="479.279px" height="150px" viewBox="0 0 479.279 150" enable-background="new 0 0 479.279 150" xml:space="preserve">
<g>
	<path fill="none" d="M365.221,121.979c-3.61,0-6.57,1.121-8.887,3.375c-2.317,2.253-3.482,5.136-3.482,8.633
		c0,3.405,1.166,6.229,3.487,8.487c2.332,2.249,5.248,3.376,8.746,3.376c3.512,0,6.443-1.151,8.794-3.449
		c2.356-2.302,3.526-5.165,3.526-8.594c0-3.332-1.17-6.142-3.526-8.424C371.528,123.109,368.645,121.979,365.221,121.979z"/>
	<polygon fill="none" points="383.81,57.604 420.85,57.604 402.417,11.672 	"/>
	<path fill="none" d="M335,122.109h-4.678v9.854h4.946c1.834,0,3.244-0.435,4.239-1.298c0.99-0.868,1.488-2.103,1.488-3.707
		C340.994,123.72,338.989,122.109,335,122.109z"/>
	<path fill="#231F20" d="M478.674,104.984L432.391,0c-21.471,1.001-42.099,2.191-61.897,3.541l-6.014,13.598V3.958
		c-14.799,1.043-29.119,2.164-42.991,3.366v41.564l-35.685-38.223c-22.331,2.268-43.312,4.716-63.018,7.292l-0.001-0.002
		c-11.482,1.494-22.525,3.035-33.134,4.607l14.057,35.043h-37.036l13.623-33.636c-13.667,2.095-26.617,4.229-38.801,6.38
		l-0.008,0.021c-11.694,2.066-22.755,4.144-33.106,6.215v68.4h0.107h38.845l10.443-25.507h54.644l10.258,25.507h0.059h37.567V34.908
		l65.267,70.077h0.054h38.855l10.438-25.507h54.649l10.253,25.507H478.674z M383.81,57.604l18.608-45.932l18.433,45.932H383.81z"/>
	<path fill="#231F20" d="M71.165,74.303h2.99l29.88-36.851c-20.301,4.13-37.948,8.192-53.078,11.998L71.165,74.303z"/>
	<path fill="#231F20" d="M0,104.984h36.851V53.109C21.315,57.271,9.087,60.986,0,63.959V104.984z"/>
	<path fill="#231F20" d="M335.785,118.091h-9.989v31.548h4.526v-13.667h3.341c2.98,0,5.263-0.316,6.857-0.956
		c1.59-0.634,2.844-1.663,3.766-3.077c0.917-1.415,1.371-3.034,1.371-4.868c0-2.731-0.897-4.917-2.683-6.541
		S338.794,118.091,335.785,118.091z M339.506,130.665c-0.995,0.863-2.405,1.298-4.239,1.298h-4.946v-9.854H335
		c3.99,0,5.995,1.61,5.995,4.849C340.994,128.562,340.497,129.797,339.506,130.665z"/>
	<path fill="#231F20" d="M365.041,117.686c-4.873,0-8.892,1.547-12.082,4.619c-3.18,3.088-4.77,6.98-4.77,11.682
		c0,4.585,1.58,8.404,4.741,11.443c3.161,3.049,7.117,4.57,11.858,4.57c4.975,0,9.102-1.521,12.365-4.57
		c3.268-3.039,4.897-6.883,4.897-11.53c0-4.639-1.615-8.507-4.849-11.595C373.957,119.232,369.908,117.686,365.041,117.686z
		 M373.879,142.4c-2.351,2.298-5.283,3.449-8.794,3.449c-3.498,0-6.414-1.127-8.746-3.376c-2.322-2.258-3.487-5.082-3.487-8.487
		c0-3.497,1.166-6.38,3.482-8.633c2.317-2.254,5.277-3.375,8.887-3.375c3.424,0,6.307,1.131,8.658,3.404
		c2.356,2.282,3.526,5.092,3.526,8.424C377.405,137.235,376.235,140.099,373.879,142.4z"/>
	<rect x="387.644" y="118.14" fill="#231F20" width="4.517" height="31.499"/>
	<polygon fill="#231F20" points="424.172,142.605 402.93,118.14 399.276,118.14 399.276,149.639 403.515,149.639 403.515,125.378 
		424.577,149.639 428.454,149.639 428.454,118.14 424.172,118.14 	"/>
	<polygon fill="#231F20" points="432.513,122.109 443.312,122.109 443.312,149.639 447.843,149.639 447.843,122.109 
		458.827,122.109 458.827,118.091 432.513,118.091 	"/>
	<path fill="#231F20" d="M473.514,132.714l-3.443-2.039c-1.546-0.907-2.663-1.771-3.366-2.595c-0.698-0.824-1.044-1.702-1.044-2.648
		c0-1.063,0.473-1.937,1.419-2.614c0.946-0.688,2.161-1.029,3.634-1.029c2.61,0,5.053,1.098,7.326,3.277v-5.116
		c-2.195-1.483-4.609-2.215-7.238-2.215c-2.751,0-4.99,0.775-6.707,2.317c-1.722,1.551-2.585,3.57-2.585,6.043
		c0,1.658,0.454,3.117,1.366,4.39c0.907,1.269,2.444,2.561,4.58,3.878l3.439,2.078c2.761,1.722,4.146,3.536,4.146,5.453
		c0,1.19-0.468,2.17-1.405,2.956c-0.941,0.785-2.122,1.185-3.531,1.185c-3.2,0-6.024-1.551-8.463-4.634v5.731
		c2.556,1.912,5.395,2.868,8.502,2.868c2.707,0,4.907-0.785,6.599-2.365c1.688-1.576,2.537-3.629,2.537-6.161
		C479.279,137.933,477.362,135.006,473.514,132.714z"/>
</g>
</svg>
