<?xml version="1.0" encoding="utf-8"?>
<!-- Generator: Adobe Illustrator 16.0.0, SVG Export Plug-In . SVG Version: 6.00 Build 0)  -->
<!DOCTYPE svg PUBLIC "-//W3C//DTD SVG 1.1//EN" "http://www.w3.org/Graphics/SVG/1.1/DTD/svg11.dtd">
<svg version="1.1" id="Layer_1" xmlns="http://www.w3.org/2000/svg" xmlns:xlink="http://www.w3.org/1999/xlink" x="0px" y="0px"
	 width="1046px" height="290px" viewBox="0 0 1046 290" enable-background="new 0 0 1046 290" xml:space="preserve">
<path d="M195.479,259.494l-7.729-1.219c-4.881-0.812-10.983-2.438-15.456-7.318c-2.847-3.257-5.288-8.544-8.543-20.744
	l-15.047-55.316c-2.439-8.543-8.137-26.438-31.727-35.792c16.413-8.688,23.437-21.82,28.072-35.988
	c1.327-3.582,2.433-7.362,3.293-11.344c0.002-0.009,0.004-0.018,0.007-0.026l0.025-0.122c0.052-0.24,0.103-0.481,0.151-0.722
	l4.65-22.158c2.439-9.356,4.474-19.931,9.762-27.661c6.1-8.132,12.203-8.944,17.49-10.168l6.101-1.219
	c7.321-1.625,6.509-3.663,5.693-6.913l-5.693-18.305C185.717,1.224,184.088,0,181.241,0c-0.812,0-1.627,0.407-2.438,0.407
	l-4.476,0.817c-10.575,2.032-23.182,5.288-32.537,15.456c-1.863,2.032-3.549,4.35-5.093,6.9C119.287,1.856,89.064,0,67.923,0H4.881
	C0.406,0,0,2.443,0,4.881v268.85c0,2.443,0.406,4.883,4.881,4.883h23.59c4.475,0,4.881-2.438,4.881-4.883V28.474H64.67
	c26.437,0,52.468,3.256,52.468,46.368c0,6.346-0.62,11.893-1.72,16.742c-0.627,2.347-1.267,4.528-1.917,6.561
	c-7.926,21.744-26.907,26.07-37.564,26.924H65.621c-2.091,0-4.383,1.608-5.095,3.574l-7.72,21.325
	c-0.711,1.966,0.417,3.574,2.508,3.574h27.498l0,0c15.456,0,26.437,3.459,34.165,35.185l10.168,41.08
	c4.475,17.894,7.322,32.131,14.644,41.485c4.476,5.694,14.645,14.638,34.165,17.081l6.101,0.812
	c2.848,0.406,5.288,0.812,8.137,0.812c2.848,0,3.66-0.406,4.879-4.475L201.172,266C201.985,263.969,202.797,260.713,195.479,259.494
	z"/>
<g>
	<path d="M238.667,123.436c0.226,0.449,0.299,0.598,0.299,0.748c0,0.374-0.372,0.523-0.821,0.598l-4.709,0.897
		c-0.822,0.15-0.973-0.299-1.121-0.598l-12.334-23.77h-5.382v22.425c0,0.448-0.075,0.897-0.897,0.897h-4.335
		c-0.823,0-0.896-0.449-0.896-0.897v-49.41c0-0.449,0.073-0.897,0.896-0.897h11.586c5.756,0,15.174,0.748,15.174,13.006
		c0,7.849-4.409,12.483-9.865,14.352L238.667,123.436z M219.456,96.451c2.99,0,10.539,0.149,10.539-9.269
		c0-7.923-4.783-8.521-9.643-8.521h-5.755v17.791L219.456,96.451L219.456,96.451z"/>
	<path d="M271.436,106.692c0,14.95-8.447,18.986-14.875,18.986c-6.431,0-14.876-4.037-14.876-18.986
		c0-14.949,8.445-18.987,14.876-18.987C262.989,87.705,271.436,91.742,271.436,106.692z M247.815,106.692
		c0,3.887,0.373,14.352,8.746,14.352c8.371,0,8.745-10.465,8.745-14.352c0-3.887-0.374-14.352-8.745-14.352
		C248.188,92.34,247.815,102.805,247.815,106.692z"/>
	<path d="M305.117,112.821c0,2.916-0.074,5.008,0.748,7.325c0.598,1.72,1.421,2.392,1.421,2.841c0,0.299-0.449,0.523-0.674,0.673
		l-2.915,1.794c-1.495,0.897-2.841-2.392-3.289-4.186l-0.599,0.448c-2.092,1.57-5.605,3.962-9.791,3.962
		c-3.963,0-12.26-2.018-12.26-18.463c0-17.566,8.971-19.51,13.306-19.51c0.896,0,4.709,0.075,8.372,2.542v-17.79
		c0-0.598,0.299-0.822,0.598-0.897l3.887-0.972c0.3-0.075,0.523-0.075,0.675-0.075c0.598,0,0.521,0.598,0.521,0.972V112.821
		L305.117,112.821z M299.436,95.181c-2.242-1.271-5.158-2.467-7.476-2.467c-7.551,0-8.072,7.326-8.072,13.979
		c0,5.531,0,13.978,6.577,13.978c2.989,0,6.354-2.542,7.625-3.438l1.346-0.972V95.181L299.436,95.181z"/>
	<path d="M323.819,123.735c0,0.822-0.448,0.897-0.896,0.897h-3.887c-0.449,0-0.896-0.075-0.896-0.897V93.386h-5.831
		c-0.448,0-0.896-0.075-0.896-0.896v-2.84c0-0.822,0.448-0.897,0.896-0.897h10.54c0.896,0,0.972,0.748,0.972,1.121L323.819,123.735
		L323.819,123.735z M320.604,80.23c-2.615,0-4.634-2.019-4.634-4.635c0-2.616,2.019-4.634,4.634-4.634
		c2.617,0,4.635,2.019,4.635,4.634C325.239,78.212,323.222,80.23,320.604,80.23z"/>
	<path d="M361.543,106.692c0,14.95-8.445,18.986-14.875,18.986c-6.428,0-14.875-4.037-14.875-18.986
		c0-14.949,8.447-18.987,14.875-18.987C353.098,87.705,361.543,91.742,361.543,106.692z M337.924,106.692
		c0,3.887,0.373,14.352,8.744,14.352c8.373,0,8.746-10.465,8.746-14.352c0-3.887-0.373-14.352-8.746-14.352
		C338.297,92.34,337.924,102.805,337.924,106.692z"/>
	<path d="M369.572,96.9c0-2.99-0.374-3.887-0.896-5.008l-0.225-0.449c-0.374-0.673-0.374-0.972-0.374-1.121
		c0-0.299,0.226-0.374,0.374-0.449l3.513-1.943c0.375-0.225,0.822-0.598,1.57,0.822c0.599,1.121,1.047,2.915,1.195,4.036
		c2.84-2.466,7.177-5.083,12.408-5.083c8.521,0,8.521,7.027,8.521,11.212v24.817c0,0.448-0.074,0.897-0.896,0.897h-3.888
		c-0.447,0-0.896-0.075-0.896-0.897V98.769c0-2.243-0.225-6.055-4.859-6.055c-3.812,0-7.699,2.467-9.867,4.56v26.461
		c0,0.448-0.073,0.897-0.896,0.897h-3.887c-0.822,0-0.897-0.449-0.897-0.897L369.572,96.9L369.572,96.9z"/>
	<path d="M214.747,170.506h-0.148v23.473c0,0.447-0.075,0.896-0.897,0.896h-4.335c-0.823,0-0.896-0.449-0.896-0.896v-49.411
		c0-0.448,0.073-0.897,0.896-0.897h4.335c0.822,0,0.897,0.449,0.897,0.897v24.518h0.148l19.137-25.938
		c0.148-0.224,0.299-0.523,0.746-0.523c0.226,0,0.449,0.149,0.674,0.299l2.914,2.093c0.15,0.149,0.449,0.224,0.449,0.522
		c0,0.075-0.074,0.225-0.373,0.674l-17.492,23.246l18.016,22.65c0.374,0.447-0.075,1.045-0.3,1.195l-3.288,2.241
		c-0.149,0.149-0.522,0.374-0.897,0.374c-0.373,0-0.522-0.299-0.821-0.673L214.747,170.506z"/>
	<path d="M271.526,176.936c0,14.949-8.447,18.985-14.876,18.985s-14.876-4.036-14.876-18.985c0-14.951,8.447-18.986,14.876-18.986
		S271.526,161.984,271.526,176.936z M247.905,176.936c0,3.888,0.373,14.353,8.745,14.353s8.746-10.465,8.746-14.353
		s-0.374-14.353-8.746-14.353S247.905,173.048,247.905,176.936z"/>
	<path d="M305.131,159.593c0.301,0.075,0.675,0.149,0.675,0.523c0,0.149-0.15,0.448-0.15,0.522l-13.529,34.086
		c-0.148,0.373-0.148,0.674-0.896,0.674h-2.99c-0.225,0-0.374,0-0.522-0.076c-0.226-0.148-0.3-0.373-0.373-0.598l-12.634-34.311
		c-0.074-0.148-0.149-0.448,0-0.6c0.074-0.073,0.3-0.147,0.599-0.224l2.467-0.599l1.494-0.447c0.225-0.076,0.748-0.225,0.973,0.521
		l8.297,24.295c0.523,1.42,1.048,3.363,1.347,4.709h0.147c0.375-2.317,0.974-3.588,1.347-4.635l8.819-24.369
		c0.076-0.148,0.076-0.299,0.226-0.447c0.299-0.225,0.522-0.15,0.748-0.074L305.131,159.593z"/>
	<path d="M335.448,191.66c0.075,0.15,0.075,0.299,0.075,0.449c0,0.299-0.448,0.746-2.765,1.867
		c-2.169,0.973-5.084,1.943-8.447,1.943c-7.326,0-16.296-4.261-16.296-18.986c0-12.108,6.429-18.985,14.949-18.985
		c6.279,0,13.455,3.214,13.455,18.538v0.373c0,1.047-0.299,1.271-0.821,1.271h-21.453v0.373c0,8.672,5.307,12.408,10.313,12.408
		c3.065,0,5.757-1.195,8.224-2.615c0.299-0.149,0.599-0.299,0.896-0.374c0.075,0,0.075,0,0.149,0c0.073,0,0.299,0.075,0.374,0.374
		L335.448,191.66z M330.292,173.496c0-0.523,0-3.514-1.196-6.354c-1.494-3.588-4.187-4.561-6.652-4.561
		c-3.961,0-8.147,2.915-8.297,10.913L330.292,173.496L330.292,173.496z"/>
	<path d="M344.208,167.143c0-2.99-0.374-3.887-0.896-5.008l-0.225-0.449c-0.374-0.672-0.374-0.972-0.374-1.121
		c0-0.299,0.226-0.373,0.374-0.447l3.514-1.944c0.374-0.224,0.821-0.598,1.569,0.822c0.599,1.122,1.048,2.916,1.195,4.037
		c2.841-2.468,7.176-5.083,12.408-5.083c8.521,0,8.521,7.025,8.521,11.212v24.817c0,0.447-0.073,0.896-0.896,0.896h-3.887
		c-0.448,0-0.897-0.075-0.897-0.896v-24.967c0-2.242-0.224-6.055-4.857-6.055c-3.812,0-7.699,2.467-9.867,4.559v26.463
		c0,0.447-0.074,0.896-0.896,0.896h-3.887c-0.822,0-0.897-0.449-0.897-0.896L344.208,167.143L344.208,167.143z"/>
	<path d="M405.577,192.482c0.149,0.148,0.374,0.522,0.374,0.672c0,0.15-0.075,0.3-0.225,0.375l-3.064,2.093
		c-0.148,0.075-0.374,0.299-0.673,0.299c-0.448,0-0.672-0.448-0.822-0.599l-15.249-18.836h-0.148v17.49
		c0,0.448-0.074,0.897-0.896,0.897h-3.887c-0.822,0-0.898-0.449-0.898-0.897v-51.277c0-0.598,0.302-0.822,0.601-0.897l3.887-0.972
		c0.299-0.075,0.522-0.075,0.672-0.075c0.6,0,0.523,0.598,0.523,0.972v33.712l15.024-17.043c0.148-0.149,0.448-0.448,0.747-0.448
		c0.225,0,0.374,0.075,0.523,0.224l2.915,2.02c0.225,0.148,0.448,0.3,0.448,0.599c0,0.074,0,0.299-0.523,0.821l-12.632,13.979
		L405.577,192.482z"/>
	<path d="M422.313,193.979c0,0.821-0.449,0.896-0.897,0.896h-3.888c-0.447,0-0.896-0.075-0.896-0.896v-30.35h-5.829
		c-0.449,0-0.896-0.074-0.896-0.896v-2.84c0-0.822,0.447-0.897,0.896-0.897h10.538c0.897,0,0.974,0.748,0.974,1.122L422.313,193.979
		L422.313,193.979z M419.099,150.473c-2.617,0-4.636-2.018-4.636-4.634c0-2.616,2.019-4.634,4.636-4.634
		c2.616,0,4.635,2.018,4.635,4.634C423.734,148.455,421.715,150.473,419.099,150.473z"/>
	<path d="M432.649,167.143c0-2.99-0.373-3.887-0.896-5.008l-0.225-0.449c-0.373-0.672-0.373-0.972-0.373-1.121
		c0-0.299,0.224-0.373,0.373-0.447l3.514-1.944c0.373-0.224,0.822-0.598,1.569,0.822c0.599,1.122,1.046,2.916,1.196,4.037
		c2.84-2.468,7.176-5.083,12.407-5.083c8.521,0,8.521,7.025,8.521,11.212v24.817c0,0.447-0.074,0.896-0.896,0.896h-3.888
		c-0.448,0-0.896-0.075-0.896-0.896v-24.967c0-2.242-0.226-6.055-4.858-6.055c-3.812,0-7.699,2.467-9.867,4.559v26.463
		c0,0.447-0.075,0.896-0.896,0.896h-3.888c-0.821,0-0.896-0.449-0.896-0.896L432.649,167.143L432.649,167.143z"/>
</g>
</svg>
