<?xml version="1.0" encoding="utf-8"?>
<!-- Generator: Adobe Illustrator 16.0.0, SVG Export Plug-In . SVG Version: 6.00 Build 0)  -->
<!DOCTYPE svg PUBLIC "-//W3C//DTD SVG 1.1//EN" "http://www.w3.org/Graphics/SVG/1.1/DTD/svg11.dtd">
<svg version="1.1" id="Layer_1" xmlns="http://www.w3.org/2000/svg" xmlns:xlink="http://www.w3.org/1999/xlink" x="0px" y="0px"
	 width="1046px" height="200px" viewBox="0 0 1046 200" enable-background="new 0 0 1046 200" xml:space="preserve">
<g>
	<g>
		<path fill="#003767" d="M74.955,131.881h-6.983L40.712,50.219h7.659l23.093,72.99h0.226l22.977-72.99h7.66L74.955,131.881z"/>
		<path fill="#003767" d="M163.047,76.012v29.851c0,16.895-9.461,27.145-26.694,27.145c-17.235,0-26.696-10.25-26.696-27.031v-29.85
			c0-16.783,9.461-27.034,26.696-27.034C153.585,49.093,163.047,59.343,163.047,76.012z M156.062,76.126
			c0-13.63-6.643-20.951-19.709-20.951c-12.954,0-19.712,7.321-19.712,20.951v29.85c0,13.741,6.758,21.061,19.712,21.061
			c13.066,0,19.709-7.319,19.709-21.174V76.126z"/>
		<path fill="#003767" d="M184.652,50.219v75.468h34.693v6.194h-41.564V50.219H184.652z"/>
		<path fill="#003767" d="M276.305,131.881l-26.808-40.099l-11.04,12.728v27.371h-6.871V50.219h6.871v46.407h0.225L273.6,50.219
			h8.673l-28.044,36.608l30.749,45.054H276.305z"/>
		<path fill="#003767" d="M344.18,76.012v29.851c0,16.895-9.461,27.145-26.694,27.145c-17.235,0-26.695-10.25-26.695-27.031v-29.85
			c0-16.783,9.46-27.034,26.695-27.034C334.719,49.093,344.18,59.343,344.18,76.012z M337.196,76.126
			c0-13.63-6.644-20.951-19.71-20.951c-12.954,0-19.712,7.321-19.712,20.951v29.85c0,13.741,6.758,21.061,19.712,21.061
			c13.066,0,19.71-7.319,19.71-21.174V76.126z"/>
		<path fill="#003767" d="M385.812,131.881h-6.984l-27.259-81.662h7.66l23.092,72.99h0.225l22.979-72.99h7.66L385.812,131.881z"/>
		<path fill="#003767" d="M488.873,64.749c-3.604-7.433-8.223-10.362-14.305-10.362c-7.435,0-11.6,4.168-11.6,11.603
			c0,3.942,1.463,8.222,3.94,11.602l23.428,32.214c2.593-6.982,3.944-15.769,3.944-25.457v-1.013h14.53v4.843h-9.347
			c-0.339,10.474-2.142,19.488-5.295,26.806c5.744,7.099,11.377,10.59,17.795,12.392l-1.239,5.294
			c-7.095-1.352-14.191-5.97-19.597-12.051c-4.958,7.77-11.94,12.164-20.838,12.164c-13.968,0-22.752-7.66-22.752-23.203
			c0-11.377,6.081-21.289,15.431-27.372l-0.451-0.563c-3.605-4.505-5.858-9.913-5.858-15.544c0-9.687,6.421-16.896,17.683-16.896
			c8.898,0,14.756,3.717,18.812,12.728L488.873,64.749z M487.521,116l-21.177-29.173c-7.772,4.843-12.165,14.642-12.165,22.64
			c0,12.165,6.419,18.021,16.56,18.021C477.835,127.488,483.58,123.209,487.521,116z"/>
		<path fill="#003767" d="M598.808,73.986c0,14.868-7.771,23.768-21.963,23.768h-19.15v34.127h-6.982V50.219h25.906
			C590.924,50.219,598.808,58.78,598.808,73.986z M557.694,91.896h18.812c10.7,0,15.319-5.858,15.319-17.91
			c0-12.052-4.619-17.685-15.319-17.685h-18.812V91.896z"/>
		<path fill="#003767" d="M605.891,131.881h-7.322l28.61-81.662h7.209l28.609,81.662h-7.32l-7.66-22.752h-34.58L605.891,131.881z
			 M615.354,103.385h30.748l-15.317-45.732h-0.226L615.354,103.385z"/>
		<path fill="#003767" d="M696.339,95.162h-14.642v36.719h-6.984V50.219h23.769c14.868,0,22.415,7.886,22.415,21.739
			c0,13.179-6.196,20.725-17.461,22.303l22.868,37.62h-8.337L696.339,95.162z M681.697,89.304h16.335
			c12.049,0,15.992-6.646,15.992-17.122c0-10.361-3.943-15.881-15.543-15.881h-16.784V89.304z"/>
		<path fill="#003767" d="M780.005,50.219v6.196h-21.626v75.466h-6.872V56.415h-21.626v-6.196H780.005z"/>
		<path fill="#003767" d="M797.622,50.219l38.184,66.682h0.228V50.219h6.306v81.662h-5.179l-38.862-67.808h-0.225v67.808h-6.309
			V50.219H797.622z"/>
		<path fill="#003767" d="M903.378,50.219v6.196h-37.622v30.413h30.525v5.744h-30.525v33.116h39.424v6.194h-46.408V50.219H903.378z"
			/>
		<path fill="#003767" d="M939.779,95.162h-14.644v36.719h-6.982V50.219h23.768c14.868,0,22.414,7.886,22.414,21.739
			c0,13.179-6.194,20.725-17.459,22.303l22.866,37.62h-8.337L939.779,95.162z M925.136,89.304h16.335
			c12.051,0,15.994-6.646,15.994-17.122c0-10.361-3.943-15.881-15.544-15.881h-16.785V89.304z"/>
		<path fill="#003767" d="M1022.356,64.186l-5.07,2.253c-2.59-6.983-9.123-11.489-17.796-11.489
			c-11.603,0-16.107,6.194-16.107,13.967c0,21.175,39.761,15.431,39.761,41.901c0,14.305-9.349,22.189-23.653,22.189
			c-11.266,0-20.725-6.646-23.993-17.574l5.52-2.25c2.93,9.012,10.025,13.854,18.474,13.854c10.812,0,17.008-5.291,17.008-15.768
			c0-21.965-39.985-14.982-39.985-42.126c0-11.603,8.335-20.05,22.64-20.05C1010.302,49.093,1019.09,55.062,1022.356,64.186z"/>
	</g>
	<path fill="#9E1C24" d="M163.056,6.243V0H0v117.042c0,45.786,78.514,81.461,81.856,82.959l2.812-6.283
		c-0.776-0.348-77.786-35.333-77.786-76.676V6.243H163.056z"/>
</g>
</svg>
