<?xml version="1.0" encoding="utf-8"?>
<!-- Generator: Adobe Illustrator 16.0.0, SVG Export Plug-In . SVG Version: 6.00 Build 0)  -->
<!DOCTYPE svg PUBLIC "-//W3C//DTD SVG 1.1//EN" "http://www.w3.org/Graphics/SVG/1.1/DTD/svg11.dtd">
<svg version="1.1" id="Layer_1" xmlns="http://www.w3.org/2000/svg" xmlns:xlink="http://www.w3.org/1999/xlink" x="0px" y="0px"
	 width="1046px" height="290px" viewBox="0 0 1046 290" enable-background="new 0 0 1046 290" xml:space="preserve">
<g>
	<path d="M461.813,102.24v28.458c3.449,1.458-12.338,1.458-9.021,0V90.832c-5.172-6.633-8.489-8.756-12.205-9.153v-5.306h18.837
		l56.378,72.562v-64.47c-3.45-1.46-6.367-2.255-10.082-2.786v-5.306h29.185v5.306c-3.715,0.531-6.765,1.326-10.214,2.786v89.143
		h-6.501L461.813,102.24z"/>
	<path d="M541.784,173.211v-5.041c3.715-0.53,6.767-1.194,10.215-2.521V84.465c-3.317-1.46-6.366-2.255-9.949-2.786v-5.306h80.533
		l2.313,7.695h-58.836v35.02h29.583v8.093h-29.583v38.469h32.767l5.835-18.04h8.756l-1.591,25.602H541.784z"/>
	<path d="M673.078,112.721l-22.418,60.49h-9.288l-31.307-89.898h14.593l24.145,71.724L668.7,99.588l-5.042-15.123
		c-3.448-1.46-6.498-2.255-10.213-2.786v-5.306H688.2v5.306c-3.713,0.531-6.634,1.326-10.082,2.786l22.286,70.042l23.611-70.042
		c-3.447-1.46-6.232-2.255-9.946-2.786v-5.306h29.583v5.306c-3.584,0.531-6.899,1.326-10.349,2.786l-30.91,88.746h-9.284
		L673.078,112.721z"/>
	<path d="M516.695,288.555v-5.041c3.714-0.531,6.767-1.194,10.215-2.521v-81.185c-3.317-1.459-6.367-2.255-9.95-2.786v-5.306
		h102.874l-0.069,7.695h-78.792v35.019h29.581v8.094h-29.581v38.469h32.766l5.835-18.04h8.756l-1.592,25.602H516.695z"/>
	<path d="M650.178,242.124l20.03,38.073c3.449,1.459,8.091,2.785,11.806,3.316v5.041h-23.215l-21.756-43.113h-13.53v35.419
		c3.317,1.459,6.368,2.122,9.95,2.653v5.041h-34.359v-5.041c3.715-0.531,6.898-1.194,10.347-2.653v-81.812
		c-3.448-1.46-6.365-1.494-10.081-2.025v-5.306h34.622c22.951,0,34.492,11.143,34.492,25.469l-14.459,1.194
		c0-11.673-8.093-19.103-20.165-19.103h-10.347v40.195l24.055-2.002L650.178,242.124z"/>
	<path d="M690.59,191.585h11.806l33.431,89.143c3.448,1.461,6.498,2.255,10.082,2.786v5.041h-35.421v-5.041
		c3.716-0.531,6.767-1.325,10.217-2.786l-8.358-23.081l-44.525-0.075v-6.126L690.59,191.585z M677.192,250.217h32.368
		l-16.053-44.439L677.192,250.217z"/>
	<path fill="#FFFFFF" d="M524.68,198.657"/>
	<g>
		<g>
			<path d="M769.057,272.971c0-9.479,7.692-15.933,18.266-15.933c10.988,0,18.61,6.731,18.61,17.1
				c0,9.477-7.759,15.862-18.266,15.862C776.68,290,769.057,283.341,769.057,272.971z M773.521,278.533
				c2.404,3.089,6.454,4.668,12.566,4.668c10.438,0,16.617-4.119,16.617-11.055c0-1.305-0.274-2.542-0.822-3.641
				c-2.404-3.021-6.387-4.6-12.567-4.6c-10.437,0-16.619,4.188-16.619,11.056C772.696,276.268,772.971,277.434,773.521,278.533z"/>
			<path d="M781.487,248.643c-1.784,0-6.525,0.068-7.623,0.274l-0.687,6.044h-2.883l-1.031-12.225
				c2.747-0.272,6.18-0.479,9.546-0.55c-5.699-3.159-9.546-6.66-9.546-11.467c0-1.991,0.55-3.365,1.236-4.465h10.027v4.808
				l-6.045,1.718c0,3.638,3.229,6.387,8.241,9.339h18.882c0.688-1.647,1.1-3.022,1.375-4.737h2.267v16.137h-2.267
				c-0.275-1.786-0.687-3.229-1.375-4.876H781.487z"/>
			<path d="M769.057,204.85c0-3.434,0.687-6.183,2.13-9.547h9.341v5.015l-5.977,1.165c-0.894,1.856-1.44,4.26-1.44,6.593
				c0,0.825,0.067,1.649,0.205,2.403c3.227,3.297,7.141,4.601,13.114,4.601c10.301,0,15.108-5.218,15.108-10.78
				c0-3.914-1.512-6.453-3.915-8.722l1.786-1.921c4.188,2.814,6.523,7.21,6.523,12.567c0,9.27-6.934,15.654-17.991,15.654
				C777.229,221.878,769.057,215.493,769.057,204.85z"/>
			<path d="M765.899,186.104c-1.785,0-6.524,0.068-7.623,0.206l-0.687,6.043h-2.885l-1.029-12.567
				c3.434-0.205,8.035-0.273,12.224-0.273h8.238c-3.364-3.915-5.081-6.798-5.081-11.125c0-6.935,5.357-10.781,12.772-10.781h19.776
				c0.688-1.647,1.1-3.021,1.375-4.807h2.267v15.726h-2.337c-0.274-1.716-0.548-2.883-1.234-4.395h-19.364
				c-7.005,0-8.377,3.844-8.377,7.072c0,2.816,1.509,5.838,3.02,8.31h24.722c0.687-1.511,0.96-2.609,1.234-4.259h2.337v15.658
				h-2.267c-0.275-1.786-0.687-3.229-1.375-4.808H765.899z"/>
			<path d="M799.409,121.111c4.12,2.886,6.523,7.21,6.523,13.254c0,10.024-7.211,16.548-18.127,16.548
				c-10.233,0-18.749-6.386-18.749-16.686c0-7.21,6.18-13.046,15.041-13.32c0.892,0.48,1.716,1.167,2.403,1.921v21.355
				c10.436,0,15.037-6.11,15.037-11.673c0-4.669-1.579-7.141-3.983-9.476L799.409,121.111z M783.34,144.047
				c-0.067-5.767-0.206-17.099-0.616-17.099c-6.388,0-10.094,3.915-10.094,9.408c0,0.893,0.136,1.786,0.341,2.746
				C775.514,142.192,778.945,143.635,783.34,144.047z"/>
			<path d="M805.864,105.125c0,3.708-0.892,7.555-2.748,10.438l-7.62,0.48v-4.533l5.562-1.853c0.892-1.717,1.441-3.776,1.441-6.18
				c0-1.167-0.138-2.472-0.412-3.776c-1.304-1.443-3.021-2.336-5.562-2.336c-8.034,0-5.149,18.678-16.894,18.678
				c-6.936,0-10.575-6.867-10.575-13.117c0-3.363,0.687-6.112,2.062-9.405h7.827v4.736l-5.424,1.579
				c-0.617,1.649-0.962,3.434-0.962,5.219c0,0.825,0.07,1.718,0.206,2.542c1.511,1.991,3.229,2.745,5.013,2.745
				c8.239,0,5.494-18.678,17.306-18.678C801.4,91.667,805.864,97.228,805.864,105.125z"/>
			<path d="M773.935,76.466h23.002c3.022,0,5.22-0.825,5.22-3.982c0-1.717-0.618-2.884-1.372-4.051l2.403-0.962
				c1.305,1.649,2.812,3.708,2.812,7.484c0,5.013-3.5,8.035-9.199,8.035h-22.866v5.562h-3.709v-5.562h-10.026l-1.785-6.523h11.812
				v-8.104h3.709V76.466z"/>
			<path d="M781.487,57.837c-1.784,0-6.525,0.068-7.623,0.274l-0.687,6.043h-2.883l-1.031-12.223c2.747-0.275,6.18-0.48,9.546-0.549
				c-5.699-3.159-9.546-6.662-9.546-11.467c0-1.993,0.55-3.366,1.236-4.464h10.027v4.807l-6.045,1.716
				c0,3.639,3.229,6.386,8.241,9.339h18.882c0.688-1.647,1.1-3.021,1.375-4.738h2.267v16.138h-2.267
				c-0.275-1.785-0.687-3.228-1.375-4.876H781.487z"/>
			<path d="M801.059,11.743c3.09,3.09,4.874,5.561,4.874,10.162c0,5.767-3.914,9.751-9.062,9.751
				c-5.152,0-10.097-2.679-11.469-19.57h-2.883c-7.623,0-9.959,1.992-9.959,6.729c0,1.099,0.07,2.265,0.206,3.502l6.799,1.716v5.151
				h-8.172c-1.305-3.57-2.336-7.759-2.336-11.88c0-8.79,5.357-11.742,13.392-11.742h15.726c3.157,0,4.188-1.03,4.188-3.09
				c0-0.55-0.206-1.511-0.412-1.922L804.285,0c0.823,1.167,1.51,2.814,1.51,5.081C805.795,8.377,804.009,10.917,801.059,11.743z
				 M798.174,12.085h-9.201c0.274,5.218,0.96,8.927,2.265,12.292c1.168,0.755,2.403,1.03,3.641,1.03
				c3.776,0,6.592-1.992,6.592-6.318C801.47,15.999,800.026,14.008,798.174,12.085z"/>
		</g>
	</g>
</g>
</svg>
