<?xml version="1.0" encoding="utf-8"?>
<!-- Generator: Adobe Illustrator 18.1.1, SVG Export Plug-In . SVG Version: 6.00 Build 0)  -->
<!DOCTYPE svg PUBLIC "-//W3C//DTD SVG 1.1//EN" "http://www.w3.org/Graphics/SVG/1.1/DTD/svg11.dtd">
<svg version="1.1" id="Layer_1" xmlns="http://www.w3.org/2000/svg" xmlns:xlink="http://www.w3.org/1999/xlink" x="0px" y="0px"
	 viewBox="0 0 513 247.8" enable-background="new 0 0 513 247.8" xml:space="preserve">
<g>
	<path fill="#00AEEF" d="M70.2,74.8h2c0-15.1-8.5-23.4-23.8-23.4c-16.5,0-24.5,4.6-33.4,13l1.4,1.5c8.7-8.3,16.1-12.5,32-12.5
		C62.4,53.4,70.2,61,70.2,74.8z"/>
	<rect x="4.5" y="191.3" fill="#00AEEF" width="112.7" height="2"/>
	<path fill="#00AEEF" d="M269.2,170c-15.9,15.6-37.7,23.8-63.2,23.8c-25.4,0-47.2-8.2-62.9-23.8c-15.7-15.5-24-36.9-24-61.8h-2
		c0,25.4,8.5,47.3,24.6,63.2c16.2,15.9,38.4,24.4,64.3,24.4c26,0,48.3-8.4,64.6-24.4c16.3-15.9,24.9-37.8,24.9-63.2h-2
		C293.4,133.1,285,154.4,269.2,170z"/>
	<path fill="#00AEEF" d="M156.9,108.2h2c0-14.8,4.8-28.3,13.5-38.1c8.6-9.7,20.6-15,33.6-15c27.9,0,47.3,21.8,47.3,53.1h2
		c0-15.4-4.9-29.4-13.7-39.4C232.7,58.7,220,53.1,206,53.1C178,53.1,156.9,76.8,156.9,108.2z"/>
	
		<rect x="302.3" y="76.8" transform="matrix(0.8697 -0.4935 0.4935 0.8697 4.1905 171.482)" fill="#00AEEF" width="49.2" height="2"/>
	<rect x="348.3" y="191.3" fill="#00AEEF" width="38.7" height="2"/>
	<path fill="#00AEEF" d="M509.8,142.3c0,15.2-5.9,28.2-17,37.6c-10.5,8.9-25,13.8-40.9,13.8c-27.1,0-42.4-8.6-58.2-22.6l-1.3,1.5
		c16.2,14.3,31.8,23.1,59.6,23.1c16.3,0,31.3-5.1,42.2-14.3c11.6-9.8,17.7-23.3,17.7-39.1H509.8z"/>
	<rect x="440.9" y="53.8" fill="#00AEEF" width="57" height="2"/>
	<path fill="#00AEEF" d="M402.2,119.5h45.9c14.4,0,23.3,8.3,23.3,21.6h2c0-14.6-9.7-23.6-25.3-23.6h-45.9V119.5z"/>
	<path fill="#00AEEF" d="M410.1,90.9c-0.9-0.2-1.8-0.3-2.6-0.3h0c-2.4,0-3.4,0.9-3.8,1.7c-1,1.7,0,4,2,6.3c-2,2.2-3,4.5-2,6.3
		c0.4,0.8,1.5,1.7,3.8,1.7c0.8,0,1.7-0.1,2.6-0.3c0.9,2.9,2.4,4.9,4.4,4.9c2,0,3.5-2,4.4-4.9c0.9,0.2,1.8,0.3,2.6,0.3
		c2.3,0,3.4-0.9,3.8-1.7c1-1.7,0-4-2-6.3c2-2.2,3-4.5,2-6.3c-0.4-0.8-1.5-1.7-3.8-1.7h0c-0.8,0-1.7,0.1-2.6,0.3
		c-0.9-2.9-2.4-4.9-4.4-4.9C412.5,86,411,88,410.1,90.9z M404.5,92.8c0.5-0.8,1.5-1.2,3-1.2c0.7,0,1.5,0.1,2.4,0.3
		c-0.3,1.1-0.5,2.3-0.6,3.6c-1,0.7-2,1.5-2.8,2.4C404.6,95.8,403.8,94,404.5,92.8z M416.7,94.6c0.8,0.4,1.5,0.9,2.2,1.4
		c0.1,0.8,0.1,1.6,0.1,2.5s0,1.7-0.1,2.5c-0.7,0.5-1.4,0.9-2.2,1.4c-0.8,0.4-1.5,0.8-2.2,1.2c-0.7-0.3-1.5-0.7-2.2-1.2
		c-0.7-0.4-1.4-0.9-2.1-1.3c-0.1-0.8-0.1-1.7-0.1-2.5c0-0.9,0-1.7,0.1-2.5c0.7-0.5,1.4-0.9,2.1-1.3c0.8-0.4,1.5-0.8,2.2-1.2
		C415.2,93.8,416,94.2,416.7,94.6z M415.7,92.9c0.9-0.4,1.7-0.6,2.5-0.9c0.2,0.8,0.4,1.7,0.5,2.6c-0.5-0.3-1-0.6-1.5-0.9
		C416.7,93.5,416.2,93.2,415.7,92.9z M419.9,96.8c0.7,0.6,1.4,1.2,2,1.7c-0.6,0.6-1.3,1.2-2,1.7c0-0.6,0.1-1.2,0.1-1.7
		C420,97.9,420,97.4,419.9,96.8z M418.7,102.3c-0.1,0.9-0.3,1.8-0.5,2.6c-0.8-0.2-1.7-0.5-2.5-0.9c0.5-0.3,1-0.5,1.5-0.8
		C417.7,103,418.2,102.7,418.7,102.3z M413.3,104.1c-0.9,0.4-1.7,0.6-2.5,0.9c-0.2-0.8-0.4-1.7-0.5-2.6c0.5,0.3,1,0.6,1.5,0.9
		C412.3,103.6,412.8,103.8,413.3,104.1z M409.1,100.3c-0.7-0.6-1.4-1.2-2-1.8c0.6-0.6,1.3-1.2,2-1.8c0,0.6-0.1,1.2-0.1,1.8
		C409,99.1,409,99.7,409.1,100.3z M411.7,93.8c-0.5,0.3-1,0.6-1.5,0.9c0.1-0.9,0.3-1.8,0.5-2.6c0.8,0.2,1.6,0.5,2.5,0.9
		C412.8,93.2,412.3,93.5,411.7,93.8z M407.5,105.5c-1.4,0-2.5-0.4-3-1.2c-0.7-1.2,0.1-3.1,1.9-5c0.8,0.8,1.8,1.6,2.8,2.4
		c0.1,1.2,0.3,2.5,0.6,3.6C409,105.4,408.2,105.5,407.5,105.5z M414.5,110c-1.4,0-2.6-1.6-3.4-4.1c1.1-0.3,2.2-0.7,3.4-1.2
		c1.2,0.5,2.3,0.9,3.5,1.2C417.1,108.4,415.9,110,414.5,110z M424.5,104.3c-0.5,0.8-1.5,1.2-3,1.2c-0.7,0-1.5-0.1-2.3-0.3
		c0.3-1.1,0.5-2.4,0.6-3.6c1-0.7,2-1.5,2.8-2.3C424.4,101.2,425.1,103.1,424.5,104.3z M421.5,91.6c1.4,0,2.5,0.4,3,1.2
		c0.7,1.2-0.1,3.1-1.9,5c-0.8-0.8-1.8-1.6-2.8-2.3c-0.1-1.3-0.3-2.5-0.6-3.6C420,91.7,420.8,91.6,421.5,91.6z M417.9,91.1
		c-1.1,0.3-2.3,0.7-3.5,1.2c-1.2-0.5-2.3-0.9-3.4-1.2c0.8-2.5,2.1-4.1,3.4-4.1C415.9,87,417.1,88.6,417.9,91.1z"/>
	<path fill="#00AEEF" d="M472.9,144c-0.3,0.5-0.2,1.1,0.3,1.4l8.6,5.6c0.2,0.1,0.4,0.2,0.5,0.2c0.3,0,0.6-0.2,0.8-0.5
		c0.3-0.5,0.2-1.1-0.3-1.4l-8.6-5.6C473.8,143.4,473.2,143.5,472.9,144z"/>
	<path fill="#00AEEF" d="M504.3,159.7c0-1.1-0.9-2-2-2h-4.6c0.4-0.9,0.8-1.8,1-2.8c2.1-7.6-1.9-15.5-8.9-18.5l1-1.6
		c1.3-1.9,0.7-4.5-1.2-5.8s-4.5-0.7-5.8,1.2l-8.3,12.6l7,4.6l5-7.7c2.6,0.9,4.8,2.7,6.1,5.2c1.6,2.7,2,5.9,1.2,8.9
		c-0.4,1.4-1,2.7-1.8,3.8h-20.2c-1.1,0-2,0.9-2,2s0.9,2,2,2h29.5C503.4,161.7,504.3,160.8,504.3,159.7z"/>
	<path fill="#00AEEF" d="M175.1,160l7.5-13l-7.5-13h-15l-7.5,13l7.5,13H175.1z M161.2,136h12.7l6.4,11l-6.4,11h-12.7l-6.4-11
		L161.2,136z"/>
	<path fill="#00AEEF" d="M192,169l4.7-8.1l-4.7-8.1h-9.3l-4.7,8.1l4.7,8.1H192z M183.8,154.8h7l3.5,6.1l-3.5,6.1h-7l-3.5-6.1
		L183.8,154.8z"/>
	<path fill="#00AEEF" d="M176.4,179l4.7-8.1l-4.7-8.1h-9.3l-4.7,8.1l4.7,8.1H176.4z M168.3,164.9h7l3.5,6.1l-3.5,6.1h-7l-3.5-6.1
		L168.3,164.9z"/>
	<path fill="#00AEEF" d="M141.3,164.6h9.3l4.7-8.1l-4.7-8.1h-9.3l-4.7,8.1L141.3,164.6z M142.4,150.5h7l3.5,6.1l-3.5,6.1h-7
		l-3.5-6.1L142.4,150.5z"/>
	<path fill="#00AEEF" d="M142.9,145.5h7.7l3.9-6.7l-3.9-6.7h-7.7l-3.9,6.7L142.9,145.5z M144,134.1h5.4l2.7,4.7l-2.7,4.7H144
		l-2.7-4.7L144,134.1z"/>
	<path fill="#00AEEF" d="M222.6,176.2c0.7,0,1.2-0.5,1.2-1.2v-1.2h1.4c0.7,0,1.2-0.5,1.2-1.2c0-0.7-0.5-1.2-1.2-1.2h-1.4v-4.2
		c0-0.7-0.5-1.2-1.2-1.2c-2.4,0-4.3-1.9-4.3-4.3c0-2.4,1.9-4.3,4.3-4.3s4.3,1.9,4.3,4.3c0,0.7,0.5,1.2,1.2,1.2s1.2-0.5,1.2-1.2
		c0-3.7-3-6.7-6.7-6.7c-3.7,0-6.7,3-6.7,6.7c0,3.3,2.4,6,5.5,6.6v3.1H220c-0.7,0-1.2,0.5-1.2,1.2c0,0.7,0.5,1.2,1.2,1.2h1.4v1.2
		C221.4,175.7,221.9,176.2,222.6,176.2z"/>
	<path fill="#00AEEF" d="M239.7,158.7c0.7,0,1.2-0.5,1.2-1.2v-5.2c0-0.2,0-0.3-0.1-0.5c-0.1-0.1-0.1-0.3-0.2-0.4c0,0,0,0,0,0
		c0,0,0,0,0,0c-0.1-0.1-0.2-0.2-0.4-0.2c-0.1-0.1-0.3-0.1-0.5-0.1h-5.2c-0.7,0-1.2,0.5-1.2,1.2c0,0.7,0.5,1.2,1.2,1.2l2.3,0
		l-3.4,3.4c-0.5,0.5-0.5,1.2,0,1.7c1.7,1.7,1.7,4.4,0,6.1c-0.8,0.8-1.9,1.3-3.1,1.3c-1.2,0-2.2-0.4-3.1-1.3c-0.5-0.5-1.2-0.5-1.7,0
		c-0.5,0.5-0.5,1.2,0,1.7c1.3,1.3,2.9,2,4.7,2s3.5-0.7,4.7-2c2.3-2.3,2.6-5.9,0.8-8.5l2.7-2.7l0,2.3
		C238.5,158.2,239,158.7,239.7,158.7z"/>
	<path fill="#00AEEF" d="M246.4,41.8c0-0.5,0-0.9,0.1-1.4c0-0.4-0.1-0.8-0.4-1.1c-0.5-0.5-1.3-0.6-1.9-0.3
		c-4.3,2.8-6.7,7.6-6.4,12.7c0.4,7.3,6.4,13.1,13.7,13.3l0.4,0c6.2,0,11.8-4.2,13.6-10.2c0.1-0.5,0-1-0.2-1.4
		c-0.4-0.6-1.2-0.8-1.9-0.5c-1.5,0.7-3.1,1-4.8,1C251.8,53.9,246.4,48.5,246.4,41.8z M263.2,55.1c-1.7,4.7-6.3,7.9-11.4,7.9l-0.3,0
		c-6.3-0.2-11.4-5.2-11.8-11.4c-0.2-4,1.5-7.8,4.6-10.2c0,0.2,0,0.3,0,0.5c0,7.8,6.3,14.1,14.1,14.1
		C260.1,55.9,261.7,55.6,263.2,55.1z"/>
	<circle fill="#00AEEF" cx="243.2" cy="46.5" r="1.2"/>
	<circle fill="#00AEEF" cx="241.9" cy="50" r="0.5"/>
	<circle fill="#00AEEF" cx="244.5" cy="50.4" r="0.5"/>
	<circle fill="#00AEEF" cx="250.4" cy="59.5" r="2.7"/>
	<circle fill="#00AEEF" cx="254.7" cy="56.6" r="0.4"/>
	<circle fill="#00AEEF" cx="255.5" cy="59.5" r="0.8"/>
	<circle fill="#00AEEF" cx="260" cy="57.2" r="0.3"/>
	<circle fill="#00AEEF" cx="243.9" cy="54" r="0.5"/>
	<circle fill="#00AEEF" cx="246.7" cy="56.4" r="0.3"/>
	<path fill="#00AEEF" d="M6,45.6l-0.9,5.5c-0.1,0.7,0.1,1.4,0.5,2c0.7,0.9,2,1.1,3,0.6l5-2.6c0.1-0.1,0.3-0.1,0.4,0l5,2.6
		c0.4,0.2,0.7,0.3,1.1,0.3c0.7,0,1.4-0.3,1.9-0.9c0.5-0.5,0.7-1.3,0.5-2l-0.9-5.5c0-0.1,0-0.3,0.1-0.4l4-3.9
		c0.7-0.6,0.9-1.6,0.6-2.5c-0.3-0.9-1-1.5-2-1.6l-5.5-0.8c-0.1,0-0.3-0.1-0.3-0.2l-2.5-5c-0.4-0.8-1.2-1.3-2.2-1.3c0,0,0,0,0,0
		c-0.9,0-1.8,0.5-2.2,1.3l-2.5,5c-0.1,0.1-0.2,0.2-0.3,0.2l-5.5,0.8c-0.9,0.1-1.7,0.8-2,1.6c-0.3,0.9-0.1,1.8,0.6,2.5l4,3.9
		C6,45.3,6.1,45.5,6,45.6z M3.2,39.5c0-0.1,0.1-0.3,0.3-0.3l5.5-0.8c0.8-0.1,1.5-0.6,1.8-1.3l2.5-5c0.1-0.2,0.3-0.2,0.4-0.2
		c0.1,0,0.3,0,0.4,0.2l2.5,5c0.4,0.7,1,1.2,1.8,1.3l5.5,0.8c0.2,0,0.3,0.2,0.3,0.3c0,0.1,0.1,0.3-0.1,0.4l-4,3.9
		c-0.6,0.6-0.8,1.4-0.7,2.1l0.9,5.5c0,0.1,0,0.2-0.1,0.3C20.2,52,20,52,19.8,51.9l-5-2.6c-0.3-0.2-0.7-0.3-1.1-0.3s-0.8,0.1-1.1,0.3
		l-5,2.6c-0.2,0.1-0.4,0-0.5-0.1c-0.1-0.1-0.1-0.2-0.1-0.3L8,45.9c0.1-0.8-0.1-1.6-0.7-2.1l-4-3.9C3.1,39.7,3.2,39.5,3.2,39.5z"/>
	<path fill="#00AEEF" d="M12.5,38.6l1.8-4.6l-0.9-0.4l-1.8,4.6c-0.1,0.3-0.4,0.6-0.8,0.6l-5.5,0.7l0.1,1l5.5-0.7
		C11.7,39.8,12.3,39.3,12.5,38.6z"/>
	<path fill="#00AEEF" d="M171.3,36.9l2.7,0.9c0.4,0.1,0.7,0.4,0.8,0.8c0.2,0.4,0.1,0.8,0,1.1l-1.2,2.5c-0.5,1.1-0.4,2.2,0.2,3.2
		c0.9,1.4,2.8,2,4.3,1.3l2.5-1.2c0.7-0.3,1.6,0,1.9,0.8l0.9,2.7c0.5,1.4,1.7,2.2,3.2,2.2s2.7-0.9,3.2-2.2l0.9-2.7
		c0.3-0.7,1.2-1.1,1.9-0.8l2.5,1.2c1.5,0.7,3.4,0.2,4.3-1.3c0.6-1,0.7-2.2,0.2-3.2l-1.2-2.5c-0.2-0.4-0.2-0.8,0-1.1
		c0.2-0.4,0.4-0.6,0.8-0.8l2.7-0.9c1.4-0.5,2.2-1.7,2.2-3.2c0-1.4-0.9-2.7-2.2-3.2l-2.7-0.9c-0.4-0.1-0.7-0.4-0.8-0.8
		c-0.2-0.4-0.1-0.8,0-1.1l1.2-2.5c0.5-1.1,0.4-2.2-0.2-3.2c-0.9-1.4-2.8-2-4.3-1.3l-2.5,1.2c-0.7,0.3-1.6,0-1.9-0.8l-0.9-2.7
		c-0.5-1.4-1.7-2.2-3.2-2.2s-2.7,0.9-3.2,2.2l-0.9,2.7c-0.3,0.7-1.2,1.1-1.9,0.8l-2.5-1.2c-1.5-0.7-3.4-0.2-4.3,1.3
		c-0.6,1-0.7,2.2-0.2,3.2l1.2,2.5c0.2,0.4,0.2,0.8,0,1.1c-0.2,0.4-0.4,0.6-0.8,0.8l-2.7,0.9c-1.4,0.5-2.2,1.7-2.2,3.2
		C169,35.1,169.9,36.4,171.3,36.9z M172,32.4l2.7-0.9c0.9-0.3,1.6-1,2-1.9c0.4-0.9,0.3-1.9-0.1-2.7l-1.2-2.5
		c-0.3-0.6-0.1-1.1,0.1-1.3c0.4-0.6,1.1-0.8,1.8-0.5l2.5,1.2c0.5,0.2,0.9,0.3,1.4,0.3c0,0,0,0,0,0c1.4,0,2.7-0.9,3.2-2.2l0.9-2.7
		c0.3-0.8,1.1-0.9,1.3-0.9c0.2,0,1,0.1,1.3,0.9l0.9,2.7c0.5,1.3,1.8,2.2,3.2,2.2c0.5,0,1-0.1,1.4-0.3l2.5-1.2
		c0.7-0.3,1.4-0.1,1.8,0.5c0.1,0.2,0.4,0.7,0.1,1.3l-1.2,2.5c-0.4,0.9-0.4,1.9-0.1,2.7s1.1,1.6,2,1.9l2.7,0.9
		c0.8,0.3,0.9,1.1,0.9,1.3s-0.1,1-0.9,1.3l-2.7,0.9c-0.9,0.3-1.6,1-2,1.9c-0.4,0.9-0.3,1.9,0.1,2.7l1.2,2.5c0.3,0.6,0.1,1.1-0.1,1.3
		c-0.4,0.6-1.1,0.8-1.8,0.5l-2.5-1.2c-0.5-0.2-0.9-0.3-1.4-0.3c-1.4,0-2.7,0.9-3.2,2.2l-0.9,2.7c-0.3,0.8-1.1,0.9-1.3,0.9
		c-0.2,0-1-0.1-1.3-0.9l-0.9-2.7c-0.5-1.3-1.8-2.2-3.2-2.2c-0.5,0-1,0.1-1.4,0.3l-2.5,1.2c-0.7,0.3-1.4,0.1-1.8-0.5
		c-0.1-0.2-0.4-0.7-0.1-1.3l1.2-2.5c0.4-0.9,0.4-1.9,0.1-2.7c-0.4-0.9-1.1-1.6-2-1.9L172,35c-0.8-0.3-0.9-1.1-0.9-1.3
		S171.1,32.7,172,32.4z"/>
	<path fill="#00AEEF" d="M186.6,43.5v-1c-4.9,0-8.9-4-8.9-8.9c0-4.9,4-8.9,8.9-8.9s8.9,4,8.9,8.9h1c0-5.4-4.4-9.9-9.9-9.9
		s-9.9,4.4-9.9,9.9S181.1,43.5,186.6,43.5z"/>
	<path fill="#00AEEF" d="M226.7,35c0.5,0,0.9-0.1,1.4-0.2c1,0.7,2.3,1.1,3.5,1.1c0.2,0,0.4,0,0.6,0c1.4,1.5,3.3,2.4,5.4,2.4
		c1.7,0,3.2-0.6,4.5-1.6c1.1,0.8,2.4,1.2,3.7,1.2c1.6,0,3.1-0.6,4.3-1.6c0.2,0,0.4,0,0.6,0c2.2,0,4-1.8,4-4c0-1.9-1.3-3.5-3.1-3.9
		c-0.3-0.6-0.8-1.2-1.3-1.7c-0.3-2.9-2.7-5-5.7-5c-2,0-3.8,1-4.8,2.6c-0.7-0.2-1.5-0.4-2.2-0.4c-0.8,0-1.6,0.1-2.4,0.4
		c-1.1-0.7-2.3-1.1-3.6-1.1c-2.2,0-4.2,1.1-5.4,3c-2.2,0.2-3.9,2.1-3.9,4.4C222.3,33,224.2,35,226.7,35z M226.7,27.2
		c0,0,0.1,0,0.1,0c0.9-1.8,2.7-3,4.8-3c1.3,0,2.5,0.5,3.4,1.3c0.8-0.3,1.6-0.5,2.5-0.5c1,0,1.9,0.2,2.7,0.6c0.7-1.7,2.4-2.9,4.3-2.9
		c2.5,0,4.6,2,4.7,4.5c0.7,0.6,1.2,1.3,1.6,2.2c1.6,0.1,2.8,1.4,2.8,3c0,1.6-1.3,3-3,3c-0.3,0-0.6-0.1-0.9-0.1c-1,1.1-2.4,1.7-4,1.7
		c-1.5,0-2.8-0.6-3.8-1.5c-1.1,1.2-2.7,1.9-4.5,1.9c-2,0-3.8-1-5-2.5c-0.3,0.1-0.7,0.1-1,0.1c-1.3,0-2.5-0.5-3.4-1.2
		c-0.5,0.2-1,0.4-1.5,0.4c-1.9,0-3.4-1.5-3.4-3.4C223.3,28.7,224.8,27.2,226.7,27.2z"/>
	<path fill="#00AEEF" d="M445.8,83.3c-1.5,0.1-2.8,0.6-3.5,1.3c-0.4-1-1.3-1.6-2.3-1.6c-1.1,0-2,0.7-2.3,1.6l-3.2,0.5l-0.3-0.7
		l-0.4,0.8l-1.9,0.3l1.6,0.2c-0.9,1.8-3.7,7.7-3.7,9.7c0,2.4,2,4.4,4.4,4.4s4.4-2,4.4-4.4c0-1.9-2.6-7.4-3.6-9.4l2.8,0.4
		c0.4,0.9,1.3,1.5,2.3,1.5c0.8,0,1.5-0.4,2-1c0.7,1,2.3,1.7,4.2,1.7c2.4,0,4.3-1.1,4.5-2.5h16.1v-1h-16.3c-0.4-0.8-1.5-1.5-2.8-1.7
		c2.6-1.1,4.4-3.1,4.4-3.1l9.6-0.9l-9.9-1.1l10.5-0.5l-9.9-0.6l10.8-1l-10.6-0.4l9.8-1.1h-15.5c0,0,2.8,3.3,0.7,6.8
		C447.1,82.2,446.4,82.8,445.8,83.3z M434,98.8c-1.9,0-3.4-1.5-3.4-3.4c0-1.5,2.2-6.2,3.4-8.8c1.2,2.6,3.4,7.3,3.4,8.8
		C437.4,97.3,435.9,98.8,434,98.8z"/>
	<path fill="#00AEEF" d="M76.5,132.3c0.1,0,0.2,0,0.3,0c0,0,0,0,0,0c1.6,0,3.2-0.6,4.4-1.8c1.2-1.2,1.8-2.7,1.8-4.4
		s-0.6-3.2-1.8-4.4c-1.4-1.4-3.4-2-5.3-1.7c-0.7-1.4-1.7-2.7-2.8-3.8c-1.1-1.1-2.4-2.1-3.8-2.8c0.3-2-0.3-3.9-1.7-5.3
		c-1.2-1.2-2.7-1.8-4.4-1.8c-1.6,0-3.2,0.6-4.4,1.8c-1.2,1.2-1.9,2.9-1.8,4.7c-2,0.8-3.8,1.9-5.3,3.5c-2.9,2.9-4.4,6.7-4.4,10.7
		c0,4,1.6,7.8,4.4,10.7c2.9,2.9,6.7,4.4,10.7,4.4c4,0,7.8-1.6,10.7-4.4C74.6,136.1,75.7,134.3,76.5,132.3z M62.3,141
		c-3.8,0-7.3-1.5-10-4.1c-2.7-2.7-4.1-6.2-4.1-10s1.5-7.3,4.1-10c1.5-1.5,3.3-2.6,5.3-3.3l0.4-0.1l0-0.4c-0.2-1.6,0.4-3.1,1.5-4.2
		c1-1,2.3-1.5,3.7-1.5c1.4,0,2.7,0.5,3.7,1.5c1.3,1.3,1.8,3.1,1.4,4.8l-0.1,0.4l0.4,0.2c1.4,0.7,2.7,1.6,3.9,2.8
		c1.1,1.1,2.1,2.4,2.7,3.9l0.2,0.4l0.4-0.1c1.7-0.4,3.6,0.1,4.8,1.4c1,1,1.5,2.3,1.5,3.7c0,1.4-0.5,2.7-1.5,3.7
		c-1.1,1.1-2.7,1.7-4.2,1.5l-0.4,0l-0.1,0.4c-0.7,2-1.8,3.8-3.3,5.3C69.6,139.6,66.1,141,62.3,141z"/>
	<circle fill="#00AEEF" cx="60.9" cy="120.6" r="2.2"/>
	<circle fill="#00AEEF" cx="68.6" cy="128.4" r="2.2"/>
	<path fill="#00AEEF" d="M59.9,133.9c-0.5-0.5-0.8-1.2-0.8-2c0-0.7,0.3-1.4,0.7-1.9c0,0,0.1-0.1,0.1-0.1l0.4-0.4l-0.7-0.7l-0.4,0.4
		c0,0-0.1,0.1-0.1,0.1c-1.1,1-2.8,1-3.8-0.1c-0.5-0.5-0.8-1.2-0.8-2c0-0.7,0.3-1.4,0.8-2l-0.7-0.7c-0.7,0.7-1.1,1.7-1.1,2.7
		s0.4,2,1.1,2.7c1,1,2.4,1.3,3.6,1c-0.1,0.3-0.1,0.6-0.1,1c0,1,0.4,2,1.1,2.7c0.7,0.7,1.7,1.1,2.7,1.1s1.9-0.4,2.7-1.1l-0.7-0.7
		C62.7,135,61,135,59.9,133.9z"/>
	<path fill="#00AEEF" d="M65.6,110c-1.4-1.4-3.6-1.4-5,0l0.7,0.7c1-1,2.6-1,3.6,0c0.5,0.5,0.7,1.1,0.7,1.8s-0.3,1.3-0.7,1.8l0.7,0.7
		c0.7-0.7,1-1.5,1-2.5S66.2,110.6,65.6,110z"/>
	<path fill="#00AEEF" d="M78.7,124.5c0.5,0.5,0.7,1.1,0.7,1.8s-0.3,1.3-0.7,1.8l0.7,0.7c0.7-0.7,1-1.5,1-2.5s-0.4-1.8-1-2.5
		c-1.4-1.4-3.6-1.4-5,0l0.7,0.7C76.1,123.5,77.7,123.5,78.7,124.5z"/>
	<path fill="#00AEEF" d="M148.8,98.9l0.3,0.1c0.8-2.6,0.9-5.1,1.1-7.6c0.2-2.5,0.5-5,1.8-7.5l-0.3-0.2c-1.3,2.6-1.6,5.1-1.8,7.6
		C149.7,93.9,149.6,96.4,148.8,98.9z"/>
	<path fill="#00AEEF" d="M151.2,81.3c-0.6,0.6-1.4,1.7-1.9,2.5c1.6-0.3,2.9-0.2,4,0.6c0.6-0.8,0.9-1.8,1-2.9
		c2.3-0.6,4.2-2.5,5.8-4.4c0.6-0.8,1-1.6,1.4-2.6c0.3-0.9,0.3-1.8,0.1-2.7c-0.1-1-0.6-1.9-1.2-2.6c-0.6-0.8-1.4-1.4-2.3-2.1
		c-0.9-0.6-1.9-1-3-1.1c-1.1-0.2-2.2-0.1-3.2,0.1c-1,0.3-2,0.7-2.8,1.3c-2.3,1.7-3.1,4.7-2.2,7.7C147.5,77.7,148.8,80.3,151.2,81.3z
		"/>
	<path fill="#00AEEF" d="M217.3,103.4c1.5-1.4,2.5-3.4,2.5-5.7c0-4.3-3.5-7.8-7.8-7.8c-2.3,0-4.4,1-5.8,2.6
		c-1.4-1.6-3.5-2.6-5.8-2.6c-4.3,0-7.8,3.5-7.8,7.8c0,2.2,1,4.2,2.5,5.7l11.1,10L217.3,103.4z"/>
	<path fill="#00AEEF" d="M407.1,27.2l3.2-2.9c0.4-0.4,0.7-1,0.7-1.6c0-1.2-1-2.3-2.3-2.3c-0.7,0-1.3,0.3-1.7,0.8
		c-0.4-0.5-1-0.8-1.7-0.8c-1.2,0-2.3,1-2.3,2.3c0,0.6,0.3,1.2,0.7,1.6L407.1,27.2z"/>
	<path fill="#00AEEF" d="M247.3,174.5c1.5,0,2.9-0.4,4.1-1.2c2-1.3,9-7.2,13.3-12.3c1.5,0.9,3.3,1.4,5,1.4h0c1.9,0,3.8-0.6,5.4-1.6
		c2.2-1.4,3.7-3.7,4.3-6.2s0.1-5.2-1.4-7.4c-1.8-2.8-4.9-4.5-8.3-4.5c-1.9,0-3.8,0.6-5.4,1.6c-3.2,2.1-4.9,5.7-4.4,9.4
		c-6.4,1.9-14.6,5.9-16.6,7.2c-3.5,2.3-4.4,6.9-2.2,10.4C242.4,173.2,244.8,174.5,247.3,174.5z M244.3,162.4
		c1.9-1.3,10.8-5.5,16.9-7.2l0.9-0.2l-0.2-0.9c-0.7-3.2,0.7-6.5,3.4-8.2c1.3-0.8,2.8-1.3,4.3-1.3c2.7,0,5.2,1.3,6.6,3.6
		c1.2,1.8,1.5,3.9,1.1,5.9c-0.4,2.1-1.6,3.8-3.4,5c-1.3,0.8-2.8,1.3-4.3,1.3h0c-1.6,0-3.3-0.5-4.6-1.5l-0.8-0.6l-0.6,0.7
		c-4,5-11.5,11.3-13.4,12.6c-0.9,0.6-1.9,0.9-3,0.9c-1.9,0-3.6-0.9-4.6-2.5C241.1,167.4,241.8,164,244.3,162.4z"/>
	<path fill="#00AEEF" d="M267.4,153.5c0.2,0.1,0.3,0.3,0.3,0.5l0.2,2.4c0,0.5,0.6,0.7,1,0.4l1.8-1.6c0.1-0.1,0.4-0.2,0.5-0.1
		l2.3,0.5c0.5,0.1,0.9-0.4,0.7-0.8l-1-2.2c-0.1-0.2-0.1-0.4,0-0.6l1.2-2.1c0.3-0.4-0.1-1-0.6-0.9l-2.4,0.3c-0.2,0-0.4-0.1-0.5-0.2
		l-1.6-1.8c-0.3-0.4-1-0.2-1.1,0.3l-0.5,2.4c0,0.2-0.2,0.4-0.4,0.4l-2.2,1c-0.5,0.2-0.5,0.8-0.1,1.1L267.4,153.5z"/>
	<path fill="#00AEEF" d="M247.6,171.6c0.9,0,1.8-0.3,2.6-0.8c2.2-1.4,2.8-4.4,1.4-6.5c-0.9-1.3-2.4-2.2-4-2.2
		c-0.9,0-1.8,0.3-2.6,0.8c-2.2,1.4-2.8,4.4-1.4,6.6C244.5,170.8,246,171.6,247.6,171.6z M245.5,163.7c0.6-0.4,1.3-0.6,2-0.6
		c1.3,0,2.4,0.6,3.1,1.7c1.1,1.7,0.6,4-1.1,5.2c-0.6,0.4-1.3,0.6-2,0.6c-1.3,0-2.4-0.6-3.1-1.7C243.3,167.1,243.8,164.8,245.5,163.7
		z"/>
	<path fill="#00AEEF" d="M217.7,180.7c0.3-0.3,0.1-0.8-0.3-0.9l-2-0.3c-0.2,0-0.3-0.1-0.4-0.3l-0.9-1.9c-0.2-0.4-0.7-0.4-0.9,0
		l-0.9,1.9c-0.1,0.2-0.2,0.3-0.4,0.3l-2,0.3c-0.4,0.1-0.6,0.6-0.3,0.9l1.5,1.4c0.1,0.1,0.2,0.3,0.2,0.5l-0.4,2
		c-0.1,0.4,0.4,0.8,0.8,0.6l1.8-1c0.2-0.1,0.3-0.1,0.5,0l1.8,1c0.4,0.2,0.8-0.1,0.8-0.6l-0.4-2c0-0.2,0-0.3,0.2-0.5L217.7,180.7z"/>
	<path fill="#00AEEF" d="M155.8,36.3c0.1,0.1,0.2,0.3,0.2,0.5l-0.4,2c-0.1,0.4,0.4,0.8,0.8,0.6l1.8-1c0.2-0.1,0.3-0.1,0.5,0l1.8,1
		c0.4,0.2,0.8-0.1,0.8-0.6l-0.4-2c0-0.2,0-0.3,0.2-0.5l1.5-1.4c0.3-0.3,0.1-0.8-0.3-0.9l-2-0.3c-0.2,0-0.3-0.1-0.4-0.3l-0.9-1.9
		c-0.2-0.4-0.7-0.4-0.9,0l-0.9,1.9c-0.1,0.2-0.2,0.3-0.4,0.3l-2,0.3c-0.4,0.1-0.6,0.6-0.3,0.9L155.8,36.3z"/>
	<path fill="#00AEEF" d="M210.4,164.6c0.5-0.5,0.2-1.2-0.4-1.3l-3.1-0.4c-0.3,0-0.5-0.2-0.6-0.4l-1.4-2.8c-0.3-0.6-1.1-0.6-1.4,0
		l-1.4,2.8c-0.1,0.2-0.3,0.4-0.6,0.4l-3.1,0.4c-0.6,0.1-0.9,0.9-0.4,1.3l2.2,2.2c0.2,0.2,0.3,0.4,0.2,0.7l-0.5,3
		c-0.1,0.6,0.6,1.1,1.1,0.8l2.7-1.4c0.2-0.1,0.5-0.1,0.7,0l2.7,1.4c0.6,0.3,1.2-0.2,1.1-0.8l-0.5-3c0-0.3,0-0.5,0.2-0.7L210.4,164.6
		z"/>
	<path fill="#00AEEF" d="M197.5,178.9c0.3-0.3,0.1-0.8-0.3-0.8l-1.9-0.3c-0.2,0-0.3-0.1-0.4-0.3l-0.9-1.7c-0.2-0.4-0.7-0.4-0.9,0
		l-0.9,1.7c-0.1,0.1-0.2,0.2-0.4,0.3l-1.9,0.3c-0.4,0.1-0.6,0.6-0.3,0.8l1.4,1.4c0.1,0.1,0.2,0.3,0.1,0.4l-0.3,1.9
		c-0.1,0.4,0.4,0.7,0.7,0.5l1.7-0.9c0.1-0.1,0.3-0.1,0.5,0l1.7,0.9c0.4,0.2,0.8-0.1,0.7-0.5l-0.3-1.9c0-0.2,0-0.3,0.1-0.4
		L197.5,178.9z"/>
	<path fill="#00AEEF" d="M424.3,28.7c-4.7-4.7-8.3-2.4-9.2-1.4c-0.6,0.6-1.8,2.4-1.9,4.7c1.7-0.4,3.5,0,4.7,1.2
		c1.7,1.7,1.9,4.4,0.5,6.4c3.7,2.2,7.1,1.7,7.1,1.7l1.7,1.7l2.8,2.8c0,0-3.1,2.4,0.3,3.7c3.4,1.4,2.8-3.3,2.8-3.3l0.1-0.1
		c0,0,4.6,0.7,3.3-2.7c-1.4-3.4-3.7-0.3-3.7-0.3l-2.8-2.8l-1.7-1.7C428.1,38.7,428.9,33.4,424.3,28.7z"/>
	<path fill="#00AEEF" d="M79.5,51.3c-1.1,0-2.1,0.2-3,0.7c-0.4,0.2-0.7,0.6-0.8,0.9c-0.4-0.1-0.9-0.1-1.2,0.1
		c-1.6,0.8-2.8,2.2-3.4,3.9s-0.4,3.6,0.4,5.2c1.2,2.3,3.5,3.7,6.1,3.7c1.1,0,2.1-0.2,3-0.7c0.4-0.2,0.7-0.6,0.8-0.9
		c0.2,0,0.4,0.1,0.6,0.1h0c0.2,0,0.5-0.1,0.7-0.2c1.6-0.8,2.8-2.2,3.4-3.9c0.6-1.7,0.4-3.6-0.4-5.2C84.4,52.7,82.1,51.3,79.5,51.3z
		 M84,59.5c-0.4,1.2-1.2,2.1-2.2,2.7c-0.1,0-0.1,0-0.2,0c-0.3-0.1-0.8-0.2-1.1-0.1l-0.2,0.1l-0.2,0.1c-0.3,0.3-0.5,0.6-0.6,0.9
		c0,0.1,0,0.1-0.1,0.2c-0.6,0.3-1.3,0.4-2,0.4c-1.8,0-3.5-1-4.3-2.6c-0.6-1.1-0.7-2.4-0.3-3.6c0.4-1.2,1.2-2.1,2.2-2.7
		c0.1,0,0.1,0,0.2,0c0.3,0.1,0.8,0.2,1.1,0.1l0.2-0.1l0.2-0.1c0.3-0.3,0.5-0.6,0.6-0.9c0-0.1,0-0.1,0.1-0.2c0.6-0.3,1.3-0.4,2-0.4
		c1.8,0,3.5,1,4.3,2.6C84.3,57,84.4,58.3,84,59.5z"/>
	<path fill="#00AEEF" d="M73,47.5c-1.4-1.1-2.7-0.9-3.4,0c-0.7,0.9-0.6,2.2,0.8,3.3s4.3,0.7,4.3,0.7S74.5,48.6,73,47.5z"/>
	<path fill="#00AEEF" d="M374.9,29c0.5,0.3,1.1,0,1.1-0.6v-2c0-0.3-0.1-0.5-0.3-0.6l-1.6-1c-0.5-0.3-1.1,0-1.1,0.6v2
		c0,0.3,0.1,0.5,0.3,0.6L374.9,29z"/>
	<path fill="#00AEEF" d="M374.9,33.4c0.5,0.3,1.1,0,1.1-0.6v-2c0-0.3-0.1-0.5-0.3-0.6l-1.6-1c-0.5-0.3-1.1,0-1.1,0.6v2
		c0,0.3,0.1,0.5,0.3,0.6L374.9,33.4z"/>
	<path fill="#00AEEF" d="M374.9,37.8c0.5,0.3,1.1,0,1.1-0.6v-2c0-0.3-0.1-0.5-0.3-0.6l-1.6-1c-0.5-0.3-1.1,0-1.1,0.6v2
		c0,0.3,0.1,0.5,0.3,0.6L374.9,37.8z"/>
	<path fill="#00AEEF" d="M374.9,42.2c0.5,0.3,1.1,0,1.1-0.6v-2c0-0.3-0.1-0.5-0.3-0.6l-1.6-1c-0.5-0.3-1.1,0-1.1,0.6v2
		c0,0.3,0.1,0.5,0.3,0.6L374.9,42.2z"/>
	<path fill="#00AEEF" d="M374.9,46.6c0.5,0.3,1.1,0,1.1-0.6v-2c0-0.3-0.1-0.5-0.3-0.6l-1.6-1c-0.5-0.3-1.1,0-1.1,0.6v2
		c0,0.3,0.1,0.5,0.3,0.6L374.9,46.6z"/>
	<path fill="#00AEEF" d="M378.8,28.3c0,0.6,0.6,0.9,1.1,0.6l1.6-1c0.2-0.1,0.3-0.4,0.3-0.6v-2c0-0.6-0.6-0.9-1.1-0.6l-1.6,1
		c-0.2,0.1-0.3,0.4-0.3,0.6V28.3z"/>
	<path fill="#00AEEF" d="M376.8,25.9C376.8,25.9,376.8,25.9,376.8,25.9l0.1,65.4h1V26.1c0.1-0.1,0.1-0.1,0.2-0.2l0.9-1.7
		c0.1-0.2,0.1-0.5,0-0.7l-1-1.7c-0.3-0.5-1-0.5-1.3,0l-0.9,1.7c-0.1,0.2-0.1,0.5,0,0.7L376.8,25.9z"/>
	<path fill="#00AEEF" d="M379.9,33.4l1.6-1c0.2-0.1,0.3-0.4,0.3-0.6v-2c0-0.6-0.6-0.9-1.1-0.6l-1.6,1c-0.2,0.1-0.3,0.4-0.3,0.6v2
		C378.8,33.3,379.4,33.7,379.9,33.4z"/>
	<path fill="#00AEEF" d="M378.8,37.2c0,0.6,0.6,0.9,1.1,0.6l1.6-1c0.2-0.1,0.3-0.4,0.3-0.6v-2c0-0.6-0.6-0.9-1.1-0.6l-1.6,1
		c-0.2,0.1-0.3,0.4-0.3,0.6V37.2z"/>
	<path fill="#00AEEF" d="M378.8,41.6c0,0.6,0.6,0.9,1.1,0.6l1.6-1c0.2-0.1,0.3-0.4,0.3-0.6v-2c0-0.6-0.6-0.9-1.1-0.6l-1.6,1
		c-0.2,0.1-0.3,0.4-0.3,0.6V41.6z"/>
	<path fill="#00AEEF" d="M378.8,46c0,0.6,0.6,0.9,1.1,0.6l1.6-1c0.2-0.1,0.3-0.4,0.3-0.6v-2c0-0.6-0.6-0.9-1.1-0.6l-1.6,1
		c-0.2,0.1-0.3,0.4-0.3,0.6V46z"/>
	<path fill="#00AEEF" d="M250.6,137.7c-0.2-0.1-0.4-0.1-0.6,0.1c0,0,0,0,0,0.1c-0.1,0-0.1,0.1-0.1,0.2c-1.3,1.7-2,5.5-2.3,7.2
		c-1.6,0.2-2.9,1.6-2.9,3.2c0,1.8,1.5,3.3,3.3,3.3c0.6,0,1.1-0.2,1.6-0.4c0.5,0.3,1,0.4,1.6,0.4c1.8,0,3.3-1.5,3.3-3.3
		c0-1.8-1.4-3.2-3.2-3.3c-0.8-1.5-0.7-3.6-0.6-5.1c0.3,0.5,0.7,1,1.3,1.3c0.5,0.3,1,0.5,1.7,0.5c0.3,0,0.6,0,0.8-0.1
		c0.3,0,0.6,0,0.6,0l0.4-0.3l-0.4,0.3c0.1,0.1,0.3,0.2,0.4,0.2c0.1,0,0.1,0,0.2,0c0.2-0.1,0.3-0.3,0.3-0.6c0-0.1-0.5-2.1-2-3.1
		c-0.7-0.5-1.6-0.4-2.2-0.2c-0.2,0.1-0.4,0.1-0.5,0.1c-0.1,0-0.1,0-0.3-0.1C250.8,138,250.7,137.8,250.6,137.7z M250,145.4
		c-0.2,0.1-0.4,0.2-0.6,0.3c-0.3-0.2-0.6-0.3-0.9-0.3c0.2-1.2,0.5-2.8,1-4.2C249.4,142.5,249.5,144,250,145.4z M246.5,148.5
		c0-0.7,0.6-1.3,1.3-1.3s1.3,0.6,1.3,1.3s-0.6,1.3-1.3,1.3S246.5,149.2,246.5,148.5z M252.2,148.5c0,0.7-0.6,1.3-1.3,1.3
		c0,0-0.1,0-0.1,0c0.2-0.4,0.3-0.8,0.3-1.3c0-0.4-0.1-0.9-0.3-1.3c0,0,0.1,0,0.1,0C251.7,147.2,252.2,147.8,252.2,148.5z"/>
	<path fill="#00AEEF" d="M220.1,45.1l2.1-23.3l-2-0.2l-0.6,6.2c-2.4,0.6-5.1-2-5.1-2.1c-0.1-0.1-2.3-2.2-6.2-0.4l-0.3-3.7l-2,0.2
		l2.1,23.3H220.1z M213.8,26.5c0.1,0.1,2.5,2.4,5.1,2.4c0.2,0,0.4,0,0.6-0.1l-1.3,14.3H210l-1.5-16.7
		C211.9,24.6,213.8,26.4,213.8,26.5z"/>
	<rect x="210.4" y="29" fill="#00AEEF" width="1.7" height="1"/>
	<rect x="215.2" y="32.4" fill="#00AEEF" width="1.5" height="1"/>
	<rect x="210.4" y="37.2" fill="#00AEEF" width="3" height="1"/>
	<rect x="211.9" y="33.4" fill="#00AEEF" width="1.5" height="1"/>
	<rect x="214" y="39.9" fill="#00AEEF" width="1.9" height="1"/>
	<path fill="#00AEEF" d="M359.4,80.5v8.3c0,1.4,1.1,2.5,2.5,2.5s2.5-1.1,2.5-2.5v-8.3c2.8-1,4.8-3.7,4.8-6.9V26.2
		c0-4-3.3-7.3-7.3-7.3c-4,0-7.3,3.3-7.3,7.3v47.4C354.6,76.8,356.6,79.5,359.4,80.5z M356.6,71.5h3.2v-1h-3.2v-4.9h3.2v-1h-3.2v-4.9
		h3.2v-1h-3.2v-4.9h3.2v-1h-3.2v-4.9h3.2v-1h-3.2v-4.9h3.2v-1h-3.2v-4.9h3.2v-1h-3.2v-4.9h3.2v-1h-3.2v-3.2c0-2.9,2.4-5.3,5.3-5.3
		c2.9,0,5.3,2.4,5.3,5.3v47.4c0,2-1.1,3.8-2.8,4.7v-2.2c0-1-0.6-1.9-1.5-2.3V29.4h-2v44.3c-0.9,0.4-1.5,1.3-1.5,2.3v2.2
		c-1.7-0.9-2.8-2.6-2.8-4.7V71.5z"/>
	<path fill="#00AEEF" d="M381.4,135.4h-3h-1.5h-3c-2.8,0-4.9,2.9-6.8,9.1c-1.3,4.4-2.2,9.5-2.2,13c0,1.3,1,2.3,2.3,2.3
		c1.3,0,2.3-1,2.3-2.3c0-3.9,1.1-9,2.3-12.7c-1,7.3-2.2,18.1-1.3,22.2c0.2,0,0.6,0,1.1,0v14.5c0,1.6,1.3,2.8,2.8,2.8
		s2.8-1.3,2.8-2.8V167c0.2,0,0.4,0,0.6,0v14.5c0,1.6,1.3,2.8,2.8,2.8s2.8-1.3,2.8-2.8V167c0.5,0,0.8,0,1.1,0
		c0.9-4-0.3-14.9-1.3-22.2c1.2,3.7,2.3,8.7,2.3,12.7c0,1.3,1,2.3,2.3,2.3c1.3,0,2.3-1,2.3-2.3c0-3.5-0.9-8.6-2.2-13
		C386.3,138.3,384.2,135.4,381.4,135.4z"/>
	<path fill="#00AEEF" d="M372,125.8c-0.2,0.6-0.3,1.2-0.3,1.8c0,3.3,2.7,5.9,5.9,5.9c3.3,0,5.9-2.6,5.9-5.9c0-0.6-0.1-1.2-0.3-1.8
		v-6.4H372V125.8z M376.1,122.1h1v-1h1v1h1v1h-1v1h-1v-1h-1V122.1z"/>
	<path fill="#00AEEF" d="M347.1,31.7c0.5,0,0.9-0.1,1.4-0.2c1.2-0.4,2.3-1.2,2.9-2.3c0.6-1.1,0.8-2.5,0.4-3.7
		c-0.6-2.1-2.5-3.5-4.7-3.5c-0.5,0-0.9,0.1-1.4,0.2c-2.6,0.7-4.1,3.5-3.3,6C343,30.3,344.9,31.7,347.1,31.7z M347.9,29.6
		c-1.5,0.4-3.1-0.5-3.6-2c-0.1-0.4-0.1-0.9-0.1-1.3l5.3,2C349.2,29,348.6,29.4,347.9,29.6z M346.3,24.1c0.3-0.1,0.5-0.1,0.8-0.1
		c1.3,0,2.4,0.9,2.8,2.1c0.1,0.4,0.1,0.9,0.1,1.3l-5.3-2C345,24.8,345.6,24.3,346.3,24.1z"/>
	<path fill="#00AEEF" d="M311.8,58.7c1.7-2.1,1.4-5.1-0.6-6.9c-0.9-0.7-2-1.1-3.1-1.1c-1.5,0-2.8,0.6-3.8,1.8
		c-0.8,1-1.2,2.3-1.1,3.6c0.1,1.3,0.7,2.5,1.7,3.3c0.9,0.7,2,1.1,3.1,1.1C309.5,60.5,310.9,59.8,311.8,58.7z M309.9,53.4
		c1.2,1,1.4,2.8,0.4,4c-0.3,0.4-0.7,0.6-1.1,0.8l-1.3-5.5c0.1,0,0.1,0,0.2,0C308.7,52.7,309.4,53,309.9,53.4z M306.2,57.8
		c-0.6-0.5-1-1.2-1-1.9s0.2-1.5,0.6-2.1c0.3-0.4,0.7-0.6,1.1-0.8l1.3,5.5C307.5,58.5,306.8,58.3,306.2,57.8z"/>
	<path fill="#00AEEF" d="M481.7,126.8c0.6-2,0.9-4,1-6c2-0.1,4-0.4,6-1l-0.6-1.9c-1.8,0.5-3.6,0.8-5.4,0.9
		c-0.2-6.3-2.8-12.5-7.4-17.1c-4.6-4.6-10.8-7.2-17.1-7.4c0.1-1.8,0.4-3.6,0.9-5.4l-1.9-0.6c-0.6,2-0.9,4-1,6c-2,0.1-4,0.4-6,1
		l0.6,1.9c1.8-0.5,3.6-0.8,5.4-0.9c0.2,6.3,2.8,12.5,7.4,17.1c4.6,4.6,10.7,7.2,17.1,7.4c-0.1,1.8-0.4,3.6-0.9,5.4L481.7,126.8z
		 M478.1,109.1c0.4,0.9,0.8,1.7,1.2,2.6l-5.8,5.8c-0.9-0.3-1.8-0.7-2.6-1.2L478.1,109.1z M469.9,115.8c-0.7-0.4-1.4-0.9-2-1.3
		l8.4-8.4c0.5,0.7,0.9,1.3,1.3,2L469.9,115.8z M479.6,112.8c0.3,0.8,0.5,1.7,0.6,2.5l-3.2,3.2c-0.9-0.2-1.7-0.4-2.5-0.6L479.6,112.8
		z M480.4,116.5c0.1,0.8,0.2,1.6,0.2,2.4c-0.8,0-1.6-0.1-2.4-0.2L480.4,116.5z M475.7,105.3l-8.6,8.6c-0.6-0.5-1.2-1-1.7-1.5
		l8.8-8.8C474.7,104.1,475.2,104.7,475.7,105.3z M461.7,96.8c0.9,0.2,1.7,0.4,2.5,0.6l-5.1,5.1c-0.3-0.8-0.5-1.7-0.6-2.5L461.7,96.8
		z M458.3,98.7c-0.1-0.8-0.2-1.6-0.2-2.4c0.8,0,1.6,0.1,2.4,0.2L458.3,98.7z M465.3,97.8c0.9,0.3,1.8,0.7,2.6,1.2l-7.2,7.2
		c-0.4-0.9-0.8-1.7-1.2-2.6L465.3,97.8z M468.9,99.4c0.7,0.4,1.4,0.9,2,1.3l-8.4,8.4c-0.5-0.7-0.9-1.3-1.3-2L468.9,99.4z
		 M463.1,109.9l8.6-8.6c0.6,0.5,1.2,1,1.7,1.5l-8.8,8.8C464.1,111.1,463.6,110.5,463.1,109.9z"/>
	<path fill="#00AEEF" d="M306.7,72.3c0.4,0.4,0.9,0.6,1.4,0.6s1-0.2,1.4-0.6l9.6-9.6c0.5-0.5,0.7-1.3,0.5-1.9l3.5-3.5
		c2.7,2.6,6.3,4.2,10.3,4.2c8.1,0,14.7-6.6,14.7-14.7s-6.6-14.7-14.7-14.7s-14.7,6.6-14.7,14.7c0,3.4,1.1,6.5,3.1,8.9l-3.6,3.6
		c-0.7-0.2-1.4,0-1.9,0.5l-9.6,9.6C305.9,70.2,305.9,71.5,306.7,72.3z M333.4,34.2c7,0,12.7,5.7,12.7,12.7s-5.7,12.7-12.7,12.7
		c-7,0-12.7-5.7-12.7-12.7S326.4,34.2,333.4,34.2z"/>
	<polygon fill="#00AEEF" points="340.5,39.3 334.7,37.4 336,43.4 	"/>
	<polygon fill="#00AEEF" points="328.1,49.8 330,47.3 329.3,44.3 326.6,43 323.8,44.3 323.1,47.3 325,49.8 	"/>
	<polygon fill="#00AEEF" points="335.5,53.1 334.9,54.9 336.4,53.7 337,55.6 337.5,53.7 339.1,54.9 338.4,53.1 340.4,53.1 338.8,52 
		340.4,50.9 338.4,51 339.1,49.2 337.5,50.3 337,48.5 336.4,50.3 334.9,49.2 335.5,51 333.6,50.9 335.2,52 333.6,53.1 	"/>
	<path fill="#00AEEF" d="M441.9,179.9v-1h33.5l6-6.8H494v-1h-12.7l-6-6.9h-33.5v-1h-4v7.4h-2.6v-3.2h-2v8.5h2v-3.2h2.6v7.3H441.9z
		 M443.6,166.2h1.4v4.8h1v-4.8h4.4v1.9h1v-1.9h4.4v4.8h1v-4.8h4.4v1.9h1v-1.9h1v10.7h-19.4V166.2z"/>
	<rect x="445.5" y="6.4" fill="#00AEEF" width="3.4" height="1"/>
	<rect x="445.5" y="8.9" fill="#00AEEF" width="3.4" height="1"/>
	<rect x="445.5" y="11.5" fill="#00AEEF" width="3.4" height="1"/>
	<rect x="445.5" y="14" fill="#00AEEF" width="3.4" height="1"/>
	<rect x="445.5" y="16.6" fill="#00AEEF" width="3.4" height="1"/>
	<rect x="445.5" y="19.1" fill="#00AEEF" width="3.4" height="1"/>
	<rect x="445.5" y="21.7" fill="#00AEEF" width="3.4" height="1"/>
	<rect x="445.5" y="24.2" fill="#00AEEF" width="3.4" height="1"/>
	<rect x="445.5" y="26.8" fill="#00AEEF" width="3.4" height="1"/>
	<path fill="#00AEEF" d="M462.1,6.8v22.3c0,2.5,2,4.5,4.5,4.5s4.5-2,4.5-4.5V6.8c0.9-0.1,1.5-0.9,1.5-1.8c0-1-0.8-1.8-1.8-1.8h-8.5
		c-1,0-1.8,0.8-1.8,1.8C460.6,5.9,461.3,6.7,462.1,6.8z M462.4,4.2h8.5c0.4,0,0.8,0.4,0.8,0.8s-0.4,0.8-0.8,0.8h-0.7v23.3
		c0,1.9-1.6,3.5-3.5,3.5s-3.5-1.6-3.5-3.5V5.8h-0.7c-0.4,0-0.8-0.4-0.8-0.8S462,4.2,462.4,4.2z"/>
	<rect x="463.7" y="6.4" fill="#00AEEF" width="3.4" height="1"/>
	<rect x="463.7" y="8.9" fill="#00AEEF" width="3.4" height="1"/>
	<rect x="463.7" y="11.5" fill="#00AEEF" width="3.4" height="1"/>
	<rect x="463.7" y="14" fill="#00AEEF" width="3.4" height="1"/>
	<rect x="463.7" y="16.6" fill="#00AEEF" width="3.4" height="1"/>
	<rect x="463.7" y="19.1" fill="#00AEEF" width="3.4" height="1"/>
	<rect x="463.7" y="21.7" fill="#00AEEF" width="3.4" height="1"/>
	<rect x="463.7" y="24.2" fill="#00AEEF" width="3.4" height="1"/>
	<rect x="463.7" y="26.8" fill="#00AEEF" width="3.4" height="1"/>
	<rect x="482" y="6.4" fill="#00AEEF" width="3.4" height="1"/>
	<rect x="482" y="8.9" fill="#00AEEF" width="3.4" height="1"/>
	<rect x="482" y="11.5" fill="#00AEEF" width="3.4" height="1"/>
	<rect x="482" y="14" fill="#00AEEF" width="3.4" height="1"/>
	<rect x="482" y="16.6" fill="#00AEEF" width="3.4" height="1"/>
	<rect x="482" y="19.1" fill="#00AEEF" width="3.4" height="1"/>
	<rect x="482" y="21.7" fill="#00AEEF" width="3.4" height="1"/>
	<rect x="482" y="24.2" fill="#00AEEF" width="3.4" height="1"/>
	<rect x="482" y="26.8" fill="#00AEEF" width="3.4" height="1"/>
	<path fill="#00AEEF" d="M443.3,43.1H490c4.2,0,7.7-3.4,7.7-7.7V18.6h-8.3V6.8c0.9-0.1,1.5-0.9,1.5-1.8c0-1-0.8-1.8-1.8-1.8h-8.5
		c-1,0-1.8,0.8-1.8,1.8c0,0.9,0.7,1.6,1.5,1.8v22.3c0,2.5,2,4.5,4.5,4.5s4.5-2,4.5-4.5v-8.5h6.3v14.8c0,3.1-2.5,5.7-5.7,5.7h-46.8
		c-3.1,0-5.7-2.5-5.7-5.7V20.6h6.3v8.5c0,2.5,2,4.5,4.5,4.5s4.5-2,4.5-4.5V6.8c0.9-0.1,1.5-0.9,1.5-1.8c0-1-0.8-1.8-1.8-1.8h-8.5
		c-1,0-1.8,0.8-1.8,1.8c0,0.9,0.7,1.6,1.5,1.8v11.8h-8.3v16.8C435.6,39.7,439,43.1,443.3,43.1z M488.4,29.1c0,1.9-1.6,3.5-3.5,3.5
		s-3.5-1.6-3.5-3.5V5.8h-0.7c-0.4,0-0.8-0.4-0.8-0.8s0.4-0.8,0.8-0.8h8.5c0.4,0,0.8,0.4,0.8,0.8s-0.4,0.8-0.8,0.8h-0.7V29.1z
		 M443.4,5c0-0.4,0.4-0.8,0.8-0.8h8.5c0.4,0,0.8,0.4,0.8,0.8s-0.4,0.8-0.8,0.8h-0.7v23.3c0,1.9-1.6,3.5-3.5,3.5h0
		c-1.9,0-3.5-1.6-3.5-3.5V5.8h-0.7C443.7,5.8,443.4,5.5,443.4,5z"/>
	<path fill="#00AEEF" d="M81.4,72.1c0-0.9-0.6-2.6-1.5-3.5c-0.4-0.4-1-0.4-1.4,0c-0.4,0.4-0.4,1,0,1.4c0.5,0.5,1,1.7,1,2.1
		c0,0.3-0.3,0.9-1,1.6c-0.5,0.5-1.5,1.9-1.5,3c0,1,0.9,2.9,1.5,3.5c0.2,0.2,0.5,0.3,0.7,0.3s0.5-0.1,0.7-0.3c0.4-0.4,0.4-1,0-1.4
		c-0.3-0.3-1-1.7-1-2.1c0-0.3,0.4-1,1-1.6C80.9,74.1,81.4,73,81.4,72.1z"/>
	<path fill="#00AEEF" d="M86.3,72.1c0-0.9-0.6-2.6-1.5-3.5c-0.4-0.4-1-0.4-1.4,0s-0.4,1,0,1.4c0.5,0.5,1,1.7,1,2.1
		c0,0.3-0.3,0.9-1,1.6c-0.5,0.5-1.5,1.9-1.5,3c0,1,0.9,2.9,1.5,3.5c0.2,0.2,0.5,0.3,0.7,0.3s0.5-0.1,0.7-0.3c0.4-0.4,0.4-1,0-1.4
		c-0.3-0.3-1-1.7-1-2.1c0-0.3,0.4-1,1-1.6C85.8,74.1,86.3,73,86.3,72.1z"/>
	<path fill="#00AEEF" d="M86.7,76.7c0,1,0.9,2.9,1.5,3.5c0.2,0.2,0.5,0.3,0.7,0.3s0.5-0.1,0.7-0.3c0.4-0.4,0.4-1,0-1.4
		c-0.3-0.3-1-1.7-1-2.1c0-0.3,0.4-1,1-1.6c1-1,1.5-2.1,1.5-3c0-0.9-0.6-2.6-1.5-3.5c-0.4-0.4-1-0.4-1.4,0s-0.4,1,0,1.4
		c0.5,0.5,1,1.7,1,2.1c0,0.3-0.3,0.9-1,1.6C87.7,74.2,86.7,75.5,86.7,76.7z"/>
	<path fill="#00AEEF" d="M105.9,94.9c0-5.4-4.1-9.8-9.4-10.3v-2.1H71.6v20.3c0,3.8,3.1,6.8,6.8,6.8h11.2c2.9,0,5.4-1.8,6.4-4.4
		C101.5,105,105.9,100.5,105.9,94.9z M90.8,96.8l-6.7,6.1l-6.7-6.1c-0.9-0.9-1.5-2.1-1.5-3.4c0-2.6,2.1-4.7,4.7-4.7
		c1.4,0,2.6,0.6,3.5,1.6c0.9-1,2.1-1.6,3.5-1.6c2.6,0,4.7,2.1,4.7,4.7C92.3,94.7,91.7,96,90.8,96.8z M96.5,101.2V88.6
		c3,0.5,5.4,3.1,5.4,6.3C101.9,98.1,99.6,100.8,96.5,101.2z"/>
	<path fill="#00AEEF" d="M352.2,109.2c1.1,0.8,2.6,0.9,2.7,0.9c0.2,0,0.7-0.3,0.8,0c0.1,0.3,0.3,0.5,0.3,0.5s-0.5,0.8-0.4,1.2
		c0.1,0.4,0.8,0.9,0.8,0.9l0.3,23.7c0,0-0.6-0.1-1,0.2c-0.4,0.3-0.4,1-0.9,0.9c-0.3-0.1-0.4-0.3-0.5-0.4c-0.3-0.6-1.7-0.6-2.1,0
		c-0.8,1.4-1.2-0.1-1.6-0.3c-0.2-0.1-0.5,0.1-0.5,0.1s0.2,2.2,0.3,2.2c0.1,0.1,1.8,0,2.1-0.1c0.3-0.1,0.1-0.8,0.2-1
		c0.1-0.2,0.8-0.3,1,0.1c0.2,0.5-0.1,0.7,0.3,0.8c0.4,0.2,1-0.1,1.3,0s0.3,0.9,0.1,1.2c-0.2,0.4-1,0.1-1.4,0.2
		c-0.4,0.1-0.2,0.7-0.2,0.9c0,0.2-0.8,0.3-1,0.1c-0.2-0.2,0-1.1-0.3-1.3c-0.3-0.2-2-0.1-2.1,0.1c-0.1,0.2-0.2,1.6-0.1,2.2
		c0.1,0.4,0.6,0.2,0.7,0c0.4-1.1,1.1-0.7,1.4,0.2c0.2,0.4,0,0.5,1.3,0.4c0.8,0,0.7-0.7,0.8-1.1c0.2-0.4,1.9,0,1.9,0
		c-1.3,1,0.7,1,0.5,1.5c-0.2,0.5,0.1,1,0.1,1c2.4,0,2.3,0.1,2.1-1.3c-0.2-1.1-0.3-3.1-0.5-6.7l-1-23.7c0,0,0.7-0.6,0.8-1
		c0.1-0.4-0.5-1.2-0.5-1.2s0.1-0.3,0.3-0.5c0.1-0.3,0.6,0,0.8-0.1c0.2,0,1.7-0.2,2.7-1c2.7-2.2,0.4-8.1-3-6.8
		c-0.6,0.2-1.6-0.6-1.9-0.3c-0.3-0.2-1.3,0.6-1.9,0.4C351.4,101.2,349.4,107.2,352.2,109.2z M355.2,103.3c0.3,0.1,0.9,0.3,1.4,0.5
		l0.1,0l0,0l0,0l0,0l0,0l0,0l0,0l0,0l0,0l0,0l0,0l0,0l0,0l0,0l0,0l0,0l0,0l0,0l0,0l0.1,0l0,0l0.2-0.1c0.4-0.2,0.9-0.4,1.2-0.5
		c2.2-0.8,4.1,2.2,3.2,2.3c-0.1,0-0.4-0.5-0.8-0.4c-0.2,0.1,0.3,0.4,0.3,0.7c-0.1,0.3-0.5,0.8-0.2,0.7c0.4-0.1,0.7-0.8,0.8-0.3
		s-0.1,1.3-0.7,1.8c-0.6,0.5-1.8,0.9-2.1,0.6c-0.5-0.5-0.9-1.1-1.6-1.2l-0.4,0l-0.4,0c-0.7,0.2-1,0.7-1.5,1.2
		c-0.3,0.3-1.5,0-2.1-0.5c-0.6-0.5-0.9-1.2-0.8-1.7c0.1-0.5,0.4,0.2,0.8,0.3c0.4,0.1-0.1-0.5-0.2-0.7c-0.1-0.3,0.4-0.7,0.2-0.7
		c-0.4-0.1-0.7,0.4-0.8,0.4C351.3,105.8,353,102.6,355.2,103.3z"/>
	<path fill="#00AEEF" d="M362.8,161.8c0-3.5-2.8-6.3-6.3-6.3c-3.5,0-6.3,2.8-6.3,6.3c0,3.3,2.5,6,5.8,6.2v7.9
		c-0.1-0.1-0.1-0.2-0.2-0.3c-1.1-1.1-3.1-0.7-3.2-0.7l-0.3,0.1l-0.1,0.3c0,0.1-0.4,2.1,0.7,3.2c0.7,0.7,1.6,0.8,2.3,0.8
		c0.3,0,0.6,0,0.7-0.1v5.3h1v-5.4c0.1,0,0.4,0.1,0.7,0.1c0.7,0,1.7-0.1,2.3-0.8c1.1-1.1,0.7-3.1,0.7-3.2l-0.1-0.3l-0.3-0.1
		c0,0-2.1-0.4-3.2,0.7c-0.1,0.1-0.2,0.2-0.2,0.3v-7.9C360.3,167.8,362.8,165.1,362.8,161.8z M354.3,161.8c0-1.2,1-2.3,2.3-2.3
		c1.2,0,2.3,1,2.3,2.3c0,1.2-1,2.3-2.3,2.3C355.3,164.1,354.3,163.1,354.3,161.8z"/>
	<circle fill="#00AEEF" cx="356.6" cy="161.8" r="1.9"/>
	<path fill="#00AEEF" d="M409.3,54v13c-0.2-0.4-0.4-0.8-0.7-1.1c-1.5-1.5-4.3-1-4.3-1l-0.3,0.1l-0.1,0.3c0,0.1-0.5,2.9,1,4.3
		c0.9,0.9,2.2,1.1,3.2,1.1c0.7,0,1.1-0.1,1.2-0.1l0.1,0v7.9h1v-8l0.1,0c0,0,0.5,0.1,1.2,0.1c1,0,2.3-0.2,3.2-1.1
		c1.5-1.5,1-4.2,1-4.3l-0.1-0.3l-0.3-0.1c0,0-2.8-0.5-4.3,1c-0.3,0.3-0.5,0.7-0.7,1.1V54c4.2-0.3,7.6-3.8,7.6-8.1
		c0-4.5-3.6-8.1-8.1-8.1c-4.5,0-8.1,3.6-8.1,8.1C401.7,50.2,405,53.7,409.3,54z M409.8,41.8c2.3,0,4.1,1.8,4.1,4.1S412,50,409.8,50
		c-2.3,0-4.1-1.8-4.1-4.1S407.5,41.8,409.8,41.8z"/>
	<circle fill="#00AEEF" cx="409.8" cy="45.9" r="2.7"/>
	<path fill="#00AEEF" d="M64.1,25.2c0.6,0.6,0.6,1.6,0,2.2l-0.4,0.4c-0.5,0.5-0.6,1.4-0.2,2c0.4,0.5,1,0.6,1.6,0.5
		c-0.3,1.5,0.1,3.2,1.3,4.4L78.6,47c0.9,0.9,2.1,1.4,3.4,1.4s2.5-0.5,3.4-1.4l4.4-4.4c1.9-1.9,1.9-4.9,0-6.8L77.5,23.6
		c-0.9-0.9-2.1-1.4-3.4-1.4c-0.4,0-0.8,0.1-1.1,0.1c0.1-0.5,0-1.1-0.5-1.5c-0.6-0.5-1.5-0.4-2,0.2L70,21.5c-0.7,0.7-1.7,0.7-2.4,0
		l-1.3-1.3c-1.1-1.1-3.1-1-4,0.4c-0.7,1-0.5,2.4,0.4,3.3L64.1,25.2z M76.8,24.3L89,36.5c1.5,1.5,1.5,3.9,0,5.4l-4.4,4.4
		c-1.4,1.4-3.9,1.4-5.4,0L67.1,34.1c-1.5-1.5-1.5-3.9,0-5.4l4.4-4.4c0.7-0.7,1.7-1.1,2.7-1.1C75.1,23.2,76.1,23.6,76.8,24.3z"/>
	<path fill="#00AEEF" d="M79.8,45.5c1.1,1.1,2.9,1.1,4,0l4.5-4.5c1.1-1.1,1.1-2.9,0-4l-5.5-5.5c0,0-4.3-2.1-5.1,0.4
		c-1.9,5.7-7.7,3.8-7.7,3.8L79.8,45.5z"/>
	<path fill="#00AEEF" d="M103.8,63.2c-1.8-2.2-2.6-5.3-5.4-6.6c-2.5-1.2-5.3-0.2-7.7-1.7c-1.8-0.9-3.4-2.3-4.3-4.2
		c-0.2,0.4,0.5,1.4,0.7,1.8c1.4,1.9,2.1,3.9,2.8,6.1c1.3,2.6,3.9,4,5.8,6.2c0.6,0.7,1.1,2.4,1.7,2.7c-0.6-2.5-1.7-4.8-3.7-6.5
		c-0.6-0.7-1.6-1.3-2-2.1c-0.2-0.3-0.3-0.6-0.3-0.9c0.1-0.1,0.3-0.1,0.4-0.2c1-0.2,2.2,0.4,2.9,1.2c1,2.2,1.6,4.5,2.9,6.6
		c1.3,2.4,3.9,3.6,5.6,5.6c1,1,1.7,2.2,2.3,3.5c0.5-0.1-0.4-2-0.6-2.7c-1-2.3-2.8-4.1-4.7-5.7c-0.7-0.5-2.1-2.6-0.2-2.1
		c1.9,0.5,2.7,2.5,3.7,4c1.3,2,3,3.9,5.1,4.9c-0.7-1.3-2.1-2.2-2.9-3.6c-1.2-1.8-1.8-4-3.2-5.6c-2-1.5-4.6-2.3-6-4.5
		c0.1-1.6,2.6-0.7,3.3,0.2c1.4,1.6,2.3,3.7,4.1,4.9c0.8,0.4,2.3,1.5,2.9,1.2C105.7,65.1,104.6,64.3,103.8,63.2z"/>
	<path fill="#00AEEF" d="M108.3,74.8c-0.7-0.5-1.4-1-2-1.5c0.1,0.3,0.2,0.5,0.3,0.8c0.8,1.6,2.5,2.5,3.8,3.7c0.8,0.4,1.5,2.5,2,2.2
		C111.7,77.9,110.3,76,108.3,74.8z"/>
	<path fill="#00AEEF" d="M105.8,67.3l0,0.2l0.1,0.2c0.8,1.7,1.9,3.4,3.6,4.3c0.6,0.2,1.8,1.8,1.9,1.4c-0.6-1.9-2.4-3-3.7-4.5
		C107.1,68.4,106.2,67.1,105.8,67.3z"/>
	<path fill="#00AEEF" d="M89.1,49.7c1,1.3,2.1,3,3.7,3.4c1.6-0.3,3.6-0.7,4.8,0.9c0.5,0.7,2.3,2.7,1.2,0.7c-0.4-1.9-2.3-2.8-4.1-3
		c-1.9,0.3-3.4-2.5-0.9-2.7c3.1-0.2,5.5,2.3,7,4.7c0.9,1.6,2.6,3.2,4.6,2.9c-1.3-0.8-2.9-1.4-3.4-3c-1.3-2.4-2.5-5.3-5.3-6.2
		c-1.6-0.1-3.1-2.5-0.7-2.6c1.1-0.1,2.4,1.4,3.1,1.4c-0.9-1.5-2.7-2.7-4.6-2.6c-2.1,0.2-2.2,2.8-3.7,3.7
		C89.8,47.7,88.7,48.6,89.1,49.7z M93.5,44.3c0.2-0.2,1.3-0.4,0.8-0.1c-1.2,1-0.2,2.9,1,3.4c2,0.4,3.5,2,4.4,3.7
		c-0.2-0.3-0.6-0.7-0.9-1c-1.6-1.6-4.2-2.9-6.4-2c-1.3,0.5-1.2,2.4-0.2,3.1c0.1,0.2,1.1,0.5,0.6,0.6c-1.6,0-2.3-1.8-3.3-2.8
		c-0.4-1,1-1.3,1.6-1.8C92.3,46.6,92.5,45.1,93.5,44.3z"/>
	<g>
		<path fill="#00AEEF" d="M89.6,49.2c1,1,1.7,2.8,3.3,2.8c0.5-0.1-0.5-0.3-0.6-0.6c-1-0.8-1.2-2.6,0.2-3.1c2.3-0.9,4.8,0.4,6.4,2
			c0.3,0.3,0.7,0.7,0.9,1c-0.9-1.7-2.4-3.3-4.4-3.7c-1.2-0.5-2.2-2.4-1-3.4c0.5-0.3-0.6-0.1-0.8,0.1c-1,0.8-1.3,2.3-2.4,3.1
			C90.6,47.9,89.2,48.2,89.6,49.2z"/>
	</g>
	<path fill="#00AEEF" d="M402.9,161.1c-0.5,0.7-0.9,1.5-1.4,2.2c-0.7,1.2-1.5,2.3-2.2,3.5l-0.5,0.8l0.8,0.5c1,0.6,1.9,1.2,2.9,1.9
		c1,0.7,2,1.3,3,1.9l0.3,0.2l0.3,0c1.1-0.1,1.3-1.4,1.4-2.5c0.3-2.1,0.6-3.2,1.6-3.2c0.2,0,0.5,0.1,0.9,0.2c1.9,0.6,3,1.4,3,2.4
		c0,1-1.2,2.2-3,2.7l-0.4,0.1l-0.1,0.3c0,0,0,0,0,0c-0.2,0.2-0.7,0.7-0.5,1.5l0,0.2l0.1,0.1c0.9,1.3,2.8,2.3,4.4,3.3
		c0.7,0.4,1.4,0.8,1.8,1.1l0.8,0.6l0.6-0.8c0.8-1,1.6-2.1,2.4-3.2c0.6-0.8,1.2-1.5,1.7-2.3c0.3,0.3,0.6,0.7,0.8,1.1
		c0.8,1.1,1.7,2.5,3.4,2.5h0c0.9,0,1.8-0.4,2.9-1.2c1.8-1.4,2.5-3.3,1.9-5.2c-0.7-2.1-3-3.4-5.2-3c0.5-1.3,2.1-3.3,2.9-4.4
		c0.3-0.4,0.5-0.7,0.8-1l0.6-0.8l-0.8-0.6c-1-0.7-2-1.3-3-2c-1-0.6-2-1.3-3-2l-0.4-0.3l-0.1,0c-0.1,0-0.2-0.1-0.3-0.1
		c-0.5,0-0.9,0.4-1.2,0.7c-0.7,0.8-0.5,1.7-0.3,2.6c0.1,0.3,0.1,0.7,0.2,1c-0.6,1-1.6,1.1-2.2,1.1c-1.2,0-2.5-0.7-3-1.6
		c-0.6-1.1-0.3-1.4-0.3-1.6c0.2-0.4,0.8-0.7,1.4-1c1-0.5,2.1-1.1,2.6-2.4l0.3-0.7l-0.7-0.4c-1-0.7-2-1.3-3-2
		c-1.1-0.7-2.2-1.4-3.2-2.1l-0.8-0.5l-0.6,0.8c-0.8,1.1-1.6,2.2-2.3,3.3c-0.5,0.8-1.1,1.6-1.6,2.3c-0.9-1.6-2.2-3.7-4.3-3.7
		c-1.1,0-2.1,0.5-3.2,1.6c-2.2,2.2-2.1,3.9-1.6,5C398.4,160.2,400.9,161.1,402.9,161.1z M400.7,154.6c0.7-0.7,1.3-1,1.8-1
		c1,0,1.9,1.5,2.6,2.7c0.2,0.3,0.3,0.5,0.4,0.7l0.2,0.3l0.4,0.2c0.1,0.1,0.3,0.1,0.4,0.2l0.7,0.3l0.5-0.6c0.8-1.1,1.5-2.2,2.3-3.3
		c0.6-0.8,1.2-1.7,1.8-2.5c0.8,0.5,1.6,1.1,2.4,1.6c0.7,0.5,1.4,0.9,2.1,1.4c-0.3,0.2-0.7,0.4-1.1,0.7c-0.8,0.4-1.7,0.9-2.2,1.7
		c-0.6,1-0.6,2.1,0.2,3.6c0.8,1.6,2.7,2.7,4.7,2.7c1.8,0,3.3-0.9,4-2.4l0.1-0.2l0-0.2c0-0.6-0.1-1.2-0.2-1.7c0-0.2-0.1-0.4-0.1-0.6
		c0.8,0.5,1.6,1.1,2.4,1.6c0.7,0.4,1.4,0.9,2.1,1.4c0,0.1-0.1,0.1-0.1,0.2c-2.1,2.8-3.7,5-3.5,6.7l0.1,0.6l1.6,0.7l0.4-0.2
		c1.3-0.6,3,0.2,3.4,1.5c0.3,1-0.1,2-1.2,2.9c-0.9,0.7-1.4,0.8-1.7,0.8c-0.6,0-1-0.6-1.7-1.7c-0.6-0.8-1.2-1.8-2.2-2.3l-0.8-0.4
		l-0.5,0.7c-0.8,1-1.5,2.1-2.3,3.1c-0.6,0.8-1.3,1.7-1.9,2.5c-0.4-0.2-0.8-0.5-1.2-0.7c-1.1-0.6-2.4-1.4-3.2-2.1
		c2.2-0.9,3.7-2.6,3.7-4.4c0-1.1-0.6-3.1-4.4-4.3c-0.5-0.2-1-0.2-1.5-0.2c-3,0-3.4,3.2-3.6,5c0,0.1,0,0.2,0,0.3
		c-0.7-0.4-1.3-0.8-2-1.3c-0.7-0.5-1.4-0.9-2.1-1.4c0.5-0.9,1.1-1.8,1.6-2.6c0.7-1.1,1.3-2.2,2-3.2l0.5-0.8l-1.7-1.4l-0.5,0.1
		c-0.2,0-0.5,0.1-0.7,0.1c-1.5,0-3-0.7-3.4-1.7C399.1,156.5,399.9,155.3,400.7,154.6z"/>
	<path fill="#00AEEF" d="M42.8,24.1c0.4-0.1,0.7-0.3,1-0.5c0,0,0,0,0.1-0.1c0,0,0,0,0.1,0.1c0.3,0.3,0.6,0.4,1,0.5v8.8h11.9v-7.6
		c0-1.2-1-2.2-2.2-2.2h-5c0.6-0.3,1.1-0.7,1.5-1.1c1-0.9,1.6-2.1,1.7-3.2c0.1-0.5,0-1.1-0.1-1.6s-0.4-0.9-0.8-1.3
		c-0.2-0.2-0.3-0.3-0.5-0.4c-0.6-0.3-1.3-0.5-2-0.5c-1.3,0-2.8,0.6-4,1.7c-0.7,0.6-1.3,1.5-1.7,2.3c-0.4-0.9-1-1.7-1.7-2.3
		c-1.2-1.1-2.6-1.7-4-1.7c-1,0-1.9,0.3-2.5,0.9c-1.6,1.5-1.2,4.2,0.8,6c0.4,0.4,1,0.8,1.5,1.1h-5c-1.2,0-2.2,1-2.2,2.2v7.6h11.9
		V24.1z M47.1,18.4c0.7-0.7,1.6-1.1,2.5-1.1c0.2,0,0.7,0,1,0.3c0.1,0.1,0.3,0.3,0.3,0.7c0,0.5-0.3,1.3-1.1,2.1
		c-1,0.9-2.6,1.6-3.7,1.6c-0.3,0-0.5-0.1-0.5-0.1c0,0,0,0,0,0C45.3,21.5,45.7,19.6,47.1,18.4z M42.3,21.9c0,0-0.1,0.1-0.6,0.1
		c-1.2,0-2.8-0.7-3.7-1.6c-0.8-0.7-1.1-1.6-1.1-2.1c0-0.5,0.2-0.7,0.3-0.7c0.3-0.3,0.8-0.3,1-0.3c0.8,0,1.8,0.4,2.5,1.1
		C42.1,19.6,42.5,21.5,42.3,21.9z"/>
	<path fill="#00AEEF" d="M56.9,42.7v-7.6H45v9.8h9.8C55.9,44.8,56.9,43.9,56.9,42.7z"/>
	<path fill="#00AEEF" d="M33,44.8h9.8v-9.8H30.9v7.6C30.9,43.9,31.9,44.8,33,44.8z"/>
	<path fill="#00AEEF" d="M261.5,93.7v1.2v26.6c-0.6-0.1-1.1-0.2-1.7-0.2c-4.6,0-8.3,3.7-8.3,8.3c0,4.6,3.7,8.3,8.3,8.3
		c4.6,0,8.3-3.7,8.3-8.3c0-0.2,0-0.4,0-0.5v-27.6l16.8-8.5v18.6c-0.6-0.1-1.1-0.2-1.7-0.2c-4.6,0-8.3,3.7-8.3,8.3
		c0,4.6,3.7,8.3,8.3,8.3c4.6,0,8.3-3.7,8.3-8.3v-0.1l0-0.1l0-37.8v-3.3l-2.9,1.5l-25.9,13.1L261.5,93.7z M263.5,94.9l25.9-13.1v37.8
		c0,0,0,0.1,0,0.1c0,3.5-2.8,6.3-6.3,6.3s-6.3-2.8-6.3-6.3c0-3.5,2.8-6.3,6.3-6.3c1.4,0,2.7,0.5,3.7,1.2v-25l-20.8,10.5v28.9
		c0,0.2,0,0.3,0,0.5c0,3.5-2.8,6.3-6.3,6.3c-3.5,0-6.3-2.8-6.3-6.3c0-3.5,2.8-6.3,6.3-6.3c1.4,0,2.7,0.5,3.7,1.2V94.9z"/>
	<g>
		<path fill="#00AEEF" d="M258.3,71.8v14.3c-0.5-0.4-1.1-0.6-1.8-0.6c-1.7,0-3,1.4-3,3c0,1.7,1.4,3,3,3c1.7,0,3-1.4,3-3
			c0-0.1,0-0.1,0-0.2v-14l10.1-5.1v12.1c-0.5-0.4-1.1-0.6-1.8-0.6c-1.7,0-3,1.4-3,3c0,1.7,1.4,3,3,3c1.7,0,3-1.4,3-3c0,0,0,0,0,0
			V65.4L258.3,71.8z"/>
	</g>
	<g>
		<g>
			<path fill="#00AEEF" d="M275.9,80.3c1.2,0,2.2-1,2.2-2.2c0-0.1,0-0.1,0-0.2v-9.9l7.1-3.6V73c-0.4-0.3-0.8-0.4-1.3-0.4
				c-1.2,0-2.2,1-2.2,2.2c0,1.2,1,2.2,2.2,2.2c1.2,0,2.2-1,2.2-2.2c0,0,0,0,0,0V61.8l-8.9,4.5v10.1c-0.4-0.3-0.8-0.4-1.3-0.4
				c-1.2,0-2.2,1-2.2,2.2C273.7,79.3,274.7,80.3,275.9,80.3z"/>
		</g>
	</g>
	<g>
		<path fill="#00AEEF" d="M265,58.5c0,0.8,0.7,1.5,1.5,1.5c0.8,0,1.5-0.7,1.5-1.5c0,0,0-0.1,0-0.1v-7l5-2.6v6
			c-0.3-0.2-0.6-0.3-0.9-0.3c-0.8,0-1.5,0.7-1.5,1.5c0,0.8,0.7,1.5,1.5,1.5c0.8,0,1.5-0.7,1.5-1.5c0,0,0,0,0,0v-9.2l-6.3,3.2v7.2
			c-0.3-0.2-0.6-0.3-0.9-0.3C265.7,56.9,265,57.6,265,58.5z"/>
	</g>
	<g>
		<path fill="#00AEEF" d="M260.2,49.1c0.6,0,1.1-0.5,1.1-1.1c0,0,0-0.1,0-0.1v-5l3.6-1.8v4.3c-0.2-0.1-0.4-0.2-0.6-0.2
			c-0.6,0-1.1,0.5-1.1,1.1c0,0.6,0.5,1.1,1.1,1.1c0.6,0,1.1-0.5,1.1-1.1c0,0,0,0,0,0v-6.5l-4.5,2.3v5.1c-0.2-0.1-0.4-0.2-0.6-0.2
			c-0.6,0-1.1,0.5-1.1,1.1C259.1,48.7,259.6,49.1,260.2,49.1z"/>
	</g>
	<g>
		<path fill="#00AEEF" d="M231.3,45.1c-0.6,0-1.1,0.5-1.1,1.1c0,0.6,0.5,1.1,1.1,1.1c0.6,0,1.1-0.5,1.1-1.1c0,0,0,0,0,0v-6.5
			l-4.5,2.3V47c-0.2-0.1-0.4-0.2-0.6-0.2c-0.6,0-1.1,0.5-1.1,1.1c0,0.6,0.5,1.1,1.1,1.1c0.6,0,1.1-0.5,1.1-1.1c0,0,0-0.1,0-0.1v-5
			l3.6-1.8v4.3C231.7,45.2,231.5,45.1,231.3,45.1z"/>
	</g>
	<g>
		<path fill="#00AEEF" d="M428.7,80.2c-0.6,0-1.1,0.5-1.1,1.1c0,0.6,0.5,1.1,1.1,1.1c0.6,0,1.1-0.5,1.1-1.1c0,0,0,0,0,0v-6.5
			l-4.5,2.3v5.1c-0.2-0.1-0.4-0.2-0.6-0.2c-0.6,0-1.1,0.5-1.1,1.1c0,0.6,0.5,1.1,1.1,1.1c0.6,0,1.1-0.5,1.1-1.1c0,0,0-0.1,0-0.1v-5
			l3.6-1.8v4.3C429.2,80.3,429,80.2,428.7,80.2z"/>
	</g>
	<path fill="#00AEEF" d="M282.6,140c1.1,0.3,2.1,0.6,2.9,0.6c1.2,0,1.3-0.8,1.3-1v-9.5c0-0.3-0.2-0.5-0.5-0.5s-0.5,0.2-0.5,0.5
		c0,0.1,0,0.2-0.5,0.2c-0.7,0-1.8-0.3-2.9-0.6c-1.1-0.3-2.1-0.6-2.9-0.6c-0.3,0-0.6,0.1-0.7,0.2c-0.2-0.1-0.4-0.2-0.7-0.2
		c-0.7,0-1.8,0.3-2.9,0.6c-1.1,0.3-2.2,0.6-2.9,0.6c-0.3,0-0.4-0.1-0.4-0.1c0,0,0,0,0-0.1c0-0.3-0.2-0.5-0.5-0.5s-0.5,0.2-0.5,0.5
		v9.5c0,0.2,0.1,1,1.3,1c0.7,0,1.8-0.3,2.9-0.6c1.1-0.3,2.2-0.6,2.9-0.6c0.5,0,0.5,0.1,0.5,0.2c0,0.3,0.2,0.5,0.5,0.5
		s0.5-0.2,0.5-0.5c0-0.1,0-0.2,0.5-0.2C280.4,139.5,281.5,139.8,282.6,140z M277.8,138.5c-0.8,0-2,0.3-3.1,0.6c-1,0.3-2,0.5-2.6,0.5
		c-0.2,0-0.2,0-0.3,0v-8.4c0.8,0.2,2.2-0.2,3.6-0.6c1-0.3,2-0.6,2.6-0.6c0.1,0,0.2,0,0.2,0v8.4C278.1,138.5,278,138.5,277.8,138.5z
		 M279.3,138.5v-8.4c0,0,0.1,0,0.2,0c0.6,0,1.6,0.3,2.6,0.6c1.4,0.4,2.8,0.7,3.6,0.6l0,8.3c0,0-0.1,0-0.3,0c-0.6,0-1.6-0.3-2.6-0.5
		c-1.1-0.3-2.3-0.6-3.1-0.6C279.5,138.5,279.4,138.5,279.3,138.5z"/>
	<path fill="#00AEEF" d="M373.8,91c-4.8,0-8.7,3.8-9,8.5h9V91z"/>
	<path fill="#00AEEF" d="M382.2,100.5h-17.3c0.3,4.7,4.2,8.5,9,8.5c4.5,0,8.2-3.3,8.9-7.6l4.1-4.1l-0.7-0.7l-3.3,3.3L382.2,100.5z"
		/>
	<circle fill="#00AEEF" cx="368" cy="110.3" r="2.2"/>
	<circle fill="#00AEEF" cx="379.6" cy="110.3" r="2.2"/>
	<path fill="#00AEEF" d="M430.1,54.3c-0.4,1.5-1.8,2.7-3.4,2.7s-3-1.1-3.4-2.7h-2.8h0v0l-5.3,2.7l1.8,4.4l3.6-1.8v10.7h12.5V59.6
		l3.6,1.8l1.8-4.4l-5.3-2.7H430.1z"/>
	<g>
		<path fill="#00AEEF" d="M488.9,99.3L488.9,99.3l-4.3,2.1c-0.7,0.3-0.9,1.2-0.5,1.9l3.1,4.9c0.4,0.6,1.1,0.8,1.7,0.5l3.6-1.7
			c1.9,1.6,3.5,3.5,4.6,5.8c1.1,2.3,1.7,4.8,1.7,7.2l-3.6,1.7c-0.6,0.3-0.9,1-0.7,1.6l1.9,5.5c0.3,0.7,1.1,1.1,1.8,0.7l4.3-2.1
			c2-5.6,1.6-11.6-1-16.9C499,105.3,494.5,101.3,488.9,99.3L488.9,99.3z"/>
	</g>
	<polygon fill="#00AEEF" points="416.6,20.8 418,22.6 419.6,18.6 421.1,23.8 423.5,21.1 424.5,21.1 425.7,22.4 426.8,20.7 
		427.4,21.1 429.5,21.1 429.5,20.1 427.8,20.1 426.6,19.2 425.6,20.8 425,20.1 423,20.1 421.6,21.8 419.8,15.5 417.7,20.6 
		416.8,19.3 415.9,20.1 412.5,20.1 412.5,21.1 416.2,21.1 	"/>
	<circle fill="#00AEEF" cx="15.6" cy="141.8" r="4.7"/>
	<path fill="#00AEEF" d="M18,186.5c1.2,0,2.2-1,2.2-2.2V156c0.7,2.7,1.2,6.1,1.2,9c0,1,0.8,1.8,1.8,1.8c1,0,1.8-0.8,1.8-1.8
		c0-2.9-0.5-6.8-1.3-10c-1.2-4.8-2.8-7-5-7h-2.9h-0.7h-2.9c-2.2,0-3.8,2.2-5,7c-0.8,3.2-1.3,7.1-1.3,10c0,1,0.8,1.8,1.8,1.8
		c1,0,1.8-0.8,1.8-1.8c0-2.9,0.5-6.3,1.2-9v28.3c0,1.2,1,2.2,2.2,2.2c1.2,0,2.2-1,2.2-2.2V168h0.4v16.3
		C15.8,185.5,16.8,186.5,18,186.5z"/>
	<circle fill="#00AEEF" cx="39.2" cy="141.9" r="4.7"/>
	<path fill="#00AEEF" d="M47.5,167.3c1,0,1.8-0.8,1.8-1.8c0-2.8-0.7-6.8-1.7-10.3c-1.5-4.9-3.2-7.1-5.4-7.1h-2.3h-1.2h-2.3
		c-2.2,0-3.9,2.3-5.4,7.1c-1.1,3.5-1.7,7.5-1.7,10.3c0,1,0.8,1.8,1.8,1.8c1,0,1.8-0.8,1.8-1.8c0-3.1,0.9-7.1,1.8-10
		c-0.8,5.7-1.7,14.3-1,17.5c0.2,0,0.5,0,0.9,0v11.4c0,1.2,1,2.2,2.2,2.2c1.2,0,2.2-1,2.2-2.2v-11.4c0.2,0,0.3,0,0.5,0v11.4
		c0,1.2,1,2.2,2.2,2.2c1.2,0,2.2-1,2.2-2.2v-11.4c0.4,0,0.7,0,0.9,0c0.7-3.2-0.2-11.7-1-17.5c1,2.9,1.8,6.9,1.8,10
		C45.6,166.4,46.4,167.3,47.5,167.3z"/>
	<circle fill="#00AEEF" cx="60.7" cy="157" r="4.3"/>
	<path fill="#00AEEF" d="M62.8,186.5c1,0,1.8-0.8,1.8-1.8v-9.7v-1.4v-6.2c0.5,1.3,0.8,3.2,0.8,5.2c0,0.8,0.7,1.5,1.5,1.5
		s1.5-0.6,1.5-1.5c0-4.2-1.5-10.2-5-10.2h-2.3h-0.5h-2.3c-3.4,0-5,6-5,10.2c0,0.8,0.7,1.5,1.5,1.5c0.8,0,1.5-0.6,1.5-1.5
		c0-2.1,0.4-3.9,0.8-5.3v6.2v1.4v9.7c0,1,0.8,1.8,1.8,1.8c1,0,1.8-0.8,1.8-1.8v-9.7H61v9.7C61,185.7,61.8,186.5,62.8,186.5z"/>
	<circle fill="#00AEEF" cx="93.8" cy="161.8" r="3.6"/>
	<path fill="#00AEEF" d="M95.5,186.5c0.8,0,1.5-0.7,1.5-1.5V177v-1.2v-5.2c0.4,1.1,0.7,2.7,0.7,4.4c0,0.7,0.5,1.2,1.2,1.2
		s1.2-0.5,1.2-1.2c0-3.6-1.3-8.6-4.2-8.6H94h-0.4h-1.9c-2.9,0-4.2,5-4.2,8.6c0,0.7,0.5,1.2,1.2,1.2c0.7,0,1.2-0.5,1.2-1.2
		c0-1.7,0.3-3.3,0.7-4.4v5.2v1.2v8.1c0,0.8,0.7,1.5,1.5,1.5c0.8,0,1.5-0.7,1.5-1.5V177H94v8.1C94,185.9,94.7,186.5,95.5,186.5z"/>
	<circle fill="#00AEEF" cx="111.5" cy="157" r="4.3"/>
	<path fill="#00AEEF" d="M113.9,162.5H112h-1h-1.8c-1.6,0-3,1.3-4.2,3.9c-0.5,1-0.8,2.1-1.1,3.3c-0.2,1.1-0.4,2.3-0.4,3.4
		c0,0.8,0.7,1.4,1.5,1.4c0.8,0,1.4-0.6,1.4-1.4c0-2.5,0.8-4.8,1.6-6.2c-0.6,3.6-1.5,9.5-0.9,12.2c0.1,0,0.4,0,0.6,0v5.8
		c0,1,0.8,1.8,1.8,1.8c1,0,1.8-0.8,1.8-1.8V179c0.2,0,0.3,0,0.5,0v5.8c0,1,0.8,1.8,1.8,1.8s1.8-0.8,1.8-1.8V179c0.3,0,0.5,0,0.6,0
		c0.6-2.6-0.3-8.6-0.9-12.1c0.8,1.4,1.6,3.8,1.6,6.2c0,0.8,0.6,1.4,1.4,1.4c0.8,0,1.5-0.6,1.5-1.4c0-2.2-0.5-4.7-1.4-6.7
		C116.9,163.9,115.5,162.5,113.9,162.5z"/>
	<circle fill="#00AEEF" cx="78.5" cy="161.6" r="3.7"/>
	<path fill="#00AEEF" d="M84,176.4c0.7,0,1.2-0.5,1.2-1.2c0-1.8-0.5-3.9-1.2-5.6c-1-2.1-2.2-3.3-3.5-3.3h-1.6h-0.8h-1.6
		c-1.4,0-2.6,1.1-3.5,3.3c-0.8,1.7-1.2,3.8-1.2,5.6c0,0.7,0.5,1.2,1.2,1.2c0.7,0,1.2-0.5,1.2-1.2c0-2.1,0.7-4.1,1.3-5.3
		c-0.5,3-1.3,8-0.8,10.3c0.1,0,0.3,0,0.5,0v4.9c0,0.8,0.7,1.5,1.5,1.5c0.8,0,1.5-0.7,1.5-1.5v-4.9c0.1,0,0.3,0,0.4,0v4.9
		c0,0.8,0.7,1.5,1.5,1.5c0.8,0,1.5-0.7,1.5-1.5v-4.9c0.2,0,0.4,0,0.5,0c0.5-2.2-0.2-7.2-0.8-10.3c0.7,1.2,1.3,3.2,1.3,5.3
		C82.7,175.8,83.3,176.4,84,176.4z"/>
	<path fill="#00AEEF" d="M133.4,77.2c-0.9,0-1.5,0-2.1,0c-0.5,0-1.2,0-2.1,0c-6.4,0-4.8,35.4-4.8,35.4h2.8c0.2,0,0.4,0,0.7,0v16.1
		c0,1.7,1.4,3.2,3.2,3.2s3.2-1.4,3.2-3.2v-16.1c0.5,0,0.9,0,1.2,0h2.8c0,0,0.1-3.3,0.2-7.9c4.2-0.5,7.4-4,7.4-8.3
		c0-4.5-3.6-8.2-8.1-8.4C137,82,135.7,77.2,133.4,77.2z M138.3,94c0.5-0.5,1.2-0.9,2-0.9c1.5,0,2.6,1.2,2.6,2.6
		c0,0.8-0.3,1.4-0.8,1.9l-3.8,3.4l-3.8-3.4c-0.5-0.5-0.8-1.2-0.8-1.9c0-1.5,1.2-2.6,2.6-2.6C137.1,93.1,137.8,93.4,138.3,94z"/>
	<path fill="#00AEEF" d="M131,75.5c3.6,0,6.6-2.9,6.6-6.6c0-3.6-2.9-6.6-6.6-6.6c-3.1,0-5.7,2.1-6.4,5l0-0.1c0,0,0,0.1,0,0.2
		c-0.1,0.5-0.2,0.9-0.2,1.4c0,0,0,0,0,0c-0.3,2-1.1,5.2-3.3,6c3.6-0.8,4.8-1.2,5.2-1.5C127.4,74.7,129.1,75.5,131,75.5z"/>
	<path fill="#00AEEF" d="M144.3,47.3v11.8c0,0,4,0,5.9,0h1h8.5h1c1.9,0,5.9,0,5.9,0V47.3c0.8,0,1.5-0.7,1.5-1.5
		c0-0.8-0.7-1.5-1.5-1.5c-0.8,0-1.5,0.7-1.5,1.5c0,0.8,0.6,1.4,1.4,1.4l-6.2,10.8l-4.8-10.8c0.8,0,1.4-0.7,1.4-1.4
		c0-0.8-0.7-1.5-1.5-1.5c-0.8,0-1.5,0.7-1.5,1.5c0,0.8,0.6,1.4,1.4,1.4l-4.8,10.8L144.3,47.3c0.8-0.1,1.5-0.7,1.5-1.5
		c0-0.8-0.7-1.5-1.5-1.5c-0.8,0-1.5,0.7-1.5,1.5C142.8,46.6,143.5,47.3,144.3,47.3z"/>
	<path fill="#00AEEF" d="M167.6,62.3c0-0.6-0.4-1-1-1h-22.4c-0.6,0-1,0.4-1,1s0.4,1,1,1h22.4C167.2,63.3,167.6,62.8,167.6,62.3z"/>
	<circle fill="#00AEEF" cx="149.3" cy="106.1" r="3.7"/>
	<path fill="#00AEEF" d="M140.6,115.9c-1.3,1.3,0.5,3.1,1.8,1.7l3-3v2.8h3.9h0h3.9v-2.8l3,3c1.2,1.3,3.1-0.4,1.8-1.7l-5-5
		c-0.4-0.4-0.9-0.6-1.6-0.6h-2.2h0H147c-0.7,0-1.1,0.3-1.5,0.6L140.6,115.9z"/>
	<path fill="#00AEEF" d="M152,127.9l3.5-3.6c0.7-0.8,0.9-2.2,0.2-3c0,0-2.5-2.5-2.5-2.5l-2.9,2.9l2.1,2.1l-2.2,2.2
		C148.8,127.4,150.6,129.2,152,127.9z"/>
	<path fill="#00AEEF" d="M145.4,118.9c0,0-2.5,2.5-2.5,2.5c-0.8,0.8-0.6,2.2,0.2,3l3.5,3.6c1.3,1.3,3.1-0.5,1.8-1.8l-2.2-2.2
		l2.1-2.1L145.4,118.9z"/>
</g>
</svg>
