<?xml version="1.0" encoding="utf-8"?>
<!-- Generator: Adobe Illustrator 16.0.0, SVG Export Plug-In . SVG Version: 6.00 Build 0)  -->
<!DOCTYPE svg PUBLIC "-//W3C//DTD SVG 1.1//EN" "http://www.w3.org/Graphics/SVG/1.1/DTD/svg11.dtd">
<svg version="1.1" id="Layer_1" xmlns="http://www.w3.org/2000/svg" xmlns:xlink="http://www.w3.org/1999/xlink" x="0px" y="0px"
	 width="1046px" height="260.16px" viewBox="0 0 1046 260.16" enable-background="new 0 0 1046 260.16" xml:space="preserve">
<g>
	<polygon points="718.34,75.577 714.006,91.716 705.095,128.73 731.601,128.73 722.46,91.487 	"/>
	<path d="M262.77,0v220.361h219.865l30.67,39.799c28.363-7.843,49.228-23.585,56.726-39.799H807.48V0H262.77z M386.213,55.157
		l-53.696,98.251l-4.677,8.683h58.373v26.503H294.13v-26.503l53.468-97.566l4.662-9.367h-58.13V28.649h92.083V55.157z
		 M501.441,189.739h-22.164l-45.469-79.746l-8.032-14.921l0.034,14.464v79.058h-27.191V27.509h22.163l45.929,80.427l7.492,14.706
		l0.048-14.247V28.649h27.191V189.739z M521.502,186.426c-2.666-2.663-4.001-6.894-4.001-12.682c0-5.179,1.522-9.255,4.571-12.226
		c3.045-2.97,6.852-4.453,11.423-4.453c5.788,0,10.245,2.056,13.369,6.169c3.12,4.11,4.684,9.825,4.684,17.136
		c0,6.705-0.955,12.487-2.854,17.366c-1.908,4.871-4.228,8.945-6.971,12.222c-2.743,3.273-5.677,5.903-8.798,7.885
		c-3.123,1.98-5.825,3.426-8.109,4.342l-8.456-10.971c3.503-1.824,6.625-4.759,9.369-8.792c2.743-4.04,4.26-8.114,4.569-12.227
		C527.1,190.344,524.165,189.089,521.502,186.426z M658.938,132.385c0,20.72-4.227,35.723-12.681,45.015
		c-8.455,9.293-20.148,13.937-35.074,13.937c-17.52,0-30.354-4.531-38.498-13.595c-8.154-9.06-12.227-22.884-12.227-41.473V28.649
		h28.789v102.596c0,12.491,1.676,21.212,5.027,26.163c3.349,4.95,8.91,7.424,16.68,7.424c7.46,0,12.794-2.627,15.994-7.883
		c3.198-5.255,4.798-13.822,4.798-25.704V28.649h27.191V132.385z M746.449,188.594l-9.82-36.557h-37.704l-9.369,36.557h-28.559
		l46.382-161.084h22.622l46.613,161.084H746.449z"/>
</g>
</svg>
