<?xml version="1.0" encoding="utf-8"?>
<!-- Generator: Adobe Illustrator 16.0.0, SVG Export Plug-In . SVG Version: 6.00 Build 0)  -->
<!DOCTYPE svg PUBLIC "-//W3C//DTD SVG 1.1//EN" "http://www.w3.org/Graphics/SVG/1.1/DTD/svg11.dtd">
<svg version="1.1" id="Layer_1" xmlns="http://www.w3.org/2000/svg" xmlns:xlink="http://www.w3.org/1999/xlink" x="0px" y="0px"
	 width="1046px" height="290.154px" viewBox="0 0 1046 290.154" enable-background="new 0 0 1046 290.154" xml:space="preserve">
<g>
	<path d="M479.065,106.096c-2.65,6.694-6.506,12.693-11.557,17.998c-5.18,5.558-11.083,9.787-17.712,12.693
		c-6.63,2.907-13.673,4.354-21.124,4.354h-0.19c-7.326,0-14.304-1.447-20.934-4.354c-6.63-2.906-12.599-7.074-17.903-12.507
		c-4.925-5.305-8.746-11.3-11.461-17.999c-2.719-6.689-4.135-13.826-4.264-21.405V51.911c0.633-6.694,2.303-13.007,5.022-18.945
		c2.713-5.934,6.281-11.3,10.703-16.104c5.304-5.429,11.241-9.596,17.808-12.503C414.019,1.456,421.029,0,428.482,0h0.19
		c7.451,0,14.494,1.456,21.124,4.358c6.63,2.907,12.532,7.075,17.712,12.503c4.549,4.804,8.148,10.171,10.8,16.104
		c2.652,5.938,4.292,12.251,4.925,18.945v4.168V73.51v11.366C483.108,92.331,481.719,99.402,479.065,106.096z"/>
	<g>
		<path d="M332.298,0v54.562h-37.701V0H262.77v140.955h101.355V0H332.298z M305.363,89.472v15.751v1.288
			c-0.017,0.843-0.173,1.646-0.474,2.402c-0.299,0.757-0.737,1.437-1.307,2.037c-0.587,0.629-1.253,1.109-2.006,1.436
			c-0.749,0.33-1.549,0.497-2.391,0.497h-0.021c-0.831,0-1.622-0.167-2.372-0.497c-0.75-0.326-1.425-0.799-2.027-1.412
			c-0.555-0.602-0.991-1.281-1.296-2.041c-0.309-0.757-0.471-1.564-0.484-2.422V89.002c0.073-0.757,0.263-1.475,0.568-2.146
			c0.307-0.671,0.71-1.28,1.212-1.824c0.602-0.612,1.272-1.086,2.018-1.412c0.741-0.33,1.537-0.496,2.381-0.496h0.021
			c0.842,0,1.642,0.166,2.391,0.496c0.753,0.326,1.419,0.8,2.006,1.412c0.516,0.544,0.922,1.153,1.221,1.824
			c0.299,0.672,0.486,1.39,0.56,2.146V89.472z M333.702,89.472v15.751v1.288c-0.016,0.843-0.172,1.646-0.473,2.402
			c-0.299,0.757-0.737,1.437-1.309,2.037c-0.584,0.629-1.253,1.109-2.006,1.436c-0.749,0.33-1.549,0.497-2.391,0.497h-0.021
			c-0.831,0-1.619-0.167-2.37-0.497c-0.75-0.326-1.427-0.799-2.029-1.412c-0.555-0.602-0.989-1.281-1.295-2.041
			c-0.309-0.757-0.469-1.564-0.484-2.422V89.002c0.072-0.757,0.263-1.475,0.569-2.146c0.307-0.671,0.711-1.28,1.21-1.824
			c0.602-0.612,1.272-1.086,2.02-1.412c0.741-0.33,1.536-0.496,2.379-0.496h0.021c0.842,0,1.642,0.166,2.391,0.496
			c0.752,0.326,1.421,0.8,2.006,1.412c0.517,0.544,0.924,1.153,1.223,1.824c0.299,0.672,0.484,1.39,0.559,2.146V89.472z"/>
	</g>
	<path d="M491.948,140.955V0h32.397l39.593,78.625V0h31.829v140.955H491.948z"/>
	<path d="M637.482,31.829v22.732h40.165V86.39h-40.165v22.736h54.563v31.829h-86.391V0h86.391v31.829H637.482z"/>
	<path d="M768.107,70.475v70.48h-31.829v-70.48L698.198,0h31.829l22.166,40.922L774.169,0h31.827L768.107,70.475z"/>
	<path d="M324.152,219.679c6.062,3.159,10.924,7.674,14.588,13.55c3.662,5.872,5.494,12.41,5.494,19.607
		c0,5.183-0.981,10.04-2.938,14.586c-1.958,4.55-4.612,8.497-7.956,11.843c-3.347,3.349-7.295,6.001-11.842,7.956
		c-4.544,1.962-9.41,2.934-14.588,2.934h-0.947H262.77v-140.95h43.193h0.947c5.178,0,10.044,0.982,14.588,2.938
		c4.547,1.962,8.495,4.61,11.842,7.956c3.344,3.349,5.998,7.297,7.956,11.838c1.957,4.55,2.938,9.412,2.938,14.594
		c0,7.198-1.833,13.732-5.494,19.608C335.075,212.009,330.214,216.525,324.152,219.679z"/>
	<path d="M429.165,148.826h31.828v84.875c-0.128,7.453-1.517,14.524-4.167,21.22c-2.656,6.694-6.508,12.691-11.557,17.996
		c-5.18,5.559-11.084,9.788-17.716,12.695s-13.673,4.355-21.123,4.355h-0.19c-7.325,0-14.302-1.448-20.934-4.355
		s-12.599-7.137-17.903-12.695c-4.926-5.305-8.75-11.302-11.461-17.996c-2.718-6.695-4.142-13.767-4.266-21.22v-84.875h31.83
		H429.165z"/>
	<path d="M470.633,289.968V149.014h32.397l39.594,78.625v-78.625h31.83v140.954H470.633z"/>
	<path d="M584.416,289.968V149.014h32.396l39.595,78.625v-78.625h31.83v140.954H584.416z"/>
	<path d="M763.256,219.489v70.479h-31.827v-70.479l-38.08-70.475h31.827l22.166,40.922l21.977-40.922h31.827L763.256,219.489z"/>
</g>
</svg>
