<?xml version="1.0" encoding="utf-8"?>
<!-- Generator: Adobe Illustrator 16.0.0, SVG Export Plug-In . SVG Version: 6.00 Build 0)  -->
<!DOCTYPE svg PUBLIC "-//W3C//DTD SVG 1.1//EN" "http://www.w3.org/Graphics/SVG/1.1/DTD/svg11.dtd">
<svg version="1.1" id="Layer_1" xmlns="http://www.w3.org/2000/svg" xmlns:xlink="http://www.w3.org/1999/xlink" x="0px" y="0px"
	 width="1046px" height="101.35px" viewBox="0 0 1046 101.35" enable-background="new 0 0 1046 101.35" xml:space="preserve">
<rect x="111.615" y="0.75" fill="none" stroke="#AAAAAA" stroke-miterlimit="10" width="180.626" height="100.348"/>
<rect x="864.373" y="0.75" fill="none" stroke="#AAAAAA" stroke-miterlimit="10" width="180.626" height="100.348"/>
<path fill="#FFFFFF" stroke="#000000" stroke-width="2" stroke-miterlimit="10" d="M928.472,30.854c0,1.63-1.32,2.951-2.95,2.951
	c-1.628,0-2.95-1.321-2.95-2.951h-47.81v40.139h47.81c0-1.629,1.322-2.95,2.95-2.95c1.63,0,2.95,1.32,2.95,2.95h106.847V30.854
	H928.472z"/>
<path fill="#FFFFFF" stroke="#000000" stroke-width="2" stroke-miterlimit="10" d="M55.408,30.854c0,1.63-1.321,2.951-2.95,2.951
	c-1.629,0-2.95-1.321-2.95-2.951H1.698v40.139h47.81c0-1.629,1.321-2.95,2.95-2.95c1.629,0,2.95,1.32,2.95,2.95h106.846V30.854
	H55.408z"/>
<rect x="396.407" y="0.75" fill="none" stroke="#AAAAAA" stroke-miterlimit="10" width="180.626" height="100.348"/>
<path fill="#FFFFFF" stroke="#000000" stroke-width="2" stroke-miterlimit="10" d="M577.033,33.805c-1.629,0-2.949-1.321-2.949-2.95
	h-47.81v40.139h47.81c0-1.629,1.32-2.95,2.949-2.95V33.805z"/>
<rect x="594.016" y="0.75" fill="none" stroke="#AAAAAA" stroke-miterlimit="10" width="180.626" height="100.348"/>
<line fill="none" stroke="#000000" stroke-miterlimit="10" x1="788.803" y1="99.817" x2="850.211" y2="0.75"/>
<path fill="#FFFFFF" stroke="#000000" stroke-width="2" stroke-miterlimit="10" d="M594.016,67.496c1.63,0,2.949,1.328,2.949,2.966
	h106.792V30.105H596.965c0,1.638-1.319,2.966-2.949,2.966V67.496z"/>
<line fill="none" stroke="#000000" stroke-miterlimit="10" x1="312.244" y1="50.284" x2="376.405" y2="50.284"/>
<polyline fill="none" stroke="#000000" stroke-miterlimit="10" points="364.405,38.284 376.405,50.284 364.405,62.284 "/>
</svg>
