<?xml version="1.0" encoding="utf-8"?>
<!-- Generator: Adobe Illustrator 16.0.0, SVG Export Plug-In . SVG Version: 6.00 Build 0)  -->
<!DOCTYPE svg PUBLIC "-//W3C//DTD SVG 1.1//EN" "http://www.w3.org/Graphics/SVG/1.1/DTD/svg11.dtd">
<svg version="1.1" id="Layer_1" xmlns="http://www.w3.org/2000/svg" xmlns:xlink="http://www.w3.org/1999/xlink" x="0px" y="0px"
	 width="1046px" height="180.589px" viewBox="0 0 1046 180.589" enable-background="new 0 0 1046 180.589" xml:space="preserve">
<g>
	<g>
		<path fill="#1A171B" d="M259.567,75.2c2.162,6.64,7.721,13.126,16.831,13.126c10.192,0,14.052-6.644,14.052-13.28
			c0-8.34-6.794-11.426-15.905-14.206c-8.185-2.473-19.456-5.716-19.456-18.839c0-11.582,9.265-18.841,21.464-18.841
			c6.022,0,15.132,1.699,20.846,13.744l-6.949,3.708c-2.625-6.335-8.338-10.04-14.67-10.04c-7.103,0-11.426,4.635-11.426,10.656
			c0,8.49,7.565,9.883,16.522,12.663c10.964,3.551,19.146,8.956,19.146,20.847c0,8.025-5.095,20.997-24.551,20.997
			c-6.022,0-17.449-1.543-23.472-16.522L259.567,75.2z"/>
		<path fill="#1A171B" d="M347.187,23.16c10.81,0,16.832,6.794,18.53,14.052c7.103-13.279,18.067-14.052,23.472-14.052
			c20.383,0,20.537,20.384,20.537,25.635v44.163h-9.266V48.795c0-5.87-0.771-18.223-13.279-18.223
			c-10.656,0-20.075,9.883-20.075,26.562v35.823h-9.265V49.257c0-7.256-1.235-18.685-12.971-18.685
			c-12.044,0-20.383,13.434-20.383,26.562v35.823h-9.265V25.941h9.265v11.58C331.745,25.014,340.546,23.16,347.187,23.16z"/>
		<path fill="#1A171B" d="M485.476,25.941h8.647v67.018h-8.647V81.532c-5.404,9.729-15.132,14.203-24.706,14.203
			c-21.31,0-34.899-16.058-34.899-36.287c0-20.847,14.207-36.288,35.053-36.288c7.567,0,17.912,2.318,24.552,14.671V25.941z
			 M485.476,59.448c0-15.75-9.573-28.876-24.397-28.876c-14.67,0-25.324,12.202-25.324,28.876c0,15.598,9.573,28.878,25.016,28.878
			C474.975,88.326,485.476,77.051,485.476,59.448z"/>
		<path fill="#1A171B" d="M514.312,25.941h9.267v14.053c6.946-13.125,13.281-15.596,19.609-15.596c1.697,0,4.633,0.151,8.184,1.543
			l-2.778,8.648c-1.39-0.773-3.551-1.7-6.638-1.7c-10.809,0-18.377,15.906-18.377,25.479v34.591h-9.267V25.941z"/>
		<path fill="#1A171B" d="M569.736,33.354h-10.811v-7.413h10.811V0H579v25.94h12.971v7.413H579v59.604h-9.264V33.354z"/>
		<path fill="#1A171B" d="M613.596,24.706h15.75v6.328c4.632-5.863,10.345-8.183,16.987-8.183c3.243,0,12.507,0.616,17.604,10.194
			c5.562-8.497,14.36-10.194,20.229-10.194c10.037,0,16.059,4.94,19.458,10.81c1.697,2.778,3.551,7.259,3.551,17.139v42.158h-15.749
			V55.435c0-7.721-0.93-10.81-1.395-12.201c-1.541-3.859-4.324-6.175-9.107-6.175c-5.404,0-8.34,3.243-9.578,5.251
			c-0.924,1.389-3.086,5.404-3.086,15.441v35.207h-15.749V55.435c0-3.396-0.465-9.42-1.546-12.201
			c-1.697-4.476-4.789-6.175-9.112-6.175c-4.783,0-7.718,2.473-9.572,5.251c-2.626,4.016-2.935,9.883-2.935,15.441v35.207h-15.75
			V24.706z"/>
		<path fill="#1A171B" d="M787.2,75.2c-2.162,4.013-5.248,8.337-8.956,11.58c-8.34,7.412-19.301,8.339-23.781,8.339
			c-15.75,0-33.045-10.963-33.045-35.822c0-21.928,12.814-36.445,32.894-36.445c12.198,0,20.998,5.251,25.938,12.507
			c4.173,6.178,6.335,15.753,6.335,24.862v2.47h-48.795c0.309,12.51,10.037,18.223,18.371,18.223c4.323,0,8.031-1.543,10.81-3.705
			c0.621-0.465,4.48-3.551,6.95-9.421L787.2,75.2z M770.369,49.719c-1.854-7.874-8.031-12.66-15.75-12.66
			c-7.566,0-13.9,5.094-15.906,12.66H770.369z"/>
	</g>
	<path fill="#1A171B" d="M629.917,180.589v-48.624c-16.912-10.866-31.057-29.343-38.019-49.753l5.428-1.848
		c6.631,19.435,20.79,37.663,36.959,47.57l1.367,0.838v40.944l39.043-26.713l1.137,0.19c6.935,1.156,14.047,1.742,21.152,1.742
		c56.949,0,103.279-37.072,103.279-82.641c0-13.353-3.864-26.1-11.484-37.884l4.816-3.114c8.113,12.549,12.403,26.725,12.403,40.998
		c0,48.73-48.903,88.376-109.015,88.376c-7.026,0-14.069-0.549-20.95-1.636L629.917,180.589z"/>
</g>
</svg>
