<?xml version="1.0" encoding="UTF-8" standalone="no"?>
<svg
   xmlns:dc="http://purl.org/dc/elements/1.1/"
   xmlns:cc="http://creativecommons.org/ns#"
   xmlns:rdf="http://www.w3.org/1999/02/22-rdf-syntax-ns#"
   xmlns:svg="http://www.w3.org/2000/svg"
   xmlns="http://www.w3.org/2000/svg"
   xmlns:sodipodi="http://sodipodi.sourceforge.net/DTD/sodipodi-0.dtd"
   xmlns:inkscape="http://www.inkscape.org/namespaces/inkscape"
   width="1311pt"
   height="763pt"
   viewBox="0 0 1311 763"
   version="1.1"
   id="svg2"
   inkscape:version="0.47 r22583"
   sodipodi:docname="CARTOON_NETWORK_logo-fixed.svg">
  <metadata
     id="metadata60">
    <rdf:RDF>
      <cc:Work
         rdf:about="">
        <dc:format>image/svg+xml</dc:format>
        <dc:type
           rdf:resource="http://purl.org/dc/dcmitype/StillImage" />
      </cc:Work>
    </rdf:RDF>
  </metadata>
  <defs
     id="defs58">
    <inkscape:perspective
       sodipodi:type="inkscape:persp3d"
       inkscape:vp_x="0 : 476.875 : 1"
       inkscape:vp_y="0 : 1000 : 0"
       inkscape:vp_z="1638.75 : 476.875 : 1"
       inkscape:persp3d-origin="819.375 : 317.91667 : 1"
       id="perspective62" />
    <inkscape:perspective
       id="perspective2902"
       inkscape:persp3d-origin="0.5 : 0.33333333 : 1"
       inkscape:vp_z="1 : 0.5 : 1"
       inkscape:vp_y="0 : 1000 : 0"
       inkscape:vp_x="0 : 0.5 : 1"
       sodipodi:type="inkscape:persp3d" />
  </defs>
  <sodipodi:namedview
     pagecolor="#ffffff"
     bordercolor="#666666"
     borderopacity="1"
     objecttolerance="10"
     gridtolerance="10"
     guidetolerance="10"
     inkscape:pageopacity="0"
     inkscape:pageshadow="2"
     inkscape:window-width="1192"
     inkscape:window-height="910"
     id="namedview56"
     showgrid="false"
     inkscape:zoom="1"
     inkscape:cx="1159.9081"
     inkscape:cy="198.51282"
     inkscape:window-x="135"
     inkscape:window-y="0"
     inkscape:window-maximized="0"
     inkscape:current-layer="svg2" />
  <path
     style="fill:#ffffff;fill-opacity:1"
     d="m 636.6496,3.0555556e-4 638.2496,0 C 1274.8892,212.43032 1274.9092,424.85032 1274.8892,637.28036 c -212.7465,0.01 -425.49307,0 -638.2396,0 l 0,-637.28005444444 z"
     id="path4-9" />
  <path
     d=" M 0.00 0.00 L 637.45 0.00 C 637.44 212.43 637.46 424.85 637.44 637.28 C 424.96 637.29 212.48 637.28 0.00 637.28 L 0.00 0.00 Z"
     id="path4"
     fill="#000000"
     style="fill:#000000;fill-opacity:1" />
  <path
     fill="#ffffff"
     d=" M 307.08 35.49 C 335.62 32.30 364.60 33.92 392.77 39.47 C 443.88 49.65 491.99 74.34 530.10 109.89 C 551.29 129.65 569.84 152.46 583.88 177.85 C 531.07 207.98 478.25 238.08 425.56 268.42 C 415.14 250.35 399.31 235.41 380.43 226.49 C 362.98 218.22 343.11 214.81 323.95 217.44 C 300.94 220.13 279.07 231.20 263.07 247.91 C 246.90 264.54 236.71 286.83 234.77 309.95 C 231.24 345.95 248.75 383.05 278.80 403.20 C 305.03 421.60 340.16 426.25 370.31 415.46 C 393.53 407.45 413.37 390.61 425.57 369.34 C 478.22 399.78 531.17 429.72 583.90 460.02 C 565.30 493.20 539.49 522.20 509.41 545.41 C 477.99 569.43 441.56 586.90 403.07 596.04 C 358.89 606.62 312.17 606.43 268.06 595.54 C 230.54 586.27 194.98 569.19 164.26 545.75 C 131.07 520.51 103.47 487.91 84.19 450.93 C 52.55 391.07 43.74 319.73 59.27 253.89 C 71.38 201.54 98.85 152.86 137.35 115.37 C 182.69 70.54 243.61 41.76 307.08 35.49 Z"
     id="path8"
     style="fill:#ffffff;fill-opacity:1" />
  <path
     d=" M 683.23 45.67 C 743.85 45.72 804.47 45.66 865.09 45.70 C 925.97 121.55 986.48 197.69 1047.42 273.48 C 1047.56 197.54 1047.39 121.59 1047.50 45.65 C 1108.13 45.72 1168.76 45.70 1229.39 45.66 C 1229.37 227.71 1229.35 409.76 1229.40 591.80 C 1227.57 591.82 1225.79 591.86 1224.00 591.89 C 1208.33 591.74 1192.67 592.02 1177.01 591.82 C 1149.35 591.98 1121.67 591.78 1094.00 591.86 C 1078.35 591.82 1062.70 591.93 1047.05 591.80 C 986.48 515.99 925.80 440.26 865.27 364.42 C 865.03 440.21 865.23 516.01 865.17 591.81 C 855.78 591.93 846.39 591.84 837.01 591.86 C 835.66 591.87 834.32 591.87 832.99 591.86 C 784.00 592.06 735.00 591.82 685.99 591.87 C 685.29 591.87 683.88 591.85 683.18 591.85 C 683.22 409.79 683.12 227.73 683.23 45.67 Z"
     id="path10"
     fill="#000000"
     style="fill:#000000;fill-opacity:1" />
  <path
     d=" M 38.25 689.14 C 48.17 682.11 61.34 679.84 72.99 683.39 C 83.02 686.21 91.45 693.23 96.90 702.02 C 89.89 706.00 82.98 710.15 75.91 714.03 C 72.25 708.93 66.22 705.27 59.75 706.24 C 53.36 706.86 47.76 711.72 46.08 717.90 C 42.89 727.37 50.94 738.48 60.94 738.45 C 67.01 739.01 72.60 735.34 75.97 730.52 C 82.91 734.65 89.94 738.61 96.94 742.64 C 90.01 754.10 77.70 761.87 64.32 763.00 L 59.15 763.00 C 44.52 761.95 30.68 752.73 24.74 739.22 C 21.19 731.99 20.61 723.72 21.54 715.83 C 23.22 705.15 29.42 695.36 38.25 689.14 Z"
     id="path12"
     fill="#000000"
     style="fill:#000000;fill-opacity:1" />
  <path
     d="M 494.875 852.59375 C 481.89497 852.68681 469.16406 858.49609 460.28125 867.90625 C 451.21875 877.01875 446.3 889.8 445.9375 902.5625 C 446.0375 914.2625 449.90625 925.9875 457.40625 935.0625 C 465.68125 945.4875 478.26875 951.9 491.34375 953.75 L 501.90625 953.75 C 515.14375 951.975 527.9 945.5625 536.1875 934.9375 C 544.7875 924.65 548.54375 910.8125 547.09375 897.5625 C 545.06875 872.975 522.30625 851.825 497.46875 852.625 C 496.60234 852.57969 495.74034 852.58755 494.875 852.59375 z M 496.21875 884.5625 C 504.58921 884.38008 512.89922 890.37266 514.65625 898.8125 C 518.16875 910.725 506.625 923.46875 494.4375 921.40625 C 486.1625 920.40625 479.1375 913.325 478.4375 905 C 477.4 896.8125 482.7625 888.44375 490.5 885.71875 C 492.35625 884.97578 494.28711 884.6046 496.21875 884.5625 z "
     id="path14"
     transform="scale(0.8,0.8)"
     style="fill:#000000;fill-opacity:1" />
  <path
     d="M 606.03125 852.5625 C 603.03613 852.58887 600.0375 852.8125 597.09375 853.25 C 584.26875 855.5375 572.60625 863.2125 565.09375 873.8125 C 556.96875 885.2 553.93125 900.0875 556.96875 913.75 C 559.64375 926.6 567.63125 938.25 578.59375 945.4375 C 585.36875 950.0875 593.43125 952.4375 601.46875 953.75 L 611.6875 953.75 C 625.575 951.925 638.875 944.83125 647.1875 933.40625 C 656.25 921.54375 659.06875 905.625 655.84375 891.1875 C 652.68125 877.775 643.775 865.8 631.75 859.0625 C 623.99687 854.36563 615.0166 852.4834 606.03125 852.5625 z M 606.5625 884.53125 C 616.02104 884.58457 625.15156 892.73281 624.8125 902.5 C 625.9375 914.0375 613.54375 924.15625 602.46875 921.03125 C 592.71875 919.15625 585.79375 908.125 588.65625 898.5625 C 590.31875 891.9625 595.89375 886.53125 602.53125 885.03125 C 603.87031 884.68906 605.21128 884.52363 606.5625 884.53125 z "
     id="path16"
     transform="scale(0.8,0.8)"
     style="fill:#000000;fill-opacity:1" />
  <path
     d="M 1310.0938 852.25 C 1290.917 852.16108 1272.0266 863.8707 1264.1875 881.53125 C 1256.9375 896.86875 1258.125 915.86875 1267.3125 930.15625 C 1275.5625 943.55625 1290.2875 952.075 1305.8125 953.75 L 1314.8125 953.75 C 1326.5125 952.25 1337.8375 947.21875 1346.1875 938.78125 C 1354 930.75625 1359.15 920.15625 1360.5 909.03125 C 1362.025 897.48125 1359.05 885.56875 1352.9375 875.71875 C 1344.8625 863.09375 1331.0375 854.20625 1316.0625 852.65625 C 1314.0844 852.38789 1312.0775 852.2592 1310.0938 852.25 z M 1309.2188 884.5 C 1318.1488 884.17813 1327.1539 890.81953 1328.2812 900.03125 C 1330.7062 911.71875 1319.325 923.325 1307.625 921.3125 C 1298.6625 920.1875 1291.175 911.61875 1291.8125 902.53125 C 1291.5875 895.33125 1296.675 888.69375 1303.125 885.90625 C 1305.0797 885.03906 1307.158 884.57428 1309.2188 884.5 z "
     id="path18"
     style="fill:#000000;fill-opacity:1"
     transform="scale(0.8,0.8)" />
  <path
     d="M 202 854.375 C 185.8 854.4125 169.5875 854.43125 153.375 854.40625 C 143.4125 886.88125 133.20625 919.275 123.03125 951.6875 C 134.53125 951.6625 146.0625 951.69375 157.5625 951.65625 C 159.0625 946.20625 160.59375 940.7875 162.21875 935.375 C 172.59375 935.4125 183.0125 935.025 193.375 935.5 C 195.4875 940.7375 196.39375 946.3625 198.28125 951.6875 C 209.68125 951.6125 221.06875 951.7375 232.46875 951.625 C 222.24375 919.225 212.2875 886.75 202 854.375 z M 177.625 881.21875 C 180.9625 891.16875 183.7875 901.31875 186.4375 911.46875 C 180.65 911.49375 174.85 911.4875 169.0625 911.4375 C 171.875 901.35 174.75 891.28125 177.625 881.21875 z "
     id="path20"
     transform="scale(0.8,0.8)"
     style="fill:#000000;fill-opacity:1" />
  <path
     d="M 242.28125 854.40625 L 242.28125 951.65625 C 253.01875 951.71875 263.7625 951.675 274.5 951.6875 C 274.525 942.2125 274.45 932.725 274.5625 923.25 C 278.0375 923.175 281.525 923.1875 285 923.25 C 289.85 932.725 294.575 942.24375 299.4375 951.71875 C 311.3875 951.64375 323.33125 951.725 335.28125 951.6875 C 329.24375 940.925 322.55 930.54375 316.5 919.78125 C 317.8875 918.33125 319.675 917.3875 321.25 916.1875 C 330.3625 909.8 336.15 898.65625 335.375 887.46875 C 335.3875 870.03125 319.675 855.08125 302.5 854.59375 C 282.4375 854.15625 262.35625 854.55625 242.28125 854.40625 z M 284.8125 882.75 C 288.24687 882.74063 291.6875 882.725 295.125 882.75 C 299.6125 882.45 303.79375 886.825 303.21875 891.3125 C 303.23125 895.425 299.375 899.2 295.25 899.0625 C 288.3375 899.125 281.4125 899.04375 274.5 899.09375 C 274.5 893.65625 274.475 888.21875 274.5 882.78125 C 277.9375 882.78125 281.37813 882.75937 284.8125 882.75 z "
     id="path22"
     transform="scale(0.8,0.8)"
     style="fill:#000000;fill-opacity:1" />
  <path
     d=" M 275.41 706.21 C 275.56 698.65 275.47 691.08 275.46 683.52 C 301.44 683.55 327.42 683.51 353.40 683.54 C 353.42 691.09 353.43 698.65 353.39 706.20 C 345.20 706.23 337.00 706.15 328.80 706.25 C 328.79 724.61 328.80 742.98 328.79 761.34 C 319.13 761.33 309.48 761.36 299.82 761.33 C 299.82 742.95 299.82 724.58 299.82 706.21 C 291.68 706.21 283.55 706.20 275.41 706.21 Z"
     id="path24"
     fill="#000000"
     style="fill:#000000;fill-opacity:1" />
  <path
     d=" M 533.71 683.55 C 542.31 683.50 550.90 683.56 559.50 683.51 C 568.34 694.20 576.75 705.24 585.63 715.89 C 585.83 705.11 585.67 694.33 585.72 683.55 C 594.31 683.50 602.90 683.57 611.49 683.50 C 611.44 709.45 611.39 735.40 611.52 761.36 C 602.94 761.33 594.36 761.33 585.78 761.36 C 576.86 750.70 568.46 739.62 559.60 728.92 C 559.15 739.71 559.45 750.53 559.43 761.34 C 550.85 761.35 542.28 761.34 533.71 761.34 C 533.70 735.41 533.70 709.48 533.71 683.55 Z"
     id="path26"
     fill="#000000"
     style="fill:#000000;fill-opacity:1" />
  <path
     d=" M 664.15 683.51 C 672.79 683.59 681.44 683.44 690.08 683.59 C 698.71 694.43 707.23 705.38 716.13 715.99 C 716.28 705.17 716.15 694.35 716.20 683.52 C 724.73 683.55 733.25 683.51 741.78 683.54 C 741.78 709.48 741.78 735.41 741.78 761.34 C 733.20 761.33 724.63 761.37 716.05 761.32 C 707.18 750.58 698.72 739.50 689.83 728.78 C 689.75 739.63 689.79 750.49 689.81 761.34 C 681.26 761.35 672.72 761.34 664.17 761.34 C 664.15 735.40 664.20 709.45 664.15 683.51 Z"
     id="path28"
     fill="#000000"
     style="fill:#000000;fill-opacity:1" />
  <path
     d=" M 753.15 683.50 C 775.81 683.60 798.47 683.45 821.13 683.58 C 821.15 689.05 821.08 694.52 821.17 700.00 C 821.12 702.07 820.95 704.15 820.79 706.23 C 806.79 706.21 792.79 706.14 778.79 706.27 C 778.75 708.60 778.98 710.93 779.14 713.27 C 790.92 713.22 802.70 713.26 814.48 713.24 C 814.43 719.62 814.46 726.00 814.46 732.38 C 802.58 732.41 790.71 732.32 778.83 732.43 C 778.84 735.12 778.84 737.82 778.91 740.53 C 792.98 740.68 807.06 740.58 821.13 740.57 C 821.12 743.71 821.13 746.85 821.13 750.00 C 821.13 753.77 821.12 757.54 821.13 761.32 C 798.48 761.38 775.82 761.32 753.17 761.34 C 753.18 735.40 753.21 709.45 753.15 683.50 Z"
     id="path30"
     fill="#000000"
     style="fill:#000000;fill-opacity:1" />
  <path
     d=" M 829.77 683.54 C 855.78 683.55 881.79 683.47 907.80 683.58 C 907.73 691.11 907.89 698.65 907.70 706.19 C 899.56 706.19 891.42 706.17 883.28 706.19 C 883.27 724.58 883.28 742.96 883.28 761.34 C 873.62 761.34 863.97 761.34 854.32 761.34 C 854.31 742.95 854.32 724.57 854.31 706.18 C 846.13 706.05 837.93 706.49 829.77 705.94 C 829.76 698.47 829.75 691.00 829.77 683.54 Z"
     id="path32"
     fill="#000000"
     style="fill:#000000;fill-opacity:1" />
  <path
     d=" M 914.22 683.57 C 922.94 683.49 931.66 683.52 940.38 683.56 C 942.44 694.94 944.44 706.35 946.95 717.65 C 951.32 707.22 955.54 696.72 959.92 686.30 C 964.26 696.72 968.28 707.30 972.97 717.58 C 975.29 706.26 977.18 694.85 979.54 683.53 C 988.18 683.55 996.82 683.48 1005.46 683.58 C 1000.50 709.50 995.59 735.42 990.64 761.33 C 983.45 761.33 976.26 761.38 969.07 761.31 C 966.09 754.28 963.04 747.29 959.89 740.34 C 956.60 747.28 953.79 754.43 950.50 761.36 C 943.43 761.33 936.35 761.33 929.29 761.37 C 923.93 735.50 919.46 709.46 914.22 683.57 Z"
     id="path34"
     fill="#000000"
     style="fill:#000000;fill-opacity:1" />
  <path
     d="M 1399.7188 854.40625 C 1390.0406 854.41719 1380.3625 854.4625 1370.6875 854.4375 C 1370.675 886.85 1370.6625 919.24375 1370.6875 951.65625 C 1381.5125 951.68125 1392.3312 951.7 1403.1562 951.6875 C 1403.1437 942.125 1403.1063 932.55 1403.1562 923 C 1406.6063 922.975 1410.0875 922.96875 1413.5625 923.09375 C 1418.125 932.66875 1423.0937 942.0625 1427.7188 951.625 C 1439.7813 951.7125 1451.8625 951.69375 1463.9375 951.65625 C 1457.5625 940.85625 1450.8813 930.21875 1444.7812 919.28125 C 1454.9813 914.03125 1462.15 903.85 1464 892.5625 C 1464 890 1463.9813 887.45625 1463.9688 884.90625 C 1462.7063 878.01875 1460.1 871.225 1455.25 866.0625 C 1448.6375 858.625 1438.7 854.29375 1428.75 854.53125 C 1419.075 854.4 1409.3969 854.39531 1399.7188 854.40625 z M 1403.125 882.71875 C 1410.0625 882.76875 1416.9875 882.6625 1423.9375 882.75 C 1429.1 882.55 1433.5875 888.975 1431.1875 893.6875 C 1430.05 896.675 1427.125 899.025 1423.875 899.0625 C 1416.9625 899.175 1410.0375 899.03125 1403.125 899.09375 C 1403.125 893.63125 1403.1375 888.16875 1403.125 882.71875 z "
     id="path36"
     transform="scale(0.8,0.8)"
     style="fill:#000000;fill-opacity:1" />
  <path
     d=" M 1179.44 761.33 C 1179.37 735.40 1179.37 709.48 1179.44 683.55 C 1188.12 683.54 1196.81 683.47 1205.50 683.61 C 1205.49 691.98 1205.35 700.36 1205.57 708.74 C 1212.17 700.43 1218.35 691.81 1224.93 683.49 C 1235.97 683.61 1247.01 683.45 1258.05 683.57 C 1247.93 695.85 1238.10 708.37 1227.95 720.63 C 1237.52 734.51 1248.15 747.68 1258.07 761.32 C 1247.00 761.37 1235.94 761.33 1224.88 761.35 C 1218.44 751.70 1211.98 742.07 1205.59 732.39 C 1205.29 742.03 1205.54 751.68 1205.47 761.33 C 1196.79 761.35 1188.11 761.35 1179.44 761.33 Z"
     id="path38"
     fill="#000000"
     style="fill:#000000;fill-opacity:1" />
  <path
     d=" M 1270.28 740.47 C 1276.01 740.38 1281.75 740.42 1287.48 740.42 C 1287.48 741.55 1287.49 742.68 1287.52 743.82 C 1285.43 743.80 1283.33 743.79 1281.27 743.78 C 1280.48 749.63 1280.99 755.54 1280.85 761.43 C 1279.45 761.42 1278.08 761.43 1276.71 761.44 C 1276.67 755.56 1276.73 749.68 1276.67 743.81 C 1274.55 743.79 1272.46 743.80 1270.37 743.80 C 1270.32 742.68 1270.29 741.57 1270.28 740.47 Z"
     id="path52"
     fill="#000000"
     style="fill:#000000;fill-opacity:1" />
  <path
     d=" M 1290.24 740.45 C 1292.34 740.42 1294.46 740.40 1296.58 740.38 C 1298.03 745.98 1299.11 751.68 1300.81 757.21 C 1302.02 751.60 1303.23 745.98 1304.65 740.41 C 1306.75 740.40 1308.87 740.39 1311.00 740.40 L 1311.00 761.44 C 1310.04 761.45 1308.12 761.45 1307.16 761.46 C 1307.10 755.63 1307.30 749.81 1307.02 743.99 C 1305.07 749.66 1304.15 755.61 1302.66 761.41 C 1301.63 761.42 1299.57 761.44 1298.54 761.45 C 1297.00 755.71 1296.03 749.84 1294.47 744.11 C 1293.97 749.85 1294.22 755.63 1294.22 761.39 C 1292.89 761.41 1291.56 761.43 1290.26 761.47 C 1290.23 754.46 1290.25 747.46 1290.24 740.45 Z"
     id="path54"
     fill="#000000"
     style="fill:#000000;fill-opacity:1" />
</svg>
