<?xml version="1.0" encoding="utf-8"?>
<!-- Generator: Adobe Illustrator 16.0.0, SVG Export Plug-In . SVG Version: 6.00 Build 0)  -->
<!DOCTYPE svg PUBLIC "-//W3C//DTD SVG 1.1//EN" "http://www.w3.org/Graphics/SVG/1.1/DTD/svg11.dtd">
<svg version="1.1" id="Layer_1" xmlns="http://www.w3.org/2000/svg" xmlns:xlink="http://www.w3.org/1999/xlink" x="0px" y="0px"
	 width="1046px" height="488.573px" viewBox="0 0 1046 488.573" enable-background="new 0 0 1046 488.573" xml:space="preserve">
<g>
	<path fill="#231F20" d="M248.153,47.532h49.998v2.185h-49.998V47.532z"/>
	<path fill="#231F20" d="M336.46,12.492h2.521v58.821h-2.521V12.492z M346.292,40.474l29.915,30.839h-3.613l-29.747-30.671
		l28.906-28.15h3.445L346.292,40.474z"/>
	<path fill="#231F20" d="M384.084,33.5h2.437v5.714c3.025-3.529,8.991-6.386,14.537-6.386c10.672,0,15.966,5.294,15.966,17.142
		v21.344h-2.353V50.474c0-10.42-4.454-15.377-14.033-15.377c-5.882,0-11.596,3.277-14.117,6.47v29.747h-2.437V33.5z"/>
	<path fill="#231F20" d="M445.38,32.743c11.512,0,19.579,8.319,19.579,19.663s-8.067,19.663-19.579,19.663
		c-11.428,0-19.495-8.319-19.495-19.663S433.952,32.743,445.38,32.743z M445.38,69.8c10,0,17.058-7.227,17.058-17.394
		s-7.059-17.395-17.058-17.395c-9.916,0-17.058,7.227-17.058,17.395S435.38,69.8,445.38,69.8z"/>
	<path fill="#231F20" d="M505.708,65.935c-3.193,4.034-8.655,6.134-13.949,6.134c-11.512,0-19.747-7.731-19.747-19.663
		c0-11.008,8.067-19.663,18.486-19.663c5.714,0,10.84,1.26,14.454,4.622l-1.177,1.933c-3.529-3.109-8.067-4.286-12.856-4.286
		c-8.991,0-16.47,7.479-16.47,17.395c0,10.672,7.479,17.394,17.478,17.394c5.126,0,9.832-2.269,12.604-5.462L505.708,65.935z"/>
	<path fill="#231F20" d="M513.487,12.492h2.437v58.821h-2.437V12.492z M522.226,51.398l20.503,19.915h-3.361l-20.167-19.747
		L537.939,33.5h3.193L522.226,51.398z"/>
	<path fill="#231F20" d="M551.657,67.616c2.017,0,4.118,2.269,4.118,6.302c0,5.21-3.445,8.739-7.311,9.748l-0.589-1.261
		c2.521-0.756,5.546-3.361,5.798-7.395c0.084-2.857-0.756-4.117-1.512-4.538c-0.084,0.588-0.673,0.84-1.177,0.84
		c-0.841,0-1.597-0.84-1.597-1.765C549.389,68.456,550.313,67.616,551.657,67.616z"/>
	<path fill="#231F20" d="M586.695,12.492h2.437v58.821h-2.437V12.492z M595.435,51.398l20.503,19.915h-3.361l-20.167-19.747
		L611.148,33.5h3.192L595.435,51.398z"/>
	<path fill="#231F20" d="M623.186,33.5h2.437v5.714c3.025-3.529,8.991-6.386,14.537-6.386c10.672,0,15.966,5.294,15.966,17.142
		v21.344h-2.353V50.474c0-10.42-4.453-15.377-14.033-15.377c-5.882,0-11.596,3.277-14.117,6.47v29.747h-2.437V33.5z"/>
	<path fill="#231F20" d="M684.48,32.743c11.513,0,19.579,8.319,19.579,19.663s-8.066,19.663-19.579,19.663
		c-11.428,0-19.495-8.319-19.495-19.663S673.053,32.743,684.48,32.743z M684.48,69.8c10,0,17.059-7.227,17.059-17.394
		s-7.059-17.395-17.059-17.395c-9.915,0-17.058,7.227-17.058,17.395S674.481,69.8,684.48,69.8z"/>
	<path fill="#231F20" d="M744.81,65.935c-3.193,4.034-8.655,6.134-13.949,6.134c-11.512,0-19.747-7.731-19.747-19.663
		c0-11.008,8.067-19.663,18.487-19.663c5.714,0,10.84,1.26,14.453,4.622l-1.177,1.933c-3.529-3.109-8.066-4.286-12.856-4.286
		c-8.991,0-16.47,7.479-16.47,17.395c0,10.672,7.479,17.394,17.479,17.394c5.125,0,9.831-2.269,12.604-5.462L744.81,65.935z"/>
	<path fill="#231F20" d="M752.588,12.492h2.437v58.821h-2.437V12.492z M761.327,51.398l20.503,19.915h-3.361l-20.167-19.747
		L777.041,33.5h3.192L761.327,51.398z"/>
	<path fill="#231F20" d="M793.044,67.448c1.009,0,1.933,0.924,1.933,1.849c0,1.092-0.924,2.101-1.933,2.101
		c-1.176,0-2.101-1.008-2.101-2.101C790.943,68.372,791.868,67.448,793.044,67.448z M791.7,12.492h2.521v44.2H791.7V12.492z"/>
	<path fill="#231F20" d="M248.153,148.361h49.998v2.185h-49.998V148.361z"/>
	<path fill="#231F20" d="M387.635,172.142h-1.933l-18.991-54.368l-18.487,54.368h-1.933l-18.15-58.821h2.773l16.554,53.863
		l18.319-53.863h2.017l18.823,53.947l15.797-53.947h2.437L387.635,172.142z"/>
	<path fill="#231F20" d="M412.182,113.32h2.437v26.722c3.109-3.613,9.075-6.386,14.537-6.386c10.672,0,15.966,5.294,15.966,17.142
		v21.344h-2.353v-20.84c0-10.419-4.454-15.377-14.033-15.377c-5.882,0-11.68,3.277-14.117,6.47v29.747h-2.437V113.32z"/>
	<path fill="#231F20" d="M473.478,133.572c11.512,0,19.579,8.319,19.579,19.663c0,11.345-8.067,19.663-19.579,19.663
		c-11.428,0-19.495-8.318-19.495-19.663C453.983,141.891,462.05,133.572,473.478,133.572z M473.478,170.629
		c10,0,17.058-7.227,17.058-17.395c0-10.167-7.059-17.394-17.058-17.394c-9.916,0-17.058,7.227-17.058,17.394
		C456.42,163.402,463.478,170.629,473.478,170.629z"/>
	<path fill="#231F20" d="M502.96,111.724c1.008,1.092,1.933,3.025,1.933,5.462c0,5.042-2.101,8.067-5.462,9.832l-1.009-1.261
		c2.689-1.512,4.202-4.538,4.202-8.067c0-2.269-0.924-3.781-1.681-4.538L502.96,111.724z"/>
	<path fill="#231F20" d="M510.992,143.067c0-5.546,4.454-9.496,11.512-9.496c4.538,0,8.739,1.765,10.84,4.033l-1.176,1.765
		c-2.27-2.353-5.883-3.613-9.748-3.613c-5.546,0-8.991,3.361-8.991,7.227c0,11.764,21.344,6.302,21.344,19.412
		c0,7.143-5.882,10.503-12.688,10.503c-4.706,0-10.42-2.521-12.185-5.209l1.513-1.513c2.017,2.772,6.975,4.537,10.756,4.537
		c5.126,0,10.168-2.604,10.168-8.15C532.336,151.47,510.992,156.933,510.992,143.067z"/>
	<path fill="#231F20" d="M566.279,123.824h2.437v10.504h16.302v2.269h-16.302v20.42c0,8.738,2.772,13.276,9.831,13.276
		c2.521,0,4.79-1.009,6.135-2.017l1.008,1.933c-1.681,1.177-4.369,2.353-7.562,2.353c-8.403,0-11.848-5.126-11.848-14.789V123.824z"
		/>
	<path fill="#231F20" d="M593.418,113.32h2.437v26.722c3.109-3.613,9.075-6.386,14.537-6.386c10.672,0,15.966,5.294,15.966,17.142
		v21.344h-2.353v-20.84c0-10.419-4.453-15.377-14.033-15.377c-5.882,0-11.68,3.277-14.117,6.47v29.747h-2.437V113.32z"/>
	<path fill="#231F20" d="M668.831,167.184c-3.277,3.781-8.739,5.714-13.78,5.714c-11.597,0-19.832-7.73-19.832-19.663
		c0-11.007,6.303-19.663,18.739-19.663c9.747,0,16.89,6.722,16.89,16.974c0,1.009-0.084,1.849-0.168,2.604h-32.855
		c0.084,10.756,6.891,17.479,17.311,17.479c5.293,0,9.999-2.185,12.772-5.21L668.831,167.184z M637.656,151.134h30.755
		c0.084-9.411-5.798-15.293-14.789-15.293C643.874,135.841,638.328,142.395,637.656,151.134z"/>
	<path fill="#231F20" d="M680.012,134.328h2.437v5.462c2.186-3.361,5.63-6.134,10.672-6.134c3.109,0,4.622,0.504,5.883,1.429
		l-0.757,2.269c-1.849-1.092-2.856-1.428-5.462-1.428c-5.462,0-8.403,3.529-10.336,6.638v29.579h-2.437V134.328z"/>
	<path fill="#231F20" d="M734.763,167.184c-3.277,3.781-8.739,5.714-13.78,5.714c-11.597,0-19.832-7.73-19.832-19.663
		c0-11.007,6.303-19.663,18.739-19.663c9.747,0,16.89,6.722,16.89,16.974c0,1.009-0.084,1.849-0.168,2.604h-32.855
		c0.084,10.756,6.891,17.479,17.311,17.479c5.293,0,9.999-2.185,12.772-5.21L734.763,167.184z M703.588,151.134h30.755
		c0.084-9.411-5.798-15.293-14.789-15.293C709.806,135.841,704.26,142.395,703.588,151.134z"/>
	<path fill="#231F20" d="M752.414,115.001c-5.546,0-10.503,2.689-13.948,7.395l-1.513-1.428c3.025-4.874,9.075-8.403,15.714-8.403
		c10.335,0,15.966,6.554,15.966,14.201c0,15.63-17.562,14.454-17.562,26.806c0,1.008,0.084,2.101,0.336,3.276l-2.185,0.169
		c-0.336-1.429-0.421-2.689-0.421-3.866c0-12.772,17.395-12.016,17.395-25.965C766.195,120.211,760.565,115.001,752.414,115.001z
		 M750.062,168.276c1.009,0,1.933,0.924,1.933,1.849c0,1.092-0.924,2.101-1.933,2.101c-1.176,0-2.101-1.009-2.101-2.101
		C747.961,169.2,748.886,168.276,750.062,168.276z"/>
	<path fill="#231F20" d="M248.153,249.189h49.998v2.185h-49.998V249.189z"/>
	<path fill="#231F20" d="M337.469,218.266c0.924,0,1.765,0.841,1.765,1.85c0,1.092-0.84,1.933-1.765,1.933
		c-1.008,0-1.933-0.841-1.933-1.933C335.536,219.106,336.46,218.266,337.469,218.266z M336.208,235.156h2.353v37.813h-2.353V235.156
		z"/>
	<path fill="#231F20" d="M351.264,214.148h2.437v47.562c0,6.302,1.512,9.327,6.134,9.327c2.353,0,4.538-0.925,5.882-1.933
		l0.756,1.933c-1.597,1.177-4.202,2.269-7.311,2.269c-5.546,0-7.899-3.193-7.899-9.831V214.148z"/>
	<path fill="#231F20" d="M372.597,214.148h2.437v47.562c0,6.302,1.512,9.327,6.134,9.327c2.353,0,4.538-0.925,5.882-1.933
		l0.756,1.933c-1.597,1.177-4.202,2.269-7.311,2.269c-5.546,0-7.899-3.193-7.899-9.831V214.148z"/>
	<path fill="#231F20" d="M395.643,269.104c1.008,0,1.933,0.924,1.933,1.849c0,1.092-0.924,2.101-1.933,2.101
		c-1.177,0-2.101-1.009-2.101-2.101C393.542,270.028,394.466,269.104,395.643,269.104z"/>
	<path fill="#231F20" d="M248.153,350.018h49.998v2.185h-49.998V350.018z"/>
	<path fill="#231F20" d="M337.469,319.094c0.924,0,1.765,0.841,1.765,1.85c0,1.092-0.84,1.933-1.765,1.933
		c-1.008,0-1.933-0.841-1.933-1.933C335.536,319.935,336.46,319.094,337.469,319.094z M336.208,335.984h2.353v37.813h-2.353V335.984
		z"/>
	<path fill="#231F20" d="M351.264,314.977h2.437v47.562c0,6.302,1.512,9.327,6.134,9.327c2.353,0,4.538-0.925,5.882-1.933
		l0.756,1.933c-1.597,1.177-4.202,2.269-7.311,2.269c-5.546,0-7.899-3.193-7.899-9.831V314.977z"/>
	<path fill="#231F20" d="M372.597,314.977h2.437v47.562c0,6.302,1.512,9.327,6.134,9.327c2.353,0,4.538-0.925,5.882-1.933
		l0.756,1.933c-1.597,1.177-4.202,2.269-7.311,2.269c-5.546,0-7.899-3.193-7.899-9.831V314.977z"/>
	<path fill="#231F20" d="M452.672,374.386h-1.765l-11.344-29.914c-0.588-1.597-1.176-3.193-1.681-4.874
		c-0.672,1.765-1.176,3.445-1.849,5.21l-11.092,29.578h-1.597l-12.856-38.401h2.604l9.496,28.738
		c0.672,1.849,1.176,3.781,1.765,5.63c0.756-1.849,1.345-3.697,2.101-5.63l10.588-28.738h1.765l10.756,28.57l2.185,5.882
		c0.588-2.101,1.26-4.201,1.933-6.302l8.907-28.15h2.437L452.672,374.386z"/>
	<path fill="#231F20" d="M472.086,314.977h2.437v26.722c3.109-3.613,9.075-6.386,14.537-6.386c10.672,0,15.966,5.293,15.966,17.142
		v21.344h-2.353v-20.84c0-10.419-4.454-15.377-14.033-15.377c-5.882,0-11.68,3.277-14.117,6.47v29.747h-2.437V314.977z"/>
	<path fill="#231F20" d="M533.383,335.228c11.512,0,19.579,8.319,19.579,19.663c0,11.345-8.067,19.663-19.579,19.663
		c-11.428,0-19.495-8.318-19.495-19.663C513.888,343.547,521.955,335.228,533.383,335.228z M533.383,372.285
		c9.999,0,17.058-7.227,17.058-17.395c0-10.167-7.059-17.394-17.058-17.394c-9.916,0-17.058,7.227-17.058,17.394
		C516.325,365.059,523.383,372.285,533.383,372.285z"/>
	<path fill="#231F20" d="M568.629,316.657c-5.547,0-10.504,2.689-13.949,7.395l-1.513-1.429c3.025-4.873,9.075-8.402,15.714-8.402
		c10.335,0,15.966,6.554,15.966,14.201c0,15.629-17.562,14.453-17.562,26.806c0,1.008,0.084,2.101,0.336,3.276l-2.185,0.169
		c-0.336-1.429-0.421-2.689-0.421-3.866c0-12.772,17.395-12.016,17.395-25.965C582.409,321.867,576.779,316.657,568.629,316.657z
		 M566.275,369.933c1.009,0,1.933,0.924,1.933,1.849c0,1.092-0.924,2.101-1.933,2.101c-1.176,0-2.101-1.009-2.101-2.101
		C564.175,370.856,565.1,369.933,566.275,369.933z"/>
	<path fill="#231F20" d="M248.153,450.846h49.998v2.185h-49.998V450.846z"/>
	<path fill="#231F20" d="M337.469,419.922c0.924,0,1.765,0.841,1.765,1.85c0,1.092-0.84,1.933-1.765,1.933
		c-1.008,0-1.933-0.841-1.933-1.933C335.536,420.763,336.46,419.922,337.469,419.922z M336.208,436.812h2.353v37.813h-2.353V436.812
		z"/>
	<path fill="#231F20" d="M351.264,415.805h2.437v47.562c0,6.302,1.512,9.327,6.134,9.327c2.353,0,4.538-0.925,5.882-1.933
		l0.756,1.933c-1.597,1.177-4.202,2.269-7.311,2.269c-5.546,0-7.899-3.193-7.899-9.831V415.805z"/>
	<path fill="#231F20" d="M372.597,415.805h2.437v47.562c0,6.302,1.512,9.327,6.134,9.327c2.353,0,4.538-0.925,5.882-1.933
		l0.756,1.933c-1.597,1.177-4.202,2.269-7.311,2.269c-5.546,0-7.899-3.193-7.899-9.831V415.805z"/>
	<path fill="#231F20" d="M424.869,474.626h-2.353v-6.555c-3.025,3.781-9.075,7.311-15.209,7.311
		c-9.916,0-14.958-5.378-14.958-17.058v-21.512h2.437v20.924c0,10.251,4.033,15.377,13.277,15.377
		c6.134,0,12.016-4.117,14.453-7.479v-28.822h2.353V474.626z"/>
	<path fill="#231F20" d="M434.621,445.552c0-5.546,4.454-9.496,11.512-9.496c4.538,0,8.739,1.765,10.84,4.034l-1.176,1.765
		c-2.269-2.354-5.882-3.613-9.748-3.613c-5.546,0-8.991,3.361-8.991,7.227c0,11.764,21.344,6.302,21.344,19.411
		c0,7.143-5.882,10.503-12.688,10.503c-4.706,0-10.42-2.521-12.185-5.209l1.513-1.513c2.017,2.772,6.975,4.537,10.756,4.537
		c5.126,0,10.167-2.604,10.167-8.15C455.965,453.954,434.621,459.417,434.621,445.552z"/>
	<path fill="#231F20" d="M466.474,426.309h2.437v10.504h16.302v2.269h-16.302v20.42c0,8.738,2.773,13.276,9.832,13.276
		c2.521,0,4.79-1.009,6.134-2.017l1.008,1.933c-1.681,1.177-4.37,2.353-7.563,2.353c-8.403,0-11.848-5.126-11.848-14.789V426.309z"
		/>
	<path fill="#231F20" d="M493.613,436.812h2.437v5.462c2.185-3.361,5.63-6.134,10.672-6.134c3.109,0,4.622,0.504,5.882,1.428
		l-0.756,2.27c-1.849-1.093-2.857-1.429-5.462-1.429c-5.462,0-8.403,3.529-10.335,6.638v29.579h-2.437V436.812z"/>
	<path fill="#231F20" d="M519.039,439.501c3.613-2.269,7.31-3.445,11.596-3.445c10.167,0,13.612,5.547,13.612,14.958v23.612h-2.353
		v-6.555c-2.521,3.445-6.555,6.975-14.033,6.975c-7.058,0-11.764-4.285-11.764-10.84c0-7.562,6.218-11.512,14.37-11.512
		c3.108,0,7.898,0.588,11.428,3.108c0-10.503-0.42-17.478-11.512-17.478c-4.286,0-6.975,1.092-10.588,3.193L519.039,439.501z
		 M541.895,465.635v-7.562c-3.193-2.27-6.975-3.361-11.26-3.361c-5.882,0-12.017,2.772-12.017,9.327
		c0,5.546,4.286,8.739,9.748,8.739C535.929,472.777,539.458,468.828,541.895,465.635z"/>
	<path fill="#231F20" d="M554.94,426.309h2.437v10.504h16.302v2.269h-16.302v20.42c0,8.738,2.772,13.276,9.831,13.276
		c2.521,0,4.79-1.009,6.135-2.017l1.008,1.933c-1.681,1.177-4.369,2.353-7.562,2.353c-8.403,0-11.848-5.126-11.848-14.789V426.309z"
		/>
	<path fill="#231F20" d="M597.003,436.056c11.513,0,19.579,8.319,19.579,19.663c0,11.345-8.066,19.663-19.579,19.663
		c-11.428,0-19.495-8.318-19.495-19.663C577.508,444.375,585.575,436.056,597.003,436.056z M597.003,473.113
		c10,0,17.059-7.227,17.059-17.395c0-10.167-7.059-17.394-17.059-17.394c-9.915,0-17.058,7.227-17.058,17.394
		C579.945,465.887,587.004,473.113,597.003,473.113z"/>
	<path fill="#231F20" d="M626.081,436.812h2.437v5.462c2.186-3.361,5.63-6.134,10.672-6.134c3.109,0,4.622,0.504,5.883,1.428
		l-0.757,2.27c-1.849-1.093-2.856-1.429-5.462-1.429c-5.462,0-8.403,3.529-10.336,6.638v29.579h-2.437V436.812z"/>
	<path fill="#231F20" d="M650.179,445.552c0-5.546,4.454-9.496,11.513-9.496c4.537,0,8.739,1.765,10.84,4.034l-1.177,1.765
		c-2.269-2.354-5.882-3.613-9.747-3.613c-5.546,0-8.991,3.361-8.991,7.227c0,11.764,21.343,6.302,21.343,19.411
		c0,7.143-5.882,10.503-12.688,10.503c-4.705,0-10.419-2.521-12.184-5.209l1.512-1.513c2.018,2.772,6.975,4.537,10.756,4.537
		c5.126,0,10.168-2.604,10.168-8.15C671.522,453.954,650.179,459.417,650.179,445.552z"/>
	<path fill="#231F20" d="M684.519,470.761c1.008,0,1.933,0.924,1.933,1.849c0,1.092-0.925,2.101-1.933,2.101
		c-1.177,0-2.101-1.009-2.101-2.101C682.418,471.685,683.342,470.761,684.519,470.761z"/>
</g>
</svg>
