<svg xmlns="http://www.w3.org/2000/svg" width="44" height="30"><path fill="#f50" d="M26.206 9.832c.276-.871.533-1.604.533-2.056 0-2.098-1.662-3.799-3.759-3.799-2.099 0-3.78 1.874-3.78 3.972l3.44 10.051h.062v-2.94c-.001-2.528 1.592-4.657 3.504-5.228z"/><path fill-rule="evenodd" clip-rule="evenodd" fill="#f50" d="M3.238 19.618c-1.262-6.322-3.891-12.18-1.455-19.139 9.762 5.854 19.067 13.556 19.216 29.257l.001.264h-.76c-3.989-6.838-10.388-9.201-17.002-10.382M40.763 19.618c1.262-6.322 3.892-12.181 1.454-19.14-9.762 5.854-19.067 13.556-19.215 29.257l-.002.265h.76c3.989-6.838 10.388-9.201 17.003-10.382"/></svg>