<?xml version="1.0" encoding="utf-8"?>
<!-- Generator: Adobe Illustrator 16.0.0, SVG Export Plug-In . SVG Version: 6.00 Build 0)  -->
<!DOCTYPE svg PUBLIC "-//W3C//DTD SVG 1.1//EN" "http://www.w3.org/Graphics/SVG/1.1/DTD/svg11.dtd">
<svg version="1.1" id="Layer_1" xmlns="http://www.w3.org/2000/svg" xmlns:xlink="http://www.w3.org/1999/xlink" x="0px" y="0px"
	 width="341px" height="400px" viewBox="0 0 341 400" enable-background="new 0 0 341 400" xml:space="preserve">
<g>
	<g>
		<polygon fill-rule="evenodd" clip-rule="evenodd" points="218.843,132.568 163.448,132.568 163.448,144.565 207.134,144.565 
			209.511,174.278 210.187,205.18 209.864,223.617 208.853,241.863 207.183,259.932 204.837,277.792 201.673,295.266 
			197.915,312.194 193.563,328.609 188.616,344.477 183.14,359.671 177.021,373.98 170.306,387.425 162.966,400 168.379,400 
			181.581,378.992 193.114,356.266 203.28,331.709 211.552,305.32 217.493,280.297 221.702,254.278 224.319,227.167 
			225.202,198.675 224.802,181.988 223.677,165.429 221.813,149.014 219.181,132.568 		"/>
		<polyline fill-rule="evenodd" clip-rule="evenodd" points="80.975,132.568 84.428,109.697 88.989,87.468 95.735,63.168 
			103.877,40.474 113.45,19.434 124.42,0 119.007,0 106.014,20.927 94.626,43.043 84.894,66.348 76.767,90.825 71.467,111.544 
			67.403,132.568 -0.214,132.568 -0.214,184.461 7.158,184.461 7.158,144.565 65.685,144.565 63.099,169.926 62.184,195.752 
			63.099,223.843 65.829,251.211 70.391,277.872 76.767,303.795 84.926,328.93 94.819,353.279 106.432,376.856 119.778,399.646 
			124.854,399.646 113.515,378.768 103.717,356.459 95.478,332.736 88.764,307.602 83.705,281.229 80.091,253.699 77.923,225.079 
			77.201,195.318 77.827,169.604 79.69,144.565 133.8,144.565 133.8,183.24 141.525,183.24 141.525,132.568 80.975,132.568 		"/>
	</g>
	<g>
		<path d="M202.364,95.913V92.77h13.928v3.143h-5.094v13.856h-3.738V95.913H202.364z"/>
		<path d="M219.077,106.103v3.666h-3.736v-3.666H219.077z"/>
		<path d="M232.528,92.77v16.999h-3.736V92.77H232.528z"/>
		<path d="M239.593,92.77v13.856h8.285v3.143h-12.021V92.77H239.593z"/>
		<path d="M245.259,92.77h4.191l3.975,6.714l3.953-6.714h4.166l-6.309,10.476v6.523h-3.738v-6.619L245.259,92.77z"/>
		<path d="M269.091,92.77l6.357,16.999h-3.881l-1.287-3.786h-6.355l-1.334,3.786h-3.762l6.428-16.999H269.091z M269.306,103.198
			l-2.143-6.237h-0.049l-2.213,6.237H269.306z"/>
		<path d="M280.804,92.77v6.523h6.881V92.77h3.738v16.999h-3.738v-7.333h-6.881v7.333h-3.736V92.77H280.804z"/>
		<path d="M294.522,97.806c0.381-1.087,0.928-2.036,1.643-2.846c0.715-0.809,1.592-1.444,2.631-1.904
			c1.039-0.46,2.211-0.69,3.512-0.69c1.318,0,2.492,0.23,3.523,0.69c1.031,0.46,1.904,1.096,2.619,1.904
			c0.715,0.81,1.262,1.758,1.643,2.846s0.572,2.266,0.572,3.535c0,1.238-0.191,2.393-0.572,3.464s-0.928,2.004-1.643,2.797
			c-0.715,0.794-1.588,1.417-2.619,1.869c-1.031,0.452-2.205,0.679-3.523,0.679c-1.301,0-2.473-0.227-3.512-0.679
			c-1.039-0.453-1.916-1.075-2.631-1.869c-0.715-0.793-1.262-1.726-1.643-2.797s-0.572-2.226-0.572-3.464
			C293.95,100.071,294.142,98.893,294.522,97.806z M297.938,103.424c0.168,0.675,0.432,1.282,0.799,1.821
			c0.365,0.54,0.84,0.972,1.428,1.297c0.588,0.326,1.301,0.488,2.143,0.488s1.555-0.163,2.143-0.488
			c0.588-0.325,1.064-0.758,1.428-1.297c0.365-0.54,0.631-1.146,0.799-1.821c0.166-0.674,0.25-1.369,0.25-2.083
			c0-0.746-0.084-1.468-0.25-2.167c-0.168-0.698-0.434-1.321-0.799-1.869c-0.363-0.547-0.84-0.983-1.428-1.309
			c-0.588-0.325-1.301-0.488-2.143-0.488s-1.555,0.163-2.143,0.488c-0.588,0.326-1.062,0.762-1.428,1.309
			c-0.367,0.548-0.631,1.171-0.799,1.869c-0.166,0.699-0.25,1.421-0.25,2.167C297.688,102.056,297.772,102.75,297.938,103.424z"/>
		<path d="M316.397,109.769l-5.5-16.999h3.834l3.785,11.952h0.047l3.834-11.952h3.855l-5.641,16.999H316.397z"/>
		<path d="M334.206,92.77l6.357,16.999h-3.881l-1.287-3.786h-6.355l-1.334,3.786h-3.762l6.43-16.999H334.206z M334.421,103.198
			l-2.143-6.237h-0.049l-2.213,6.237H334.421z"/>
	</g>
</g>
</svg>
