<?xml version="1.0" encoding="utf-8"?>
<!-- Generator: Adobe Illustrator 16.0.0, SVG Export Plug-In . SVG Version: 6.00 Build 0)  -->
<!DOCTYPE svg PUBLIC "-//W3C//DTD SVG 1.1//EN" "http://www.w3.org/Graphics/SVG/1.1/DTD/svg11.dtd">
<svg version="1.1" id="Layer_1" xmlns="http://www.w3.org/2000/svg" xmlns:xlink="http://www.w3.org/1999/xlink" x="0px" y="0px"
	 width="1046px" height="248.4px" viewBox="0 0 1046 248.4" enable-background="new 0 0 1046 248.4" xml:space="preserve">
<g>
	<path fill="#E21156" d="M601.038,106.365h-10.891c0.15,1.145,0.32,2.309,0.518,3.486h10.941
		C601.399,108.674,601.204,107.506,601.038,106.365z"/>
	<path fill="#E21156" d="M600.269,85.136h-10.875c-0.074,1.136-0.131,2.297-0.172,3.489h10.846
		C600.112,87.43,600.183,86.268,600.269,85.136z"/>
	<path fill="#E21156" d="M600.274,99.289h-10.844c0.078,1.144,0.176,2.307,0.299,3.488h10.863
		C600.464,101.592,600.36,100.432,600.274,99.289z"/>
	<path fill="#E21156" d="M600.007,92.211h-10.834c0.004,1.143,0.025,2.305,0.068,3.49h10.83
		C600.024,94.51,600.009,93.352,600.007,92.211z"/>
	<path fill="#E21156" d="M647.089,95.701h10.84c-0.133-1.187-0.266-2.353-0.406-3.49h-10.861
		C646.808,93.352,646.952,94.514,647.089,95.701z"/>
	<path fill="#E21156" d="M648.319,109.852h10.787c-0.066-1.178-0.143-2.342-0.223-3.486h-10.795
		C648.173,107.51,648.249,108.674,648.319,109.852z"/>
	<path fill="#E21156" d="M647.808,102.777h10.805c-0.102-1.186-0.205-2.346-0.318-3.488h-10.816
		C647.593,100.433,647.706,101.592,647.808,102.777z"/>
	<path fill="#E21156" d="M648.788,125.656h10.766c0-4.234-0.096-8.309-0.266-12.213h-10.775
		C648.69,117.354,648.788,121.422,648.788,125.656z"/>
	<path fill="#E21156" d="M604.507,23.065c0,10.54,8.545,19.087,19.086,19.087c10.543,0,19.086-8.548,19.086-19.087
		c0-3.25-0.814-6.308-2.246-8.989h-33.682C605.321,16.757,604.507,19.814,604.507,23.065z"/>
	<polygon fill="#E21156" points="645.507,102.777 645.622,99.289 601.562,99.289 601.681,102.777 	"/>
	<polygon fill="#E21156" points="645.269,109.852 645.384,106.365 601.8,106.365 601.915,109.852 	"/>
	<polygon fill="#E21156" points="645.745,95.701 645.858,92.211 601.325,92.211 601.442,95.701 	"/>
	<path fill="#E21156" d="M647.278,49.862h-47.369v0.006h-0.049l-1.584,2.543c-0.057,0.091-0.229,0.375-0.479,0.828h51.207
		C648.626,52.422,647.278,49.862,647.278,49.862z"/>
	<path fill="#E21156" d="M594.772,127.242l7.646-2.359L604.931,200h13.279v-53.111h10.764V200h13.279l2.896-86.557H591.3
		C592.155,117.842,593.292,122.443,594.772,127.242z"/>
	<path fill="#E21156" d="M592.308,67.393h60.814c-0.295-1.25-0.586-2.414-0.863-3.489h-58.918
		C592.989,64.998,592.644,66.158,592.308,67.393z"/>
	<path fill="#E21156" d="M601.204,88.625h44.775l0.035-1.045c0.055,0.345,0.104,0.692,0.152,1.045h10.887
		c-0.168-1.198-0.336-2.36-0.51-3.489h-55.457L601.204,88.625z"/>
	<path fill="#E21156" d="M590.714,74.471h63.957c-0.098-0.475-0.189-0.945-0.283-1.397c-0.15-0.718-0.299-1.413-0.449-2.091h-62.518
		C591.169,72.099,590.933,73.261,590.714,74.471z"/>
	<path fill="#E21156" d="M589.704,81.546h10.914c0.088-0.727,0.18-1.44,0.279-2.137l0.074,2.137h55.002
		c-0.205-1.209-0.41-2.372-0.615-3.487H590.13C589.968,79.188,589.827,80.352,589.704,81.546z"/>
	<path fill="#E21156" d="M594.587,60.314h56.705c-0.174-0.617-0.342-1.187-0.488-1.695c-0.186-0.62-0.367-1.216-0.543-1.79h-54.238
		C595.577,57.829,595.087,58.99,594.587,60.314z"/>
	<rect x="607.845" y="0" fill="#E21156" width="31.607" height="3.629"/>
	<rect x="607.845" y="7.219" fill="#E21156" width="31.607" height="3.269"/>
</g>
<g>
	<circle fill="#E21156" cx="805.541" cy="23.065" r="19.087"/>
	<path fill="#E21156" d="M860.09,129.188v-7.777h-3.941c-1.137-48.042-25.172-69.98-26.217-70.91l-0.707-0.638h-18.18l-4.809,4.807
		l4.754,49.21l-5.449,5.447l-5.451-5.447l4.754-49.21l-4.803-4.807h-18.184c0,0-18.348,13.468-20.992,33.765
		c-1.91,14.707,3.867,29.803,17.174,44.868l6.264-5.533L786.881,200h13.277v-53.111h10.766V200h13.279l4.494-134.301
		c6.451,9.188,15.953,27.41,16.686,55.711h-3.006v7.777H828.27v33.014h46.41v-33.014H860.09z M771.529,85.116
		c1.195-9.412,6.523-16.672,10.799-21.124l1.846,55.109C774.416,107.309,770.164,95.883,771.529,85.116z M856.5,129.188h-10.531V125
		H856.5V129.188z"/>
</g>
<g>
	<circle fill="#E21156" cx="237.845" cy="23.065" r="19.087"/>
	<path fill="#E21156" d="M257.635,127.811c13.686-15.35,16.523-40.181,13.118-58.583c-1.376-7.425-4.312-16.854-10.503-19.619h-44.7
		c-6.192,2.765-9.126,12.194-10.503,19.619c-3.394,18.354-0.581,43.089,13.003,58.455L220.325,200h12.137v-53.111h10.766V200h12.139
		L257.635,127.811z M214.762,77.808c0.296-3.583,0.817-6.675,1.433-9.262l1.111,35.425
		C214.684,95.206,214.105,85.725,214.762,77.808z M221.121,131.723l-1.291-1.721c0.058-0.045,6.052-4.645,6.052-11.346h2.154
		C228.036,126.451,221.403,131.514,221.121,131.723z M261.039,77.808c0.665,8.035,0.055,17.679-2.668,26.551l1.14-36.208
		C260.165,70.818,260.727,74.039,261.039,77.808z M247.763,118.656h2.154c0,6.701,5.995,11.301,6.053,11.346l-1.292,1.721
		C254.397,131.514,247.763,126.451,247.763,118.656z"/>
</g>
<g>
	<circle fill="#E21156" cx="49.929" cy="30.043" r="19.086"/>
	<path fill="#E21156" d="M84.971,129.75c8.437-50.964-12.774-72.064-13.676-72.909c-8.914,0-37.904,0-47.367,0
		c-0.001,0-0.001,0.004-0.001,0.004s-0.588,0.128-0.917,0.333C18.054,60.3,2.97,69.797,0.373,87.871
		c-1.556,10.812,1.755,22.473,9.845,34.795c-3.092,43.209,4.379,77.133,4.379,77.133h12.712
		c-1.036-14.053-3.008-43.701-2.296-56.984l10.882,0.021c-0.685,12.785,1.216,43.469,2.212,56.963h13.811
		c0,0-5.76-76.422,14.539-131.369c4.574,6.773,13.585,25.17,7.893,59.562l3.441,0.568L85.771,200l3.568-0.396l-7.84-70.43
		L84.971,129.75z M11.027,89.403c0.861-5.977,3.792-10.784,7.1-14.485c-2.561,9.417-4.437,18.803-5.772,27.958
		C10.866,98.133,10.421,93.633,11.027,89.403z"/>
</g>
<g>
	<path fill="#E21156" d="M429.417,49.083c10.08,0,18.249-8.17,18.249-18.247c0-10.082-8.169-18.25-18.249-18.25
		c-10.076,0-18.245,8.169-18.245,18.25C411.172,40.912,419.341,49.083,429.417,49.083z"/>
	<path fill="#E21156" d="M418.573,56.453l28.613,58.709l0.786-38.348c3.552,9.554,6.736,25.219,4.227,48.629
		c-0.052,0.492-0.105,0.979-0.163,1.477l0.936,0.109l9.76,1.131c5.885-50.789-13.541-70.904-14.342-71.708H418.573z"/>
	<path fill="#E21156" d="M411.384,56.453h-0.908c-0.578,1.052-15.406,28.153-11.351,72.268l10.723-0.986
		c-1.456-15.82-0.469-29.01,1.283-39.249L413.415,200h10.636l-0.014-59.93h10.766l0.013,59.93h10.634l1.449-70.689L411.384,56.453z"
		/>
	<polygon fill="#E21156" points="416.55,55.562 412.547,55.562 449.072,130.498 448.711,130.498 448.711,133.031 448.711,168.008 
		458.428,168.008 458.428,130.498 454.661,130.498 453.065,130.498 	"/>
</g>
<g>
	<path fill="#E21156" d="M1000.684,42.152c10.539,0,19.088-8.546,19.088-19.087c0-10.542-8.549-19.087-19.088-19.087
		S981.6,12.522,981.6,23.065C981.6,33.606,990.145,42.152,1000.684,42.152z"/>
	<path fill="#E21156" d="M1045.645,83.626c-2.744-21.07-21.275-33.765-21.275-33.765h-47.367c0,0-18.348,13.466-20.994,33.765
		c-1.912,14.707,3.867,29.803,17.176,44.868l6.262-5.533L982.023,200h13.277v-53.111h10.766V200h13.277l2.588-77.281l6.537,5.775
		C1041.775,113.43,1047.553,98.333,1045.645,83.626z M966.676,85.116c1.191-9.412,6.52-16.672,10.797-21.124l1.846,55.111
		C969.562,107.309,965.307,95.884,966.676,85.116z M1023.908,63.708c4.318,4.424,9.852,11.797,11.07,21.408
		c1.379,10.874-2.98,22.416-12.941,34.328L1023.908,63.708z"/>
</g>
<g>
	<path d="M778.457,243h-2.088l-3.049-12.289c-0.264-1.104-0.432-2.353-0.432-2.353h-0.048c0,0-0.168,1.248-0.433,2.353L769.36,243
		h-2.088l-4.393-17.378h2.088l2.977,12.649c0.24,1.032,0.432,2.305,0.432,2.305h0.049c0,0,0.191-1.272,0.432-2.305l3.097-12.649
		h1.823l3.097,12.649c0.24,1.032,0.432,2.305,0.432,2.305h0.049c0,0,0.191-1.272,0.432-2.305l2.977-12.649h2.088L778.457,243z"/>
	<path d="M789.784,243.264c-3.576,0-5.496-2.904-5.496-6.744c0-3.841,1.92-6.721,5.496-6.721s5.496,2.88,5.496,6.721
		C795.28,240.359,793.36,243.264,789.784,243.264z M789.784,231.431c-2.353,0-3.504,2.089-3.504,5.064
		c0,2.977,1.151,5.112,3.504,5.112s3.504-2.136,3.504-5.112C793.288,233.52,792.137,231.431,789.784,231.431z"/>
	<path d="M803.92,231.575c-0.336-0.072-0.743-0.097-1.151-0.097c-0.889,0-1.849,0.145-2.448,0.408V243h-2.017v-12.289
		c1.177-0.528,2.952-0.912,4.729-0.912c0.48,0,0.912,0.048,1.272,0.096L803.92,231.575z"/>
	<path d="M814.816,243l-5.953-6.648h-0.048V243h-1.968v-18.842h1.968v11.833h0.048l5.593-5.929h2.4l-5.809,6.121l6.145,6.816
		H814.816z"/>
	<path d="M820.359,227.446c-0.696,0-1.272-0.552-1.272-1.224s0.576-1.248,1.272-1.248s1.271,0.576,1.271,1.248
		S821.056,227.446,820.359,227.446z M819.375,243v-12.938h1.992V243H819.375z"/>
	<path d="M832.888,243v-8.736c0-1.729-1.056-2.833-3.145-2.833c-1.128,0-2.136,0.217-2.76,0.456V243h-2.017v-12.289
		c1.248-0.528,2.856-0.912,4.753-0.912c3.408,0,5.16,1.584,5.16,4.297V243H832.888z"/>
	<path d="M842.871,248.4c-1.704,0-3.336-0.456-4.32-0.96l0.624-1.584c0.816,0.432,2.208,0.84,3.553,0.84
		c2.328,0,3.504-1.32,3.504-3.648v-1.104c-0.696,0.336-1.776,0.575-2.784,0.575c-3.24,0-5.544-2.231-5.544-6.168
		c0-4.536,2.64-6.553,6.216-6.553c1.585,0,3.097,0.384,4.081,0.912v12.337C848.2,246.456,846.231,248.4,842.871,248.4z
		 M846.231,231.815c-0.456-0.217-1.32-0.408-2.232-0.408c-2.279,0-4.104,1.368-4.104,4.872c0,3.097,1.607,4.656,3.864,4.656
		c0.864,0,1.896-0.191,2.472-0.504V231.815z"/>
</g>
<g>
	<path d="M973.55,243.264c-4.44,0-6.648-4.008-6.648-8.952s2.208-8.953,6.648-8.953s6.648,4.009,6.648,8.953
		S977.99,243.264,973.55,243.264z M973.55,227.207c-3.024,0-4.584,3.096-4.584,7.104c0,4.008,1.56,7.104,4.584,7.104
		s4.585-3.097,4.585-7.104C978.135,230.303,976.574,227.207,973.55,227.207z"/>
	<path d="M987.638,243.144c-2.112,0-3.408-1.151-3.408-3.504v-8.064h-1.872v-1.513h1.872v-3.12l1.944-0.647v3.768h2.784v1.513
		h-2.784v7.969c0,1.32,0.888,1.824,1.944,1.824c0.312,0,0.647-0.048,0.84-0.12v1.68C988.694,243.048,988.19,243.144,987.638,243.144
		z"/>
	<path d="M999.565,243v-8.713c0-1.896-1.248-2.809-3.216-2.809c-0.937,0-1.969,0.288-2.688,0.721V243h-2.017v-18.842h2.017v6.457
		c0.84-0.433,1.992-0.769,3.072-0.769c2.976,0,4.824,1.513,4.824,4.297V243H999.565z"/>
	<path d="M1015.357,236.207l-8.833,1.272c0.217,2.761,1.873,4.152,4.345,4.152c1.296,0,2.664-0.312,3.528-0.792l0.624,1.512
		c-0.936,0.528-2.544,0.912-4.248,0.912c-3.864,0-6.192-2.496-6.192-6.744c0-3.984,2.136-6.721,5.64-6.721
		c3.192,0,5.161,2.088,5.161,5.545C1015.382,235.607,1015.382,235.896,1015.357,236.207z M1010.197,231.335
		c-2.28,0-3.744,1.824-3.792,4.753l7.057-1.009C1013.438,232.535,1012.142,231.335,1010.197,231.335z"/>
	<path d="M1024.021,231.575c-0.336-0.072-0.743-0.097-1.151-0.097c-0.889,0-1.849,0.145-2.448,0.408V243h-2.017v-12.289
		c1.177-0.528,2.952-0.912,4.729-0.912c0.48,0,0.912,0.048,1.272,0.096L1024.021,231.575z"/>
	<path d="M1029.925,243.264c-1.393,0-2.904-0.407-3.841-0.912l0.721-1.536c0.695,0.408,2.063,0.816,3.096,0.816
		c1.656,0,2.761-0.816,2.761-2.088c0-1.368-1.104-1.896-2.616-2.448c-1.824-0.672-3.625-1.488-3.625-3.816
		c0-2.017,1.561-3.48,4.297-3.48c1.464,0,2.736,0.384,3.601,0.912l-0.696,1.416c-0.601-0.384-1.704-0.768-2.713-0.768
		c-1.56,0-2.447,0.84-2.447,1.92c0,1.368,1.056,1.848,2.496,2.376c1.92,0.72,3.792,1.464,3.792,3.889
		C1034.749,241.776,1032.973,243.264,1029.925,243.264z"/>
</g>
<g>
	<path d="M551.644,243.264c-1.607,0-3.192-0.384-4.176-0.912l0.72-1.8c0.792,0.432,2.088,0.84,3.385,0.84
		c2.208,0,3.768-1.104,3.768-3.024c0-1.752-1.536-2.567-3.168-3.288c-2.16-0.96-4.536-2.16-4.536-5.017
		c0-2.904,2.184-4.704,5.353-4.704c1.584,0,2.976,0.408,3.792,0.912l-0.696,1.704c-0.672-0.384-1.848-0.816-3.024-0.816
		c-1.943,0-3.336,1.032-3.336,2.809c0,1.729,1.704,2.593,3.36,3.336c2.04,0.912,4.368,2.064,4.368,4.969
		C557.452,241.32,555.101,243.264,551.644,243.264z"/>
	<path d="M565.54,243.264c-3.576,0-5.496-2.904-5.496-6.744c0-3.841,1.92-6.721,5.496-6.721s5.496,2.88,5.496,6.721
		C571.036,240.359,569.116,243.264,565.54,243.264z M565.54,231.431c-2.353,0-3.504,2.089-3.504,5.064
		c0,2.977,1.151,5.112,3.504,5.112s3.504-2.136,3.504-5.112C569.044,233.52,567.893,231.431,565.54,231.431z"/>
	<path d="M579.124,243.264c-2.76,0-5.544-1.992-5.544-6.744c0-4.753,2.784-6.721,5.544-6.721c1.296,0,2.448,0.36,3.217,0.888
		l-0.696,1.465c-0.576-0.408-1.44-0.673-2.305-0.673c-1.848,0-3.696,1.393-3.696,5.017c0,3.625,1.872,5.064,3.696,5.064
		c0.864,0,1.729-0.288,2.305-0.695l0.696,1.512C581.549,242.928,580.42,243.264,579.124,243.264z"/>
	<path d="M586.203,227.446c-0.696,0-1.272-0.552-1.272-1.224s0.576-1.248,1.272-1.248s1.271,0.576,1.271,1.248
		S586.899,227.446,586.203,227.446z M585.219,243v-12.938h1.992V243H585.219z"/>
	<path d="M595.516,243.264c-3.553,0-5.329-1.512-5.329-3.96c0-3.696,3.984-4.248,7.896-4.465v-0.983
		c0-1.921-1.271-2.521-3.072-2.521c-1.2,0-2.688,0.384-3.528,0.792l-0.527-1.416c0.983-0.456,2.616-0.912,4.224-0.912
		c2.904,0,4.801,1.152,4.801,4.225v8.328C599.067,242.856,597.22,243.264,595.516,243.264z M598.083,236.231
		c-2.88,0.168-6,0.336-6,3.024c0,1.512,1.128,2.496,3.384,2.496c0.984,0,2.16-0.192,2.616-0.408V236.231z"/>
	<path d="M603.603,243v-18.842h1.992V243H603.603z"/>
	<path d="M620.715,243.264c-3.576,0-5.496-2.904-5.496-6.744c0-3.841,1.92-6.721,5.496-6.721s5.496,2.88,5.496,6.721
		C626.211,240.359,624.291,243.264,620.715,243.264z M620.715,231.431c-2.353,0-3.504,2.089-3.504,5.064
		c0,2.977,1.151,5.112,3.504,5.112s3.504-2.136,3.504-5.112C624.219,233.52,623.067,231.431,620.715,231.431z"/>
	<path d="M634.227,243.264c-3.216,0-4.992-1.416-4.992-4.536v-8.665h2.017v8.689c0,1.92,0.983,2.832,2.976,2.832
		c1.177,0,2.232-0.216,2.736-0.433v-11.089h1.992v12.289C637.972,242.856,636.123,243.264,634.227,243.264z"/>
	<path d="M646.778,243.144c-2.112,0-3.408-1.151-3.408-3.504v-8.064h-1.872v-1.513h1.872v-3.12l1.944-0.647v3.768h2.784v1.513
		h-2.784v7.969c0,1.32,0.888,1.824,1.944,1.824c0.312,0,0.647-0.048,0.84-0.12v1.68
		C647.835,243.048,647.331,243.144,646.778,243.144z"/>
	<path d="M655.61,243.264c-2.76,0-5.544-1.992-5.544-6.744c0-4.753,2.784-6.721,5.544-6.721c1.296,0,2.448,0.36,3.217,0.888
		l-0.696,1.465c-0.576-0.408-1.44-0.673-2.305-0.673c-1.848,0-3.696,1.393-3.696,5.017c0,3.625,1.872,5.064,3.696,5.064
		c0.864,0,1.729-0.288,2.305-0.695l0.696,1.512C658.035,242.928,656.906,243.264,655.61,243.264z"/>
	<path d="M666.291,243.264c-3.553,0-5.329-1.512-5.329-3.96c0-3.696,3.984-4.248,7.896-4.465v-0.983
		c0-1.921-1.271-2.521-3.072-2.521c-1.2,0-2.688,0.384-3.528,0.792l-0.527-1.416c0.983-0.456,2.616-0.912,4.224-0.912
		c2.904,0,4.801,1.152,4.801,4.225v8.328C669.843,242.856,667.995,243.264,666.291,243.264z M668.858,236.231
		c-2.88,0.168-6,0.336-6,3.024c0,1.512,1.128,2.496,3.384,2.496c0.984,0,2.16-0.192,2.616-0.408V236.231z"/>
	<path d="M677.354,243.264c-1.393,0-2.904-0.407-3.841-0.912l0.721-1.536c0.695,0.408,2.063,0.816,3.096,0.816
		c1.656,0,2.761-0.816,2.761-2.088c0-1.368-1.104-1.896-2.616-2.448c-1.824-0.672-3.625-1.488-3.625-3.816
		c0-2.017,1.561-3.48,4.297-3.48c1.464,0,2.736,0.384,3.601,0.912l-0.696,1.416c-0.601-0.384-1.704-0.768-2.713-0.768
		c-1.56,0-2.447,0.84-2.447,1.92c0,1.368,1.056,1.848,2.496,2.376c1.92,0.72,3.792,1.464,3.792,3.889
		C682.179,241.776,680.402,243.264,677.354,243.264z"/>
	<path d="M689.33,243.144c-2.112,0-3.408-1.151-3.408-3.504v-8.064h-1.872v-1.513h1.872v-3.12l1.944-0.647v3.768h2.784v1.513h-2.784
		v7.969c0,1.32,0.888,1.824,1.944,1.824c0.312,0,0.647-0.048,0.84-0.12v1.68C690.387,243.048,689.883,243.144,689.33,243.144z"/>
	<path d="M696.435,243.264c-1.393,0-2.904-0.407-3.841-0.912l0.721-1.536c0.695,0.408,2.063,0.816,3.096,0.816
		c1.656,0,2.761-0.816,2.761-2.088c0-1.368-1.104-1.896-2.616-2.448c-1.824-0.672-3.625-1.488-3.625-3.816
		c0-2.017,1.561-3.48,4.297-3.48c1.464,0,2.736,0.384,3.601,0.912l-0.696,1.416c-0.601-0.384-1.704-0.768-2.713-0.768
		c-1.56,0-2.447,0.84-2.447,1.92c0,1.368,1.056,1.848,2.496,2.376c1.92,0.72,3.792,1.464,3.792,3.889
		C701.259,241.776,699.482,243.264,696.435,243.264z"/>
</g>
<g>
	<path d="M409.365,236.039V243h-2.089v-6.961l-5.521-10.417h2.257l4.296,8.329h0.048l4.272-8.329h2.257L409.365,236.039z"/>
	<path d="M420.524,243.264c-3.576,0-5.496-2.904-5.496-6.744c0-3.841,1.92-6.721,5.496-6.721s5.496,2.88,5.496,6.721
		C426.02,240.359,424.1,243.264,420.524,243.264z M420.524,231.431c-2.353,0-3.504,2.089-3.504,5.064
		c0,2.977,1.151,5.112,3.504,5.112s3.504-2.136,3.504-5.112C424.028,233.52,422.876,231.431,420.524,231.431z"/>
	<path d="M434.036,243.264c-3.216,0-4.992-1.416-4.992-4.536v-8.665h2.017v8.689c0,1.92,0.983,2.832,2.976,2.832
		c1.177,0,2.232-0.216,2.736-0.433v-11.089h1.992v12.289C437.781,242.856,435.932,243.264,434.036,243.264z"/>
	<path d="M446.587,243.144c-2.112,0-3.408-1.151-3.408-3.504v-8.064h-1.872v-1.513h1.872v-3.12l1.944-0.647v3.768h2.784v1.513
		h-2.784v7.969c0,1.32,0.888,1.824,1.944,1.824c0.312,0,0.647-0.048,0.84-0.12v1.68C447.644,243.048,447.14,243.144,446.587,243.144
		z"/>
	<path d="M458.516,243v-8.713c0-1.896-1.248-2.809-3.216-2.809c-0.937,0-1.969,0.288-2.688,0.721V243h-2.017v-18.842h2.017v6.457
		c0.84-0.433,1.992-0.769,3.072-0.769c2.976,0,4.824,1.513,4.824,4.297V243H458.516z"/>
</g>
<g>
	<path d="M178.189,243.24c-3.169,0-5.641-1.944-5.641-5.209v-12.409h2.088v12.409c0,2.137,1.584,3.408,3.553,3.408
		c1.968,0,3.552-1.271,3.552-3.408v-12.409h2.088v12.409C183.829,241.296,181.357,243.24,178.189,243.24z"/>
	<path d="M195.397,243v-8.736c0-1.729-1.056-2.833-3.145-2.833c-1.128,0-2.136,0.217-2.76,0.456V243h-2.017v-12.289
		c1.248-0.528,2.856-0.912,4.753-0.912c3.408,0,5.16,1.584,5.16,4.297V243H195.397z"/>
	<path d="M211.188,236.207l-8.833,1.272c0.217,2.761,1.873,4.152,4.345,4.152c1.296,0,2.664-0.312,3.528-0.792l0.624,1.512
		c-0.936,0.528-2.544,0.912-4.248,0.912c-3.864,0-6.192-2.496-6.192-6.744c0-3.984,2.136-6.721,5.641-6.721
		c3.191,0,5.16,2.088,5.16,5.545C211.213,235.607,211.213,235.896,211.188,236.207z M206.028,231.335
		c-2.28,0-3.744,1.824-3.792,4.753l7.057-1.009C209.269,232.535,207.973,231.335,206.028,231.335z"/>
	<path d="M229.454,243v-8.904c0-1.681-1.177-2.665-2.809-2.665c-1.2,0-2.185,0.433-2.809,1.104V243h-1.992v-9.217
		c0-1.464-1.224-2.353-3.023-2.353c-1.032,0-1.921,0.192-2.568,0.456V243h-2.017v-12.289c1.248-0.528,2.784-0.912,4.465-0.912
		c2.016,0,3.408,0.672,4.104,1.488c0.792-0.744,2.328-1.488,4.224-1.488c2.665,0,4.417,1.608,4.417,4.128V243H229.454z"/>
	<path d="M239.268,243.144c-0.888,0-1.824-0.168-2.304-0.336v5.353h-2.017v-17.449c0.84-0.456,2.544-0.912,4.177-0.912
		c3.937,0,6.145,2.592,6.145,6.601C245.269,240.359,243.132,243.144,239.268,243.144z M239.147,231.407
		c-0.863,0-1.775,0.216-2.184,0.432v9.385c0.384,0.168,1.368,0.336,2.16,0.336c2.712,0,4.128-2.184,4.128-5.16
		C243.252,233.399,241.812,231.407,239.147,231.407z"/>
	<path d="M248.388,243v-18.842h1.992V243H248.388z"/>
	<path d="M258.996,243.264c-3.576,0-5.496-2.904-5.496-6.744c0-3.841,1.92-6.721,5.496-6.721s5.496,2.88,5.496,6.721
		C264.492,240.359,262.572,243.264,258.996,243.264z M258.996,231.431c-2.353,0-3.504,2.089-3.504,5.064
		c0,2.977,1.151,5.112,3.504,5.112s3.504-2.136,3.504-5.112C262.5,233.52,261.349,231.431,258.996,231.431z"/>
	<path d="M271.164,248.16h-2.089l1.944-5.16l-4.849-12.938h2.185l3.216,9.409c0.288,0.84,0.456,1.849,0.456,1.849h0.049
		c0,0,0.168-1.009,0.456-1.849l3.191-9.409h2.209L271.164,248.16z"/>
	<path d="M290.389,236.207l-8.833,1.272c0.217,2.761,1.873,4.152,4.345,4.152c1.296,0,2.664-0.312,3.528-0.792l0.624,1.512
		c-0.936,0.528-2.544,0.912-4.248,0.912c-3.864,0-6.192-2.496-6.192-6.744c0-3.984,2.136-6.721,5.64-6.721
		c3.192,0,5.161,2.088,5.161,5.545C290.413,235.607,290.413,235.896,290.389,236.207z M285.229,231.335
		c-2.28,0-3.744,1.824-3.792,4.753l7.057-1.009C288.469,232.535,287.173,231.335,285.229,231.335z"/>
	<path d="M299.101,243.264c-3.937,0-6.145-2.568-6.145-6.576c0-3.96,2.112-6.744,5.977-6.744c0.888,0,1.848,0.168,2.328,0.336
		v-6.121h1.992v18.193C302.484,242.808,300.805,243.264,299.101,243.264z M301.261,231.839c-0.385-0.168-1.393-0.312-2.185-0.312
		c-2.712,0-4.128,2.184-4.128,5.16c0,3,1.464,4.944,4.128,4.944c0.816,0,1.824-0.216,2.185-0.408V231.839z"/>
</g>
<g>
	<path d="M12.375,243.264c-1.607,0-3.192-0.384-4.176-0.912l0.72-1.8c0.792,0.432,2.088,0.84,3.385,0.84
		c2.208,0,3.768-1.104,3.768-3.024c0-1.752-1.536-2.567-3.168-3.288c-2.16-0.96-4.536-2.16-4.536-5.017
		c0-2.904,2.184-4.704,5.353-4.704c1.584,0,2.976,0.408,3.792,0.912l-0.696,1.704c-0.672-0.384-1.848-0.816-3.024-0.816
		c-1.943,0-3.336,1.032-3.336,2.809c0,1.729,1.704,2.593,3.36,3.336c2.04,0.912,4.368,2.064,4.368,4.969
		C18.183,241.32,15.832,243.264,12.375,243.264z"/>
	<path d="M31.551,236.207l-8.833,1.272c0.217,2.761,1.873,4.152,4.345,4.152c1.296,0,2.664-0.312,3.528-0.792l0.624,1.512
		c-0.936,0.528-2.544,0.912-4.248,0.912c-3.864,0-6.192-2.496-6.192-6.744c0-3.984,2.136-6.721,5.64-6.721
		c3.192,0,5.161,2.088,5.161,5.545C31.576,235.607,31.576,235.896,31.551,236.207z M26.391,231.335c-2.28,0-3.744,1.824-3.792,4.753
		l7.057-1.009C29.631,232.535,28.335,231.335,26.391,231.335z"/>
	<path d="M42.519,243v-8.736c0-1.729-1.056-2.833-3.145-2.833c-1.128,0-2.136,0.217-2.76,0.456V243h-2.017v-12.289
		c1.248-0.528,2.856-0.912,4.753-0.912c3.408,0,5.16,1.584,5.16,4.297V243H42.519z"/>
	<path d="M49.119,227.446c-0.696,0-1.272-0.552-1.272-1.224s0.576-1.248,1.272-1.248s1.271,0.576,1.271,1.248
		S49.815,227.446,49.119,227.446z M48.134,243v-12.938h1.992V243H48.134z"/>
	<path d="M58.743,243.264c-3.576,0-5.496-2.904-5.496-6.744c0-3.841,1.92-6.721,5.496-6.721s5.496,2.88,5.496,6.721
		C64.239,240.359,62.319,243.264,58.743,243.264z M58.743,231.431c-2.353,0-3.504,2.089-3.504,5.064
		c0,2.977,1.151,5.112,3.504,5.112s3.504-2.136,3.504-5.112C62.247,233.52,61.095,231.431,58.743,231.431z"/>
	<path d="M72.878,231.575c-0.336-0.072-0.743-0.097-1.151-0.097c-0.889,0-1.849,0.145-2.448,0.408V243h-2.017v-12.289
		c1.177-0.528,2.952-0.912,4.729-0.912c0.48,0,0.912,0.048,1.272,0.096L72.878,231.575z"/>
	<path d="M78.783,243.264c-1.393,0-2.904-0.407-3.841-0.912l0.721-1.536c0.695,0.408,2.063,0.816,3.096,0.816
		c1.656,0,2.761-0.816,2.761-2.088c0-1.368-1.104-1.896-2.616-2.448c-1.824-0.672-3.625-1.488-3.625-3.816
		c0-2.017,1.561-3.48,4.297-3.48c1.464,0,2.736,0.384,3.601,0.912l-0.696,1.416c-0.601-0.384-1.704-0.768-2.713-0.768
		c-1.56,0-2.447,0.84-2.447,1.92c0,1.368,1.056,1.848,2.496,2.376c1.92,0.72,3.792,1.464,3.792,3.889
		C83.607,241.776,81.831,243.264,78.783,243.264z"/>
</g>
</svg>
