<?xml version="1.0" encoding="utf-8"?>
<!-- Generator: Adobe Illustrator 16.0.0, SVG Export Plug-In . SVG Version: 6.00 Build 0)  -->
<!DOCTYPE svg PUBLIC "-//W3C//DTD SVG 1.1//EN" "http://www.w3.org/Graphics/SVG/1.1/DTD/svg11.dtd">
<svg version="1.1" id="Layer_1" xmlns="http://www.w3.org/2000/svg" xmlns:xlink="http://www.w3.org/1999/xlink" x="0px" y="0px"
	 width="628.186px" height="290px" viewBox="0 0 628.186 290" enable-background="new 0 0 628.186 290" xml:space="preserve">
<g>
	<g>
		<path fill="#231F20" d="M49.028,218.825l-4.901-14.016H16.584l-4.901,14.016H0.509l25.583-69.788h8.528l25.485,69.788H49.028z
			 M30.601,164.817l-10.978,30.974h21.662L30.601,164.817z"/>
		<path fill="#231F20" d="M107.996,218.825L93.294,189.42H80.062v29.405H69.476v-69.788h27.053c12.84,0,21.662,8.233,21.662,20.387
			c0,6.077-2.156,10.979-6.371,14.605c-2.058,1.764-3.626,2.646-7.547,3.92l16.075,30.876H107.996z M95.745,158.545H80.062v21.857
			h15.683c7.254,0,11.86-4.215,11.86-10.88C107.605,162.759,102.999,158.545,95.745,158.545z"/>
		<path fill="#231F20" d="M179.943,200.203c-0.686,4.214-3.039,9.017-6.077,12.055c-4.411,4.411-10.585,6.567-18.134,6.567h-24.504
			v-69.788h24.504c12.056,0,21.76,5.979,24.113,18.132c0.588,3.04,0.98,6.372,0.98,10.195v5.979
			C180.825,190.596,180.531,196.281,179.943,200.203z M170.141,181.187c0-10.782-0.979-14.703-3.725-17.938
			c-2.646-3.137-6.764-4.704-11.958-4.704h-12.644v50.772h12.644c5.195,0,9.312-1.567,11.958-4.705
			c2.745-3.234,3.725-7.841,3.725-19.211V181.187z"/>
		<path fill="#231F20" d="M193.419,226.079h-9.507l27.935-84.295h9.507L193.419,226.079z"/>
		<path fill="#231F20" d="M262.482,218.825l-4.901-14.016h-27.543l-4.901,14.016h-11.174l25.583-69.788h8.528l25.485,69.788H262.482
			z M244.055,164.817l-10.978,30.974h21.662L244.055,164.817z"/>
		<path fill="#231F20" d="M321.451,218.825l-14.703-29.405h-13.232v29.405H282.93v-69.788h27.053
			c12.84,0,21.662,8.233,21.662,20.387c0,6.077-2.156,10.979-6.371,14.605c-2.058,1.764-3.627,2.646-7.547,3.92l16.075,30.876
			H321.451z M309.199,158.545h-15.683v21.857h15.683c7.253,0,11.86-4.215,11.86-10.88
			C321.059,162.759,316.452,158.545,309.199,158.545z"/>
		<path fill="#231F20" d="M377.773,217.453c-3.039,1.274-6.372,1.961-10.292,1.961c-7.352,0-13.723-2.55-18.525-7.45
			c-6.959-7.057-6.764-16.564-6.764-28.033c-0.097-0.49-0.097-2.45,0-2.842c0-12.841,0.98-19.311,6.764-25.191
			c4.803-4.803,11.174-7.449,18.427-7.449c4.019,0,7.352,0.686,10.391,1.961c3.234,1.371,5.488,3.037,9.018,6.272l-7.058,7.155
			c-4.117-4.019-7.156-5.881-12.351-5.881c-4.117,0-7.743,1.471-10.39,4.214c-4.019,4.313-4.117,11.764-4.117,20.78v3.138
			c0,11.957,0.785,16.074,4.117,19.604c2.646,2.842,6.175,4.214,10.39,4.214c5.195,0,8.234-1.862,12.351-5.88l7.058,7.155
			C383.261,214.415,381.007,216.081,377.773,217.453z"/>
	</g>
	<g>
		<path fill="#231F20" d="M13.461,257.438h-1.858l-1.307-3.692H3.165l-1.307,3.692H0l6.008-16.327h1.468L13.461,257.438z
			 M9.792,252.232l-3.027-8.622l-3.073,8.622H9.792z"/>
		<path fill="#231F20" d="M24.124,257.782c0,1.482-0.433,2.66-1.296,3.531c-0.863,0.872-2.029,1.308-3.497,1.308
			c-0.718,0-1.36-0.107-1.925-0.321c-0.505-0.184-1.109-0.581-1.812-1.192l1.078-1.055c0.565,0.488,1.017,0.795,1.354,0.916
			c0.366,0.139,0.802,0.207,1.306,0.207c0.994,0,1.767-0.302,2.317-0.906c0.55-0.604,0.825-1.455,0.825-2.557v-1.766
			c-0.458,0.536-0.902,0.902-1.33,1.102c-0.489,0.244-1.07,0.366-1.743,0.366c-1.422,0-2.477-0.466-3.165-1.398
			c-0.687-0.933-1.031-2.369-1.031-4.312c0-1.94,0.34-3.374,1.02-4.3c0.68-0.924,1.739-1.387,3.176-1.387
			c0.704,0,1.307,0.122,1.812,0.366c0.427,0.215,0.855,0.582,1.283,1.101v-1.329h1.629V257.782z M22.473,251.729
			c0-1.498-0.222-2.58-0.665-3.245c-0.444-0.665-1.162-0.998-2.156-0.998c-0.978,0-1.689,0.338-2.132,1.01
			c-0.444,0.674-0.665,1.742-0.665,3.21c0,1.483,0.221,2.558,0.665,3.223c0.443,0.664,1.161,0.997,2.155,0.997
			c0.979,0,1.689-0.333,2.133-0.997C22.251,254.263,22.473,253.195,22.473,251.729z"/>
		<path fill="#231F20" d="M36.896,252.232h-7.613c0.046,0.902,0.161,1.583,0.344,2.041c0.52,1.238,1.544,1.857,3.073,1.857
			c0.489,0,0.97-0.092,1.444-0.274c0.428-0.185,0.902-0.521,1.421-1.01l1.125,0.987c-0.688,0.672-1.323,1.123-1.903,1.353
			c-0.643,0.259-1.369,0.389-2.179,0.389c-1.636,0-2.875-0.496-3.715-1.489c-0.841-0.994-1.262-2.446-1.262-4.357
			c0-1.773,0.414-3.168,1.239-4.185c0.826-1.018,1.957-1.525,3.394-1.525s2.568,0.489,3.394,1.467
			c0.826,0.979,1.238,2.309,1.238,3.991V252.232z M35.245,250.995c-0.031-0.688-0.1-1.185-0.207-1.491
			c-0.199-0.657-0.543-1.169-1.032-1.536s-1.07-0.551-1.743-0.551c-0.597,0-1.128,0.148-1.594,0.447
			c-0.467,0.299-0.814,0.715-1.043,1.25c-0.199,0.428-0.313,1.055-0.344,1.881H35.245z"/>
		<path fill="#231F20" d="M49.279,257.438h-1.652v-6.949c0-0.947-0.24-1.685-0.722-2.213c-0.481-0.526-1.166-0.791-2.052-0.791
			c-0.887,0-1.575,0.265-2.064,0.791c-0.489,0.528-0.733,1.266-0.733,2.213v6.949h-1.651v-11.282h1.651v1.238
			c0.443-0.459,0.887-0.795,1.33-1.01c0.55-0.244,1.17-0.366,1.857-0.366c1.238,0,2.221,0.375,2.947,1.123
			c0.726,0.75,1.089,1.773,1.089,3.073V257.438z"/>
		<path fill="#231F20" d="M61.386,255.901c-0.626,0.658-1.207,1.101-1.743,1.33c-0.55,0.229-1.185,0.344-1.903,0.344
			c-1.575,0-2.813-0.511-3.715-1.536c-0.902-1.024-1.353-2.438-1.353-4.241c0-1.805,0.451-3.219,1.353-4.243s2.14-1.536,3.715-1.536
			c0.718,0,1.353,0.114,1.903,0.344c0.536,0.229,1.116,0.674,1.743,1.33l-1.124,1.055c-0.504-0.52-0.933-0.855-1.284-1.01
			c-0.382-0.167-0.802-0.252-1.261-0.252c-2.263,0-3.394,1.438-3.394,4.312c0,2.873,1.124,4.311,3.371,4.311
			c0.474,0,0.887-0.076,1.238-0.229c0.367-0.168,0.811-0.52,1.33-1.055L61.386,255.901z"/>
		<path fill="#231F20" d="M72.461,246.156l-5.136,14.011c-0.521,1.406-1.521,2.11-3.004,2.11H63.61v-1.469h0.505
			c0.535,0,0.928-0.092,1.18-0.274c0.253-0.185,0.478-0.559,0.677-1.124l0.803-2.201l-4.06-11.053h1.789l3.096,9.058l3.073-9.058
			H72.461z"/>
		<path fill="#231F20" d="M84.914,247.485h-2.409v9.953h-1.65v-9.953H79.41v-1.261h1.445v-2.132c0-0.933,0.255-1.671,0.768-2.214
			c0.512-0.542,1.211-0.814,2.099-0.814h1.193v1.422h-0.896c-1.008,0-1.513,0.551-1.513,1.651v2.087h2.409V247.485z"/>
		<path fill="#231F20" d="M96.31,251.729c0,2.109-0.459,3.631-1.375,4.562c-0.857,0.856-1.934,1.284-3.233,1.284
			c-1.3,0-2.377-0.428-3.234-1.284c-0.917-0.932-1.375-2.43-1.375-4.493s0.458-3.562,1.375-4.495
			c0.856-0.856,1.934-1.284,3.234-1.284c1.299,0,2.376,0.428,3.233,1.284C95.851,248.22,96.31,249.695,96.31,251.729z
			 M94.658,251.865c0-0.963-0.065-1.711-0.195-2.247c-0.13-0.535-0.363-0.971-0.699-1.307c-0.52-0.55-1.208-0.826-2.063-0.826
			c-0.841,0-1.522,0.276-2.041,0.826c-0.612,0.611-0.918,1.773-0.918,3.486c0,1.696,0.306,2.858,0.918,3.485
			c0.519,0.551,1.2,0.825,2.041,0.825c0.856,0,1.544-0.274,2.063-0.825C94.36,254.671,94.658,253.533,94.658,251.865z"/>
		<path fill="#231F20" d="M107.363,247.073l-1.215,1.238c-0.565-0.55-1.193-0.826-1.88-0.826c-0.842,0-1.515,0.28-2.018,0.838
			c-0.505,0.559-0.757,1.288-0.757,2.188v6.927h-1.651v-11.282h1.651v1.376c0.764-1.01,1.842-1.514,3.233-1.514
			c0.565,0,1.069,0.091,1.513,0.275C106.575,246.431,106.95,246.691,107.363,247.073z"/>
		<path fill="#231F20" d="M126.922,257.438h-2.041l-3.715-7.247h-3.92v7.247h-1.743v-16.327h6.26c1.452,0,2.622,0.412,3.509,1.238
			c0.886,0.825,1.33,1.927,1.33,3.302c0,1.499-0.535,2.668-1.605,3.508c-0.443,0.353-1.093,0.644-1.949,0.872L126.922,257.438z
			 M124.858,245.676c0-0.948-0.286-1.688-0.859-2.214c-0.573-0.528-1.373-0.791-2.396-0.791h-4.356v5.984h4.356
			c1.024,0,1.823-0.264,2.396-0.791C124.572,247.336,124.858,246.606,124.858,245.676z"/>
		<path fill="#231F20" d="M138.892,252.232h-7.613c0.046,0.902,0.161,1.583,0.344,2.041c0.519,1.238,1.544,1.857,3.073,1.857
			c0.489,0,0.971-0.092,1.444-0.274c0.427-0.185,0.902-0.521,1.422-1.01l1.124,0.987c-0.688,0.672-1.322,1.123-1.903,1.353
			c-0.643,0.259-1.369,0.389-2.179,0.389c-1.636,0-2.874-0.496-3.715-1.489c-0.841-0.994-1.261-2.446-1.261-4.357
			c0-1.773,0.413-3.168,1.238-4.185c0.826-1.018,1.957-1.525,3.394-1.525c1.438,0,2.568,0.489,3.394,1.467
			c0.826,0.979,1.238,2.309,1.238,3.991V252.232z M137.241,250.995c-0.031-0.688-0.1-1.185-0.207-1.491
			c-0.199-0.657-0.542-1.169-1.031-1.536c-0.489-0.367-1.07-0.551-1.743-0.551c-0.596,0-1.127,0.148-1.593,0.447
			c-0.467,0.299-0.814,0.715-1.043,1.25c-0.199,0.428-0.313,1.055-0.344,1.881H137.241z"/>
		<path fill="#231F20" d="M150.725,257.782c0,1.482-0.433,2.66-1.295,3.531c-0.864,0.872-2.03,1.308-3.498,1.308
			c-0.718,0-1.361-0.107-1.925-0.321c-0.505-0.184-1.109-0.581-1.812-1.192l1.078-1.055c0.566,0.488,1.017,0.795,1.354,0.916
			c0.367,0.139,0.802,0.207,1.306,0.207c0.994,0,1.767-0.302,2.317-0.906c0.55-0.604,0.825-1.455,0.825-2.557v-1.766
			c-0.458,0.536-0.902,0.902-1.33,1.102c-0.489,0.244-1.07,0.366-1.743,0.366c-1.422,0-2.476-0.466-3.165-1.398
			c-0.687-0.933-1.031-2.369-1.031-4.312c0-1.94,0.34-3.374,1.02-4.3c0.68-0.924,1.739-1.387,3.176-1.387
			c0.704,0,1.307,0.122,1.812,0.366c0.428,0.215,0.856,0.582,1.284,1.101v-1.329h1.628V257.782z M149.074,251.729
			c0-1.498-0.222-2.58-0.665-3.245c-0.444-0.665-1.162-0.998-2.156-0.998c-0.979,0-1.69,0.338-2.133,1.01
			c-0.444,0.674-0.666,1.742-0.666,3.21c0,1.483,0.222,2.558,0.666,3.223c0.443,0.664,1.161,0.997,2.155,0.997
			c0.979,0,1.69-0.333,2.134-0.997C148.852,254.263,149.074,253.195,149.074,251.729z"/>
		<path fill="#231F20" d="M156.824,241.892c0,0.32-0.111,0.592-0.333,0.813c-0.222,0.222-0.494,0.332-0.814,0.332
			c-0.306,0-0.569-0.11-0.791-0.332c-0.222-0.222-0.333-0.485-0.333-0.791c0-0.307,0.11-0.569,0.333-0.791
			c0.222-0.223,0.485-0.333,0.791-0.333c0.305,0,0.573,0.11,0.802,0.333C156.709,241.345,156.824,241.601,156.824,241.892z
			 M156.503,257.438h-1.651v-11.282h1.651V257.438z"/>
		<path fill="#231F20" d="M169.276,251.729c0,2.109-0.458,3.631-1.375,4.562c-0.856,0.856-1.935,1.284-3.233,1.284
			c-1.3,0-2.377-0.428-3.234-1.284c-0.917-0.932-1.375-2.43-1.375-4.493s0.458-3.562,1.375-4.495
			c0.856-0.856,1.934-1.284,3.234-1.284c1.299,0,2.377,0.428,3.233,1.284C168.817,248.22,169.276,249.695,169.276,251.729z
			 M167.625,251.865c0-0.963-0.065-1.711-0.195-2.247c-0.13-0.535-0.363-0.971-0.699-1.307c-0.519-0.55-1.208-0.826-2.063-0.826
			c-0.841,0-1.522,0.276-2.041,0.826c-0.612,0.611-0.917,1.773-0.917,3.486c0,1.696,0.306,2.858,0.917,3.485
			c0.519,0.551,1.2,0.825,2.041,0.825c0.856,0,1.544-0.274,2.063-0.825C167.327,254.671,167.625,253.533,167.625,251.865z"/>
		<path fill="#231F20" d="M181.682,257.438h-1.651v-6.949c0-0.947-0.24-1.685-0.722-2.213c-0.482-0.526-1.167-0.791-2.052-0.791
			c-0.887,0-1.575,0.265-2.064,0.791c-0.49,0.528-0.734,1.266-0.734,2.213v6.949h-1.651v-11.282h1.651v1.238
			c0.443-0.459,0.887-0.795,1.33-1.01c0.55-0.244,1.169-0.366,1.858-0.366c1.238,0,2.221,0.375,2.947,1.123
			c0.725,0.75,1.089,1.773,1.089,3.073V257.438z"/>
		<path fill="#231F20" d="M193.743,257.438h-1.651v-1.078c-0.489,0.459-0.917,0.765-1.285,0.917
			c-0.458,0.199-1.123,0.298-1.994,0.298c-1.3,0-2.293-0.282-2.981-0.848s-1.032-1.392-1.032-2.477c0-1.023,0.344-1.823,1.032-2.396
			s1.643-0.859,2.866-0.859h3.395v-1.078c0-0.856-0.237-1.483-0.711-1.881c-0.474-0.397-1.224-0.596-2.248-0.596
			c-0.703,0-1.284,0.114-1.742,0.343c-0.336,0.154-0.681,0.467-1.032,0.941l-1.124-1.032c0.519-0.597,0.994-1.001,1.421-1.215
			c0.612-0.306,1.453-0.459,2.523-0.459c3.042,0,4.563,1.254,4.563,3.76V257.438z M192.092,253.448v-1.216h-3.165
			c-1.682,0-2.523,0.664-2.523,1.995c0,0.674,0.219,1.163,0.654,1.468c0.436,0.307,1.127,0.459,2.075,0.459
			c1.055,0,1.812-0.21,2.27-0.631C191.863,255.103,192.092,254.412,192.092,253.448z"/>
		<path fill="#231F20" d="M199.407,257.438h-1.652v-16.327h1.652V257.438z"/>
		<path fill="#231F20" d="M220.892,249.046c0,2.002-0.083,3.401-0.252,4.195c-0.244,1.117-0.695,2.011-1.353,2.684
			c-0.979,1.008-2.354,1.514-4.128,1.514h-5.595v-16.327h5.595c1.743,0,3.119,0.504,4.128,1.514c1.07,1.07,1.604,2.767,1.604,5.091
			V249.046z M219.15,250.329v-1.237c0-1.606-0.073-2.764-0.218-3.475s-0.432-1.296-0.86-1.754c-0.749-0.794-1.819-1.192-3.209-1.192
			h-3.554v13.208h3.554c1.421,0,2.491-0.397,3.209-1.192C218.791,253.906,219.15,252.454,219.15,250.329z"/>
		<path fill="#231F20" d="M233.344,252.232h-7.613c0.046,0.902,0.161,1.583,0.344,2.041c0.519,1.238,1.544,1.857,3.073,1.857
			c0.489,0,0.971-0.092,1.444-0.274c0.428-0.185,0.902-0.521,1.422-1.01l1.124,0.987c-0.688,0.672-1.322,1.123-1.903,1.353
			c-0.643,0.259-1.369,0.389-2.179,0.389c-1.636,0-2.874-0.496-3.714-1.489c-0.842-0.994-1.262-2.446-1.262-4.357
			c0-1.773,0.413-3.168,1.238-4.185c0.826-1.018,1.957-1.525,3.395-1.525c1.437,0,2.568,0.489,3.393,1.467
			c0.826,0.979,1.238,2.309,1.238,3.991V252.232z M231.693,250.995c-0.031-0.688-0.1-1.185-0.207-1.491
			c-0.199-0.657-0.542-1.169-1.031-1.536c-0.489-0.367-1.07-0.551-1.743-0.551c-0.596,0-1.128,0.148-1.594,0.447
			c-0.466,0.299-0.813,0.715-1.043,1.25c-0.199,0.428-0.313,1.055-0.344,1.881H231.693z"/>
		<path fill="#231F20" d="M244.787,246.156l-4.15,11.282h-1.467l-4.127-11.282h1.788l3.073,9.058l3.096-9.058H244.787z"/>
		<path fill="#231F20" d="M255.748,252.232h-7.613c0.046,0.902,0.161,1.583,0.344,2.041c0.52,1.238,1.544,1.857,3.073,1.857
			c0.489,0,0.971-0.092,1.445-0.274c0.427-0.185,0.902-0.521,1.421-1.01l1.124,0.987c-0.688,0.672-1.323,1.123-1.903,1.353
			c-0.643,0.259-1.369,0.389-2.179,0.389c-1.636,0-2.875-0.496-3.715-1.489c-0.841-0.994-1.262-2.446-1.262-4.357
			c0-1.773,0.414-3.168,1.239-4.185c0.826-1.018,1.957-1.525,3.394-1.525s2.568,0.489,3.394,1.467
			c0.826,0.979,1.238,2.309,1.238,3.991V252.232z M254.097,250.995c-0.031-0.688-0.099-1.185-0.207-1.491
			c-0.199-0.657-0.543-1.169-1.031-1.536c-0.489-0.367-1.07-0.551-1.743-0.551c-0.596,0-1.127,0.148-1.594,0.447
			s-0.814,0.715-1.043,1.25c-0.199,0.428-0.313,1.055-0.344,1.881H254.097z"/>
		<path fill="#231F20" d="M260.907,257.438h-1.651v-16.327h1.651V257.438z"/>
		<path fill="#231F20" d="M273.679,251.729c0,2.109-0.458,3.631-1.375,4.562c-0.857,0.856-1.935,1.284-3.233,1.284
			c-1.3,0-2.377-0.428-3.234-1.284c-0.917-0.932-1.375-2.43-1.375-4.493s0.459-3.562,1.375-4.495
			c0.856-0.856,1.934-1.284,3.234-1.284c1.299,0,2.376,0.428,3.233,1.284C273.221,248.22,273.679,249.695,273.679,251.729z
			 M272.028,251.865c0-0.963-0.065-1.711-0.195-2.247c-0.129-0.535-0.363-0.971-0.699-1.307c-0.52-0.55-1.208-0.826-2.063-0.826
			c-0.841,0-1.521,0.276-2.041,0.826c-0.611,0.611-0.917,1.773-0.917,3.486c0,1.696,0.306,2.858,0.917,3.485
			c0.52,0.551,1.2,0.825,2.041,0.825c0.856,0,1.544-0.274,2.063-0.825C271.73,254.671,272.028,253.533,272.028,251.865z"/>
		<path fill="#231F20" d="M286.177,251.82c0,1.957-0.34,3.405-1.02,4.346c-0.681,0.939-1.74,1.409-3.176,1.409
			c-0.704,0-1.307-0.122-1.812-0.366c-0.413-0.199-0.849-0.565-1.307-1.101v6.374h-1.651v-16.326h1.651v1.329
			c0.443-0.519,0.871-0.886,1.285-1.101c0.488-0.244,1.092-0.366,1.811-0.366c1.453,0,2.519,0.467,3.199,1.398
			C285.837,248.35,286.177,249.817,286.177,251.82z M284.525,251.82c0-1.544-0.222-2.651-0.665-3.325
			c-0.444-0.672-1.169-1.01-2.179-1.01c-0.978,0-1.693,0.345-2.144,1.032c-0.451,0.688-0.677,1.782-0.677,3.28
			c0,1.513,0.226,2.61,0.677,3.289c0.451,0.682,1.173,1.021,2.167,1.021c0.994,0,1.712-0.34,2.156-1.021
			C284.304,254.408,284.525,253.318,284.525,251.82z"/>
		<path fill="#231F20" d="M305.853,257.438h-1.651v-6.949c0-0.947-0.241-1.685-0.722-2.213c-0.482-0.526-1.159-0.791-2.03-0.791
			c-0.871,0-1.563,0.258-2.075,0.769c-0.512,0.512-0.769,1.196-0.769,2.053v7.132h-1.65v-6.949c0-0.947-0.241-1.685-0.723-2.213
			c-0.481-0.526-1.165-0.791-2.052-0.791c-0.887,0-1.578,0.265-2.075,0.791c-0.498,0.528-0.746,1.266-0.746,2.213v6.949h-1.651
			v-11.282h1.651v1.238c0.474-0.475,0.917-0.803,1.33-0.986c0.596-0.26,1.223-0.39,1.881-0.39c1.069,0,1.949,0.299,2.637,0.895
			c0.276,0.244,0.542,0.572,0.803,0.986c0.535-0.673,1.055-1.14,1.559-1.399c0.596-0.321,1.314-0.481,2.156-0.481
			c1.253,0,2.254,0.383,3.004,1.146c0.749,0.766,1.124,1.782,1.124,3.051V257.438z"/>
		<path fill="#231F20" d="M318.509,252.232h-7.612c0.046,0.902,0.161,1.583,0.344,2.041c0.519,1.238,1.544,1.857,3.073,1.857
			c0.489,0,0.97-0.092,1.444-0.274c0.428-0.185,0.903-0.521,1.422-1.01l1.124,0.987c-0.688,0.672-1.322,1.123-1.903,1.353
			c-0.643,0.259-1.369,0.389-2.179,0.389c-1.636,0-2.874-0.496-3.714-1.489c-0.841-0.994-1.262-2.446-1.262-4.357
			c0-1.773,0.413-3.168,1.238-4.185c0.826-1.018,1.957-1.525,3.394-1.525s2.568,0.489,3.394,1.467
			c0.826,0.979,1.238,2.309,1.238,3.991V252.232z M316.859,250.995c-0.031-0.688-0.1-1.185-0.207-1.491
			c-0.199-0.657-0.543-1.169-1.031-1.536c-0.49-0.367-1.07-0.551-1.743-0.551c-0.596,0-1.128,0.148-1.593,0.447
			c-0.467,0.299-0.814,0.715-1.044,1.25c-0.199,0.428-0.313,1.055-0.344,1.881H316.859z"/>
		<path fill="#231F20" d="M330.893,257.438h-1.651v-6.949c0-0.947-0.24-1.685-0.722-2.213c-0.481-0.526-1.167-0.791-2.052-0.791
			c-0.887,0-1.575,0.265-2.064,0.791c-0.489,0.528-0.734,1.266-0.734,2.213v6.949h-1.651v-11.282h1.651v1.238
			c0.443-0.459,0.887-0.795,1.33-1.01c0.55-0.244,1.169-0.366,1.857-0.366c1.238,0,2.221,0.375,2.947,1.123
			c0.726,0.75,1.089,1.773,1.089,3.073V257.438z"/>
		<path fill="#231F20" d="M339.24,257.438h-1.17c-0.887,0-1.589-0.271-2.11-0.814c-0.519-0.542-0.778-1.28-0.778-2.212v-6.927
			h-1.423v-1.261h1.423v-3.531h1.65v3.531h2.409v1.261h-2.409v6.88c0,1.102,0.512,1.651,1.537,1.651h0.872V257.438z"/>
		<path fill="#231F20" d="M10.411,279.245c0,2.109-0.458,3.631-1.375,4.563c-0.857,0.856-1.935,1.284-3.234,1.284
			c-1.3,0-2.377-0.428-3.233-1.284c-0.917-0.933-1.375-2.432-1.375-4.495c0-2.062,0.458-3.562,1.375-4.493
			c0.856-0.856,1.933-1.284,3.233-1.284c1.299,0,2.376,0.428,3.234,1.284C9.952,275.736,10.411,277.213,10.411,279.245z
			 M8.759,279.383c0-0.963-0.065-1.711-0.194-2.247c-0.13-0.535-0.363-0.971-0.7-1.308c-0.52-0.551-1.208-0.825-2.063-0.825
			c-0.841,0-1.521,0.274-2.041,0.825c-0.612,0.612-0.918,1.774-0.918,3.485c0,1.697,0.306,2.859,0.918,3.486
			c0.519,0.551,1.2,0.826,2.041,0.826c0.856,0,1.544-0.275,2.063-0.826C8.461,282.188,8.759,281.05,8.759,279.383z"/>
		<path fill="#231F20" d="M18.369,275.003H15.96v9.952h-1.65v-9.952h-1.445v-1.261h1.445v-2.133c0-0.932,0.255-1.671,0.768-2.214
			c0.512-0.541,1.211-0.813,2.099-0.813h1.193v1.422h-0.896c-1.008,0-1.513,0.551-1.513,1.651v2.087h2.409V275.003z"/>
		<path fill="#231F20" d="M31.187,284.955h-1.17c-0.887,0-1.589-0.271-2.109-0.813c-0.52-0.543-0.779-1.28-0.779-2.213v-6.926
			h-1.422v-1.261h1.422v-3.531h1.65v3.531h2.409v1.261h-2.409v6.88c0,1.102,0.512,1.65,1.537,1.65h0.872V284.955z"/>
		<path fill="#231F20" d="M43.339,284.955h-1.651v-6.971c0-0.947-0.237-1.682-0.711-2.201c-0.474-0.52-1.154-0.78-2.041-0.78
			c-0.887,0-1.579,0.264-2.075,0.791c-0.498,0.528-0.746,1.258-0.746,2.19v6.971h-1.651v-16.326h1.651v6.282
			c0.459-0.474,0.91-0.81,1.353-1.009c0.536-0.244,1.146-0.366,1.834-0.366c1.238,0,2.221,0.374,2.947,1.123
			c0.725,0.75,1.089,1.766,1.089,3.05V284.955z"/>
		<path fill="#231F20" d="M55.997,279.75h-7.613c0.046,0.902,0.161,1.583,0.344,2.041c0.52,1.238,1.544,1.857,3.073,1.857
			c0.49,0,0.971-0.092,1.444-0.275c0.428-0.184,0.903-0.52,1.422-1.009l1.124,0.986c-0.688,0.673-1.322,1.123-1.903,1.353
			c-0.643,0.26-1.369,0.39-2.179,0.39c-1.636,0-2.874-0.496-3.715-1.49s-1.261-2.445-1.261-4.357c0-1.772,0.413-3.167,1.238-4.185
			c0.826-1.017,1.957-1.524,3.394-1.524c1.438,0,2.568,0.489,3.394,1.467c0.826,0.979,1.238,2.309,1.238,3.99V279.75z
			 M54.347,278.512c-0.031-0.688-0.1-1.185-0.208-1.491c-0.199-0.657-0.542-1.168-1.031-1.535c-0.489-0.368-1.07-0.552-1.743-0.552
			c-0.596,0-1.127,0.149-1.593,0.448c-0.467,0.299-0.813,0.715-1.043,1.25c-0.199,0.428-0.313,1.055-0.344,1.88H54.347z"/>
		<path fill="#231F20" d="M76.887,284.955H75.03l-1.307-3.691h-7.132l-1.307,3.691h-1.857l6.008-16.326h1.468L76.887,284.955z
			 M73.218,279.75l-3.026-8.622l-3.073,8.622H73.218z"/>
		<path fill="#231F20" d="M87.986,284.955h-1.628v-1.261c-0.458,0.474-0.917,0.818-1.375,1.032c-0.551,0.244-1.17,0.366-1.857,0.366
			c-1.254,0-2.236-0.375-2.947-1.123c-0.71-0.749-1.066-1.781-1.066-3.096v-7.201h1.651v6.949c0,0.963,0.237,1.704,0.711,2.224
			c0.474,0.52,1.154,0.78,2.041,0.78c0.886,0,1.578-0.265,2.076-0.791c0.496-0.528,0.745-1.266,0.745-2.213v-6.949h1.651V284.955z"
			/>
		<path fill="#231F20" d="M96.447,284.955h-1.17c-0.887,0-1.589-0.271-2.11-0.813c-0.519-0.543-0.779-1.28-0.779-2.213v-6.926
			h-1.423v-1.261h1.423v-3.531h1.65v3.531h2.408v1.261h-2.408v6.88c0,1.102,0.512,1.65,1.537,1.65h0.871V284.955z"/>
		<path fill="#231F20" d="M108.348,279.245c0,2.109-0.458,3.631-1.375,4.563c-0.857,0.856-1.935,1.284-3.234,1.284
			c-1.3,0-2.377-0.428-3.233-1.284c-0.917-0.933-1.375-2.432-1.375-4.495c0-2.062,0.459-3.562,1.375-4.493
			c0.856-0.856,1.934-1.284,3.233-1.284c1.299,0,2.377,0.428,3.234,1.284C107.89,275.736,108.348,277.213,108.348,279.245z
			 M106.697,279.383c0-0.963-0.065-1.711-0.195-2.247c-0.13-0.535-0.363-0.971-0.7-1.308c-0.519-0.551-1.207-0.825-2.063-0.825
			c-0.84,0-1.521,0.274-2.041,0.825c-0.612,0.612-0.917,1.774-0.917,3.485c0,1.697,0.306,2.859,0.917,3.486
			c0.52,0.551,1.2,0.826,2.041,0.826c0.856,0,1.544-0.275,2.063-0.826C106.399,282.188,106.697,281.05,106.697,279.383z"/>
		<path fill="#231F20" d="M120.754,284.955h-1.651v-6.948c0-0.947-0.24-1.685-0.722-2.213c-0.481-0.527-1.166-0.791-2.052-0.791
			c-0.887,0-1.575,0.264-2.064,0.791c-0.489,0.528-0.733,1.266-0.733,2.213v6.948h-1.651v-11.282h1.651v1.238
			c0.443-0.458,0.887-0.794,1.33-1.009c0.55-0.244,1.169-0.366,1.857-0.366c1.238,0,2.221,0.374,2.947,1.123
			c0.726,0.75,1.089,1.773,1.089,3.072V284.955z"/>
		<path fill="#231F20" d="M133.388,279.245c0,2.109-0.458,3.631-1.375,4.563c-0.857,0.856-1.935,1.284-3.233,1.284
			c-1.3,0-2.378-0.428-3.233-1.284c-0.917-0.933-1.375-2.432-1.375-4.495c0-2.062,0.458-3.562,1.375-4.493
			c0.855-0.856,1.933-1.284,3.233-1.284c1.299,0,2.376,0.428,3.233,1.284C132.93,275.736,133.388,277.213,133.388,279.245z
			 M131.737,279.383c0-0.963-0.065-1.711-0.195-2.247c-0.129-0.535-0.362-0.971-0.699-1.308c-0.52-0.551-1.208-0.825-2.063-0.825
			c-0.841,0-1.521,0.274-2.041,0.825c-0.612,0.612-0.918,1.774-0.918,3.485c0,1.697,0.306,2.859,0.918,3.486
			c0.519,0.551,1.2,0.826,2.041,0.826c0.856,0,1.544-0.275,2.063-0.826C131.439,282.188,131.737,281.05,131.737,279.383z"/>
		<path fill="#231F20" d="M153.064,284.955h-1.651v-6.948c0-0.947-0.241-1.685-0.723-2.213c-0.482-0.527-1.159-0.791-2.029-0.791
			c-0.872,0-1.563,0.257-2.075,0.769c-0.512,0.512-0.769,1.196-0.769,2.053v7.131h-1.65v-6.948c0-0.947-0.241-1.685-0.723-2.213
			c-0.481-0.527-1.166-0.791-2.052-0.791s-1.578,0.264-2.075,0.791c-0.498,0.528-0.746,1.266-0.746,2.213v6.948h-1.651v-11.282
			h1.651v1.238c0.474-0.474,0.917-0.802,1.33-0.986c0.596-0.259,1.223-0.389,1.881-0.389c1.069,0,1.949,0.298,2.636,0.895
			c0.276,0.244,0.543,0.572,0.803,0.985c0.535-0.672,1.055-1.139,1.559-1.398c0.596-0.321,1.314-0.481,2.156-0.481
			c1.253,0,2.254,0.382,3.004,1.146c0.749,0.766,1.124,1.781,1.124,3.05V284.955z"/>
		<path fill="#231F20" d="M165.698,279.245c0,2.109-0.458,3.631-1.375,4.563c-0.857,0.856-1.935,1.284-3.234,1.284
			s-2.377-0.428-3.233-1.284c-0.917-0.933-1.375-2.432-1.375-4.495c0-2.062,0.459-3.562,1.375-4.493
			c0.856-0.856,1.934-1.284,3.233-1.284s2.377,0.428,3.234,1.284C165.24,275.736,165.698,277.213,165.698,279.245z M164.047,279.383
			c0-0.963-0.065-1.711-0.195-2.247c-0.129-0.535-0.363-0.971-0.7-1.308c-0.519-0.551-1.207-0.825-2.063-0.825
			c-0.84,0-1.521,0.274-2.041,0.825c-0.611,0.612-0.917,1.774-0.917,3.485c0,1.697,0.306,2.859,0.917,3.486
			c0.52,0.551,1.2,0.826,2.041,0.826c0.856,0,1.544-0.275,2.063-0.826C163.749,282.188,164.047,281.05,164.047,279.383z"/>
		<path fill="#231F20" d="M177.99,284.955h-1.629v-1.261c-0.458,0.474-0.917,0.818-1.375,1.032c-0.551,0.244-1.17,0.366-1.857,0.366
			c-1.254,0-2.237-0.375-2.947-1.123c-0.711-0.749-1.066-1.781-1.066-3.096v-7.201h1.651v6.949c0,0.963,0.237,1.704,0.711,2.224
			c0.474,0.52,1.154,0.78,2.041,0.78c0.886,0,1.578-0.265,2.076-0.791c0.496-0.528,0.745-1.266,0.745-2.213v-6.949h1.651V284.955z"
			/>
		<path fill="#231F20" d="M190.258,281.631c0,1.085-0.417,1.934-1.25,2.545c-0.833,0.611-2,0.917-3.498,0.917
			c-1.01,0-1.919-0.16-2.729-0.481c-0.55-0.229-1.131-0.611-1.743-1.146l1.101-1.101c0.473,0.428,0.902,0.727,1.284,0.895
			c0.657,0.274,1.406,0.412,2.248,0.412c0.963,0,1.7-0.172,2.213-0.515c0.512-0.345,0.769-0.846,0.769-1.503
			c0-0.978-0.627-1.521-1.881-1.629l-1.857-0.16c-2.247-0.184-3.371-1.185-3.371-3.004c0-1.023,0.382-1.835,1.146-2.43
			c0.764-0.597,1.795-0.895,3.096-0.895c0.84,0,1.674,0.137,2.499,0.412c0.505,0.184,0.994,0.451,1.468,0.803l-1.077,1.077
			c-0.398-0.289-0.788-0.496-1.17-0.618c-0.551-0.185-1.154-0.276-1.812-0.276c-0.811,0-1.438,0.161-1.88,0.482
			c-0.444,0.32-0.666,0.787-0.666,1.399c0,0.978,0.658,1.521,1.972,1.627l1.812,0.161
			C189.149,278.803,190.258,279.812,190.258,281.631z"/>
		<path fill="#231F20" d="M210.918,284.955h-2.041l-3.715-7.246h-3.921v7.246h-1.743v-16.326h6.26c1.452,0,2.622,0.412,3.509,1.237
			c0.886,0.826,1.33,1.928,1.33,3.303c0,1.498-0.535,2.668-1.605,3.508c-0.443,0.353-1.093,0.642-1.95,0.872L210.918,284.955z
			 M208.855,273.191c0-0.947-0.287-1.686-0.86-2.213c-0.573-0.527-1.372-0.792-2.396-0.792h-4.357v5.986h4.357
			c1.024,0,1.823-0.265,2.396-0.791C208.568,274.854,208.855,274.124,208.855,273.191z"/>
		<path fill="#231F20" d="M222.888,279.75h-7.613c0.046,0.902,0.161,1.583,0.344,2.041c0.519,1.238,1.544,1.857,3.073,1.857
			c0.489,0,0.97-0.092,1.444-0.275c0.427-0.184,0.902-0.52,1.421-1.009l1.124,0.986c-0.688,0.673-1.323,1.123-1.903,1.353
			c-0.643,0.26-1.369,0.39-2.179,0.39c-1.636,0-2.874-0.496-3.715-1.49c-0.841-0.994-1.262-2.445-1.262-4.357
			c0-1.772,0.413-3.167,1.239-4.185c0.826-1.017,1.957-1.524,3.394-1.524c1.437,0,2.568,0.489,3.394,1.467
			c0.826,0.979,1.238,2.309,1.238,3.99V279.75z M221.237,278.512c-0.031-0.688-0.1-1.185-0.207-1.491
			c-0.199-0.657-0.543-1.168-1.031-1.535c-0.489-0.368-1.07-0.552-1.743-0.552c-0.596,0-1.127,0.149-1.593,0.448
			c-0.467,0.299-0.814,0.715-1.043,1.25c-0.199,0.428-0.313,1.055-0.344,1.88H221.237z"/>
		<path fill="#231F20" d="M235.363,279.337c0,1.957-0.34,3.406-1.021,4.346s-1.739,1.41-3.176,1.41
			c-0.703,0-1.307-0.122-1.812-0.366c-0.413-0.199-0.849-0.566-1.307-1.101V290h-1.652v-16.327h1.652v1.33
			c0.443-0.52,0.872-0.886,1.284-1.101c0.488-0.244,1.092-0.366,1.811-0.366c1.452,0,2.519,0.465,3.199,1.397
			C235.023,275.867,235.363,277.334,235.363,279.337z M233.711,279.337c0-1.544-0.222-2.652-0.665-3.324
			c-0.444-0.673-1.169-1.01-2.179-1.01c-0.979,0-1.693,0.344-2.144,1.032c-0.452,0.688-0.677,1.781-0.677,3.278
			c0,1.514,0.225,2.611,0.677,3.291c0.45,0.681,1.173,1.021,2.166,1.021c0.994,0,1.712-0.341,2.156-1.021
			C233.49,281.925,233.711,280.836,233.711,279.337z"/>
		<path fill="#231F20" d="M247.654,284.955h-1.628v-1.261c-0.459,0.474-0.917,0.818-1.375,1.032
			c-0.551,0.244-1.17,0.366-1.857,0.366c-1.253,0-2.236-0.375-2.947-1.123c-0.711-0.749-1.066-1.781-1.066-3.096v-7.201h1.652v6.949
			c0,0.963,0.237,1.704,0.71,2.224c0.474,0.52,1.154,0.78,2.041,0.78s1.579-0.265,2.076-0.791c0.497-0.528,0.745-1.266,0.745-2.213
			v-6.949h1.651V284.955z"/>
		<path fill="#231F20" d="M260.748,279.337c0,1.957-0.34,3.406-1.02,4.346c-0.681,0.939-1.74,1.41-3.176,1.41
			c-0.704,0-1.307-0.122-1.812-0.366c-0.382-0.185-0.817-0.559-1.307-1.124v1.353h-1.651v-16.326h1.651v6.352
			c0.443-0.52,0.871-0.879,1.284-1.078c0.489-0.244,1.092-0.366,1.812-0.366c1.452,0,2.519,0.465,3.199,1.397
			C260.407,275.867,260.748,277.334,260.748,279.337z M259.096,279.337c0-1.544-0.221-2.652-0.665-3.324
			c-0.444-0.673-1.169-1.01-2.179-1.01c-0.979,0-1.693,0.344-2.144,1.032c-0.452,0.688-0.677,1.781-0.677,3.278
			c0,1.514,0.225,2.611,0.677,3.291c0.45,0.681,1.173,1.021,2.166,1.021c0.994,0,1.712-0.341,2.156-1.021
			C258.875,281.925,259.096,280.836,259.096,279.337z"/>
		<path fill="#231F20" d="M265.929,284.955h-1.651v-16.326h1.651V284.955z"/>
		<path fill="#231F20" d="M272.052,269.409c0,0.32-0.111,0.592-0.333,0.813c-0.221,0.222-0.493,0.332-0.813,0.332
			c-0.306,0-0.57-0.11-0.791-0.332c-0.223-0.222-0.333-0.485-0.333-0.791c0-0.307,0.11-0.57,0.333-0.792
			c0.221-0.222,0.485-0.332,0.791-0.332c0.305,0,0.573,0.11,0.803,0.332C271.937,268.861,272.052,269.118,272.052,269.409z
			 M271.731,284.955h-1.651v-11.282h1.651V284.955z"/>
		<path fill="#231F20" d="M283.976,283.419c-0.627,0.657-1.208,1.101-1.743,1.33c-0.55,0.229-1.185,0.344-1.903,0.344
			c-1.575,0-2.813-0.511-3.714-1.536c-0.902-1.024-1.354-2.438-1.354-4.243c0-1.803,0.451-3.217,1.354-4.241
			c0.901-1.024,2.14-1.536,3.714-1.536c0.718,0,1.353,0.114,1.903,0.344c0.536,0.229,1.116,0.673,1.743,1.33l-1.124,1.055
			c-0.504-0.521-0.933-0.855-1.283-1.01c-0.383-0.167-0.803-0.252-1.261-0.252c-2.263,0-3.395,1.438-3.395,4.311
			c0,2.875,1.124,4.312,3.371,4.312c0.474,0,0.887-0.076,1.238-0.23c0.368-0.167,0.811-0.52,1.33-1.054L283.976,283.419z"/>
		<path fill="#231F20" d="M301.449,279.245c0,2.109-0.459,3.631-1.376,4.563c-0.857,0.856-1.934,1.284-3.233,1.284
			c-1.3,0-2.378-0.428-3.233-1.284c-0.917-0.933-1.375-2.432-1.375-4.495c0-2.062,0.458-3.562,1.375-4.493
			c0.855-0.856,1.934-1.284,3.233-1.284c1.299,0,2.376,0.428,3.233,1.284C300.99,275.736,301.449,277.213,301.449,279.245z
			 M299.797,279.383c0-0.963-0.065-1.711-0.195-2.247c-0.129-0.535-0.362-0.971-0.699-1.308c-0.52-0.551-1.208-0.825-2.063-0.825
			c-0.841,0-1.521,0.274-2.041,0.825c-0.612,0.612-0.918,1.774-0.918,3.485c0,1.697,0.306,2.859,0.918,3.486
			c0.519,0.551,1.2,0.826,2.041,0.826c0.856,0,1.544-0.275,2.063-0.826C299.5,282.188,299.797,281.05,299.797,279.383z"/>
		<path fill="#231F20" d="M309.407,275.003h-2.409v9.952h-1.65v-9.952h-1.445v-1.261h1.445v-2.133c0-0.932,0.255-1.671,0.768-2.214
			c0.512-0.541,1.212-0.813,2.099-0.813h1.193v1.422h-0.895c-1.009,0-1.514,0.551-1.514,1.651v2.087h2.409V275.003z"/>
		<path fill="#231F20" d="M327.866,283.098c-0.78,0.704-1.499,1.212-2.156,1.524c-0.658,0.314-1.453,0.471-2.385,0.471
			c-1.683,0-3.088-0.565-4.22-1.697c-0.382-0.396-0.688-0.821-0.917-1.271c-0.229-0.452-0.386-1.036-0.471-1.755
			c-0.083-0.718-0.13-1.241-0.137-1.571c-0.008-0.328-0.011-0.997-0.011-2.006c0-0.871,0.003-1.464,0.011-1.777
			c0.007-0.313,0.035-0.776,0.081-1.388c0.045-0.611,0.119-1.069,0.218-1.376c0.1-0.306,0.252-0.649,0.458-1.032
			c0.207-0.381,0.463-0.725,0.769-1.032c1.131-1.131,2.53-1.696,4.197-1.696c0.948,0,1.75,0.158,2.408,0.471
			c0.657,0.313,1.376,0.821,2.156,1.524l-1.17,1.17c-0.566-0.55-1.097-0.955-1.594-1.215c-0.497-0.261-1.089-0.39-1.777-0.39
			c-1.147,0-2.103,0.381-2.866,1.146c-0.504,0.505-0.822,1.167-0.952,1.983c-0.131,0.818-0.195,2.022-0.195,3.612v0.618
			c0,1.515,0.077,2.607,0.229,3.28c0.153,0.673,0.458,1.238,0.918,1.696c0.733,0.765,1.688,1.146,2.866,1.146
			c0.688,0,1.28-0.129,1.777-0.39c0.497-0.26,1.028-0.665,1.594-1.215L327.866,283.098z"/>
		<path fill="#231F20" d="M338.873,274.59l-1.216,1.238c-0.565-0.551-1.193-0.825-1.88-0.825c-0.842,0-1.515,0.279-2.018,0.838
			c-0.505,0.559-0.757,1.288-0.757,2.188v6.926h-1.652v-11.282h1.652v1.377c0.764-1.01,1.841-1.514,3.233-1.514
			c0.566,0,1.07,0.091,1.513,0.275C338.085,273.948,338.459,274.209,338.873,274.59z"/>
		<path fill="#231F20" d="M342.977,269.409c0,0.32-0.111,0.592-0.333,0.813c-0.222,0.222-0.494,0.332-0.814,0.332
			c-0.306,0-0.57-0.11-0.792-0.332c-0.222-0.222-0.333-0.485-0.333-0.791c0-0.307,0.11-0.57,0.333-0.792
			c0.222-0.222,0.485-0.332,0.792-0.332c0.305,0,0.573,0.11,0.802,0.332C342.862,268.861,342.977,269.118,342.977,269.409z
			 M342.656,284.955h-1.651v-11.282h1.651V284.955z"/>
		<path fill="#231F20" d="M362.949,284.955h-1.651v-6.948c0-0.947-0.241-1.685-0.722-2.213c-0.482-0.527-1.159-0.791-2.03-0.791
			s-1.563,0.257-2.075,0.769c-0.512,0.512-0.769,1.196-0.769,2.053v7.131h-1.65v-6.948c0-0.947-0.241-1.685-0.723-2.213
			c-0.481-0.527-1.165-0.791-2.052-0.791c-0.887,0-1.578,0.264-2.075,0.791c-0.498,0.528-0.746,1.266-0.746,2.213v6.948h-1.651
			v-11.282h1.651v1.238c0.474-0.474,0.917-0.802,1.33-0.986c0.596-0.259,1.223-0.389,1.881-0.389c1.069,0,1.949,0.298,2.636,0.895
			c0.276,0.244,0.543,0.572,0.803,0.985c0.535-0.672,1.055-1.139,1.559-1.398c0.596-0.321,1.314-0.481,2.156-0.481
			c1.253,0,2.254,0.382,3.004,1.146c0.749,0.766,1.124,1.781,1.124,3.05V284.955z"/>
		<path fill="#231F20" d="M375.607,279.75h-7.613c0.046,0.902,0.161,1.583,0.344,2.041c0.519,1.238,1.544,1.857,3.073,1.857
			c0.489,0,0.971-0.092,1.444-0.275c0.428-0.184,0.902-0.52,1.422-1.009l1.124,0.986c-0.688,0.673-1.322,1.123-1.903,1.353
			c-0.643,0.26-1.369,0.39-2.179,0.39c-1.636,0-2.874-0.496-3.714-1.49c-0.842-0.994-1.262-2.445-1.262-4.357
			c0-1.772,0.413-3.167,1.238-4.185c0.826-1.017,1.957-1.524,3.395-1.524c1.437,0,2.568,0.489,3.393,1.467
			c0.826,0.979,1.238,2.309,1.238,3.99V279.75z M373.957,278.512c-0.031-0.688-0.1-1.185-0.207-1.491
			c-0.199-0.657-0.543-1.168-1.031-1.535c-0.49-0.368-1.07-0.552-1.743-0.552c-0.596,0-1.128,0.149-1.594,0.448
			c-0.466,0.299-0.813,0.715-1.043,1.25c-0.199,0.428-0.313,1.055-0.344,1.88H373.957z"/>
		<path fill="#231F20" d="M387.166,284.955h-1.651v-1.077c-0.489,0.459-0.917,0.764-1.284,0.916
			c-0.459,0.199-1.124,0.299-1.996,0.299c-1.299,0-2.293-0.282-2.981-0.849c-0.688-0.565-1.032-1.391-1.032-2.477
			c0-1.024,0.344-1.823,1.032-2.396c0.688-0.574,1.644-0.86,2.866-0.86h3.395v-1.077c0-0.856-0.237-1.483-0.711-1.881
			c-0.475-0.397-1.224-0.597-2.248-0.597c-0.702,0-1.284,0.115-1.742,0.344c-0.337,0.153-0.681,0.467-1.032,0.941l-1.124-1.032
			c0.519-0.597,0.994-1.001,1.422-1.216c0.611-0.306,1.453-0.458,2.522-0.458c3.042,0,4.564,1.253,4.564,3.76V284.955z
			 M385.514,280.966v-1.216h-3.165c-1.682,0-2.522,0.664-2.522,1.995c0,0.673,0.218,1.162,0.654,1.467
			c0.436,0.306,1.127,0.459,2.075,0.459c1.055,0,1.812-0.209,2.271-0.631C385.284,282.62,385.514,281.929,385.514,280.966z"/>
	</g>
	<g>
		<path d="M453.455,194.235c0,2.168,1.062,4.09,2.689,5.284c0.002-0.073,0.011-0.145,0.011-0.217v-7.282h-2.7V194.235z"/>
		<g>
			<path d="M460.015,175.148c-0.812,0-1.586,0.155-2.304,0.426v14.891h8.472c3.616,0,6.557-2.942,6.557-6.559v-0.387
				c-2.573-1.458-4.316-4.217-4.316-7.379v-0.992H460.015z"/>
			<path d="M456.605,64.098h7.002V51.578c-0.233,0.02-0.467,0.035-0.705,0.035h-19.584c-2.725,0-5.133-1.353-6.607-3.419
				c0.003,0.086,0.013,0.17,0.013,0.256v15.643h5.207c3.244,0,6.04,1.917,7.34,4.673C450.568,66.013,453.364,64.098,456.605,64.098z
				"/>
			<path d="M477.377,155.881h-0.841c-0.928,0-1.814-0.165-2.645-0.452c0.26,0.795,0.405,1.64,0.405,2.521v1.591
				C475.733,158.759,476.842,157.45,477.377,155.881z"/>
			<path d="M463.127,125.2c-3.618,0-6.56,2.942-6.56,6.558v3.577c0,3.616,2.942,6.557,6.56,6.557h3.573
				c0.597,0,1.173-0.087,1.723-0.236v-16.218c-0.55-0.15-1.126-0.237-1.723-0.237H463.127z"/>
			<path d="M440.224,151.389c-3.615,0-6.559,2.943-6.559,6.561v1.85c0.796,0.345,1.671,0.535,2.591,0.535h13.343h18.825v-8.542
				c-0.7-0.257-1.453-0.403-2.241-0.403H440.224z"/>
			<path d="M477.729,153.776v-14.357h-0.822c-1.694,0-3.246,0.613-4.452,1.626c-0.147,0.149-0.304,0.289-0.464,0.427
				c-1.241,1.252-2.011,2.974-2.011,4.874v1.421c0,1.436,0.469,2.761,1.254,3.842c0.507,0.405,0.962,0.872,1.359,1.386
				c1.1,0.831,2.462,1.329,3.941,1.329h1.166C477.717,154.144,477.729,153.962,477.729,153.776z"/>
			<path d="M533.854,92.701V82.422c-0.555-0.153-1.135-0.242-1.737-0.242h-17.353c-3.616,0-6.557,2.943-6.557,6.56v7.735h11.507
				c2.728,0,5.139,1.356,6.612,3.425C526.751,96.018,529.925,92.959,533.854,92.701z"/>
			<path d="M534.388,140.194h6.694v-9.792c0-1.292,0.312-2.512,0.853-3.598c-0.966-0.561-2.083-0.888-3.278-0.888H527.83v7.718
				C527.83,137.25,530.772,140.194,534.388,140.194z"/>
			<path d="M506.701,139.419h-27.417v14.357c0,0.186-0.015,0.367-0.027,0.548h30.186c-0.019-0.233-0.036-0.47-0.036-0.709V139.97
				C508.576,139.617,507.661,139.419,506.701,139.419z"/>
			<path d="M517.52,124.36h8.754v-10.155h-11.51c-3.688,0-6.804-2.478-7.786-5.856h-4.643v1.473c0,4.477-3.642,8.119-8.117,8.119
				h-14.989c0.034,0.305,0.055,0.612,0.055,0.925v18.996h27.417c0.947,0,1.856,0.164,2.707,0.452v-5.837
				C509.408,128.002,513.047,124.36,517.52,124.36z"/>
			<path d="M474.878,77.182h16.281V72.21c0-2.686,1.318-5.064,3.335-6.542c-0.093-0.004-0.184-0.015-0.277-0.015h-19.339V77.182z"/>
			<path d="M434.606,89.578h13.885V72.21c0-3.618-2.942-6.561-6.56-6.561h-5.207v10.62c0,4.476-3.638,8.117-8.112,8.117h-0.417
				C428.825,87.348,431.459,89.578,434.606,89.578z"/>
			<path d="M517.505,70.624c0,4.474-3.643,8.114-8.118,8.114h-7.053v17.738h4.317V88.74c0-4.475,3.639-8.116,8.112-8.116h17.353
				c0.597,0,1.177,0.069,1.737,0.193V72.21c0-3.615-2.941-6.556-6.557-6.556h-9.792V70.624z"/>
			<path d="M443.318,50.057h19.584c0.238,0,0.473-0.015,0.705-0.04v-5.714h-26.795C437.212,47.541,439.975,50.057,443.318,50.057z"
				/>
			<path d="M468.424,110.755v-6.166c0-4.474,3.641-8.114,8.112-8.114h14.624V78.737h-16.281v4.281c0,4.475-3.642,8.116-8.117,8.116
				h-16.713v18.688c0,0.317,0.03,0.627,0.073,0.933H468.424z"/>
			<path d="M463.608,65.654h-7.002c-3.617,0-6.557,2.941-6.557,6.556v17.368h16.713c3.617,0,6.559-2.943,6.559-6.56v-4.281h-1.596
				c-4.476,0-8.116-3.64-8.116-8.114V65.654z"/>
			<path d="M435.168,76.269v-10.62h-7.119V82.83h0.562C432.228,82.83,435.168,79.886,435.168,76.269z"/>
			<path d="M465.164,49.647c2.1-0.775,3.702-2.59,4.163-4.822c-0.789-0.336-1.654-0.522-2.565-0.522h-1.598V49.647z"/>
			<path d="M469.461,43.218v-16.41c-2.504,0.924-4.297,3.325-4.297,6.145v9.794h1.598C467.71,42.747,468.617,42.919,469.461,43.218z
				"/>
			<path d="M465.164,64.098h8.156V50.859c0-2.128-1.023-4.017-2.6-5.216c-0.746,2.712-2.86,4.858-5.557,5.642V64.098z"/>
			<path d="M465.164,70.624c0,3.616,2.941,6.559,6.56,6.559h1.596V65.654h-8.156V70.624z"/>
			<path d="M559.313,123.842h-10.12c-2.106,0-3.979,1.003-5.179,2.554c1.688,1.488,2.759,3.659,2.759,6.082v7.716h19.097v-9.792
				C565.87,126.786,562.93,123.842,559.313,123.842z"/>
			<path d="M565.752,141.75h-18.979v4.86c0.751,0.299,1.565,0.468,2.42,0.468h10.12C562.511,147.078,565.175,144.779,565.752,141.75
				z"/>
			<path d="M573.521,135.478c-2.416-1.407-4.046-4.018-4.046-7.01V94.633c-0.7-0.257-1.452-0.403-2.24-0.403h-27.007v11.858
				c0,4.476-3.64,8.117-8.112,8.117h-4.286v10.155h10.826c1.497,0,2.896,0.414,4.101,1.123c1.482-1.94,3.813-3.198,6.437-3.198
				h10.12c4.475,0,8.114,3.641,8.114,8.116v9.783C570.316,140.1,572.74,138.14,573.521,135.478z"/>
			<path d="M545.218,147.587c-2.125-1.202-3.648-3.333-4.032-5.837h-6.798c-2.696,0-5.081-1.327-6.558-3.358v9.375
				c0,4.474-3.642,8.113-8.117,8.113h-4.526v3.854c0.726,0.278,1.51,0.437,2.333,0.437h21.137c3.618,0,6.562-2.941,6.562-6.556
				V147.587z"/>
			<path d="M611.469,88.031H577.59c-3.3,0-6.029,2.452-6.484,5.627c2.524,1.377,4.241,4.058,4.241,7.131v32.844
				c0,0.327-0.025,0.648-0.063,0.967c0.719,0.27,1.494,0.426,2.307,0.426h33.879c3.615,0,6.558-2.943,6.558-6.56v-14.159
				c-3.552-0.866-6.198-4.065-6.198-7.878v-1.684c0-3.812,2.646-7.01,6.198-7.876v-2.279
				C618.026,90.975,615.084,88.031,611.469,88.031z"/>
			<path d="M621.629,98.188h-1.685c-0.121,0-0.242,0.012-0.362,0.019v14.766c0.12,0.007,0.241,0.019,0.362,0.019h1.685
				c3.615,0,6.557-2.943,6.557-6.561v-1.684C628.186,101.13,625.244,98.188,621.629,98.188z"/>
			<path d="M513.632,160.731c-1.869-1.026-3.289-2.767-3.896-4.851h-30.738c-0.656,2.435-2.408,4.422-4.702,5.382v12.526
				c3.634,0.804,6.362,4.047,6.362,7.92v1.358h26.043c3.821,0,6.931-3.107,6.931-6.927V160.731z"/>
			<path d="M613.384,104.747v1.684c0,2.95,1.958,5.45,4.643,6.272V98.477C615.342,99.299,613.384,101.798,613.384,104.747z"/>
			<path d="M428.049,6.559v3.123c0.615-0.15,1.253-0.238,1.915-0.238h11.967c2.697,0,5.084,1.327,6.56,3.357V6.559
				c0-3.616-2.942-6.559-6.56-6.559h-7.325C430.991,0,428.049,2.942,428.049,6.559z"/>
			<path d="M429.964,36.085h5.238V23.909c0-0.659,0.087-1.296,0.235-1.909h-0.832c-4.474,0-8.113-3.64-8.113-8.115v-1.882
				c-1.852,1.161-3.09,3.214-3.09,5.555V29.53C423.403,33.145,426.347,36.085,429.964,36.085z"/>
			<path d="M471.018,26.437v17.061c0,0.153-0.014,0.303-0.022,0.453c2.323,1.428,3.883,3.986,3.883,6.908v13.239h10.821
				c-0.882-0.914-1.43-2.156-1.43-3.525c0-2.805,2.28-5.087,5.082-5.087c2.802,0,5.081,2.282,5.081,5.087
				c0,1.369-0.547,2.611-1.43,3.525h1.215c0.882,0,1.73,0.146,2.527,0.408c0.796-0.262,1.643-0.408,2.526-0.408h16.678V32.953
				c0-3.614-2.944-6.555-6.562-6.555h-37.663C471.485,26.397,471.25,26.412,471.018,26.437z"/>
			<path d="M450.048,17.558V29.53c0,4.473-3.64,8.112-8.117,8.112h-5.172v5.105h26.849v-9.794c0-3.688,2.477-6.802,5.853-7.784
				v-1.26c0-3.615-2.941-6.555-6.558-6.555h-12.865C450.039,17.422,450.048,17.489,450.048,17.558z"/>
			<path d="M479.101,194.235v-9.613h-2.194c-0.916,0-1.798-0.151-2.626-0.421c-0.157,4.338-3.724,7.819-8.099,7.819h-8.472v7.282
				c0,0.353-0.03,0.698-0.074,1.038c0.739,0.289,1.541,0.454,2.378,0.454h12.527C476.159,200.795,479.101,197.853,479.101,194.235z"
				/>
			<path d="M394.233,48.45v10.915c2.264,0.77,4.078,2.511,4.946,4.728h27.314V50.859c0-3.691,2.479-6.808,5.86-7.788
				c-1.061-0.741-2.349-1.18-3.741-1.18H400.79C397.174,41.892,394.233,44.834,394.233,48.45z"/>
			<path d="M357.751,107.479h28.04V72.21c0-4.057,2.995-7.418,6.886-8.014v-3.619c-0.343-0.056-0.691-0.093-1.048-0.093h-33.878
				c-3.616,0-6.557,2.943-6.557,6.561v33.878C351.194,104.539,354.136,107.479,357.751,107.479z"/>
			<path d="M407.364,110.416h-0.719c-3.615,0-6.557,2.942-6.557,6.558v0.721c0,3.616,2.942,6.558,6.557,6.558h0.719
				c3.617,0,6.559-2.942,6.559-6.558v-0.721C413.923,113.358,410.981,110.416,407.364,110.416z"/>
			<path d="M451.898,194.235v-2.215h-11.675c-4.473,0-8.114-3.639-8.114-8.114v-22.015h-13.36c-3.619,0-6.562,2.941-6.562,6.558
				v30.854c0,3.615,2.943,6.556,6.562,6.556h30.849c2.954,0,5.457-1.966,6.274-4.658
				C453.498,199.784,451.898,197.195,451.898,194.235z"/>
			<path d="M426.167,119.19c0.693,0,1.358,0.127,1.978,0.348v-0.671c0-4.473,3.64-8.112,8.111-8.112h12.235v-0.933V91.134h-13.885
				c-4.006,0-7.336-2.924-7.99-6.749H400.79c-0.356,0-0.704-0.031-1.047-0.076v16.614c0,4.473-3.641,8.111-8.114,8.111h-4.282
				v11.202c0,3.614,2.941,6.555,6.556,6.555h26.561c-0.154-0.528-0.24-1.084-0.24-1.663
				C420.224,121.854,422.889,119.19,426.167,119.19z M415.479,117.694c0,4.474-3.642,8.113-8.115,8.113h-0.719
				c-4.474,0-8.112-3.639-8.112-8.113v-0.721c0-4.474,3.639-8.113,8.112-8.113h0.719c4.474,0,8.115,3.64,8.115,8.113V117.694z"/>
			<path d="M492.877,60.573c0-1.947-1.581-3.531-3.525-3.531c-1.944,0-3.526,1.583-3.526,3.531c0,1.944,1.582,3.525,3.526,3.525
				C491.296,64.098,492.877,62.517,492.877,60.573z"/>
			<path d="M456.155,176.415c-1.633,1.195-2.7,3.119-2.7,5.294v8.756h2.7V176.415z"/>
			<path d="M429.701,118.867v7.926h12.23c3.618,0,6.56-2.941,6.56-6.555v-7.927h-12.235
				C432.642,112.311,429.701,115.252,429.701,118.867z"/>
			<path d="M398.188,82.288V67.045c0-0.479-0.056-0.946-0.152-1.396h-3.802v10.62C394.233,78.961,395.863,81.278,398.188,82.288z"/>
			<path d="M432.11,158.85v-0.9c0-4.475,3.641-8.117,8.114-8.117h25.959c0.778,0,1.528,0.116,2.241,0.322v-2.387v-1.421v-3.087
				c-0.556,0.121-1.131,0.188-1.723,0.188h-3.573c-4.476,0-8.117-3.64-8.117-8.113v-3.577c0-4.475,3.641-8.114,8.117-8.114h3.573
				c0.592,0,1.167,0.068,1.723,0.189v-5.891h-11.818c-2.696,0-5.081-1.328-6.557-3.358v5.654c0,4.473-3.64,8.11-8.117,8.11h-12.23
				v25.429C429.701,155.819,430.64,157.646,432.11,158.85z"/>
			<path d="M392.677,65.768c-3.03,0.578-5.33,3.245-5.33,6.442v35.27h4.282c3.616,0,6.558-2.941,6.558-6.556V83.95
				c-3.199-1.088-5.51-4.117-5.51-7.682V65.768z"/>
			<path d="M428.049,50.859v13.234h7.119V48.45c0-1.543-0.539-2.961-1.434-4.082C430.53,44.797,428.049,47.541,428.049,50.859z"/>
			<path d="M394.233,61.027v3.066h3.245C396.788,62.73,395.64,61.638,394.233,61.027z"/>
			<path d="M434.606,20.443h1.385c1.304-2.742,4.093-4.646,7.327-4.646h4.887c0.008-0.025,0.013-0.051,0.019-0.076
				C447.427,12.998,444.91,11,441.931,11h-11.967c-0.667,0-1.31,0.102-1.915,0.287v2.599
				C428.049,17.501,430.991,20.443,434.606,20.443z"/>
			<path d="M400.79,82.83h25.703V65.649h-26.879c0.078,0.455,0.129,0.92,0.129,1.396v15.692
				C400.085,82.793,400.433,82.83,400.79,82.83z"/>
			<path d="M474.296,175.394v7.158c0.808,0.33,1.688,0.516,2.611,0.516h2.194v-1.358C479.101,178.7,477.062,176.163,474.296,175.394
				z"/>
			<path d="M449.599,161.892h-13.343h-2.591v22.015c0,3.616,2.943,6.559,6.559,6.559h11.675v-8.756c0-3.08,1.723-5.764,4.256-7.139
				v-6.121C456.155,164.833,453.214,161.892,449.599,161.892z"/>
			<path d="M545.218,145.723v-3.973h-2.46C543.064,143.361,543.964,144.762,545.218,145.723z"/>
			<path d="M515.187,154.324h4.526c3.617,0,6.56-2.941,6.56-6.557v-14.134v-7.718h-8.754c-3.616,0-6.556,2.944-6.556,6.562v6.545
				c2.521,1.473,4.223,4.201,4.223,7.324V154.324z"/>
			<path d="M571.032,95.452v33.016c0,2.196,1.088,4.139,2.75,5.331c0.002-0.056,0.009-0.109,0.009-0.164V100.79
				C573.791,98.588,572.697,96.643,571.032,95.452z"/>
			<path d="M542.638,130.401v9.792h2.58v-7.716c0-1.854-0.777-3.528-2.018-4.722C542.842,128.565,542.638,129.46,542.638,130.401z"
				/>
			<path d="M510.964,140.897v12.718c0,0.239,0.015,0.476,0.04,0.709h2.628v-7.978C513.632,144.135,512.583,142.166,510.964,140.897z
				"/>
			<path d="M447.49,17.354h-4.171c-2.343,0-4.398,1.238-5.558,3.09h4.17C444.274,20.443,446.329,19.206,447.49,17.354z"/>
			<path d="M457.711,173.93c0.731-0.216,1.503-0.338,2.304-0.338h8.409v-11.7h-14.068c2.03,1.476,3.355,3.861,3.355,6.558V173.93z"
				/>
			<path d="M513.632,158.881v-3h-2.257C511.823,157.089,512.614,158.126,513.632,158.881z"/>
			<path d="M428.145,121.221c-0.596-0.302-1.267-0.475-1.978-0.475c-2.419,0-4.388,1.966-4.388,4.383c0,0.59,0.12,1.15,0.331,1.663
				h6.034V121.221z"/>
			<path d="M471.169,112.311h-1.189v4.074h7.257C476.257,113.998,473.907,112.311,471.169,112.311z"/>
			<path d="M492.715,100.235c0,3.616,2.942,6.558,6.557,6.558h1.507v-8.762h-8.063V100.235z"/>
			<rect x="492.715" y="78.737" width="8.063" height="17.738"/>
			<path d="M456.605,116.384h11.818v-4.074H450.54C451.522,114.698,453.87,116.384,456.605,116.384z"/>
			<path d="M471.355,139.948c1.176-1.186,1.903-2.815,1.903-4.613v-3.577c0-2.42-1.322-4.534-3.278-5.67v14.916
				c0.322-0.186,0.627-0.396,0.912-0.632C471.04,140.224,471.197,140.085,471.355,139.948z"/>
			<path d="M472.74,161.736c-0.508,0.099-1.033,0.155-1.57,0.155h-1.189v11.7h2.562c0.067,0,0.13,0.009,0.198,0.01V161.736z"/>
			<path d="M509.387,77.182c3.618,0,6.562-2.942,6.562-6.559v-4.97h-16.678c-0.093,0-0.183,0.011-0.274,0.015
				c2.019,1.477,3.337,3.855,3.337,6.542v4.972H509.387z"/>
			<path d="M496.746,66.162c-2.365,0.991-4.031,3.328-4.031,6.048v4.972h8.063V72.21C500.778,69.49,499.111,67.153,496.746,66.162z"
				/>
			<path d="M436.759,23.909v12.177h5.172c3.618,0,6.56-2.941,6.56-6.556V18.643c-1.476,2.03-3.863,3.356-6.56,3.356h-4.887
				C436.86,22.604,436.759,23.245,436.759,23.909z"/>
			<path d="M502.334,98.031v8.762h4.352c-0.019-0.233-0.035-0.467-0.035-0.705v-8.057H502.334z"/>
			<path d="M472.74,175.158c-0.067-0.002-0.13-0.01-0.198-0.01h-2.562v0.992c0,2.255,1.087,4.253,2.759,5.52V175.158z"/>
			<path d="M527.83,104.589v2.176c3.366-0.273,6.023-3.096,6.023-6.531v-5.978c-3.365,0.273-6.023,3.096-6.023,6.533V104.589z"/>
			<path d="M538.672,106.088V94.23h-3.262v6.005c0,4.294-3.354,7.81-7.58,8.087v4.328h4.286
				C535.731,112.65,538.672,109.707,538.672,106.088z"/>
			<path d="M526.273,108.349h-17.656c0.923,2.505,3.326,4.301,6.146,4.301h11.51V108.349z"/>
			<path d="M538.672,88.74c0-2.415-1.314-4.524-3.262-5.663v9.596h3.262V88.74z"/>
			<path d="M526.273,104.589c0-3.617-2.943-6.558-6.56-6.558h-11.507v8.057c0,0.238,0.016,0.473,0.04,0.705h18.027V104.589z"/>
			<path d="M477.729,118.867c0-0.315-0.03-0.623-0.074-0.925h-7.674v6.401c2.843,1.262,4.834,4.109,4.834,7.416v3.577
				c0,1.047-0.207,2.044-0.568,2.961c0.839-0.276,1.732-0.434,2.661-0.434h0.822V118.867z"/>
			<path d="M494.218,116.384c3.617,0,6.561-2.943,6.561-6.562v-1.473h-1.507c-4.473,0-8.112-3.64-8.112-8.114v-2.204h-14.624
				c-3.615,0-6.555,2.941-6.555,6.558v6.166h1.189c3.609,0,6.673,2.369,7.724,5.629H494.218z"/>
			<path d="M472.74,157.949c0-1.437-0.47-2.763-1.256-3.845c-0.506-0.404-0.962-0.87-1.359-1.386
				c-0.047-0.036-0.095-0.073-0.144-0.107v7.723h1.189c0.541,0,1.067-0.073,1.57-0.197V157.949z"/>
		</g>
	</g>
</g>
</svg>
