<?xml version="1.0" encoding="utf-8"?>
<!-- Generator: Adobe Illustrator 18.1.1, SVG Export Plug-In . SVG Version: 6.00 Build 0)  -->
<!DOCTYPE svg PUBLIC "-//W3C//DTD SVG 1.1//EN" "http://www.w3.org/Graphics/SVG/1.1/DTD/svg11.dtd">
<svg version="1.1" id="Layer_1" xmlns="http://www.w3.org/2000/svg" xmlns:xlink="http://www.w3.org/1999/xlink" x="0px" y="0px"
	 viewBox="0 0 646.2 444" enable-background="new 0 0 646.2 444" xml:space="preserve">
<g>
	<path fill="none" stroke="#221F1F" d="M476.3,412C321.1,383.5,88.6,278.1,0.2,228.4"/>
	<path fill="none" stroke="#221F1F" d="M540,443.5c-118.3-0.3-297-61.5-365.1-94.1"/>
	<path fill="#FF6000" stroke="#000000" stroke-width="10" d="M289.5,199.5c-3.5-2-6.7-5.4-8.9-9.6l0,0c-1.5-2.8-2.6-6.1-3.5-9.8l0,0
		c-1.1-5-1.7-10.9-1.7-18.2l0,0c0-10.6,1.3-24.1,4.5-41.8l0,0c0.5-2.9,0.8-5.6,0.8-8l0,0c0-7.6-2.1-13.1-5.7-18.5l0,0
		c-3.7-5.3-9.4-10.2-16.7-14.6l0,0c-14.6-9-35.1-15.6-54-22.1l0,0c-12.7-4.4-24.6-8.8-34.5-15l0,0c-5.6-3.6-10.8-7.9-14.5-14l0,0
		c-3.4-5.8-1.5-13.3,4.3-16.7l0,0c5.8-3.4,13.3-1.5,16.7,4.3l0,0c0.8,1.4,3.4,4.1,8.2,6.8l0,0c4.7,2.7,11.2,5.5,18.6,8.2l0,0
		c14.9,5.5,33.4,11,50.7,18.8l0,0c11.5,5.2,22.7,11.4,31.9,19.9l0,0c5.3,4.9,9.9,10.5,13.3,17.2l0,0c3.9,7.6,6.1,16.3,6.1,25.8l0,0
		c0,4-0.4,8.1-1.1,12.3l0,0c-3,16.7-4.1,28.9-4.1,37.5l0,0c0,6.2,0.6,10.6,1.2,13.3l0,0c0.3,1.3,0.6,2.2,0.9,2.8l0,0
		c4.6,1.1,8.4,4.8,9.2,9.7l0,0c1.2,6.6-3.2,13-9.9,14.1l0,0c-0.6,0.1-1.5,0.2-2.6,0.2l0,0c0,0-0.1,0-0.1,0l0,0
		C296.3,202.1,292.9,201.5,289.5,199.5L289.5,199.5z"/>
	<g>
		<path fill="#FF6000" d="M541.6,319.5c-53,0-86.2-13.5-104.7-24.9c-31.2-19.2-47.6-48.6-47.6-85.2c0-27.6,30.2-82.7,43.2-105.2
			c23.9-41.3,50.9-78.9,65.6-91.5l5.2-4.5l41,98.6c12.9,5.7,83.6,39.1,92.5,85.1c8.7,45.3,4.5,77.6-12.9,98.6
			C607.9,310.1,580.9,319.5,541.6,319.5z"/>
		<g>
			<path d="M501.3,16.5l39.2,94.2c0,0,82.3,34.7,91.4,82.3c16.5,85.7-14.6,121.6-90.4,121.6c-75.7,0-147.3-29.4-147.3-105.1
				C394.2,167.7,471.9,41.7,501.3,16.5 M505.3,0l-10.5,8.9c-12.8,10.9-38.4,43.9-66.7,92.8c-16.4,28.3-43.9,79.9-43.9,107.7
				c0,38.4,17.3,69.4,50,89.5c19,11.7,53.1,25.6,107.3,25.6c41,0,69.2-10.1,86.2-30.7c18.4-22.3,22.9-55.9,13.9-102.7
				c-4.3-22.4-22.3-44.4-53.4-65.4c-16.9-11.4-33-19.3-40.2-22.5l-37.6-90.5L505.3,0L505.3,0z"/>
		</g>
	</g>
	<path fill="#FFFFFF" d="M555.2,295.3c0,6.5,0.9,12.8,2.6,18.8c53.7-4.2,80.3-30.8,78.4-86.2c-4-0.7-8.2-1.1-12.4-1.1
		C585.8,226.7,555.2,257.4,555.2,295.3z"/>
	<g>
		<path fill="#E6E6E6" d="M631.1,239.1c1.7,0,3.4,0.1,5,0.2c0.1-2.9,0.1-5.9,0-9c-3.7-0.7-7.5-1-11.4-1c-34.9,0-63.2,28.3-63.2,63.2
			c0,6,0.8,11.8,2.4,17.3c1.5-0.1,3-0.3,4.4-0.4c-0.3-2.3-0.4-4.7-0.4-7.1C568,267.4,596.3,239.1,631.1,239.1z"/>
	</g>
	<g>
		<path fill="#FF0000" d="M502.6,35.1l37.6,90.5c0,0,79,33.4,87.8,79c1.6,8.5,2.8,16.6,3.4,24.1c0-11.4-1.4-24.2-4.1-38.4
			c-8.8-45.7-87.8-79-87.8-79l-37.6-90.5C473.7,45,399,166,399,206.1c0,4.3,0.3,8.5,0.7,12.6C401.8,176.9,474.7,58.9,502.6,35.1z"/>
	</g>
	<g>
		<path fill="#FF6000" d="M529,397.2c-3.2,0-6.5-0.2-9.9-0.6c-68.3-8.7-149-38.1-204.6-61.1C240.9,305,180.8,273,151.7,255
			c-20.3-12.6-28.8-32.5-21.8-50.7l4.1-10.6c5.9-15.4,21-26.2,36.5-26.2c5.3,0,10.4,1.3,15.2,3.7c168.8,89,257.5,114.4,364.2,140.5
			c9.2,2.2,16.8,8.4,21.4,17.3c5.4,10.3,6.1,23.1,1.9,34.1l-4.1,10.6C563.2,388.9,549,397.2,529,397.2z"/>
		<path d="M170.5,172.5c4.3,0,8.7,1,12.8,3.2c166.3,87.6,254.2,113.7,365.4,140.9c18.5,4.5,26.7,26.9,19.8,44.7l-4.1,10.6
			c-5.7,14.9-19.9,20.4-35.4,20.4c-3,0-6.2-0.2-9.3-0.6c-121.6-15.5-298.8-99.6-365.4-140.9c-16.2-10.1-26.7-26.9-19.8-44.7
			l4.1-10.6C143.8,182,157.1,172.5,170.5,172.5 M170.5,162.5v10V162.5c-17.6,0-34.5,12.1-41.2,29.4l-4.1,10.6
			c-7.9,20.6,1.4,42.8,23.9,56.8c38.5,23.9,102.7,55.7,163.5,80.9c55.9,23.2,137,52.7,205.9,61.5c3.6,0.5,7.1,0.7,10.5,0.7
			c10,0,18.7-1.9,26-5.8c8.7-4.6,15.2-11.8,18.7-21l4.1-10.6c4.8-12.3,4-26.6-2.1-38.2c-5.3-10.2-14.1-17.2-24.7-19.8
			c-106.4-26-194.8-51.3-363.1-140C182.5,164,176.7,162.5,170.5,162.5L170.5,162.5z"/>
	</g>
	<path fill="#FFFFFF" d="M553.4,318.2c-7.8,2.9-17.1,3.3-26.3,2.1c-7.1-0.9-14.3-2-21.7-3.4c-9.5,12-15.1,27.2-15.1,43.7
		c0,9.6,1.9,18.8,5.4,27.1c8.2,1.5,16.3,2.8,24.1,3.8c18.9,2.4,37.8-2,44.7-19.8l4.1-10.6C574.8,345,568.6,325.1,553.4,318.2z
		 M156.6,175.9c-7.9,3.9-14.6,10.9-17.9,19.6l-4.1,10.6c-6.9,17.8,3.6,34.6,19.8,44.7c5.6,3.5,11.9,7.2,18.9,11.2
		c18.6-12.7,30.9-34.1,30.9-58.4c-16.8-8.9-31.2-17.1-42.5-24.1C159.9,178.3,158.2,177.1,156.6,175.9z"/>
	<g>
		<path fill="#FF6000" d="M536.3,325.9c-3.2,0-6.5-0.2-9.9-0.6c-68.3-8.7-149-38.1-204.6-61.1c-73.6-30.5-133.7-62.4-162.8-80.5
			c-20.3-12.6-28.8-32.5-21.8-50.7l4.1-10.6c5.9-15.4,21-26.2,36.5-26.2c5.3,0,10.4,1.3,15.2,3.7c168.8,89,257.5,114.4,364.2,140.5
			c9.2,2.2,16.8,8.4,21.4,17.2c5.4,10.3,6.1,23.1,1.8,34.1l-4.1,10.6C570.5,317.6,556.3,325.9,536.3,325.9z"/>
		<path d="M177.8,101.2c4.3,0,8.7,1,12.8,3.2C356.9,192,444.8,218.1,556,245.3c18.5,4.5,26.7,26.9,19.8,44.7l-4.1,10.6
			c-5.7,14.9-19.9,20.4-35.4,20.4c-3,0-6.2-0.2-9.3-0.6c-121.6-15.5-298.8-99.6-365.4-140.9c-16.2-10.1-26.7-26.9-19.8-44.7
			l4.1-10.6C151.1,110.7,164.4,101.2,177.8,101.2 M177.8,91.2L177.8,91.2c-17.6,0-34.5,12.1-41.2,29.4l-4.1,10.6
			c-7.9,20.6,1.4,42.8,23.9,56.8c38.5,23.9,102.7,55.7,163.5,80.9c55.9,23.2,137,52.7,205.9,61.5c3.6,0.5,7.1,0.7,10.5,0.7
			c10,0,18.7-1.9,26-5.8c8.7-4.6,15.2-11.8,18.7-21l4.1-10.6c4.8-12.3,4-26.6-2.1-38.2c-5.3-10.2-14.1-17.2-24.7-19.8
			c-106.4-26-194.8-51.3-363.1-140C189.8,92.7,184,91.2,177.8,91.2L177.8,91.2z"/>
	</g>
	<path fill="#FF6000" d="M246,248.4l72.1-27.4c0,0,122.9,42,127.8,45.7c4.9,3.7,19.7,85.9,19.7,85.9l-173.7-56.7l-47.5-31.1"/>
	<path fill="#FF0000" d="M277.5,251c-27.9-12.7-53.3-25.4-73.9-36.6c-0.1-0.1-0.2-0.1-0.3-0.2c-0.3,2.2-0.8,4.4-1.3,6.5
		c19.1,10.3,42,21.8,67.2,33.4L277.5,251z"/>
	<path fill="#E6E6E6" d="M203.3,214.3c-19.2-9.9-35.5-19.1-47.7-26.7c-1.1-0.7-2.1-1.4-3.2-2.1c-5.7,3.3-10.4,8.6-12.9,15l-3.7,9.5
		c-1.2,3.1-1.7,6-1.7,8.9c0,5.3,1.8,10.4,5,15.1c3.2,4.7,7.8,8.9,13.2,12.3c0.1,0.1,0.2,0.2,0.4,0.2c-2.1-3.9-3.3-8-3.3-12.3
		c0-2.9,0.5-5.9,1.7-8.9l3.7-9.5c2.4-6.4,7.2-11.7,12.9-15c1,0.7,2.1,1.5,3.2,2.1c8.5,5.3,19.1,11.3,31.1,17.9
		C202.6,218.6,203,216.5,203.3,214.3z"/>
	<g>
		<g>
			<path fill="#221F1F" d="M540.9,177.9c-14.3-0.2-27.9-3.8-41.7-7.3c-0.5-0.1-2.2,0.7-1.6,0.8c14,3.5,27.9,7.2,42.4,7.4
				C540.7,178.8,542.2,177.9,540.9,177.9L540.9,177.9z"/>
		</g>
	</g>
	<g>
		<g>
			<path fill="#221F1F" d="M540.9,188.9c-14.3-0.2-27.9-3.8-41.7-7.3c-0.5-0.1-2.2,0.7-1.6,0.8c14,3.5,27.9,7.2,42.4,7.4
				C540.7,189.8,542.2,188.9,540.9,188.9L540.9,188.9z"/>
		</g>
	</g>
	<g>
		<g>
			<path fill="#221F1F" d="M540.9,203.5c-14.3-0.2-27.9-3.8-41.7-7.3c-0.5-0.1-2.2,0.7-1.6,0.8c14,3.5,27.9,7.2,42.4,7.4
				C540.7,204.4,542.2,203.5,540.9,203.5L540.9,203.5z"/>
		</g>
	</g>
	<line fill="none" stroke="#000000" stroke-width="10" x1="625.9" y1="285.9" x2="607.8" y2="274.8"/>
	<g>
		<path fill="#FFFFFF" d="M182.5,25L182.5,25c-2.6-1.5-4.6-2.9-6.2-4.3l0,0c-1.5-1.3-2.6-2.5-3.3-3.8l0,0l0,0
			c-1.6-2.7-4.5-4.3-7.5-4.3l0,0c-1.5,0-3,0.4-4.4,1.2l0,0c-2.7,1.6-4.3,4.5-4.3,7.5l0,0c0,1.5,0.4,3,1.2,4.4l0,0
			c3.3,5.5,7.9,9.4,13.3,12.8l0,0L182.5,25z"/>
	</g>
	<path fill="#FF0000" d="M161.1,152.8l4.1-10.6c4.6-12.1,16.7-20.7,28.4-20.7c0,0,0.1,0,0.1,0c3.8,0,7.6,0.9,11.2,2.8
		c166.4,87.7,254.9,114,366.2,141.2c0.2,0.1,0.5,0.1,0.7,0.2c-0.9-2.5-2-4.9-3.4-7c-3.4-5-8.2-8.7-14.3-10.2
		C442.8,221.3,354.3,195,187.9,107.3c-3.6-1.9-7.4-2.8-11.2-2.8c0,0-0.1,0-0.1,0c-11.7,0-23.8,8.6-28.4,20.7l-4.1,10.6
		c-1.3,3.4-1.9,6.7-1.9,9.9c0,5.9,2,11.6,5.6,16.8c3.6,5.2,8.7,9.9,14.7,13.6c0.1,0.1,0.3,0.2,0.4,0.3c-2.4-4.3-3.7-8.9-3.7-13.7
		C159.2,159.5,159.8,156.2,161.1,152.8z"/>
	<path fill="#FFFFFF" d="M146,124.2l-4.1,10.6c-6.1,15.9,1.5,30.9,14.7,41.1c1.6,1.3,3.3,2.4,5.1,3.5c4.3,2.7,9.1,5.5,14.2,8.5
		c27.9-9.2,48.1-35.1,48.7-65.9c-11-5.6-22.3-11.4-34-17.6C173.7,95.5,152.8,106.4,146,124.2z M556,245.3
		c-17.5-4.3-34.4-8.5-51.1-13c-12,12.7-19.3,29.8-19.3,48.6c0,12.3,3.1,23.8,8.6,33.9c11.3,2.3,22.3,4.2,32.9,5.5
		c9.3,1.2,18.5,0.7,26.3-2.1c8.2-3,14.8-8.6,18.3-17.7l4.1-10.6C582.7,272.1,574.5,249.8,556,245.3z"/>
	<path fill="#E6E6E6" d="M176.7,104.5c0,0-0.1,0-0.1,0c-11.7,0-23.8,8.6-28.4,20.7l-4.1,10.6c-1.3,3.4-1.9,6.7-1.9,9.9
		c0,5.9,2,11.6,5.6,16.8c3.6,5.2,8.7,9.9,14.7,13.6c0.1,0.1,0.3,0.2,0.4,0.3c-2.4-4.3-3.7-8.9-3.7-13.7c0-3.2,0.6-6.5,1.9-9.9
		l4.1-10.6c4.6-12.1,16.7-20.7,28.4-20.7c0,0,0.1,0,0.1,0c3.8,0,7.6,0.9,11.2,2.8c6.3,3.3,12.4,6.5,18.5,9.7c0.5-2.5,0.8-5.1,1-7.8
		c-11.8-6-23.9-12.3-36.5-18.9C184.3,105.4,180.5,104.5,176.7,104.5z M568.4,258.8c-3.4-5-8.2-8.7-14.3-10.2
		c-17.7-4.3-34.9-8.7-51.9-13.2c-2.7,3.2-5.1,6.7-7.2,10.3c25,7.1,49.9,13.5,76.1,19.9c0.2,0.1,0.5,0.1,0.7,0.2
		C570.9,263.2,569.8,260.9,568.4,258.8z"/>
	<polygon fill="#FFFFFF" stroke="#000000" stroke-width="10" points="587.8,199.9 606.4,211.4 634.7,207.4 	"/>
	<polygon fill="#FFFFFF" points="502.1,36.3 492.6,113.2 533.1,122.8 	"/>
	<polygon fill="#E6E6E6" points="503.7,53.6 497.2,108.7 511.1,111.7 	"/>
	<path fill="#FF0000" d="M488.6,114c0,0-43.9,11.6-80.7,73.7C433.7,134,451.7,122.4,488.6,114z"/>
</g>
</svg>
