<?xml version="1.0" encoding="utf-8"?>
<!-- Generator: Adobe Illustrator 16.0.0, SVG Export Plug-In . SVG Version: 6.00 Build 0)  -->
<!DOCTYPE svg PUBLIC "-//W3C//DTD SVG 1.1//EN" "http://www.w3.org/Graphics/SVG/1.1/DTD/svg11.dtd">
<svg version="1.1" id="Layer_1" xmlns="http://www.w3.org/2000/svg" xmlns:xlink="http://www.w3.org/1999/xlink" x="0px" y="0px"
	 width="1046px" height="145.855px" viewBox="0 0 1046 145.855" enable-background="new 0 0 1046 145.855" xml:space="preserve">
<g>
	<path d="M208.765,3.165c0.092,0.254,0.194,0.494,0.304,0.725h-9.162l9.66,2.066l0.527-0.488c0,0,0,0,0,0.001
		c0.003-0.003,0.004-0.005,0.006-0.007l0.01-0.01h0c0.481-0.477,0.863-1.068,1.183-1.722c-0.46-1.033-0.762-2.26-0.861-3.731h-2.322
		h-9.287l9.655,2.216C208.562,2.548,208.655,2.867,208.765,3.165z"/>
	<polygon points="87.247,26.46 84.924,26.46 75.638,26.46 84.924,28.716 84.924,31.032 84.924,31.107 75.638,31.107 84.924,33.363 
		84.924,35.665 84.924,35.753 75.638,35.753 84.924,38.009 84.924,40.299 84.924,40.399 75.638,40.399 84.924,42.656 84.924,44.934 
		84.924,45.046 75.638,45.046 84.924,47.303 84.924,49.569 84.924,49.692 75.638,49.692 84.924,51.95 84.924,54.203 84.924,54.337 
		75.638,54.337 84.924,56.596 84.924,58.837 84.924,58.985 75.638,58.985 84.924,61.243 84.924,63.474 84.924,63.631 75.638,63.631 
		84.924,65.888 84.924,68.107 84.924,68.276 75.638,68.276 84.924,70.536 84.924,72.741 84.924,72.923 75.638,72.923 84.924,75.181 
		84.924,77.375 84.924,77.571 75.638,77.571 84.924,79.828 84.924,82.008 84.924,82.216 75.638,82.216 84.924,84.472 84.924,86.643 
		84.924,86.862 75.638,86.862 84.924,89.12 84.924,91.279 84.924,91.509 75.638,91.509 84.924,93.766 84.924,95.912 84.924,96.155 
		75.638,96.155 84.924,98.413 84.924,100.549 84.924,100.801 75.638,100.801 84.924,103.06 84.924,105.182 84.924,105.449 
		75.638,105.449 84.924,107.706 84.924,109.817 84.924,110.093 75.638,110.093 84.924,112.35 84.924,114.452 84.924,114.741 
		75.638,114.741 84.924,116.998 84.924,119.085 84.924,119.389 75.638,119.389 84.924,121.644 84.924,123.721 84.924,124.034 
		75.638,124.034 84.924,126.292 84.924,128.352 84.924,128.68 75.638,128.68 84.924,130.937 84.924,132.988 84.924,133.325 
		75.638,133.325 84.924,135.583 84.924,137.624 84.924,137.972 75.638,137.972 84.924,140.229 84.924,142.258 84.924,142.618 
		75.638,142.618 84.924,144.875 85.273,144.875 85.307,144.739 87.247,136.853 	"/>
	<polygon points="468.531,86.732 468.531,86.676 459.246,86.676 468.1,88.828 468.071,88.965 467.602,91.279 467.595,91.31 
		458.315,91.31 467.153,93.458 467.127,93.603 466.658,95.912 466.65,95.946 457.365,95.946 466.205,98.096 466.177,98.235 
		465.704,100.549 456.417,100.549 465.244,102.804 465.229,102.87 464.984,104.049 467.307,104.049 470.072,90.542 468.911,84.868 
		468.55,86.643 	"/>
	<polygon points="129.08,86.741 129.08,86.676 119.792,86.676 128.652,88.83 128.625,88.965 128.15,91.279 128.144,91.31 
		118.865,91.31 127.704,93.459 127.675,93.603 127.201,95.912 127.195,95.946 117.914,95.946 126.754,98.096 126.725,98.235 
		126.25,100.549 116.963,100.549 125.791,102.804 125.777,102.87 125.54,104.049 127.86,104.049 130.625,90.535 129.464,84.865 
		129.099,86.643 	"/>
	<polygon points="121.305,123.719 112.015,123.719 120.857,125.972 120.367,128.44 111.079,128.44 119.919,130.692 119.417,133.216 
		119.427,133.167 110.14,133.167 118.98,135.422 118.489,137.892 109.218,137.892 118.041,140.149 117.55,142.618 108.271,142.618 
		117.103,144.875 119.425,144.875 123.966,122.007 121.645,122.007 	"/>
	<polygon points="589.572,26.46 587.251,26.46 577.965,26.46 586.159,28.716 585.036,31.032 585.036,31.027 575.749,31.027 
		583.944,33.285 583.911,33.353 582.821,35.597 573.534,35.597 581.729,37.854 581.666,37.985 580.606,40.165 571.322,40.165 
		579.515,42.422 579.416,42.622 578.391,44.733 569.107,44.733 577.3,46.99 577.172,47.256 576.179,49.301 566.894,49.301 
		575.088,51.559 574.924,51.891 573.965,53.871 564.678,53.871 572.87,56.126 572.678,56.523 571.75,58.438 562.463,58.438 
		570.658,60.696 570.435,61.16 569.535,63.006 560.248,63.006 568.44,65.263 568.181,65.794 567.319,67.574 558.033,67.574 
		566.226,69.831 565.937,70.427 565.104,72.142 555.82,72.142 564.013,74.399 563.692,75.063 563.467,75.525 564.2,77.375 
		564.213,77.408 554.927,77.408 565.104,79.665 565.12,79.697 566.034,82.008 566.055,82.064 556.77,82.064 566.948,84.322 
		566.952,84.332 567.864,86.643 567.866,86.643 567.898,86.723 558.611,86.723 568.794,88.98 569.703,91.279 569.74,91.382 
		560.456,91.382 570.636,93.636 571.535,95.912 571.586,96.039 562.3,96.039 572.479,98.296 573.37,100.549 573.43,100.697 
		564.143,100.697 574.319,102.952 575.204,105.182 575.271,105.354 565.985,105.354 576.166,107.612 577.034,109.817 
		577.115,110.012 567.828,110.012 578.008,112.271 578.874,114.452 579.361,115.682 578.96,114.672 569.674,114.672 
		579.854,116.926 580.704,119.085 580.707,119.085 580.804,119.329 571.517,119.329 581.695,121.586 582.538,123.721 
		582.643,123.986 573.361,123.986 583.537,126.245 584.371,128.352 584.489,128.644 575.205,128.644 585.383,130.901 
		586.207,132.988 586.209,132.988 586.651,134.102 586.335,133.302 577.048,133.302 587.222,135.559 588.039,137.624 
		588.177,137.96 578.891,137.96 589.071,140.217 589.876,142.258 590.02,142.618 580.735,142.618 590.911,144.875 590.913,144.875 
		591.806,144.875 591.806,141.267 565.79,75.525 	"/>
	<polygon points="651.722,93.65 651.722,76.853 649.401,76.853 649.401,76.854 640.113,76.854 649.401,79.113 649.401,79.697 
		649.401,81.701 640.113,81.701 649.401,83.958 649.401,84.332 649.401,86.546 640.113,86.546 649.401,88.803 649.401,88.965 
		649.401,91.279 649.401,91.393 640.113,91.393 649.401,93.65 649.401,93.65 	"/>
	<path d="M688.776,100.549v0.032h-9.286l9.286,2.258v0.032v2.312v0.069h-9.286l9.286,2.259v2.308v0.104h-9.286l9.286,2.259v2.272
		v0.139h-9.286l9.286,2.259v2.235v0.18h-9.286l9.286,2.256v2.201v0.215h-9.286l9.286,2.256v2.161v0.252h-9.286l9.286,2.257v2.126
		v0.289h-9.286l9.286,2.259v2.088v0.324h-9.286l9.286,2.258v2.054v0.36h-9.286l9.286,2.258h2.323V99.13
		c-0.766,0.039-1.53,0.071-2.323,0.078V100.549z"/>
	<path d="M688.776,79h-9.286l9.286,2.257c0.836-0.007,1.601-0.096,2.323-0.228V44.073c-0.723-0.136-1.487-0.222-2.323-0.228v1.089
		v0.033h-9.286l9.286,2.258v0.031v2.312v0.258h-9.286l9.286,2.26v2.116v0.488h-9.286l9.286,2.257v1.889v0.715h-9.286l9.286,2.258
		v1.665v0.939h-9.286l9.286,2.258v1.437v1.168h-9.286l9.286,2.258v1.208v1.395h-9.286l9.286,2.259v0.98V79z"/>
	<path d="M319.017,110.39c0.898-0.997,1.675-2.115,2.322-3.352V57.402c-0.647-1.229-1.417-2.349-2.322-3.323v0.001l-1.797-1.268
		h-7.484l9.281,2.255v1.456v1.042h-9.281l9.281,2.256v1.339v1.158h-9.281l9.281,2.256v1.221v1.275h-9.281l9.281,2.257v1.101v1.395
		h-9.281l9.281,2.257v0.983v1.514h-9.281l9.281,2.255v0.866v1.631h-9.281l9.281,2.255v0.747v1.75h-9.281l9.281,2.256v0.628v1.867
		h-9.281l9.281,2.256v0.513v1.984h-9.281l9.281,2.255v0.395v2.103h-9.281l9.281,2.256v0.276v2.221h-9.281l9.281,2.256v0.157v2.313
		v0.027h-9.281l7.874,1.899L319.017,110.39L319.017,110.39z"/>
	<path d="M204.665,18.234c10.072,0,20.144-4.465,20.655-18.235h-12.498c-0.385,5.61-3.572,7.905-8.158,7.905
		c-4.594,0-7.78-2.294-8.165-7.905h-12.499C184.513,13.769,194.587,18.234,204.665,18.234z"/>
	<path d="M17.684,26.46v68.856c0,28.883-5.779,32.882-17.684,32.882v16.678c0.731,0,1.458,0,2.179,0
		c0.454,0,0.897-0.005,1.346-0.007c0.584-0.003,1.164-0.011,1.737-0.021c0.429-0.008,0.86-0.019,1.285-0.034
		c0.542-0.015,1.076-0.042,1.608-0.07c0.424-0.021,0.846-0.044,1.263-0.076c0.526-0.038,1.042-0.094,1.555-0.148
		c0.411-0.041,0.818-0.086,1.218-0.141c0.516-0.073,1.021-0.165,1.525-0.258c0.382-0.07,0.768-0.136,1.144-0.22
		c0.514-0.115,1.017-0.265,1.517-0.41c0.344-0.1,0.696-0.188,1.034-0.301c0.545-0.186,1.068-0.418,1.592-0.646
		c0.277-0.122,0.56-0.218,0.831-0.35c0.781-0.383,1.542-0.819,2.273-1.323c7.894-5.438,13.644-16.303,13.644-43.744v-53.87h18.937
		v101.618h18.627V26.46H17.684z"/>
	<polygon points="220.369,26.46 193.75,96.812 193.75,26.46 174.684,26.46 174.684,144.875 191.312,144.875 218.213,73.206 
		218.213,144.875 237.279,144.875 237.279,26.46 	"/>
	<polygon points="398.245,26.46 386.44,66.042 374.627,26.46 354.174,26.46 375.792,83.506 352.344,144.875 372.798,144.875 
		386.44,102.297 400.077,144.875 420.532,144.875 396.583,83.506 418.701,26.46 	"/>
	<path d="M454.427,26.46l-29.108,118.416h19.625l4.658-23.449h27.441l4.825,23.449h19.46L472.556,26.46H454.427z M467.19,104.628
		h-2.323h-9.288h-2.322l10.15-49.562l10.146,49.562H467.19z"/>
	<path d="M161.875,144.875L133.104,26.46h-18.128L85.871,144.875h19.621l4.656-23.449h27.443l4.825,23.449H161.875z
		 M127.738,104.628h-2.321h-9.287h-2.321l10.145-49.562l10.148,49.562H127.738z"/>
	<polygon points="575.642,26.46 556.85,26.46 531.069,82.177 531.069,26.46 512.443,26.46 512.443,144.875 531.069,144.875 
		531.069,114.44 540.052,96.146 559.178,144.875 579.304,144.875 551.859,75.525 	"/>
	<polygon points="611.014,128.078 611.014,93.65 637.792,93.65 637.792,76.853 611.014,76.853 611.014,43.256 642.117,43.256 
		642.117,26.46 592.386,26.46 592.386,144.875 642.117,144.875 642.117,128.078 	"/>
	<path d="M718.741,62.384c0-24.781-8.979-35.924-30.436-35.924h-29.77v118.416h18.633V98.638h11.137
		C710.76,98.638,718.741,86.329,718.741,62.384z M677.17,81.844V43.256h2.32h9.15c9.976,0,11.478,8.818,11.478,19.296
		c0,10.475-1.502,19.292-11.478,19.292h-9.15H677.17z"/>
	<path d="M344.155,82.166c-0.011-28.994-7.908-48.581-31.75-48.581h-4.559V21.504h-18.624v12.081h-4.606
		c-23.838,0-31.743,19.587-31.75,48.581c0.008,28.998,7.981,49.018,31.822,49.018h4.483v0.048v14.624h18.675v-14.624l0.005-0.048
		h4.481C336.174,131.183,344.145,111.164,344.155,82.166z M289.396,115.486h-1.817c-16.933-0.479-16.318-22.567-16.306-33.144
		c-0.012-10.576-0.626-32.661,16.306-32.661h1.817V115.486z M309.225,115.313h-1.817V49.506h1.817
		c16.939,0,16.315,22.085,16.31,32.661C325.541,92.744,326.164,114.833,309.225,115.313z"/>
	<path d="M47.36,44.934v0.033h-9.282l9.282,2.256v0.034v2.312v0.033h-9.282l9.282,2.255v0.034v2.312v0.031h-9.282l9.282,2.257v0.033
		v2.313v0.032h-9.282l9.282,2.255v0.036v2.314v0.029h-9.282l9.282,2.255v0.037v2.312v0.029h-9.282l9.282,2.258v0.034v2.314v0.028
		h-9.282l9.282,2.257v0.037v2.312v0.027h-9.282l9.282,2.258v0.037v2.312v0.028h-9.282l9.282,2.257v0.039v2.312v0.029h-9.282
		l9.282,2.254v0.04v2.313v0.026h-9.282l9.282,2.255v0.043v2.309v0.027h-9.287l9.273,2.253c0,0.015,0,0.028,0,0.043
		c-0.005,0.786-0.017,1.55-0.034,2.313h-9.287l9.236,2.244c0,0.026,0,0.05-0.001,0.076c-0.027,0.789-0.066,1.551-0.102,2.312h-9.287
		l9.165,2.228c-0.002,0.032-0.004,0.064-0.006,0.095c-0.045,0.789-0.108,1.556-0.171,2.314h-9.287l9.073,2.204
		c-0.003,0.038-0.007,0.079-0.011,0.116c-0.083,0.783-0.164,1.568-0.261,2.313h-9.287l8.961,2.178
		c-0.008,0.047-0.015,0.096-0.022,0.144c-0.12,0.789-0.25,1.569-0.394,2.312h-9.286l8.853,2.152
		c-0.014,0.055-0.025,0.114-0.038,0.169c-0.182,0.806-0.381,1.563-0.584,2.315h-9.287l8.663,2.105
		c-0.022,0.07-0.044,0.142-0.067,0.212c-0.263,0.805-0.536,1.577-0.82,2.313H33.78l8.419,2.046
		c-0.043,0.094-0.084,0.187-0.126,0.276c-0.385,0.819-0.786,1.59-1.206,2.312c-0.003,0.01-0.007,0.015-0.012,0.019v-0.019h-9.286
		l8.064,1.96c-0.084,0.123-0.169,0.246-0.255,0.365c-0.611,0.84-1.25,1.606-1.911,2.312c-0.012,0.013-0.026,0.025-0.038,0.039
		v-0.039h-9.286l7.439,1.809c-0.206,0.175-0.415,0.348-0.624,0.513c-0.409,0.321-0.821,0.637-1.241,0.928
		c-0.783,0.54-1.604,0.983-2.448,1.385h-9.285l5.612,1.365c-0.353,0.094-0.708,0.181-1.064,0.261
		c-0.34,0.078-0.688,0.143-1.033,0.209c-0.424,0.081-0.853,0.153-1.284,0.218c-0.419,0.064-0.837,0.126-1.263,0.178
		c-0.115,0.013-0.23,0.018-0.344,0.03c-2.788,0.299-5.702,0.353-8.676,0.358c8.146,0,16.053,0.166,22.108-4.004
		c7.893-5.438,13.642-16.303,13.642-43.744V43.839H47.36V44.934z"/>
	<polygon points="158.257,82.216 148.971,82.216 158.807,84.472 	"/>
	<polygon points="165.029,110.093 155.741,110.093 165.577,112.35 	"/>
	<polygon points="144.717,26.46 144.712,26.46 135.43,26.46 145.26,28.716 145.261,28.716 145.823,31.032 145.838,31.097 
		136.552,31.097 146.389,33.353 146.276,32.893 146.389,33.353 146.948,35.665 146.97,35.753 137.7,35.753 147.518,38.005 
		148.078,40.299 148.101,40.399 138.827,40.399 148.648,42.652 149.2,44.934 149.227,45.046 139.964,45.046 149.776,47.296 
		150.328,49.569 150.357,49.692 141.083,49.692 150.905,51.946 151.453,54.203 151.487,54.337 142.21,54.337 152.033,56.593 
		152.579,58.837 152.613,58.985 143.328,58.985 153.163,61.243 153.704,63.474 153.744,63.631 144.47,63.631 154.295,65.885 
		154.832,68.107 154.873,68.276 145.603,68.276 155.419,70.53 155.957,72.741 156.001,72.923 146.736,72.923 156.548,75.177 
		157.084,77.375 157.131,77.571 147.852,77.571 157.681,79.824 158.209,82.008 158.772,84.332 159.334,86.643 159.387,86.862 
		150.121,86.862 159.936,89.115 160.463,91.279 160.518,91.509 151.27,91.509 161.064,93.756 161.587,95.912 161.646,96.155 
		152.388,96.155 162.192,98.404 162.714,100.549 162.774,100.801 153.539,100.801 163.317,103.046 163.838,105.182 163.903,105.449 
		154.657,105.449 164.45,107.697 164.967,109.817 165.526,112.138 166.093,114.452 166.163,114.741 156.924,114.741 
		166.709,116.985 167.216,119.085 167.29,119.389 158.043,119.389 167.835,121.632 168.343,123.721 168.419,124.034 159.16,124.034 
		168.968,126.284 169.471,128.352 169.55,128.68 160.279,128.68 170.095,130.934 170.592,132.988 170.674,133.325 161.396,133.325 
		171.226,135.582 171.72,137.624 171.806,137.972 162.522,137.972 172.355,140.229 172.847,142.258 172.936,142.618 
		163.651,142.618 173.483,144.875 173.484,144.875 174.104,144.875 174.104,137.862 147.033,26.46 	"/>
	<polygon points="129.305,84.085 128.874,82.008 120.762,82.008 	"/>
	<polygon points="128.253,78.965 127.934,77.375 121.713,77.375 	"/>
	<polygon points="127.203,73.842 126.979,72.741 122.663,72.741 	"/>
	<polygon points="126.155,68.723 126.027,68.107 123.612,68.107 	"/>
	<path d="M227.643,0l9.088,2.209c-0.039,0.326-0.082,0.646-0.132,0.956c-0.042,0.246-0.087,0.485-0.132,0.725h-9.156l8.62,2.094
		c-0.151,0.495-0.313,0.975-0.499,1.432c-0.05,0.122-0.104,0.243-0.155,0.362h-9.133l8.127,1.976
		c-0.409,0.679-0.844,1.323-1.331,1.911c0,0,0,0.001-0.001,0.002h-9.238l7.455,1.811c-0.201,0.175-0.406,0.344-0.617,0.508
		c-0.484,0.38-0.989,0.732-1.513,1.059h-9.168l6.155,1.494c-2.663,1.045-5.603,1.56-8.578,1.662
		c0.387,0.015,0.773,0.033,1.162,0.033c5.242,0,10.484-1.21,14.378-4.314l0.013,0.004v-0.012c3.58-2.858,6.018-7.319,6.264-13.913
		h-2.321L227.643,0L227.643,0z"/>
	<polygon points="216.961,107.47 216.113,109.734 206.84,109.734 215.254,112.022 214.351,114.427 205.066,114.427 213.479,116.716 
		212.589,119.12 203.325,119.12 211.73,121.408 210.828,123.812 201.583,123.812 209.97,126.096 209.066,128.505 199.842,128.505 
		208.212,130.785 207.306,133.2 198.1,133.2 206.451,135.472 205.543,137.892 196.358,137.892 204.693,140.161 203.782,142.586 
		194.523,142.586 202.923,144.873 202.922,144.875 205.244,144.875 217.632,111.871 217.632,105.719 217.634,105.182 
		208.549,105.182 	"/>
	<polygon points="210.291,100.432 217.631,102.428 217.631,100.432 	"/>
	<polygon points="212.033,95.781 217.634,97.304 217.63,95.781 	"/>
	<polygon points="213.773,91.129 217.636,92.18 217.632,91.129 	"/>
	<polygon points="217.632,86.643 215.493,86.643 217.634,87.225 	"/>
	<polygon points="207.681,58.35 207.681,26.46 205.36,26.46 196.074,26.46 205.36,28.716 205.36,31.032 205.36,31.107 
		196.082,31.107 205.36,33.362 205.36,35.665 205.36,35.753 196.082,35.753 205.36,38.008 205.36,40.299 205.36,40.399 
		196.082,40.399 205.36,42.653 205.36,44.934 205.36,45.046 196.082,45.046 205.36,47.3 205.36,49.569 205.36,49.692 
		196.082,49.692 205.36,51.947 205.36,54.203 205.36,54.337 196.082,54.337 205.36,56.594 205.36,58.837 205.36,58.985 
		196.082,58.985 205.36,61.24 205.36,63.474 205.36,63.617 196.078,63.617 204.877,65.755 	"/>
	<polygon points="203.922,68.276 196.073,68.276 203.264,70.025 	"/>
	<polygon points="202.17,72.923 196.073,72.923 201.655,74.281 	"/>
	<polygon points="200.41,77.571 196.073,77.571 200.045,78.535 	"/>
	<polygon points="198.433,82.789 198.653,82.216 196.073,82.216 	"/>
	<polygon points="239.602,26.46 248.888,28.716 248.888,31.032 248.888,31.107 239.602,31.107 248.888,33.363 248.888,35.665 
		248.888,35.753 239.602,35.753 248.888,38.009 248.888,40.299 248.888,40.399 239.602,40.399 248.888,42.656 248.888,44.934 
		248.888,45.046 239.602,45.046 248.888,47.303 248.888,49.569 248.888,49.692 239.602,49.692 248.888,51.95 248.888,54.203 
		248.888,54.337 239.602,54.337 248.888,56.596 248.888,58.837 248.888,58.985 239.602,58.985 248.888,61.243 248.888,63.474 
		248.888,63.631 239.602,63.631 248.888,65.888 248.888,68.107 248.888,68.276 239.602,68.276 248.888,70.536 248.888,72.741 
		248.888,72.923 239.602,72.923 248.888,75.181 248.888,77.375 248.888,77.571 239.602,77.571 248.888,79.828 248.888,82.008 
		248.888,82.216 239.602,82.216 248.888,84.472 248.888,86.643 248.888,86.862 239.602,86.862 248.888,89.12 248.888,91.279 
		248.888,91.509 239.602,91.509 248.888,93.766 248.888,95.912 248.888,96.155 239.602,96.155 248.888,98.413 248.888,100.549 
		248.888,100.801 239.602,100.801 248.888,103.06 248.888,105.182 248.888,105.449 239.602,105.449 248.888,107.706 
		248.888,109.817 248.888,110.093 239.602,110.093 248.888,112.35 248.888,114.452 248.888,114.741 239.602,114.741 
		248.888,116.998 248.888,119.085 248.888,119.389 239.602,119.389 248.888,121.644 248.888,123.721 248.888,124.034 
		239.602,124.034 248.888,126.292 248.888,128.352 248.888,128.68 239.602,128.68 248.888,130.937 248.888,132.988 248.888,133.325 
		239.602,133.325 248.888,135.583 248.888,137.624 248.888,137.972 239.602,137.972 248.888,140.229 248.888,142.258 
		248.888,142.618 239.602,142.618 248.888,144.875 251.21,144.875 251.21,26.46 248.888,26.46 	"/>
	<path d="M702.251,26.46h-2.319c4.256,0,8.01,0.449,11.309,1.348h-9.383l13.742,1.58c1.045,0.485,2.026,1.035,2.95,1.644h-9.275
		l12.216,2.316c0,0.003,0.002,0.003,0.002,0.004c0.748,0.71,1.441,1.486,2.092,2.312h-9.272l10.884,2.318
		c0,0,0.003,0.001,0.003,0.003c0.448,0.739,0.875,1.501,1.265,2.313v0.001h-9.272l10.247,2.319c0.003,0,0.003,0,0.003,0.002
		c0.276,0.738,0.523,1.521,0.761,2.312h-0.002h-9.286l9.91,2.287c0.001,0.014,0.004,0.023,0.01,0.036
		c0.178,0.754,0.352,1.513,0.496,2.312h-9.274l9.621,2.319c0,0.001,0.003,0.002,0.003,0.004c0.106,0.755,0.215,1.509,0.297,2.301
		h-9.268l9.444,2.332c0.052,0.757,0.1,1.524,0.13,2.313h-9.275l9.33,2.318c0,0.001,0,0.002,0,0.006
		c0.005,0.414,0.029,0.801,0.029,1.224c0,0.373-0.021,0.72-0.024,1.09h-9.273l9.226,2.32c-0.03,0.788-0.073,1.555-0.12,2.312h-9.271
		l9.104,2.318c0,0.001,0,0.003,0,0.004c-0.073,0.796-0.182,1.552-0.279,2.314h-9.27l8.933,2.317c0,0,0,0.001,0,0.004
		c-0.136,0.792-0.293,1.559-0.466,2.313h-9.271l8.67,2.318c0,0.001,0,0.001,0,0.004c-0.193,0.681-0.4,1.347-0.626,1.992h-9.102
		l8.079,2.642c-0.364,0.81-0.78,1.569-1.207,2.312h-9.271l7.735,2.322c-0.61,0.82-1.976,2.313-1.976,2.313h-9.287l7.239,1.822
		c-0.219,0.171-0.438,0.336-0.664,0.502c-1.256,0.894-4.152,2.309-4.152,2.309h-9.288l6.115,1.154
		c-1.757,0.521-3.655,0.912-5.703,1.169c-1.966,0.248-4.034,0.403-6.282,0.403h2.319c22.453,0,30.436-12.31,30.436-36.254
		C732.686,37.603,723.707,26.46,702.251,26.46z"/>
	<polygon points="319.457,30.798 310.179,30.798 319.457,33.051 319.457,33.353 319.457,33.585 321.779,33.585 321.779,21.504 
		319.465,21.504 319.457,21.504 310.179,21.504 319.457,23.759 319.457,24.083 319.457,26.15 310.179,26.15 319.457,28.406 
		319.457,28.716 	"/>
	<path d="M288.309,54.678c-0.467,0.578-0.895,1.191-1.284,1.845c-0.202,0.337-0.393,0.686-0.576,1.042h-9.268l8.36,2.032
		c-0.201,0.51-0.391,1.028-0.564,1.562c-0.122,0.381-0.236,0.768-0.345,1.159h-9.281l8.758,2.128
		c-0.096,0.446-0.187,0.893-0.266,1.346c-0.075,0.425-0.144,0.851-0.21,1.277h-9.296l9.004,2.188
		c-0.045,0.389-0.087,0.779-0.12,1.168c-0.042,0.468-0.08,0.934-0.113,1.398h-9.298l9.172,2.228
		c-0.014,0.339-0.027,0.677-0.037,1.01c-0.016,0.513-0.029,1.018-0.038,1.514h-9.301l9.274,2.255
		c-0.001,0.292-0.004,0.583-0.004,0.865c0,0.565,0.001,1.11,0.003,1.633h-9.273l9.271,2.254c0,0.247-0.001,0.493-0.001,0.747
		c0,0.564,0,1.149,0.004,1.753h-9.263l9.287,2.258v-0.307c0.007,0.309,0.011,0.617,0.02,0.931c0.017,0.611,0.042,1.238,0.072,1.872
		h-9.267l9.404,2.249c0.012,0.171,0.024,0.34,0.038,0.516c0.052,0.65,0.12,1.301,0.192,1.957h-9.225l9.533,2.307
		c0.019,0.124,0.035,0.248,0.057,0.37c0.113,0.703,0.241,1.4,0.386,2.091h-9.243l9.795,2.271c0.025,0.09,0.045,0.182,0.071,0.271
		c0.219,0.752,0.457,1.494,0.731,2.21h-9.25l10.257,2.271c0.026,0.051,0.051,0.103,0.076,0.152c0.427,0.816,0.904,1.587,1.434,2.314
		c0.007,0.01,0.016,0.02,0.023,0.031h-9.228l10.031,2.29v-1.347v-0.976v-2.445c-3.842-7.513-3.615-18.476-3.608-25.03
		c-0.007-6.553-0.234-17.517,3.608-24.914v-2.627v-0.722v-1.267h-8.185L288.309,54.678z"/>
	<polygon points="319.457,131.232 319.457,132.988 319.457,134.302 310.179,134.302 319.457,136.555 319.457,137.624 
		319.457,138.948 310.179,138.948 319.457,141.202 319.457,142.258 319.457,143.593 310.179,143.593 319.457,145.849 
		319.457,145.855 321.735,145.855 321.779,145.855 321.779,131.232 321.784,131.183 319.46,131.183 	"/>
	<polygon points="428.516,31.093 419.242,31.093 427.645,33.347 427.641,33.353 426.739,35.665 426.715,35.726 417.43,35.726 
		425.842,37.984 425.842,37.985 424.947,40.299 424.924,40.358 415.637,40.358 424.048,42.615 424.044,42.622 423.149,44.934 
		423.127,44.993 413.857,44.993 422.254,47.247 422.252,47.256 421.351,49.569 421.329,49.626 412.054,49.626 420.457,51.879 
		420.454,51.891 419.555,54.203 419.533,54.26 410.27,54.26 418.66,56.512 418.655,56.523 417.756,58.837 417.734,58.892 
		408.479,58.892 416.864,61.143 416.857,61.16 415.96,63.474 415.941,63.525 406.676,63.525 415.068,65.778 415.06,65.794 
		414.161,68.107 414.139,68.158 404.874,68.158 413.27,70.414 413.264,70.427 412.368,72.741 412.349,72.791 403.074,72.791 
		411.474,75.045 411.467,75.063 410.572,77.375 410.551,77.425 401.29,77.425 409.677,79.675 409.668,79.697 408.772,82.008 
		408.761,82.042 399.485,82.042 408.515,84.332 409.417,86.643 400.135,86.643 410.321,88.964 410.321,88.965 411.221,91.279 
		401.936,91.279 412.132,93.602 412.132,93.603 413.031,95.912 413.033,95.914 403.748,95.914 413.94,98.235 413.941,98.235 
		414.819,100.485 405.562,100.485 415.723,102.8 415.75,102.87 416.628,105.119 407.368,105.119 417.53,107.436 417.558,107.503 
		418.436,109.754 409.175,109.754 419.34,112.07 419.367,112.138 420.245,114.389 410.982,114.389 421.147,116.705 421.175,116.773 
		422.053,119.024 412.789,119.024 422.957,121.34 422.984,121.408 423.861,123.657 414.596,123.657 424.769,125.975 424.793,126.04 
		424.788,126.04 425.668,128.293 416.403,128.293 426.576,130.611 426.601,130.674 427.478,132.928 418.209,132.928 
		427.155,134.964 427.584,133.205 427.588,133.213 428.489,129.56 410.515,83.506 432.635,26.46 430.312,26.46 421.025,26.46 
		429.438,28.716 428.541,31.032 	"/>
	<polygon points="426.51,137.627 420.004,137.627 426.16,139.028 	"/>
	<polygon points="421.813,142.261 425.178,143.028 425.367,142.261 	"/>
	<polygon points="386.91,28.716 387.602,31.032 378.324,31.032 388.274,33.284 388.293,33.353 388.964,35.6 379.699,35.6 
		389.634,37.852 389.675,37.985 390.367,40.299 381.087,40.299 391.039,42.554 391.059,42.622 391.75,44.934 391.939,45.57 
		393.1,41.679 388.559,26.46 386.242,26.46 386.237,26.46 376.955,26.46 	"/>
	<polygon points="391.923,45.569 391.733,44.934 382.446,44.934 391.514,46.99 	"/>
	<polygon points="390.747,49.569 383.821,49.569 390.312,51.04 	"/>
	<polygon points="389.366,54.203 385.226,54.203 389.106,55.081 	"/>
	<polygon points="391.936,121.378 391.211,119.089 383.385,119.089 391.924,121.411 391.183,123.724 381.9,123.724 390.439,126.044 
		389.701,128.355 380.413,128.355 388.956,130.679 388.217,132.991 378.932,132.991 387.473,135.31 386.731,137.624 
		377.446,137.624 385.988,139.943 385.152,142.553 375.865,142.553 384.407,144.875 386.729,144.875 393.1,124.996 391.937,121.372 
			"/>
	<polygon points="390.182,115.901 389.725,114.458 384.871,114.458 	"/>
	<polygon points="386.355,109.825 388.413,110.383 388.242,109.825 	"/>
	<polygon points="644.439,26.46 653.724,28.716 653.724,31.032 653.724,31.308 644.439,31.308 653.724,33.564 653.724,35.665 
		653.724,36.153 644.439,36.153 653.724,38.409 653.724,40.299 653.724,40.998 644.439,40.998 653.724,43.256 656.049,43.256 
		656.049,26.46 653.724,26.46 	"/>
	<polygon points="624.945,76.271 624.945,43.837 622.625,43.837 622.625,44.934 613.345,44.934 622.625,47.189 622.625,47.256 
		622.625,49.569 622.625,49.78 613.345,49.78 622.625,52.037 622.625,54.203 622.625,54.628 613.345,54.628 622.625,56.882 
		622.625,58.837 622.625,59.476 613.345,59.476 622.625,61.729 622.625,63.474 622.625,64.322 613.345,64.322 622.625,66.577 
		622.625,68.107 622.625,69.169 613.345,69.169 622.625,71.423 622.625,72.741 622.625,74.014 613.345,74.014 622.625,76.27 
		622.625,76.271 	"/>
	<polygon points="624.945,127.499 624.945,94.232 622.625,94.232 622.625,95.912 622.625,96.161 613.345,96.161 622.625,98.416 
		622.625,100.549 622.625,101.006 613.345,101.006 622.625,103.262 622.625,105.182 622.625,105.855 613.345,105.855 
		622.625,108.11 622.625,109.817 622.625,110.702 613.345,110.702 622.625,112.957 622.625,114.452 622.625,115.547 
		613.345,115.547 622.625,117.801 622.625,119.085 622.625,120.395 613.345,120.395 622.625,122.65 622.625,123.721 
		622.625,125.242 613.345,125.242 622.625,127.497 622.625,127.499 	"/>
	<polygon points="653.724,128.078 644.439,128.078 653.724,130.335 653.724,130.674 653.724,132.926 644.439,132.926 
		653.724,135.18 653.724,135.312 653.724,137.624 653.724,137.772 644.439,137.772 653.724,140.029 653.724,142.258 
		653.724,142.618 644.439,142.618 653.724,144.875 653.724,144.875 656.049,144.875 656.049,128.078 653.726,128.078 	"/>
	<path d="M326.336,33.585h-2.321c4.547,0,8.51,0.724,11.954,2.08h-9.289l13.702,2.321c1.062,0.694,2.071,1.466,3.011,2.313l0,0
		h-8.785l11.045,2.316c0.002,0.003,0.003,0.005,0.006,0.006c0.627,0.731,1.233,1.499,1.797,2.311h-9.314l10.794,2.295
		c0.006,0.011,0.013,0.019,0.017,0.029c0.421,0.738,0.807,1.522,1.185,2.312h0.001h-9.262l10.265,2.31
		c0.001,0.003,0.002,0.009,0.005,0.013c0.307,0.76,0.625,1.509,0.899,2.312l0,0h-9.283l9.977,2.318c0,0.001,0,0.001,0,0.003
		c0.22,0.757,0.436,1.522,0.63,2.313c0,0,0.001,0,0.001,0.002h-9.273l9.792,2.318c0,0,0,0.002,0,0.003
		c0.157,0.757,0.305,1.529,0.441,2.314h-0.001h-9.286l9.649,2.289c0.002,0.011,0.004,0.021,0.005,0.032
		c0.106,0.761,0.211,1.532,0.301,2.313l0.001,0.001h-9.264l9.502,2.298c0.001,0.007,0.001,0.013,0.002,0.021
		c0.068,0.763,0.137,1.531,0.194,2.314c0,0,0,0,0,0.001h-9.281l9.415,2.323c0.042,0.768,0.085,1.526,0.115,2.31v0.001h-9.284
		l9.325,2.322c0.011,0.771,0.039,1.524,0.042,2.31c0,0.001,0,0.005,0,0.005h-9.285l9.245,2.322c-0.006,0.773-0.016,1.55-0.037,2.308
		c0,0.001-0.001,0.003-0.001,0.004l-8.94,0.087l8.838,2.218c0,0.003,0,0.008-0.001,0.012c-0.036,0.779-0.079,1.552-0.132,2.314
		c0,0,0,0.001,0,0.003h-9.28l9.099,2.315c0,0.001-0.002,0-0.002,0.005c-0.066,0.781-0.155,1.546-0.239,2.31
		c0,0.003-0.001,0.003-0.001,0.005h-9.292l9.015,2.306c0,0.004-0.001,0.009-0.001,0.012c-0.11,0.783-0.238,1.549-0.37,2.314
		c0,0.001,0,0.001,0,0.001h-9.283l8.869,2.314c0,0.001,0,0.004,0,0.005c-0.159,0.785-0.335,1.551-0.515,2.312
		c0,0.001,0,0.005,0,0.005h-9.281l8.68,2.313c0,0.001,0,0.003,0,0.004c-0.218,0.786-0.442,1.561-0.689,2.313
		c-0.001,0-0.001,0.002-0.002,0.006h-9.285l8.433,2.318c-0.306,0.784-0.606,1.571-0.939,2.311c0,0.002-0.001,0.003-0.002,0.005
		h-9.276l8.094,2.32c-0.439,0.805-0.913,1.565-1.396,2.309l-0.004,0.004h-9.288l7.616,2.314v0.004
		c-0.656,0.812-1.338,1.591-2.071,2.314c-0.001,0.001-0.004,0.003-0.004,0.004h-9.267l6.564,2.297
		c-0.009,0.006-0.015,0.013-0.022,0.017c-1.21,0.887-2.523,1.648-3.912,2.313c-0.006,0.003-0.011,0.005-0.016,0.009h-9.271
		l4.881,1.625c-1.016,0.278-2.069,0.511-3.166,0.688c-1.856,0.304-3.789,0.51-5.885,0.51h2.322c23.841,0,31.811-20.02,31.823-49.018
		C358.076,53.172,350.179,33.585,326.336,33.585z"/>
	<polygon points="544.797,109.817 535.702,109.817 543.963,111.826 543.81,112.138 542.68,114.44 542.68,114.452 542.68,114.485 
		533.408,114.485 542.68,116.737 542.68,116.773 542.68,119.085 542.68,119.172 533.408,119.172 542.68,121.426 542.68,123.721 
		542.68,123.862 533.408,123.862 542.68,126.115 542.68,128.352 542.68,128.553 533.408,128.553 542.68,130.803 542.68,132.988 
		542.68,133.241 533.408,133.241 542.68,135.493 542.68,137.624 542.68,137.93 533.408,137.93 542.68,140.182 542.68,142.258 
		542.68,142.618 533.408,142.618 542.68,144.871 542.68,144.875 544.997,144.875 544.997,114.44 545.896,112.617 544.865,109.989 	
		"/>
	<polygon points="537.936,105.182 543.509,106.537 542.976,105.182 	"/>
	<polygon points="542.68,54.203 542.68,54.227 533.408,54.227 542.37,56.408 544.997,50.691 544.997,26.46 542.696,26.46 
		542.68,26.46 533.408,26.46 542.68,28.713 542.68,28.716 542.68,31.032 542.68,31.087 533.408,31.087 542.68,33.341 542.68,33.353 
		542.68,35.665 542.68,35.716 533.408,35.716 542.68,37.97 542.68,37.985 542.68,40.299 542.68,40.345 533.408,40.345 
		542.68,42.598 542.68,42.622 542.68,44.934 542.68,44.971 533.408,44.971 542.68,47.225 542.68,47.256 542.68,49.569 
		542.68,49.601 533.408,49.601 542.68,51.852 542.68,51.891 	"/>
	<polygon points="541.221,58.856 533.393,58.856 540.43,60.567 	"/>
	<polygon points="539.076,63.484 533.393,63.484 538.504,64.726 	"/>
	<polygon points="536.937,68.112 533.393,68.112 536.577,68.886 	"/>
	<polygon points="460.756,123.719 451.474,123.719 460.305,125.975 459.815,128.444 450.535,128.444 459.367,130.7 458.878,133.167 
		449.596,133.167 458.429,135.425 457.941,137.892 448.67,137.892 457.493,140.149 457.003,142.618 447.722,142.618 
		456.555,144.875 458.878,144.875 463.419,122.007 461.095,122.007 	"/>
	<polygon points="468.757,84.085 468.326,82.008 460.217,82.008 	"/>
	<polygon points="467.705,78.965 467.383,77.375 461.165,77.375 	"/>
	<polygon points="466.655,73.842 466.432,72.741 462.115,72.741 	"/>
	<polygon points="465.608,68.723 465.479,68.107 463.064,68.107 	"/>
	<polygon points="474.877,26.46 484.708,28.716 484.712,28.716 485.276,31.032 485.289,31.097 476.005,31.097 485.834,33.353 
		486.398,35.665 486.42,35.753 477.153,35.753 486.966,38.005 487.525,40.299 487.55,40.399 478.282,40.399 488.096,42.652 
		488.651,44.934 488.678,45.046 479.417,45.046 489.224,47.296 489.78,49.569 489.808,49.692 480.536,49.692 490.354,51.945 
		490.906,54.203 490.936,54.337 481.665,54.337 491.485,56.593 492.031,58.837 492.066,58.985 482.78,58.985 492.614,61.24 
		493.156,63.474 493.194,63.631 483.923,63.631 493.742,65.885 494.284,68.107 494.324,68.276 485.055,68.276 494.872,70.53 
		495.408,72.741 495.455,72.923 486.188,72.923 495.997,75.173 496.535,77.375 496.579,77.571 487.306,77.571 497.129,79.823 
		497.659,82.008 497.713,82.216 488.429,82.216 498.26,84.472 498.786,86.643 498.838,86.862 489.574,86.862 499.39,89.115 
		499.914,91.279 499.968,91.509 490.723,91.509 500.514,93.756 501.033,95.912 501.039,95.912 501.098,96.155 491.842,96.155 
		501.644,98.404 502.164,100.549 502.226,100.801 492.993,100.801 502.773,103.046 503.291,105.182 503.356,105.449 
		494.109,105.449 503.902,107.697 504.417,109.817 504.417,109.817 504.484,110.093 495.202,110.093 505.032,112.349 
		505.548,114.452 505.617,114.741 496.378,114.741 506.16,116.983 506.671,119.085 506.742,119.389 497.494,119.389 507.29,121.632 
		507.793,123.721 507.796,123.721 507.873,124.034 498.612,124.034 508.419,126.284 508.921,128.352 508.924,128.352 
		509.003,128.68 499.731,128.68 509.549,130.932 510.046,132.988 510.128,133.325 500.849,133.325 510.678,135.582 511.171,137.624 
		511.312,138.191 502.03,138.191 511.866,140.463 511.866,130.908 486.488,26.46 	"/>
	<polygon points="511.866,144.875 511.866,142.618 503.096,142.618 	"/>
</g>
</svg>
