<?xml version="1.0" encoding="utf-8"?>
<!-- Generator: Adobe Illustrator 16.0.0, SVG Export Plug-In . SVG Version: 6.00 Build 0)  -->
<!DOCTYPE svg PUBLIC "-//W3C//DTD SVG 1.1//EN" "http://www.w3.org/Graphics/SVG/1.1/DTD/svg11.dtd">
<svg version="1.1" id="Layer_1" xmlns="http://www.w3.org/2000/svg" xmlns:xlink="http://www.w3.org/1999/xlink" x="0px" y="0px"
	 width="1046px" height="109.656px" viewBox="0 0 1046 109.656" enable-background="new 0 0 1046 109.656" xml:space="preserve">
<path d="M73.916,98.122l-2.922-0.461c-1.845-0.307-4.152-0.921-5.844-2.768c-1.077-1.232-2-3.231-3.232-7.842L56.23,66.133
	c-0.922-3.232-3.076-9.998-11.997-13.534c6.205-3.287,8.862-8.252,10.615-13.609c0.502-1.355,0.919-2.783,1.246-4.288
	c0-0.005,0.001-0.008,0.001-0.011l0.009-0.047c0.02-0.09,0.04-0.182,0.059-0.274l1.758-8.379c0.923-3.538,1.691-7.535,3.691-10.458
	c2.306-3.074,4.614-3.383,6.613-3.846l2.306-0.459c2.768-0.612,2.461-1.384,2.153-2.614l-2.153-6.923C70.226,0.462,69.61,0,68.533,0
	c-0.307,0-0.615,0.153-0.923,0.153l-1.691,0.309c-4,0.77-8.766,2-12.304,5.843c-0.706,0.77-1.342,1.647-1.926,2.609
	C45.106,0.702,33.678,0,25.683,0H1.845C0.154,0,0,0.923,0,1.846v101.66c0,0.923,0.153,1.847,1.845,1.847h8.919
	c1.693,0,1.845-0.924,1.845-1.847V10.767h11.844c9.997,0,19.839,1.23,19.839,17.533c0,2.401-0.234,4.497-0.65,6.333
	c-0.238,0.884-0.479,1.71-0.723,2.478c-2.998,8.221-10.175,9.858-14.205,10.182h-3.901c-0.792,0-1.657,0.61-1.925,1.351
	l-2.921,8.064c-0.268,0.743,0.158,1.351,0.949,1.351h10.398l0,0c5.845,0,9.995,1.309,12.919,13.304l3.844,15.532
	c1.692,6.768,2.768,12.15,5.538,15.689c1.692,2.153,5.538,5.536,12.918,6.459l2.308,0.309c1.075,0.152,1.998,0.306,3.075,0.306
	c1.077,0,1.384-0.153,1.845-1.691l2.308-7.382C76.377,99.813,76.683,98.582,73.916,98.122z"/>
<g>
	<rect x="931.582" y="38.823" fill="#FFF100" width="114.418" height="28.011"/>
	<path d="M944.667,57.604c0.035,0.036,0.088,0.127,0.088,0.163c0,0.037-0.018,0.073-0.053,0.092l-0.746,0.508
		c-0.035,0.018-0.09,0.073-0.163,0.073c-0.108,0-0.163-0.109-0.198-0.146l-3.707-4.578h-0.035v4.25c0,0.109-0.02,0.219-0.221,0.219
		h-0.944c-0.198,0-0.216-0.109-0.216-0.219V45.504c0-0.146,0.07-0.2,0.146-0.218l0.944-0.236c0.07-0.018,0.126-0.018,0.163-0.018
		c0.146,0,0.128,0.145,0.128,0.236v8.193l3.649-4.142c0.037-0.037,0.11-0.109,0.183-0.109c0.056,0,0.091,0.019,0.126,0.055
		l0.711,0.491c0.053,0.036,0.107,0.072,0.107,0.145c0,0.019,0,0.073-0.126,0.2l-3.07,3.398L944.667,57.604z"/>
	<path d="M953.198,53.824c0,3.634-2.053,4.615-3.614,4.615c-1.562,0-3.614-0.981-3.614-4.615c0-3.633,2.052-4.615,3.614-4.615
		C951.146,49.209,953.198,50.191,953.198,53.824z M947.457,53.824c0,0.945,0.093,3.488,2.127,3.488s2.127-2.543,2.127-3.488
		c0-0.944-0.093-3.488-2.127-3.488S947.457,52.88,947.457,53.824z"/>
	<path d="M961.907,49.61c0.072,0.018,0.163,0.036,0.163,0.127c0,0.036-0.035,0.109-0.035,0.127l-3.29,8.285
		c-0.037,0.09-0.037,0.164-0.218,0.164h-0.727c-0.055,0-0.09,0-0.128-0.018c-0.055-0.036-0.072-0.091-0.09-0.146l-3.071-8.339
		c-0.018-0.037-0.035-0.109,0-0.146c0.018-0.018,0.074-0.037,0.146-0.054l0.6-0.146l0.362-0.109
		c0.057-0.018,0.184-0.054,0.238,0.127l2.017,5.905c0.128,0.345,0.254,0.817,0.326,1.144h0.036c0.092-0.563,0.237-0.872,0.326-1.126
		l2.145-5.923c0.018-0.035,0.018-0.072,0.055-0.108c0.073-0.055,0.126-0.036,0.184-0.019L961.907,49.61z"/>
	<path d="M969.796,57.404c0.018,0.036,0.018,0.073,0.018,0.109c0,0.072-0.11,0.181-0.671,0.453
		c-0.529,0.236-1.235,0.473-2.054,0.473c-1.78,0-3.961-1.036-3.961-4.615c0-2.942,1.562-4.615,3.633-4.615
		c1.526,0,3.271,0.782,3.271,4.506v0.09c0,0.255-0.073,0.309-0.201,0.309h-5.213v0.09c0,2.108,1.29,3.016,2.508,3.016
		c0.744,0,1.399-0.29,1.997-0.635c0.073-0.037,0.146-0.073,0.219-0.092c0.018,0,0.018,0,0.035,0s0.074,0.019,0.093,0.092
		L969.796,57.404z M968.543,52.989c0-0.127,0-0.854-0.291-1.544c-0.364-0.872-1.018-1.108-1.617-1.108
		c-0.965,0-1.979,0.709-2.017,2.653H968.543z"/>
	<path d="M972.464,51.444c0-0.727-0.091-0.944-0.218-1.217l-0.054-0.109c-0.093-0.164-0.093-0.236-0.093-0.272
		c0-0.073,0.056-0.091,0.093-0.109l0.853-0.472c0.092-0.055,0.2-0.146,0.383,0.2c0.144,0.272,0.252,0.708,0.289,0.98
		c0.691-0.599,1.745-1.235,3.017-1.235c2.069,0,2.069,1.708,2.069,2.726v6.031c0,0.109-0.018,0.219-0.216,0.219h-0.944
		c-0.11,0-0.219-0.018-0.219-0.219v-6.067c0-0.545-0.055-1.472-1.181-1.472c-0.927,0-1.871,0.599-2.399,1.108v6.431
		c0,0.109-0.019,0.219-0.217,0.219h-0.944c-0.201,0-0.219-0.109-0.219-0.219V51.444z"/>
	<path d="M987.928,57.604c0.035,0.036,0.09,0.127,0.09,0.163c0,0.037-0.018,0.073-0.055,0.092l-0.744,0.508
		c-0.037,0.018-0.09,0.073-0.165,0.073c-0.106,0-0.163-0.109-0.198-0.146l-3.707-4.578h-0.035v4.25c0,0.109-0.018,0.219-0.219,0.219
		h-0.944c-0.2,0-0.218-0.109-0.218-0.219V45.504c0-0.146,0.072-0.2,0.146-0.218l0.944-0.236c0.072-0.018,0.128-0.018,0.163-0.018
		c0.146,0,0.128,0.145,0.128,0.236v8.193l3.651-4.142c0.037-0.037,0.108-0.109,0.183-0.109c0.054,0,0.089,0.019,0.126,0.055
		l0.709,0.491c0.055,0.036,0.109,0.072,0.109,0.145c0,0.019,0,0.073-0.127,0.2l-3.071,3.398L987.928,57.604z"/>
	<path d="M992.458,57.966c0,0.201-0.11,0.219-0.219,0.219h-0.944c-0.108,0-0.218-0.018-0.218-0.219v-7.375h-1.417
		c-0.11,0-0.219-0.018-0.219-0.218v-0.69c0-0.201,0.108-0.218,0.219-0.218h2.562c0.219,0,0.236,0.182,0.236,0.272V57.966z
		 M991.677,47.394c-0.636,0-1.126-0.491-1.126-1.126c0-0.636,0.49-1.127,1.126-1.127s1.125,0.491,1.125,1.127
		C992.802,46.903,992.313,47.394,991.677,47.394z"/>
	<path d="M995.531,51.444c0-0.727-0.09-0.944-0.218-1.217l-0.054-0.109c-0.092-0.164-0.092-0.236-0.092-0.272
		c0-0.073,0.055-0.091,0.092-0.109l0.853-0.472c0.092-0.055,0.2-0.146,0.383,0.2c0.145,0.272,0.252,0.708,0.29,0.98
		c0.69-0.599,1.745-1.235,3.016-1.235c2.07,0,2.07,1.708,2.07,2.726v6.031c0,0.109-0.019,0.219-0.217,0.219h-0.944
		c-0.11,0-0.219-0.018-0.219-0.219v-6.067c0-0.545-0.055-1.472-1.181-1.472c-0.927,0-1.871,0.599-2.399,1.108v6.431
		c0,0.109-0.018,0.219-0.217,0.219h-0.944c-0.2,0-0.219-0.109-0.219-0.219V51.444z"/>
	<path d="M1005.989,58.439c-0.688,0-1.271-0.581-1.271-1.272c0-0.69,0.583-1.271,1.271-1.271c0.692,0,1.272,0.581,1.272,1.271
		C1007.261,57.858,1006.681,58.439,1005.989,58.439z"/>
	<path d="M1015.319,51.245c-0.018,0.037-0.035,0.073-0.089,0.073c-0.074,0-0.128-0.055-0.22-0.126
		c-0.636-0.51-1.09-0.764-1.779-0.764c-2.197,0-2.254,2.598-2.254,3.397c0,1.363,0.163,3.397,2.091,3.397
		c0.727,0,1.399-0.309,1.999-0.635c0.071-0.037,0.144-0.073,0.217-0.092c0.018,0,0.018,0,0.035,0c0.02,0,0.074,0.019,0.093,0.092
		l0.326,0.817c0.018,0.036,0.018,0.073,0.018,0.109c0,0.072-0.108,0.181-0.671,0.453c-0.527,0.236-1.235,0.473-2.054,0.473
		c-1.652,0-3.542-0.854-3.542-4.434c0-3.306,1.797-4.796,3.633-4.796c0.781,0,1.637,0.255,2.343,0.764
		c0.384,0.272,0.347,0.363,0.291,0.454L1015.319,51.245z"/>
	<path d="M1024.525,53.824c0,3.634-2.054,4.615-3.616,4.615c-1.562,0-3.616-0.981-3.616-4.615c0-3.633,2.055-4.615,3.616-4.615
		C1022.471,49.209,1024.525,50.191,1024.525,53.824z M1018.783,53.824c0,0.945,0.091,3.488,2.125,3.488
		c2.036,0,2.125-2.543,2.125-3.488c0-0.944-0.089-3.488-2.125-3.488C1018.874,50.336,1018.783,52.88,1018.783,53.824z"/>
	<path d="M1027.003,51.736c0-1.218-0.163-1.544-0.29-1.781c-0.037-0.073-0.055-0.109-0.055-0.128c0-0.054,0.055-0.09,0.093-0.108
		l0.816-0.455c0.091-0.055,0.216-0.127,0.326,0.109c0.093,0.181,0.256,0.672,0.291,0.927c0.764-0.618,1.452-1.091,2.562-1.091
		c0.799,0,1.362,0.328,1.688,1.091c1.109-0.8,1.836-1.091,2.581-1.091c1.906,0,2.017,1.636,2.017,2.726v6.031
		c0,0.201-0.11,0.219-0.218,0.219h-0.945c-0.107,0-0.218-0.018-0.218-0.219v-6.067c0-0.491-0.054-1.472-1.181-1.472
		c-0.764,0-1.507,0.563-1.617,0.636l-0.146,0.109v6.794c0,0.201-0.108,0.219-0.217,0.219h-0.946c-0.107,0-0.218-0.018-0.218-0.219
		v-6.067c0-0.509-0.054-1.472-1.181-1.472c-0.69,0-1.198,0.291-1.763,0.745v6.794c0,0.109-0.018,0.219-0.217,0.219h-0.944
		c-0.11,0-0.22-0.018-0.22-0.219V51.736z"/>
</g>
<rect x="122.241" y="49.28" fill="#231F20" width="739.334" height="9.089"/>
</svg>
