<?xml version="1.0" encoding="utf-8"?>
<!-- Generator: Adobe Illustrator 16.0.0, SVG Export Plug-In . SVG Version: 6.00 Build 0)  -->
<!DOCTYPE svg PUBLIC "-//W3C//DTD SVG 1.1//EN" "http://www.w3.org/Graphics/SVG/1.1/DTD/svg11.dtd">
<svg version="1.1" id="Layer_1" xmlns="http://www.w3.org/2000/svg" xmlns:xlink="http://www.w3.org/1999/xlink" x="0px" y="0px"
	 width="569.035px" height="210.127px" viewBox="0 0 569.035 210.127" enable-background="new 0 0 569.035 210.127"
	 xml:space="preserve">
<g>
	<rect width="32.546" height="32.546"/>
	<rect x="35.295" width="32.546" height="32.546"/>
	<rect x="70.591" width="32.545" height="32.546"/>
	<polygon points="138.432,0 132.444,0 105.887,0 105.887,32.546 138.432,32.546 138.432,2.751 139.236,2.751 170.977,34.492 
		170.977,35.295 141.182,35.295 141.182,67.842 173.728,67.842 173.728,39.477 173.728,35.295 173.728,33.352 140.376,0 	"/>
	<rect y="35.295" width="32.546" height="32.546"/>
	<rect x="35.295" y="35.295" width="32.546" height="32.546"/>
	<rect x="105.887" y="35.295" width="32.545" height="32.546"/>
	<rect y="70.591" width="32.546" height="32.545"/>
	<rect x="35.295" y="70.591" width="32.546" height="32.545"/>
	<rect x="70.591" y="70.591" width="32.545" height="32.545"/>
	<rect x="105.887" y="70.591" width="32.545" height="32.545"/>
	<rect x="141.182" y="70.591" width="32.546" height="32.545"/>
	<rect y="105.887" width="32.546" height="32.546"/>
	<rect x="35.295" y="105.887" width="32.546" height="32.546"/>
	<rect x="105.887" y="105.887" width="32.545" height="32.546"/>
	<rect x="141.182" y="105.887" width="32.546" height="32.546"/>
	<rect y="141.183" width="32.546" height="32.546"/>
	<rect x="35.295" y="141.183" width="32.546" height="32.546"/>
	<rect x="105.887" y="141.183" width="32.545" height="32.546"/>
	<rect x="141.182" y="141.183" width="32.546" height="32.546"/>
	<rect y="176.478" width="32.546" height="32.546"/>
	<rect x="35.295" y="176.478" width="32.546" height="32.546"/>
	<rect x="70.591" y="176.478" width="32.545" height="32.546"/>
	<rect x="105.887" y="176.478" width="32.545" height="32.546"/>
	<rect x="141.182" y="176.478" width="32.546" height="32.546"/>
	<path d="M213.18,202.003c-0.646,1.033-1.679,1.679-3.423,1.679c-1.744,0-2.777-0.71-3.423-1.743
		c-1.356-2.195-1.615-6.846-1.615-15.243c0-8.396,0.259-13.046,1.615-15.242c0.646-1.033,1.68-1.744,3.423-1.744
		c1.744,0,2.712,0.646,3.358,1.68c0.775,1.163,1.034,2.777,1.098,4.457h7.234c-0.129-4.069-1.421-7.558-3.682-9.688
		c-2.067-1.938-4.521-2.971-8.009-2.971c-4.392,0-6.976,1.679-8.913,3.874c-3.423,3.876-3.358,10.658-3.358,19.7
		s-0.065,15.694,3.358,19.569c1.938,2.197,4.521,3.876,8.913,3.876c3.423,0,5.877-1.033,7.944-2.906
		c2.325-2.132,3.682-5.684,3.811-9.818h-7.234C214.213,199.161,213.955,200.841,213.18,202.003z"/>
	<path d="M246.455,167.061c-1.938-2.195-4.521-3.874-8.913-3.874s-6.976,1.679-8.913,3.874c-3.423,3.876-3.359,10.594-3.359,19.635
		c0,9.043-0.064,15.76,3.359,19.635c1.938,2.197,4.521,3.876,8.913,3.876s6.976-1.679,8.913-3.876
		c3.423-3.875,3.358-10.592,3.358-19.635C249.813,177.654,249.878,170.937,246.455,167.061z M241.03,201.938
		c-0.646,1.033-1.744,1.743-3.488,1.743c-1.744,0-2.777-0.71-3.423-1.743c-1.356-2.195-1.615-6.846-1.615-15.243
		c0-8.396,0.259-13.046,1.615-15.242c0.646-1.033,1.68-1.744,3.423-1.744c1.744,0,2.842,0.711,3.488,1.744
		c1.356,2.196,1.55,6.847,1.55,15.242C242.58,195.093,242.386,199.743,241.03,201.938z"/>
	<polygon points="270.352,187.858 261.439,163.703 254.916,163.703 254.916,209.689 262.149,209.689 262.149,181.335 
		268.285,199.871 272.29,199.871 278.555,181.012 278.555,209.689 285.789,209.689 285.789,163.703 279.2,163.703 	"/>
	<path d="M303.355,163.703h-11.561v45.986h7.233v-17.956h4.327c8.72,0,11.82-4.779,11.82-14.079
		C315.175,168.03,311.688,163.703,303.355,163.703z M303.485,185.211h-4.457v-14.985h4.457c3.875,0,4.457,3.424,4.457,7.493
		C307.942,181.787,307.36,185.211,303.485,185.211z"/>
	<path d="M335.714,198.773c0,3.294-2.002,4.908-4.457,4.908c-2.455,0-4.521-1.614-4.521-4.908v-35.07h-7.233v34.684
		c0,3.487,1.162,6.395,3.164,8.46c2.196,2.262,5.167,3.359,8.59,3.359c3.423,0,6.33-1.098,8.525-3.359
		c2.002-2.065,3.165-4.973,3.165-8.46v-34.684h-7.234V198.773z"/>
	<polygon points="346.81,170.226 354.496,170.226 354.496,209.689 361.73,209.689 361.73,170.226 369.48,170.226 369.48,163.703 
		346.81,163.703 	"/>
	<polygon points="373.517,209.689 392.829,209.689 392.829,203.166 380.75,203.166 380.75,189.796 391.149,189.796 391.149,183.273 
		380.75,183.273 380.75,170.226 392.829,170.226 392.829,163.703 373.517,163.703 	"/>
	<path d="M420.71,177.266c0-9.494-3.358-13.562-11.754-13.562H397.33v45.986h7.233V190.83h4.069l6.007,18.859h7.557l-6.847-20.41
		C419.548,187.02,420.71,182.949,420.71,177.266z M409.02,184.306h-4.457v-14.08h4.457c3.876,0,4.457,3.229,4.457,7.04
		S412.896,184.306,409.02,184.306z"/>
	<path d="M441.682,184.048l-5.425-2.196c-3.229-1.292-3.811-2.454-3.811-6.2c0-2.002,0.387-3.553,1.227-4.521
		c0.711-0.775,1.615-1.291,3.101-1.291c1.55,0,2.583,0.516,3.229,1.355c0.969,1.228,1.098,2.842,1.098,4.909h7.234
		c0-4.393-0.84-7.687-3.229-10.011c-1.873-1.809-4.586-2.778-8.268-2.778c-3.293,0-5.877,1.034-7.879,2.778
		c-2.519,2.26-3.746,5.618-3.746,9.753c0,7.104,1.744,9.623,6.395,11.561l5.489,2.261c3.552,1.421,4.328,2.647,4.328,7.558
		c0,2.454-0.258,4.003-1.227,5.102c-0.71,0.84-1.809,1.292-3.488,1.292c-1.614,0-2.713-0.517-3.359-1.228
		c-1.033-1.163-1.292-2.712-1.292-5.166h-7.234c0,4.843,0.775,7.685,2.972,9.881c1.937,1.938,4.908,3.036,8.913,3.036
		c4.069,0,7.104-1.228,8.978-3.036c2.326-2.26,2.971-5.425,2.971-10.141C448.658,189.215,447.172,186.309,441.682,184.048z"/>
	<rect x="197.485" y="71.351" width="10.635" height="67.61"/>
	<polygon points="262.237,138.961 262.237,71.351 252.551,71.351 239.542,106.864 226.438,71.351 216.847,71.351 216.847,138.961 
		227.482,138.961 227.482,97.274 236.503,124.527 242.39,124.527 251.601,96.799 251.601,138.961 	"/>
	<path d="M305.442,91.861c0-14.148-5.128-20.51-17.377-20.51h-16.998v67.61h10.635v-26.398h6.362
		C300.885,112.562,305.442,105.535,305.442,91.861z M288.255,102.972h-6.552v-22.03h6.552c5.698,0,6.553,5.033,6.553,11.015
		C294.808,97.939,293.953,102.972,288.255,102.972z"/>
	<path d="M322.697,111.233h5.982l8.831,27.728h11.11l-10.065-30.007c6.172-3.323,7.882-9.306,7.882-17.662
		c0-13.959-4.938-19.941-17.283-19.941h-17.092v67.61h10.635V111.233z M322.697,80.941h6.552c5.698,0,6.553,4.748,6.553,10.351
		s-0.855,10.351-6.553,10.351h-6.552V80.941z"/>
	<polygon points="383.518,129.37 365.761,129.37 365.761,109.714 381.048,109.714 381.048,100.123 365.761,100.123 365.761,80.941 
		383.518,80.941 383.518,71.351 355.125,71.351 355.125,138.961 383.518,138.961 	"/>
	<path d="M413.543,101.263l-7.977-3.229c-4.748-1.898-5.602-3.608-5.602-9.115c0-2.944,0.569-5.223,1.804-6.647
		c1.044-1.14,2.374-1.899,4.558-1.899c2.279,0,3.799,0.759,4.748,1.994c1.424,1.804,1.615,4.178,1.615,7.217h10.634
		c0-6.457-1.233-11.3-4.747-14.719c-2.754-2.659-6.742-4.083-12.154-4.083c-4.843,0-8.642,1.519-11.585,4.083
		c-3.704,3.324-5.508,8.262-5.508,14.338c0,10.446,2.564,14.149,9.4,16.998l8.072,3.323c5.223,2.09,6.362,3.894,6.362,11.11
		c0,3.609-0.379,5.888-1.803,7.501c-1.045,1.235-2.659,1.899-5.128,1.899c-2.373,0-3.988-0.759-4.938-1.804
		c-1.519-1.709-1.898-3.987-1.898-7.597H388.76c0,7.121,1.14,11.3,4.367,14.528c2.85,2.849,7.217,4.464,13.104,4.464
		c5.982,0,10.446-1.805,13.199-4.464c3.419-3.323,4.369-7.977,4.369-14.908C423.799,108.859,421.615,104.586,413.543,101.263z"/>
	<path d="M454.175,101.263l-7.977-3.229c-4.747-1.898-5.602-3.608-5.602-9.115c0-2.944,0.569-5.223,1.804-6.647
		c1.044-1.14,2.374-1.899,4.558-1.899c2.279,0,3.799,0.759,4.748,1.994c1.424,1.804,1.615,4.178,1.615,7.217h10.634
		c0-6.457-1.234-11.3-4.747-14.719c-2.754-2.659-6.743-4.083-12.155-4.083c-4.842,0-8.641,1.519-11.585,4.083
		c-3.703,3.324-5.507,8.262-5.507,14.338c0,10.446,2.564,14.149,9.401,16.998l8.072,3.323c5.223,2.09,6.361,3.894,6.361,11.11
		c0,3.609-0.38,5.888-1.804,7.501c-1.044,1.235-2.659,1.899-5.128,1.899c-2.373,0-3.988-0.759-4.938-1.804
		c-1.519-1.709-1.898-3.987-1.898-7.597h-10.635c0,7.121,1.139,11.3,4.368,14.528c2.849,2.849,7.216,4.464,13.104,4.464
		c5.982,0,10.446-1.805,13.2-4.464c3.418-3.323,4.368-7.977,4.368-14.908C464.431,108.859,462.247,104.586,454.175,101.263z"/>
	<rect x="471.334" y="71.351" width="10.635" height="67.61"/>
	<path d="M520.607,76.289c-2.849-3.229-6.647-5.697-13.105-5.697c-6.457,0-10.254,2.469-13.104,5.697
		c-5.033,5.698-4.938,15.573-4.938,28.868c0,13.293-0.095,23.169,4.938,28.867c2.849,3.229,6.647,5.697,13.104,5.697
		c6.458,0,10.256-2.469,13.105-5.697c5.033-5.698,4.938-15.574,4.938-28.867C525.545,91.861,525.64,81.986,520.607,76.289z
		 M512.631,127.565c-0.95,1.52-2.564,2.564-5.129,2.564c-2.563,0-4.083-1.045-5.032-2.564c-1.995-3.229-2.374-10.065-2.374-22.409
		c0-12.345,0.379-19.182,2.374-22.411c0.949-1.52,2.469-2.564,5.032-2.564c2.564,0,4.179,1.044,5.129,2.564
		c1.994,3.229,2.278,10.065,2.278,22.411C514.909,117.5,514.625,124.337,512.631,127.565z"/>
	<polygon points="558.4,71.351 558.4,111.518 542.542,71.351 533.047,71.351 533.047,138.961 543.682,138.961 543.682,98.794 
		559.635,138.961 569.035,138.961 569.035,71.351 	"/>
</g>
</svg>
