<?xml version="1.0" encoding="utf-8"?>
<!-- Generator: Adobe Illustrator 16.0.0, SVG Export Plug-In . SVG Version: 6.00 Build 0)  -->
<!DOCTYPE svg PUBLIC "-//W3C//DTD SVG 1.1//EN" "http://www.w3.org/Graphics/SVG/1.1/DTD/svg11.dtd">
<svg version="1.1" id="Layer_1" xmlns="http://www.w3.org/2000/svg" xmlns:xlink="http://www.w3.org/1999/xlink" x="0px" y="0px"
	 width="1046px" height="203.379px" viewBox="0 0 1046 203.379" enable-background="new 0 0 1046 203.379" xml:space="preserve">
<g>
	<g>
		<path fill="none" stroke="#000000" stroke-width="5" stroke-miterlimit="10" d="M187.825,32.44
			c0,5.622-4.557,10.179-10.179,10.179c-5.622,0-10.179-4.557-10.179-10.179H2.5v138.5h164.967c0-5.623,4.557-10.18,10.179-10.18
			c5.622,0,10.179,4.557,10.179,10.18H556.5V32.44H187.825z"/>
	</g>
	<g>
		<path fill="#121212" d="M210.854,50.408h13.748c0.117,0.235,0.176,0.557,0.176,0.938c0,0.322-0.088,0.703-0.117,0.85l-0.059,0.118
			h-5.716v19.023c-0.264,0.117-0.616,0.176-1.085,0.176c-0.469,0-0.85-0.088-0.997-0.117l-0.088-0.059V52.313h-5.862
			c-0.117-0.264-0.176-0.586-0.176-0.967c0-0.323,0.059-0.674,0.146-0.821L210.854,50.408z"/>
		<path fill="#121212" d="M230.612,55.801c2.022,0,3.4,0.469,4.162,1.437c0.762,0.938,1.144,2.433,1.144,4.485v9.644
			c-0.176,0.088-0.469,0.146-0.85,0.146l-0.85-0.146l-0.322-2.199c-0.85,1.759-2.492,2.638-4.925,2.638
			c-2.785,0-4.543-1.67-4.543-4.69c0-3.048,1.847-4.573,5.54-4.573c1.261,0,2.521,0.088,3.84,0.235v-1.583
			c0-2.492-1.026-3.576-3.458-3.576c-1.29,0-2.843,0.293-3.576,0.528l-0.528,0.205c-0.205-0.088-0.352-0.322-0.498-0.645
			c-0.088-0.234-0.146-0.527-0.146-0.909C227.094,56.124,228.765,55.801,230.612,55.801z M233.807,64.302
			c-1.788-0.146-2.99-0.234-3.546-0.234c-2.462,0-3.635,0.909-3.635,3.048c0,1.993,0.997,2.99,3.019,2.99
			c2.55,0,4.162-1.935,4.162-4.631V64.302z"/>
		<path fill="#121212" d="M251.701,71.366c-0.264,0.088-0.616,0.146-1.055,0.146c-0.44,0-0.821-0.029-0.938-0.117l-0.118-0.029
			V60.608c0-2.022-1.055-3.048-3.166-3.048c-1.642,0-3.253,1.026-4.104,2.667v11.139c-0.235,0.088-0.586,0.146-1.055,0.146
			c-0.44,0-0.821-0.029-0.938-0.117l-0.118-0.029V56.241c0.206-0.088,0.557-0.146,1.056-0.146l1.055,0.146v1.847
			c1.202-1.524,2.843-2.287,4.866-2.287c2.814,0,4.514,1.729,4.514,4.397V71.366z"/>
		<path fill="#121212" d="M268.062,56.241l-6.214,18.115c-1.055,3.136-2.081,4.485-4.543,4.485c-0.498,0-1.084-0.088-1.319-0.176
			l-0.176-0.059c-0.117-0.235-0.176-0.499-0.176-0.821c0-0.44,0.059-0.733,0.206-0.879c0.381,0.088,0.791,0.146,1.26,0.146
			c1.319,0,1.993-0.645,2.814-3.107l0.879-2.462c-0.205,0-0.44-0.059-0.704-0.146l-5.862-15.096
			c0.264-0.088,0.615-0.146,1.114-0.146l1.114,0.146l3.957,10.054l1.056,3.137h0.088c0.205-0.85,0.527-1.905,0.938-3.137
			l3.458-10.054c0.205-0.088,0.557-0.146,1.055-0.146L268.062,56.241z"/>
		<path fill="#121212" d="M276.178,55.801c2.021,0,3.4,0.469,4.162,1.437c0.762,0.938,1.143,2.433,1.143,4.485v9.644
			c-0.176,0.088-0.469,0.146-0.85,0.146l-0.85-0.146l-0.322-2.199c-0.851,1.759-2.492,2.638-4.926,2.638
			c-2.784,0-4.543-1.67-4.543-4.69c0-3.048,1.847-4.573,5.54-4.573c1.261,0,2.521,0.088,3.84,0.235v-1.583
			c0-2.492-1.026-3.576-3.458-3.576c-1.291,0-2.844,0.293-3.577,0.528l-0.528,0.205c-0.205-0.088-0.352-0.322-0.498-0.645
			c-0.088-0.234-0.146-0.527-0.146-0.909C272.66,56.124,274.331,55.801,276.178,55.801z M279.372,64.302
			c-1.788-0.146-2.989-0.234-3.546-0.234c-2.463,0-3.635,0.909-3.635,3.048c0,1.993,0.997,2.99,3.019,2.99
			c2.55,0,4.162-1.935,4.162-4.631V64.302z"/>
		<path fill="#121212" d="M305.727,71.337l-8.676-14.92c-0.616-1.055-1.202-2.257-1.438-2.814l-0.146-0.411h-0.088
			c0.088,1.056,0.146,2.55,0.146,4.456v13.689c-0.205,0.117-0.557,0.176-1.025,0.176c-0.381,0-0.762-0.088-0.879-0.117l-0.117-0.059
			V50.584c0.322-0.117,0.732-0.176,1.289-0.176c0.498,0,0.967,0.088,1.173,0.118l0.117,0.059l8.589,14.744
			c0.586,1.026,1.23,2.316,1.494,2.932l0.176,0.469h0.088c-0.117-1.26-0.176-2.697-0.176-4.368V50.584
			c0.205-0.117,0.557-0.176,1.056-0.176c0.439,0,0.763,0.088,0.88,0.118l0.088,0.059v20.753c-0.265,0.117-0.675,0.176-1.232,0.176
			c-0.498,0-1.025-0.088-1.172-0.117L305.727,71.337z"/>
		<path fill="#121212" d="M323.914,64.478h-9.292c0.205,3.898,1.612,5.452,4.544,5.452c1.318,0,2.667-0.381,3.165-0.703l0.411-0.264
			c0.469,0.381,0.732,0.879,0.762,1.554c-0.117,0.088-0.293,0.234-0.527,0.381s-0.763,0.323-1.584,0.557
			c-0.82,0.234-1.699,0.352-2.638,0.352c-4.221,0-6.331-2.697-6.331-8.09c0-5.364,2.403-7.915,6.302-7.915
			c3.518,0,5.511,2.11,5.511,5.657c0,1.084-0.117,2.199-0.234,2.667L323.914,64.478z M318.726,57.531
			c-2.579,0-3.957,1.788-4.104,5.364h7.445c0.059-0.411,0.088-0.967,0.088-1.671C322.155,59.026,321.1,57.531,318.726,57.531z"/>
		<path fill="#121212" d="M330.098,50.613v2.14c-0.264,0.088-0.674,0.146-1.201,0.146c-0.47,0-0.938-0.088-1.085-0.117l-0.118-0.029
			v-2.14c0.265-0.088,0.646-0.146,1.203-0.146L330.098,50.613z M329.951,56.241v15.125c-0.234,0.088-0.586,0.146-1.055,0.146
			c-0.47,0-0.851-0.029-0.968-0.117l-0.088-0.029V56.241c0.205-0.088,0.557-0.146,1.056-0.146L329.951,56.241z"/>
		<path fill="#121212" d="M338.771,55.801c1.554,0,2.99,0.293,3.547,0.528l0.41,0.205c0.029,0.674-0.146,1.172-0.586,1.554
			c-0.938-0.323-1.993-0.499-3.137-0.499c-2.315,0-3.488,0.85-3.488,2.58c0,0.498,0.176,0.938,0.528,1.29
			c0.703,0.704,1.495,0.909,2.901,1.349l0.234,0.059c1.056,0.322,1.524,0.469,2.375,0.967c1.201,0.615,1.935,1.642,1.935,3.458
			c0,2.844-1.847,4.514-5.364,4.514c-1.729,0-3.459-0.41-4.162-0.762l-0.527-0.234c-0.029-0.674,0.146-1.202,0.586-1.583
			c1.26,0.498,2.608,0.732,3.986,0.732c2.081,0,3.371-0.85,3.371-2.608c0-1.026-0.616-1.788-1.817-2.287
			c-0.294-0.117-0.909-0.322-1.847-0.586c-1.261-0.352-1.965-0.645-2.873-1.261c-0.908-0.615-1.377-1.642-1.377-2.96
			C333.467,57.531,335.283,55.801,338.771,55.801z"/>
		<path fill="#121212" d="M350.205,57.765v8.413c0,2.814,0.791,3.869,3.107,3.869l1.436-0.146c0.117,0.235,0.176,0.528,0.176,0.879
			l-0.117,0.792c-0.527,0.146-1.201,0.234-2.052,0.234c-3.371,0-4.66-1.817-4.66-5.54v-8.5h-2.286
			c-0.089-0.205-0.147-0.469-0.147-0.821c0-0.352,0.029-0.645,0.118-0.762l0.029-0.088h2.286V53.31
			c0.557-0.381,1.26-0.528,2.11-0.469v3.254h4.191c0.088,0.205,0.146,0.469,0.146,0.82l-0.146,0.85H350.205z"/>
		<path fill="#121212" d="M356.89,63.804c0-2.814,0.527-4.836,1.583-6.097c1.084-1.26,2.638-1.905,4.689-1.905
			s3.605,0.645,4.661,1.905c1.084,1.261,1.612,3.283,1.612,6.097s-0.528,4.866-1.612,6.126c-1.056,1.261-2.609,1.876-4.661,1.876
			s-3.605-0.615-4.689-1.876C357.417,68.669,356.89,66.618,356.89,63.804z M367.266,63.804c0-2.316-0.352-3.957-1.055-4.895
			c-0.674-0.967-1.7-1.437-3.049-1.437c-1.348,0-2.374,0.469-3.077,1.437c-0.675,0.938-1.026,2.579-1.026,4.895
			c0,2.315,0.352,3.957,1.026,4.924c0.703,0.938,1.729,1.407,3.077,1.407c1.349,0,2.375-0.469,3.049-1.407
			C366.914,67.761,367.266,66.119,367.266,63.804z"/>
		<path fill="#121212" d="M373.537,56.241l3.664,10.024c0.352,0.938,0.674,2.111,0.791,2.609l0.088,0.411h0.088
			c0.205-0.909,0.527-1.905,0.909-2.99l3.663-10.054c0.206-0.088,0.528-0.146,0.968-0.146l1.026,0.146l-5.452,15.125
			c-0.323,0.088-0.733,0.146-1.202,0.146l-1.202-0.146l-5.569-15.125c0.265-0.088,0.616-0.146,1.114-0.146
			c0.469,0,0.879,0.029,1.026,0.117L373.537,56.241z"/>
		<path fill="#121212" d="M392.864,55.801c2.022,0,3.4,0.469,4.162,1.437c0.763,0.938,1.144,2.433,1.144,4.485v9.644
			c-0.176,0.088-0.469,0.146-0.851,0.146l-0.85-0.146l-0.322-2.199c-0.851,1.759-2.492,2.638-4.925,2.638
			c-2.784,0-4.543-1.67-4.543-4.69c0-3.048,1.847-4.573,5.54-4.573c1.26,0,2.521,0.088,3.84,0.235v-1.583
			c0-2.492-1.026-3.576-3.459-3.576c-1.29,0-2.844,0.293-3.576,0.528l-0.527,0.205c-0.205-0.088-0.353-0.322-0.499-0.645
			c-0.088-0.234-0.146-0.527-0.146-0.909C389.347,56.124,391.018,55.801,392.864,55.801z M396.06,64.302
			c-1.788-0.146-2.99-0.234-3.547-0.234c-2.462,0-3.635,0.909-3.635,3.048c0,1.993,0.996,2.99,3.019,2.99
			c2.551,0,4.163-1.935,4.163-4.631V64.302z"/>
		<path fill="#121212" d="M221.359,110.479c-0.22,0.073-0.513,0.122-0.879,0.122c-0.367,0-0.684-0.024-0.782-0.098l-0.098-0.024
			v-8.966c0-1.686-0.879-2.541-2.638-2.541c-1.368,0-2.711,0.855-3.42,2.223v9.283c-0.196,0.073-0.489,0.122-0.879,0.122
			c-0.367,0-0.684-0.024-0.782-0.098l-0.098-0.024V97.873c0.171-0.073,0.464-0.122,0.88-0.122l0.879,0.122v1.539
			c1.001-1.271,2.37-1.906,4.055-1.906c2.345,0,3.762,1.441,3.762,3.665V110.479z"/>
		<path fill="#121212" d="M234.04,104.738h-7.744c0.171,3.249,1.344,4.543,3.787,4.543c1.099,0,2.223-0.317,2.638-0.586l0.342-0.22
			c0.391,0.318,0.611,0.733,0.635,1.295c-0.098,0.073-0.245,0.195-0.44,0.317s-0.635,0.269-1.319,0.464s-1.417,0.293-2.199,0.293
			c-3.518,0-5.276-2.248-5.276-6.742c0-4.471,2.003-6.596,5.252-6.596c2.932,0,4.593,1.759,4.593,4.715
			c0,0.904-0.098,1.833-0.195,2.223L234.04,104.738z M229.716,98.948c-2.149,0-3.298,1.49-3.42,4.471h6.205
			c0.049-0.342,0.073-0.806,0.073-1.393C232.574,100.194,231.695,98.948,229.716,98.948z"/>
		<path fill="#121212" d="M239.234,93.183v1.783c-0.22,0.073-0.562,0.122-1.001,0.122c-0.391,0-0.782-0.073-0.904-0.098
			l-0.098-0.024v-1.783c0.22-0.073,0.538-0.122,1.002-0.122L239.234,93.183z M239.112,97.873v12.605
			c-0.195,0.073-0.489,0.122-0.879,0.122c-0.391,0-0.708-0.024-0.806-0.098l-0.073-0.024V97.873
			c0.171-0.073,0.464-0.122,0.879-0.122L239.112,97.873z"/>
		<path fill="#121212" d="M246.504,97.506c1.295,0,2.492,0.245,2.956,0.44l0.342,0.171c0.024,0.562-0.123,0.977-0.489,1.295
			c-0.782-0.269-1.661-0.416-2.614-0.416c-1.93,0-2.907,0.708-2.907,2.15c0,0.415,0.146,0.782,0.44,1.075
			c0.586,0.586,1.246,0.757,2.418,1.124l0.195,0.049c0.879,0.269,1.27,0.391,1.979,0.806c1.002,0.513,1.612,1.368,1.612,2.882
			c0,2.37-1.539,3.762-4.47,3.762c-1.441,0-2.883-0.342-3.469-0.635l-0.439-0.195c-0.024-0.562,0.122-1.001,0.488-1.319
			c1.051,0.415,2.174,0.61,3.323,0.61c1.734,0,2.809-0.708,2.809-2.174c0-0.855-0.513-1.49-1.515-1.906
			c-0.244-0.098-0.757-0.269-1.539-0.488c-1.05-0.293-1.637-0.538-2.394-1.051c-0.757-0.513-1.148-1.368-1.148-2.467
			C242.083,98.948,243.597,97.506,246.504,97.506z"/>
		<path fill="#121212" d="M256.068,99.143v7.011c0,2.345,0.66,3.225,2.589,3.225l1.197-0.122c0.098,0.196,0.146,0.44,0.146,0.733
			l-0.098,0.66c-0.44,0.122-1.002,0.195-1.71,0.195c-2.809,0-3.884-1.515-3.884-4.617v-7.084h-1.905
			c-0.073-0.171-0.122-0.391-0.122-0.684c0-0.293,0.024-0.537,0.098-0.635l0.024-0.073h1.905V95.43
			c0.464-0.318,1.051-0.44,1.759-0.391v2.712h3.493c0.073,0.171,0.122,0.391,0.122,0.684l-0.122,0.708H256.068z"/>
		<path fill="#121212" d="M261.682,104.176c0-2.345,0.439-4.031,1.319-5.082c0.904-1.05,2.199-1.588,3.909-1.588
			c1.71,0,3.005,0.538,3.884,1.588c0.904,1.051,1.344,2.736,1.344,5.082s-0.439,4.055-1.344,5.105
			c-0.879,1.051-2.174,1.563-3.884,1.563c-1.71,0-3.004-0.513-3.909-1.563C262.122,108.231,261.682,106.521,261.682,104.176z
			 M270.33,104.176c0-1.93-0.293-3.298-0.879-4.08c-0.562-0.806-1.417-1.197-2.541-1.197c-1.124,0-1.979,0.391-2.565,1.197
			c-0.562,0.782-0.855,2.149-0.855,4.08c0,1.93,0.293,3.298,0.855,4.104c0.586,0.782,1.441,1.173,2.565,1.173
			c1.124,0,1.979-0.391,2.541-1.173C270.037,107.474,270.33,106.105,270.33,104.176z"/>
		<path fill="#121212" d="M275.6,97.873l3.054,8.354c0.293,0.782,0.562,1.759,0.659,2.174l0.074,0.342h0.072
			c0.172-0.757,0.44-1.588,0.758-2.492l3.054-8.379c0.171-0.073,0.44-0.122,0.806-0.122l0.855,0.122l-4.544,12.605
			c-0.269,0.073-0.61,0.122-1.001,0.122l-1.002-0.122l-4.642-12.605c0.22-0.073,0.513-0.122,0.929-0.122
			c0.391,0,0.732,0.024,0.854,0.098L275.6,97.873z"/>
		<path fill="#121212" d="M291.745,97.506c1.686,0,2.834,0.391,3.469,1.197c0.636,0.782,0.953,2.027,0.953,3.738v8.037
			c-0.146,0.073-0.392,0.122-0.708,0.122l-0.709-0.122l-0.269-1.833c-0.708,1.466-2.077,2.199-4.104,2.199
			c-2.32,0-3.787-1.392-3.787-3.909c0-2.541,1.539-3.811,4.617-3.811c1.051,0,2.102,0.074,3.201,0.196v-1.319
			c0-2.077-0.855-2.98-2.883-2.98c-1.075,0-2.369,0.244-2.98,0.44l-0.439,0.171c-0.172-0.073-0.293-0.269-0.416-0.538
			c-0.072-0.195-0.121-0.439-0.121-0.757C288.813,97.775,290.206,97.506,291.745,97.506z M294.408,104.591
			c-1.49-0.122-2.492-0.195-2.956-0.195c-2.052,0-3.029,0.757-3.029,2.541c0,1.661,0.831,2.492,2.517,2.492
			c2.125,0,3.469-1.613,3.469-3.86V104.591z"/>
		<path fill="#121212" d="M314.462,108.524c-1.466,0-2.394-0.537-2.761-1.637c-0.61,1.1-1.661,1.637-3.15,1.637
			c-2.566,0-3.86-1.563-3.86-4.715s1.294-4.739,3.86-4.739c1.294,0,2.271,0.416,2.906,1.271v-1.173
			c0.172-0.098,0.416-0.146,0.758-0.146c0.293,0,0.586,0.073,0.684,0.098l0.073,0.049v6.059c0,1.393,0.513,2.077,1.539,2.077
			c1.563,0,2.712-1.368,2.712-4.104c0-2.443-0.709-4.397-2.125-5.839c-1.393-1.441-3.348-2.174-5.839-2.174
			c-2.468,0-4.471,0.782-5.985,2.321s-2.271,3.64-2.271,6.278c0,2.834,0.928,5.082,2.467,6.425c1.539,1.295,3.42,1.955,5.643,1.955
			c2.346,0,4.545-0.66,6.621-1.955c0.366,0.171,0.586,0.464,0.611,0.929c-2.175,1.539-4.666,2.296-7.477,2.296
			c-2.54,0-4.836-0.806-6.596-2.37c-1.759-1.539-2.857-4.129-2.857-7.28c0-2.98,0.928-5.35,2.76-7.133s4.202-2.663,7.085-2.663
			c2.956,0,5.252,0.831,6.913,2.516c1.686,1.686,2.517,3.909,2.517,6.694C318.688,106.545,317.125,108.524,314.462,108.524z
			 M309.039,107.352c1.441,0,2.345-1.05,2.418-2.345v-2.37c-0.024-1.295-0.953-2.394-2.418-2.394c-1.686,0-2.688,0.831-2.688,3.566
			C306.352,106.179,307.256,107.352,309.039,107.352z"/>
		<path fill="#121212" d="M332.146,97.531c0.195,0.489,0.195,0.978,0,1.49l-2.198,0.049c0.562,0.708,0.854,1.612,0.854,2.736
			c0,2.711-1.66,4.275-4.617,4.275c-0.562,0-0.977-0.049-1.295-0.122c-0.464,0.611-0.684,1.197-0.659,1.808
			c0.073,0.904,1.319,1.222,2.858,1.393c2.199,0.146,5.081,0.611,5.032,3.469c0,2.37-2.272,4.08-6.106,4.08
			c-3.348,0-5.009-1.393-5.009-3.469c0-1.93,1.539-3.103,2.149-3.518c-0.366-0.367-0.562-0.855-0.562-1.417
			c0-0.855,0.392-1.734,1.148-2.687c-1.441-0.66-2.175-1.93-2.175-3.811c0-2.663,1.686-4.3,4.617-4.3
			c1.002,0,1.881,0.195,2.639,0.586L332.146,97.531z M328.849,111.041c-0.464-0.123-0.952-0.196-1.466-0.269
			c-0.977-0.098-2.395-0.244-3.151-0.513c-0.978,0.684-1.466,1.563-1.466,2.638c0,1.539,1.148,2.492,3.299,2.492
			c2.662,0,4.348-1.026,4.348-2.565C330.412,111.871,329.826,111.309,328.849,111.041z M326.186,98.801
			c-1.759,0-2.883,1.026-2.883,2.98c0,1.954,1.124,3.005,2.883,3.005c1.783,0,2.883-1.026,2.883-3.005
			C329.068,99.827,327.969,98.801,326.186,98.801z"/>
		<path fill="#121212" d="M347.88,97.506c2.247,0,3.542,1.417,3.542,3.665v9.308c-0.195,0.073-0.488,0.122-0.88,0.122
			c-0.366,0-0.684-0.024-0.806-0.098l-0.073-0.024v-8.966c0-1.686-0.807-2.541-2.419-2.541c-1.295,0-2.54,0.782-3.225,2.248v9.259
			c-0.195,0.073-0.488,0.122-0.879,0.122c-0.367,0-0.685-0.024-0.782-0.098l-0.098-0.024v-8.966c0-1.686-0.807-2.541-2.419-2.541
			c-1.27,0-2.516,0.855-3.199,2.223v9.283c-0.196,0.073-0.489,0.122-0.88,0.122c-0.366,0-0.685-0.024-0.782-0.098l-0.098-0.024
			V97.873c0.172-0.073,0.465-0.122,0.88-0.122l0.88,0.122v1.515c0.952-1.246,2.223-1.881,3.835-1.881
			c1.637,0,2.712,0.708,3.225,2.125C344.704,98.215,346.096,97.506,347.88,97.506z"/>
		<path fill="#121212" d="M359.381,97.506c1.686,0,2.834,0.391,3.469,1.197c0.636,0.782,0.953,2.027,0.953,3.738v8.037
			c-0.146,0.073-0.391,0.122-0.709,0.122l-0.708-0.122l-0.269-1.833c-0.709,1.466-2.077,2.199-4.104,2.199
			c-2.32,0-3.786-1.392-3.786-3.909c0-2.541,1.539-3.811,4.617-3.811c1.05,0,2.101,0.074,3.2,0.196v-1.319
			c0-2.077-0.855-2.98-2.883-2.98c-1.075,0-2.37,0.244-2.98,0.44l-0.439,0.171c-0.171-0.073-0.294-0.269-0.416-0.538
			c-0.073-0.195-0.122-0.439-0.122-0.757C356.449,97.775,357.842,97.506,359.381,97.506z M362.044,104.591
			c-1.49-0.122-2.492-0.195-2.956-0.195c-2.052,0-3.029,0.757-3.029,2.541c0,1.661,0.83,2.492,2.516,2.492
			c2.126,0,3.47-1.613,3.47-3.86V104.591z"/>
		<path fill="#121212" d="M369.318,93.183v1.783c-0.22,0.073-0.562,0.122-1.001,0.122c-0.391,0-0.782-0.073-0.904-0.098
			l-0.098-0.024v-1.783c0.22-0.073,0.538-0.122,1.002-0.122L369.318,93.183z M369.196,97.873v12.605
			c-0.195,0.073-0.488,0.122-0.879,0.122s-0.709-0.024-0.807-0.098l-0.073-0.024V97.873c0.171-0.073,0.465-0.122,0.88-0.122
			L369.196,97.873z"/>
		<path fill="#121212" d="M374.705,92.401v18.078c-0.195,0.073-0.488,0.122-0.879,0.122s-0.709-0.024-0.807-0.098l-0.073-0.024
			V92.401c0.171-0.073,0.465-0.122,0.88-0.122L374.705,92.401z"/>
		<path fill="#121212" d="M380.354,108.695v1.783c-0.22,0.073-0.562,0.122-1.001,0.122c-0.391,0-0.782-0.024-0.904-0.098
			l-0.098-0.024v-1.783c0.22-0.074,0.537-0.123,1.002-0.123L380.354,108.695z"/>
		<path fill="#121212" d="M384.87,104.176c0,3.493,1.197,5.105,3.835,5.105c0.855,0,1.711-0.22,2.102-0.342l0.269-0.122
			c0.342,0.269,0.537,0.708,0.562,1.294c-0.757,0.489-1.856,0.733-3.347,0.733c-3.42,0-5.252-2.345-5.252-6.669
			c0-4.324,1.832-6.669,5.252-6.669c1.271,0,2.395,0.245,2.785,0.44l0.293,0.146c0,0.562-0.171,1.001-0.537,1.319
			c-0.562-0.269-1.319-0.416-2.224-0.416C386.043,98.997,384.87,100.658,384.87,104.176z"/>
		<path fill="#121212" d="M393.473,104.176c0-2.345,0.439-4.031,1.319-5.082c0.903-1.05,2.198-1.588,3.908-1.588
			s3.005,0.538,3.885,1.588c0.903,1.051,1.344,2.736,1.344,5.082s-0.44,4.055-1.344,5.105c-0.88,1.051-2.175,1.563-3.885,1.563
			s-3.005-0.513-3.908-1.563C393.912,108.231,393.473,106.521,393.473,104.176z M402.12,104.176c0-1.93-0.293-3.298-0.879-4.08
			c-0.562-0.806-1.417-1.197-2.541-1.197c-1.123,0-1.979,0.391-2.564,1.197c-0.562,0.782-0.855,2.149-0.855,4.08
			c0,1.93,0.293,3.298,0.855,4.104c0.586,0.782,1.441,1.173,2.564,1.173c1.124,0,1.979-0.391,2.541-1.173
			C401.827,107.474,402.12,106.105,402.12,104.176z"/>
		<path fill="#121212" d="M420.113,97.506c2.247,0,3.542,1.417,3.542,3.665v9.308c-0.195,0.073-0.488,0.122-0.88,0.122
			c-0.366,0-0.684-0.024-0.806-0.098l-0.073-0.024v-8.966c0-1.686-0.807-2.541-2.419-2.541c-1.295,0-2.54,0.782-3.225,2.248v9.259
			c-0.195,0.073-0.488,0.122-0.879,0.122c-0.367,0-0.685-0.024-0.782-0.098l-0.098-0.024v-8.966c0-1.686-0.807-2.541-2.419-2.541
			c-1.27,0-2.516,0.855-3.2,2.223v9.283c-0.195,0.073-0.488,0.122-0.879,0.122c-0.366,0-0.685-0.024-0.782-0.098l-0.098-0.024
			V97.873c0.171-0.073,0.465-0.122,0.88-0.122l0.879,0.122v1.515c0.953-1.246,2.224-1.881,3.836-1.881
			c1.637,0,2.712,0.708,3.225,2.125C416.938,98.215,418.329,97.506,420.113,97.506z"/>
		<path fill="#121212" d="M216.033,130.535l0.049,0.074l-0.342,0.512c-0.123,0.221-0.367,0.734-0.733,1.49
			c-0.708,1.49-1.222,2.932-1.686,5.473c-0.415,2.516-0.415,5.057,0,7.572c0.611,3.592,1.833,5.84,2.443,6.963l0.317,0.514
			c-0.098,0.219-0.293,0.391-0.562,0.537c-0.269,0.123-0.537,0.195-0.66,0.195h-0.098l-0.391-0.611
			c-0.146-0.244-0.416-0.781-0.831-1.637c-0.806-1.66-1.417-3.225-1.93-5.838c-0.488-2.639-0.488-5.18,0-7.793
			c0.708-3.762,2.077-6.279,2.785-7.549l0.366-0.562c0.22-0.023,0.464,0.049,0.733,0.195
			C215.765,130.193,215.96,130.414,216.033,130.535z"/>
		<path fill="#121212" d="M220.704,143.287h-3.542c-0.073-0.17-0.122-0.391-0.122-0.684l0.122-0.684h3.542v-3.566
			c0.171-0.074,0.391-0.098,0.684-0.098l0.684,0.098v3.566h3.567c0.073,0.17,0.098,0.391,0.098,0.684l-0.098,0.684h-3.567v3.543
			c-0.171,0.072-0.391,0.121-0.684,0.121l-0.684-0.121V143.287z"/>
		<path fill="#121212" d="M231.262,149.932c-1.539,0-3.054-0.342-3.665-0.635l-0.464-0.195c-0.024-0.537,0.122-0.977,0.464-1.318
			c1.1,0.391,2.296,0.586,3.542,0.586c2.736,0,4.104-1.076,4.104-3.25c0-2.271-1.319-3.395-3.958-3.395h-1.515
			c-0.22-0.488-0.22-0.979,0-1.467h1.515c2.321,0,3.469-1.002,3.469-3.004c0-1.955-1.172-2.932-3.518-2.932
			c-1.148,0-2.37,0.244-2.883,0.439l-0.415,0.146c-0.44-0.293-0.635-0.709-0.586-1.27c1.075-0.539,2.418-0.807,4.055-0.807
			c3.298,0,5.13,1.562,5.13,4.178c0,2.027-0.806,3.346-2.418,3.957c1.954,0.611,2.931,2.076,2.931,4.396
			C237.052,148.125,235.293,149.932,231.262,149.932z"/>
		<path fill="#121212" d="M239.989,145.682c0-1.979,1.099-3.566,3.298-4.812c-1.832-1.002-2.76-2.32-2.76-4.006
			c0-2.469,1.905-4.031,5.008-4.031c3.054,0,4.959,1.49,4.959,3.934c0,1.783-0.879,3.225-2.638,4.299
			c2.125,1.051,3.347,2.248,3.347,4.471c0,2.736-2.076,4.396-5.716,4.396C242.041,149.932,239.989,148.295,239.989,145.682z
			 M249.394,145.607c0.098-0.977-0.562-1.807-1.173-2.295c-0.171-0.172-0.439-0.342-0.831-0.537
			c-0.391-0.221-0.684-0.367-0.855-0.441c-0.171-0.098-0.537-0.244-1.05-0.439l-0.977-0.414c-1.857,1.098-2.785,2.467-2.785,4.104
			c0,1.758,1.344,2.906,3.86,2.906C247.953,148.49,249.394,147.342,249.394,145.607z M242.261,136.74
			c0,0.758,0.391,1.467,0.757,1.881c0.171,0.195,0.488,0.416,0.928,0.684c0.464,0.246,0.782,0.416,1.001,0.514
			c0.22,0.074,0.611,0.244,1.197,0.488c0.22,0.074,0.366,0.146,0.464,0.195c1.49-1.002,2.223-2.197,2.223-3.59
			c0-1.686-1.246-2.688-3.298-2.688C243.506,134.225,242.261,135.201,242.261,136.74z"/>
		<path fill="#121212" d="M254.062,141.383c0-5.889,2.003-8.551,5.912-8.551c3.933,0,5.985,2.613,5.985,8.551
			c0,5.936-2.052,8.549-5.985,8.549C256.066,149.932,254.062,147.318,254.062,141.383z M255.943,141.383
			c0,5.057,1.295,7.035,4.031,7.035c2.809,0,4.055-1.955,4.055-7.035c0-2.566-0.318-4.373-0.977-5.424
			c-0.66-1.074-1.686-1.613-3.078-1.613C257.238,134.346,255.943,136.301,255.943,141.383z"/>
		<path fill="#121212" d="M283.866,134.518c-3.811,0.416-6.132,2.174-6.84,5.887c1.245-0.586,2.442-0.879,3.566-0.879
			c3.005,0,5.009,1.662,5.009,5.203c0,3.396-2.053,5.203-5.351,5.203s-5.325-2.125-5.325-6.521c0-6.621,3.273-9.967,8.94-10.334
			C284.086,133.541,284.086,134.004,283.866,134.518z M280.349,140.967c-1.075,0-2.247,0.342-3.542,1.051
			c-0.049,0.463-0.074,0.953-0.074,1.49c0,3.395,1.369,5.008,3.519,5.008c2.126,0,3.493-1.32,3.493-3.787
			C283.744,142.188,282.426,140.967,280.349,140.967z"/>
		<path fill="#121212" d="M287.418,133.076h10.017c0.073,0.293,0.122,0.635,0.122,1.002c-0.049,2.492-1.197,4.348-2.467,6.033
			c-0.88,1.174-1.783,2.443-2.492,3.885c-0.709,1.393-1.197,3.371-1.197,5.594c-0.464,0.074-0.732,0.098-0.83,0.098
			c-0.074,0-0.391-0.023-0.904-0.098c0-3.127,0.855-5.766,1.955-7.5c1.611-2.49,3.786-4.641,4.128-7.402h-8.331
			c-0.098-0.195-0.146-0.463-0.146-0.805c0-0.318,0.049-0.611,0.123-0.709L287.418,133.076z"/>
		<path fill="#121212" d="M299.208,130.609c0.098-0.195,0.293-0.367,0.562-0.539c0.27-0.121,0.538-0.195,0.66-0.195h0.098
			c0.098,0.123,0.22,0.318,0.366,0.588c0.171,0.268,0.44,0.805,0.831,1.637c0.806,1.66,1.416,3.225,1.905,5.861
			c0.513,2.639,0.513,5.18,0.024,7.793c-0.635,3.715-2.102,6.305-2.761,7.549l-0.366,0.562c-0.22,0.025-0.488-0.049-0.758-0.195
			c-0.269-0.123-0.439-0.342-0.513-0.465l-0.049-0.072l0.317-0.514c0.146-0.219,0.391-0.732,0.758-1.49
			c0.708-1.49,1.246-2.932,1.661-5.447c0.464-2.541,0.439-5.105,0.024-7.572c-0.611-3.641-1.832-5.863-2.443-6.988L299.208,130.609z
			"/>
		<path fill="#121212" d="M313.67,135.006c-0.414-0.318-0.586-0.732-0.513-1.295c1.222-0.586,2.712-0.879,4.495-0.879
			c3.029,0,5.082,1.367,5.082,4.324c0,1.148-0.367,2.125-0.782,2.785c-0.196,0.316-0.538,0.658-1.026,1.049
			c-0.464,0.393-0.879,0.709-1.246,0.93c-0.342,0.219-0.879,0.561-1.611,1.002l-0.831,0.488c-0.44,0.268-0.733,0.439-0.903,0.561
			c-0.172,0.098-0.416,0.295-0.758,0.588c-0.342,0.268-0.586,0.537-0.732,0.756c-0.294,0.465-0.611,1.223-0.611,2.027
			c0,0.367,0.049,0.709,0.049,0.734h8.062c0.098,0.195,0.146,0.463,0.146,0.805c0,0.318-0.049,0.588-0.146,0.807h-9.674
			c-0.098-0.512-0.146-1.074-0.146-1.637c0-0.807,0.073-1.562,0.342-2.174c0.293-0.66,0.415-1.1,0.903-1.611
			c0.489-0.514,0.587-0.709,1.246-1.174l0.709-0.488c0.122-0.098,0.391-0.27,0.758-0.514l0.757-0.463
			c0.635-0.416,1.05-0.709,1.271-0.832c0.22-0.146,0.513-0.391,0.928-0.707c0.416-0.342,0.709-0.637,0.831-0.855
			c0.293-0.465,0.61-1.172,0.61-2.027c0-1.686-1.002-2.883-3.518-2.883c-1.173,0-2.541,0.293-3.2,0.512L313.67,135.006z"/>
		<path fill="#121212" d="M329.533,149.932c-1.539,0-3.055-0.342-3.665-0.635l-0.464-0.195c-0.024-0.537,0.122-0.977,0.464-1.318
			c1.1,0.391,2.296,0.586,3.542,0.586c2.736,0,4.104-1.076,4.104-3.25c0-2.271-1.319-3.395-3.958-3.395h-1.514
			c-0.221-0.488-0.221-0.979,0-1.467h1.514c2.321,0,3.469-1.002,3.469-3.004c0-1.955-1.172-2.932-3.518-2.932
			c-1.148,0-2.369,0.244-2.883,0.439l-0.414,0.146c-0.44-0.293-0.636-0.709-0.587-1.27c1.075-0.539,2.419-0.807,4.056-0.807
			c3.297,0,5.13,1.562,5.13,4.178c0,2.027-0.806,3.346-2.419,3.957c1.955,0.611,2.932,2.076,2.932,4.396
			C335.322,148.125,333.563,149.932,329.533,149.932z"/>
		<path fill="#121212" d="M339.565,148.246c3.812-0.391,6.059-2.148,6.816-5.887c-1.197,0.586-2.395,0.879-3.543,0.879
			c-3.004,0-4.983-1.66-4.983-5.203c0-3.396,2.077-5.203,5.326-5.203c3.322,0,5.35,2.125,5.35,6.521
			c0,6.646-3.298,9.969-8.966,10.334C339.37,149.176,339.37,148.711,339.565,148.246z M343.084,141.797
			c1.147,0,2.345-0.342,3.542-1.051c0.049-0.463,0.073-0.977,0.073-1.49c0-3.395-1.368-5.008-3.518-5.008
			c-2.126,0-3.494,1.32-3.494,3.787C339.688,140.576,341.007,141.797,343.084,141.797z"/>
		<path fill="#121212" d="M356.771,143.287h-4.788c-0.073-0.17-0.122-0.391-0.122-0.684l0.122-0.684h4.788
			c0.073,0.17,0.122,0.391,0.122,0.684L356.771,143.287z"/>
		<path fill="#121212" d="M361.228,148.246c3.811-0.391,6.059-2.148,6.815-5.887c-1.197,0.586-2.394,0.879-3.542,0.879
			c-3.005,0-4.983-1.66-4.983-5.203c0-3.396,2.076-5.203,5.325-5.203c3.322,0,5.351,2.125,5.351,6.521
			c0,6.646-3.299,9.969-8.966,10.334C361.032,149.176,361.032,148.711,361.228,148.246z M364.745,141.797
			c1.148,0,2.346-0.342,3.542-1.051c0.049-0.463,0.073-0.977,0.073-1.49c0-3.395-1.367-5.008-3.518-5.008
			c-2.125,0-3.493,1.32-3.493,3.787C361.35,140.576,362.669,141.797,364.745,141.797z"/>
		<path fill="#121212" d="M372.441,133.076h10.016c0.073,0.293,0.122,0.635,0.122,1.002c-0.049,2.492-1.197,4.348-2.467,6.033
			c-0.88,1.174-1.784,2.443-2.492,3.885c-0.708,1.393-1.197,3.371-1.197,5.594c-0.464,0.074-0.732,0.098-0.83,0.098
			c-0.073,0-0.392-0.023-0.904-0.098c0-3.127,0.855-5.766,1.954-7.5c1.612-2.49,3.787-4.641,4.129-7.402h-8.33
			c-0.098-0.195-0.146-0.463-0.146-0.805c0-0.318,0.049-0.611,0.122-0.709L372.441,133.076z"/>
		<path fill="#121212" d="M389.121,143.287h-4.788c-0.073-0.17-0.122-0.391-0.122-0.684l0.122-0.684h4.788
			c0.073,0.17,0.122,0.391,0.122,0.684L389.121,143.287z"/>
		<path fill="#121212" d="M391.911,143.922l7.891-10.699c0.195-0.098,0.513-0.146,0.928-0.146c0.366,0,0.66,0.072,0.758,0.098
			l0.098,0.049v10.699h2.345c0.098,0.172,0.146,0.416,0.146,0.734c0,0.293-0.073,0.537-0.098,0.635l-0.049,0.072h-2.345v4.178
			c-0.22,0.098-0.489,0.146-0.855,0.146c-0.317,0-0.659-0.072-0.757-0.098l-0.098-0.049v-4.178h-7.964
			c-0.098-0.146-0.146-0.391-0.146-0.707c0-0.293,0.073-0.562,0.098-0.66L391.911,143.922z M399.875,135.617l-6.107,8.305h6.107
			V135.617z"/>
		<path fill="#121212" d="M410.076,133.223c0.171-0.098,0.464-0.146,0.854-0.146c0.367,0,0.685,0.072,0.807,0.098l0.073,0.049
			v16.318c-0.171,0.098-0.488,0.146-0.904,0.146c-0.366,0-0.684-0.072-0.806-0.098l-0.098-0.049v-10.699
			c0-1.32,0.049-2.418,0.122-3.273c-1.1,1.295-2.565,2.197-4.446,2.662c-0.415-0.416-0.537-0.904-0.415-1.49
			C407.291,136.203,408.903,135.031,410.076,133.223z"/>
	</g>
	<g>
		<path fill="#121212" d="M26.022,65.52v5.87c-0.164,0.082-0.41,0.123-0.739,0.123c-0.328,0-0.616-0.062-0.698-0.082l-0.082-0.041
			V56.736h5.192c1.293,0,2.339,0.411,3.099,1.211c0.759,0.801,1.149,1.847,1.149,3.181c0,1.313-0.39,2.381-1.149,3.181
			c-0.76,0.8-1.806,1.211-3.099,1.211H26.022z M26.022,64.207h3.53c1.785,0,2.791-1.149,2.791-3.058c0-1.97-1.006-3.12-2.791-3.12
			h-3.53V64.207z"/>
		<path fill="#121212" d="M36.631,56.736h5.09c2.606,0,4.248,1.663,4.248,4.208c0,2.073-1.087,3.612-2.955,4.043l3.55,6.403
			c-0.205,0.082-0.493,0.123-0.882,0.123c-0.329,0-0.657-0.062-0.8-0.082l-0.083-0.041l-3.448-6.239H38.15v6.239
			c-0.164,0.082-0.41,0.123-0.739,0.123c-0.328,0-0.616-0.062-0.698-0.082l-0.082-0.041V56.736z M38.15,58.029v5.829h3.428
			c1.744,0,2.791-1.087,2.791-2.914s-1.047-2.915-2.791-2.915H38.15z"/>
		<path fill="#121212" d="M54.136,56.531c3.612,0,5.644,2.422,5.644,7.594c0,5.069-1.888,7.593-5.644,7.593
			c-3.756,0-5.644-2.524-5.644-7.593C48.492,58.973,50.524,56.531,54.136,56.531z M58.179,64.125c0-2.258-0.349-3.879-1.047-4.844
			c-0.677-0.985-1.683-1.478-2.996-1.478s-2.319,0.493-3.017,1.478c-0.677,0.965-1.026,2.586-1.026,4.844
			c0,2.257,0.349,3.879,1.026,4.864c0.698,0.965,1.704,1.457,3.017,1.457s2.319-0.492,2.996-1.457
			C57.83,68.003,58.179,66.382,58.179,64.125z"/>
		<path fill="#121212" d="M62.929,56.736h4.29c2.011,0,3.509,0.554,4.494,1.683c0.985,1.129,1.478,3.017,1.478,5.706
			s-0.493,4.577-1.478,5.705c-0.985,1.129-2.483,1.683-4.494,1.683h-4.29V56.736z M64.447,70.22h2.647
			c1.006,0,1.806-0.164,2.422-0.472c1.252-0.657,2.052-2.442,2.052-5.623c0-2.442-0.39-4.022-1.211-4.905
			c-0.8-0.882-1.765-1.19-3.263-1.19h-2.647V70.22z"/>
		<path fill="#121212" d="M86.227,56.859v9.831c0,3.181-1.97,5.028-5.008,5.028c-3.037,0-4.987-1.888-4.987-5.028v-9.831
			c0.185-0.082,0.431-0.124,0.759-0.124c0.308,0,0.595,0.062,0.698,0.083l0.062,0.041v10.056c0,2.216,1.293,3.509,3.51,3.509
			c2.196,0,3.468-1.293,3.468-3.509V56.859c0.164-0.082,0.41-0.124,0.739-0.124c0.308,0,0.575,0.062,0.677,0.083L86.227,56.859z"/>
		<path fill="#121212" d="M98.083,57.023l0.37,0.185c0.021,0.431-0.144,0.821-0.472,1.149c-0.78-0.349-1.724-0.513-2.812-0.513
			c-1.396,0-2.463,0.472-3.202,1.416c-0.739,0.944-1.108,2.565-1.108,4.885c0,2.319,0.37,3.92,1.108,4.843
			c0.739,0.924,1.806,1.375,3.202,1.375c1.067,0,2.196-0.205,2.688-0.369l0.349-0.144c0.287,0.288,0.451,0.678,0.472,1.17
			c-0.841,0.472-2.073,0.698-3.673,0.698c-3.838,0-5.747-2.524-5.747-7.593c0-5.069,1.909-7.594,5.747-7.594
			C96.319,56.531,97.591,56.798,98.083,57.023z"/>
		<path fill="#121212" d="M101.264,56.736h8.147c0.083,0.185,0.124,0.39,0.124,0.616c0,0.267-0.041,0.472-0.124,0.657h-6.629v5.398
			h5.603c0.082,0.185,0.123,0.369,0.123,0.595c0,0.226-0.041,0.451-0.123,0.657h-5.603v5.582h6.834
			c0.082,0.185,0.123,0.39,0.123,0.616s-0.041,0.452-0.123,0.657h-8.353V56.736z"/>
		<path fill="#121212" d="M112.427,56.736h5.09c2.606,0,4.248,1.663,4.248,4.208c0,2.073-1.087,3.612-2.955,4.043l3.55,6.403
			c-0.205,0.082-0.493,0.123-0.882,0.123c-0.329,0-0.657-0.062-0.8-0.082l-0.083-0.041l-3.448-6.239h-3.202v6.239
			c-0.164,0.082-0.41,0.123-0.739,0.123c-0.328,0-0.616-0.062-0.698-0.082l-0.082-0.041V56.736z M113.946,58.029v5.829h3.428
			c1.744,0,2.791-1.087,2.791-2.914s-1.047-2.915-2.791-2.915H113.946z"/>
		<path fill="#121212" d="M24.503,95.824h8.147c0.083,0.185,0.124,0.39,0.124,0.616c0,0.267-0.041,0.472-0.124,0.657h-6.629v5.398
			h5.603c0.082,0.185,0.123,0.369,0.123,0.595c0,0.226-0.041,0.451-0.123,0.657h-5.603v5.582h6.834
			c0.082,0.185,0.123,0.39,0.123,0.616s-0.041,0.452-0.123,0.657h-8.353V95.824z"/>
		<path fill="#121212" d="M46.944,95.947c0.308-0.082,0.636-0.124,0.985-0.124c0.349,0,0.739,0.062,0.882,0.083l0.123,0.041v14.53
			c-0.185,0.082-0.431,0.123-0.759,0.123c-0.308,0-0.575-0.062-0.677-0.082l-0.082-0.041v-8.702c0-2.135,0.041-3.51,0.103-4.105
			h-0.062c-0.185,0.575-0.636,1.581-1.396,3.017l-3.427,6.075c-0.144,0.062-0.308,0.082-0.513,0.082l-0.472-0.082l-3.284-6.034
			c-0.78-1.457-1.252-2.463-1.416-3.058h-0.062c0.103,0.534,0.164,1.868,0.164,4.002v8.805c-0.144,0.082-0.39,0.123-0.698,0.123
			c-0.267,0-0.534-0.062-0.636-0.082l-0.062-0.041v-14.53c0.226-0.082,0.534-0.124,0.923-0.124l0.924,0.124l3.571,6.526
			c0.554,1.087,0.924,1.847,1.067,2.319h0.082c0.082-0.308,0.308-0.821,0.698-1.519L46.944,95.947z"/>
		<path fill="#121212" d="M56.787,95.947c0.226-0.082,0.493-0.124,0.841-0.124c0.329,0,0.636,0.062,0.739,0.083l0.103,0.041
			l5.439,14.53c-0.185,0.082-0.452,0.123-0.842,0.123c-0.308,0-0.574-0.062-0.677-0.082l-0.062-0.041l-1.478-3.92h-6.547
			l-1.498,3.92c-0.164,0.082-0.411,0.123-0.739,0.123c-0.308,0-0.554-0.062-0.636-0.082l-0.082-0.041L56.787,95.947z M57.608,97.589
			h-0.062c-0.082,0.411-0.226,0.883-0.411,1.416l-2.38,6.28h5.644l-2.38-6.28L57.608,97.589z"/>
		<path fill="#121212" d="M66.323,110.478v-14.53c0.164-0.082,0.411-0.124,0.759-0.124c0.308,0,0.595,0.062,0.677,0.083l0.082,0.041
			v14.53c-0.185,0.082-0.431,0.123-0.759,0.123c-0.328,0-0.595-0.062-0.677-0.082L66.323,110.478z"/>
		<path fill="#121212" d="M71.517,110.601V95.947c0.185-0.082,0.431-0.124,0.759-0.124c0.308,0,0.595,0.062,0.677,0.083l0.082,0.041
			v13.319h6.424c0.062,0.246,0.103,0.472,0.103,0.657s-0.041,0.411-0.103,0.677H71.517z"/>
		<path fill="#121212" d="M26.022,143.695v5.869c-0.164,0.082-0.41,0.123-0.739,0.123c-0.328,0-0.616-0.061-0.698-0.082
			l-0.082-0.041v-14.652h5.192c1.293,0,2.339,0.41,3.099,1.211c0.759,0.799,1.149,1.846,1.149,3.18c0,1.314-0.39,2.381-1.149,3.182
			c-0.76,0.801-1.806,1.211-3.099,1.211H26.022z M26.022,142.381h3.53c1.785,0,2.791-1.148,2.791-3.057
			c0-1.971-1.006-3.119-2.791-3.119h-3.53V142.381z"/>
		<path fill="#121212" d="M45.087,141.438v-6.402c0.185-0.082,0.431-0.123,0.759-0.123c0.308,0,0.575,0.061,0.677,0.082l0.082,0.041
			v14.529c-0.164,0.082-0.41,0.123-0.759,0.123c-0.328,0-0.616-0.061-0.698-0.082l-0.062-0.041v-6.771H38.15v6.771
			c-0.185,0.082-0.431,0.123-0.759,0.123c-0.328,0-0.616-0.061-0.698-0.082l-0.062-0.041v-14.529
			c0.185-0.082,0.431-0.123,0.759-0.123c0.308,0,0.575,0.061,0.677,0.082l0.082,0.041v6.402H45.087z"/>
		<path fill="#121212" d="M55.398,134.707c3.612,0,5.644,2.42,5.644,7.592c0,5.07-1.888,7.594-5.644,7.594
			c-3.756,0-5.644-2.523-5.644-7.594C49.754,137.148,51.786,134.707,55.398,134.707z M59.441,142.299
			c0-2.256-0.349-3.879-1.047-4.842c-0.677-0.986-1.683-1.479-2.996-1.479s-2.319,0.492-3.017,1.479
			c-0.677,0.963-1.026,2.586-1.026,4.842c0,2.258,0.349,3.879,1.026,4.865c0.698,0.965,1.704,1.457,3.017,1.457
			s2.319-0.492,2.996-1.457C59.092,146.178,59.441,144.557,59.441,142.299z"/>
		<path fill="#121212" d="M72.749,149.564l-6.075-10.445c-0.431-0.74-0.841-1.58-1.006-1.971l-0.103-0.287h-0.062
			c0.062,0.738,0.103,1.785,0.103,3.119v9.584c-0.144,0.082-0.39,0.123-0.718,0.123c-0.267,0-0.534-0.061-0.616-0.082l-0.082-0.041
			v-14.529c0.226-0.082,0.513-0.123,0.903-0.123c0.349,0,0.677,0.061,0.821,0.082l0.082,0.041l6.013,10.322
			c0.411,0.719,0.862,1.621,1.046,2.053l0.124,0.328h0.062c-0.082-0.883-0.123-1.889-0.123-3.059v-9.645
			c0.144-0.082,0.39-0.123,0.739-0.123c0.308,0,0.534,0.061,0.616,0.082l0.062,0.041v14.529c-0.185,0.082-0.472,0.123-0.862,0.123
			c-0.349,0-0.718-0.061-0.821-0.082L72.749,149.564z"/>
		<path fill="#121212" d="M78.239,134.912h8.147c0.083,0.184,0.124,0.389,0.124,0.615c0,0.266-0.041,0.473-0.124,0.656h-6.629v5.398
			h5.603c0.082,0.184,0.123,0.369,0.123,0.594c0,0.227-0.041,0.453-0.123,0.658h-5.603v5.582h6.834
			c0.082,0.184,0.123,0.389,0.123,0.615s-0.041,0.451-0.123,0.656h-8.353V134.912z"/>
	</g>
	
		<line fill="none" stroke="#000000" stroke-miterlimit="10" stroke-dasharray="3,2" x1="177.646" y1="0" x2="177.646" y2="203.379"/>
</g>
</svg>
