<?xml version="1.0" encoding="utf-8"?>
<!-- Generator: Adobe Illustrator 16.0.0, SVG Export Plug-In . SVG Version: 6.00 Build 0)  -->
<!DOCTYPE svg PUBLIC "-//W3C//DTD SVG 1.1//EN" "http://www.w3.org/Graphics/SVG/1.1/DTD/svg11.dtd">
<svg version="1.1" id="Layer_1" xmlns="http://www.w3.org/2000/svg" xmlns:xlink="http://www.w3.org/1999/xlink" x="0px" y="0px"
	 width="1046px" height="105.76px" viewBox="0 -0.248 1046 105.76" enable-background="new 0 -0.248 1046 105.76"
	 xml:space="preserve">
<rect x="72.861" y="0.75" fill="none" stroke="#AAAAAA" stroke-miterlimit="10" width="188.125" height="104.514"/>
<rect x="856.873" y="0.75" fill="none" stroke="#AAAAAA" stroke-miterlimit="10" width="188.126" height="104.514"/>
<path fill="#FFFFFF" stroke="#000000" stroke-width="2" stroke-miterlimit="10" d="M923.634,32.103c0,1.698-1.374,3.074-3.073,3.074
	c-1.694,0-3.071-1.376-3.071-3.074h-49.796V73.91h49.796c0-1.698,1.377-3.072,3.071-3.072c1.699,0,3.073,1.373,3.073,3.072h111.284
	V32.103H923.634z"/>
<path fill="#FFFFFF" stroke="#000000" stroke-width="2" stroke-miterlimit="10" d="M56.986,32.103c0,1.698-1.376,3.074-3.073,3.074
	s-3.073-1.376-3.073-3.074H1.045V73.91H50.84c0-1.698,1.376-3.072,3.073-3.072s3.073,1.373,3.073,3.072h111.282V32.103H56.986z"/>
<rect x="369.478" y="0.75" fill="none" stroke="#AAAAAA" stroke-miterlimit="10" width="188.125" height="104.514"/>
<path fill="#FFFFFF" stroke="#000000" stroke-width="2" stroke-miterlimit="10" d="M557.604,35.177
	c-1.697,0-3.072-1.376-3.072-3.073h-49.794v41.807h49.794c0-1.698,1.375-3.072,3.072-3.072V35.177z"/>
<rect x="575.292" y="0.75" fill="none" stroke="#AAAAAA" stroke-miterlimit="10" width="188.125" height="104.514"/>
<line fill="none" stroke="#000000" stroke-miterlimit="10" x1="778.166" y1="103.93" x2="842.124" y2="0.75"/>
<path fill="#FFFFFF" stroke="#000000" stroke-width="2" stroke-miterlimit="10" d="M575.292,70.268c1.697,0,3.071,1.382,3.071,3.088
	h111.226V31.323H578.363c0,1.707-1.374,3.089-3.071,3.089V70.268L575.292,70.268z"/>
<line fill="none" stroke="#000000" stroke-miterlimit="10" x1="281.821" y1="52.341" x2="348.645" y2="52.341"/>
<polyline fill="none" stroke="#000000" stroke-miterlimit="10" points="336.146,39.843 348.645,52.341 336.146,64.84 "/>
<line fill="none" stroke="#000000" stroke-miterlimit="10" stroke-dasharray="3,2" x1="53.913" y1="14.315" x2="53.913" y2="87.034"/>
</svg>
