<?xml version="1.0" encoding="utf-8"?>
<!-- Generator: Adobe Illustrator 16.0.0, SVG Export Plug-In . SVG Version: 6.00 Build 0)  -->
<!DOCTYPE svg PUBLIC "-//W3C//DTD SVG 1.1//EN" "http://www.w3.org/Graphics/SVG/1.1/DTD/svg11.dtd">
<svg version="1.1" id="Layer_1" xmlns="http://www.w3.org/2000/svg" xmlns:xlink="http://www.w3.org/1999/xlink" x="0px" y="0px"
	 width="1046px" height="203.379px" viewBox="0 0 1046 203.379" enable-background="new 0 0 1046 203.379" xml:space="preserve">
<g>
	<g>
		<path fill="none" stroke="#000000" stroke-width="5" stroke-miterlimit="10" d="M267.657,2.609
			c0,8.044-6.521,14.564-14.564,14.564c-8.044,0-14.564-6.52-14.564-14.564H2.5v198.16h236.029c0-8.045,6.521-14.564,14.564-14.564
			c8.043,0,14.564,6.52,14.564,14.564h527.487V2.609H267.657z"/>
	</g>
	<g>
		<path fill="#121212" d="M300.606,28.318h19.67c0.167,0.335,0.252,0.795,0.252,1.342c0,0.46-0.126,1.005-0.167,1.215l-0.084,0.169
			h-8.178v27.218c-0.377,0.168-0.881,0.252-1.552,0.252s-1.216-0.126-1.426-0.167l-0.127-0.085V31.043h-8.387
			c-0.168-0.378-0.253-0.838-0.253-1.383c0-0.462,0.085-0.965,0.21-1.174L300.606,28.318z"/>
		<path fill="#121212" d="M328.875,36.034c2.893,0,4.865,0.671,5.955,2.056c1.091,1.343,1.637,3.481,1.637,6.417v13.798
			c-0.252,0.125-0.67,0.208-1.217,0.208l-1.216-0.208l-0.46-3.146c-1.217,2.517-3.566,3.774-7.046,3.774
			c-3.985,0-6.501-2.39-6.501-6.712c0-4.36,2.643-6.542,7.926-6.542c1.804,0,3.607,0.126,5.494,0.336v-2.265
			c0-3.565-1.468-5.116-4.947-5.116c-1.846,0-4.068,0.419-5.117,0.755l-0.755,0.294c-0.293-0.126-0.504-0.461-0.713-0.923
			c-0.125-0.334-0.208-0.753-0.208-1.3C323.841,36.496,326.233,36.034,328.875,36.034z M333.447,48.196
			c-2.558-0.209-4.279-0.334-5.074-0.334c-3.522,0-5.201,1.301-5.201,4.36c0,2.853,1.428,4.278,4.32,4.278
			c3.648,0,5.955-2.768,5.955-6.625V48.196z"/>
		<path fill="#121212" d="M359.049,58.303c-0.378,0.126-0.881,0.208-1.509,0.208c-0.629,0-1.175-0.041-1.342-0.167l-0.168-0.042
			V42.912c0-2.894-1.51-4.361-4.531-4.361c-2.348,0-4.653,1.468-5.872,3.816v15.937c-0.336,0.126-0.838,0.208-1.509,0.208
			c-0.63,0-1.175-0.041-1.342-0.167l-0.169-0.042v-21.64c0.295-0.126,0.797-0.209,1.512-0.209l1.509,0.209v2.643
			c1.72-2.18,4.068-3.272,6.962-3.272c4.027,0,6.459,2.473,6.459,6.29v15.979H359.049z"/>
		<path fill="#121212" d="M382.457,36.663l-8.891,25.918c-1.509,4.487-2.977,6.417-6.499,6.417c-0.713,0-1.551-0.126-1.888-0.251
			l-0.251-0.084c-0.168-0.336-0.252-0.714-0.252-1.175c0-0.629,0.084-1.049,0.295-1.258c0.546,0.125,1.132,0.209,1.803,0.209
			c1.887,0,2.852-0.923,4.026-4.446l1.257-3.522c-0.293,0-0.629-0.084-1.008-0.209l-8.386-21.599
			c0.377-0.126,0.879-0.209,1.594-0.209l1.594,0.209l5.662,14.385l1.51,4.488h0.127c0.293-1.216,0.754-2.726,1.342-4.488
			l4.948-14.385c0.293-0.126,0.795-0.209,1.508-0.209L382.457,36.663z"/>
		<path fill="#121212" d="M394.07,36.034c2.892,0,4.865,0.671,5.955,2.056c1.091,1.343,1.636,3.481,1.636,6.417v13.798
			c-0.251,0.125-0.671,0.208-1.216,0.208l-1.217-0.208l-0.461-3.146c-1.218,2.517-3.565,3.774-7.047,3.774
			c-3.983,0-6.5-2.39-6.5-6.712c0-4.36,2.643-6.542,7.927-6.542c1.803,0,3.607,0.126,5.494,0.336v-2.265
			c0-3.565-1.468-5.116-4.948-5.116c-1.847,0-4.069,0.419-5.118,0.755l-0.755,0.294c-0.293-0.126-0.504-0.461-0.713-0.923
			c-0.125-0.334-0.208-0.753-0.208-1.3C389.036,36.496,391.428,36.034,394.07,36.034z M398.64,48.196
			c-2.558-0.209-4.277-0.334-5.073-0.334c-3.525,0-5.202,1.301-5.202,4.36c0,2.853,1.427,4.278,4.32,4.278
			c3.648,0,5.955-2.768,5.955-6.625V48.196z"/>
		<path fill="#121212" d="M436.347,58.262l-12.413-21.347c-0.881-1.509-1.719-3.229-2.058-4.026l-0.209-0.588h-0.126
			c0.126,1.511,0.209,3.649,0.209,6.375v19.585c-0.293,0.168-0.796,0.252-1.467,0.252c-0.544,0-1.09-0.126-1.257-0.167l-0.167-0.085
			V28.569c0.461-0.167,1.047-0.251,1.845-0.251c0.712,0,1.383,0.125,1.678,0.168l0.167,0.085l12.289,21.095
			c0.838,1.468,1.76,3.314,2.138,4.196l0.251,0.67h0.126c-0.167-1.802-0.252-3.858-0.252-6.25V28.569
			c0.293-0.167,0.796-0.251,1.511-0.251c0.629,0,1.092,0.125,1.259,0.168l0.126,0.085v29.692c-0.379,0.167-0.965,0.251-1.763,0.251
			c-0.713,0-1.467-0.125-1.677-0.167L436.347,58.262z"/>
		<path fill="#121212" d="M462.369,48.448h-13.294c0.293,5.577,2.306,7.801,6.501,7.801c1.885,0,3.815-0.545,4.528-1.006
			l0.588-0.378c0.671,0.545,1.047,1.258,1.09,2.224c-0.167,0.126-0.419,0.334-0.754,0.545c-0.334,0.209-1.091,0.462-2.266,0.796
			c-1.173,0.335-2.431,0.504-3.775,0.504c-6.039,0-9.059-3.859-9.059-11.576c0-7.674,3.439-11.323,9.017-11.323
			c5.034,0,7.885,3.019,7.885,8.093c0,1.551-0.167,3.146-0.335,3.816L462.369,48.448z M454.946,38.509
			c-3.69,0-5.661,2.558-5.871,7.675h10.651c0.084-0.588,0.126-1.384,0.126-2.391C459.852,40.647,458.343,38.509,454.946,38.509z"/>
		<path fill="#121212" d="M471.217,28.61v3.063c-0.378,0.125-0.965,0.208-1.719,0.208c-0.673,0-1.342-0.125-1.552-0.168l-0.169-0.04
			V28.61c0.379-0.125,0.924-0.208,1.721-0.208L471.217,28.61z M471.007,36.663v21.64c-0.335,0.126-0.838,0.208-1.51,0.208
			c-0.673,0-1.218-0.041-1.385-0.167l-0.126-0.042v-21.64c0.293-0.126,0.797-0.209,1.511-0.209L471.007,36.663z"/>
		<path fill="#121212" d="M483.626,36.034c2.224,0,4.277,0.419,5.074,0.755l0.587,0.294c0.042,0.964-0.209,1.676-0.838,2.223
			c-1.342-0.461-2.852-0.714-4.489-0.714c-3.312,0-4.99,1.216-4.99,3.691c0,0.713,0.251,1.342,0.755,1.846
			c1.006,1.007,2.139,1.3,4.15,1.931l0.335,0.084c1.51,0.46,2.18,0.671,3.398,1.384c1.718,0.88,2.769,2.349,2.769,4.947
			c0,4.069-2.644,6.459-7.676,6.459c-2.473,0-4.949-0.587-5.955-1.091l-0.753-0.335c-0.042-0.964,0.208-1.72,0.837-2.265
			c1.803,0.713,3.731,1.047,5.703,1.047c2.978,0,4.823-1.216,4.823-3.73c0-1.468-0.881-2.56-2.6-3.272
			c-0.42-0.167-1.301-0.46-2.643-0.839c-1.803-0.503-2.811-0.923-4.109-1.804c-1.3-0.881-1.971-2.35-1.971-4.235
			C476.037,38.509,478.635,36.034,483.626,36.034z"/>
		<path fill="#121212" d="M499.985,38.844v12.037c0,4.026,1.132,5.535,4.445,5.535l2.054-0.209c0.169,0.336,0.252,0.756,0.252,1.258
			l-0.167,1.133c-0.755,0.208-1.719,0.335-2.937,0.335c-4.823,0-6.668-2.601-6.668-7.927V38.845h-3.27
			c-0.128-0.293-0.21-0.672-0.21-1.175c0-0.503,0.041-0.923,0.168-1.09l0.042-0.126h3.27v-3.985c0.797-0.544,1.803-0.756,3.02-0.671
			v4.656h5.996c0.126,0.293,0.21,0.671,0.21,1.174l-0.21,1.216H499.985z"/>
		<path fill="#121212" d="M509.551,47.484c0-4.027,0.753-6.919,2.264-8.724c1.551-1.803,3.774-2.725,6.708-2.725
			s5.157,0.921,6.671,2.725c1.551,1.805,2.305,4.697,2.305,8.724c0,4.026-0.754,6.962-2.305,8.765
			c-1.514,1.804-3.735,2.685-6.671,2.685c-2.937,0-5.158-0.881-6.708-2.685C510.304,54.445,509.551,51.511,509.551,47.484z
			 M524.396,47.484c0-3.315-0.505-5.661-1.51-7.004c-0.964-1.384-2.432-2.056-4.362-2.056c-1.929,0-3.396,0.671-4.401,2.056
			c-0.966,1.343-1.469,3.689-1.469,7.004c0,3.312,0.505,5.662,1.469,7.044c1.005,1.343,2.473,2.014,4.401,2.014
			c1.93,0,3.398-0.671,4.362-2.014C523.891,53.146,524.396,50.796,524.396,47.484z"/>
		<path fill="#121212" d="M533.368,36.663l5.242,14.342c0.504,1.343,0.964,3.021,1.131,3.732l0.128,0.589h0.124
			c0.295-1.301,0.754-2.726,1.301-4.278l5.241-14.385c0.295-0.126,0.755-0.209,1.386-0.209l1.468,0.209l-7.801,21.64
			c-0.463,0.126-1.05,0.208-1.719,0.208l-1.721-0.208l-7.968-21.64c0.379-0.126,0.88-0.209,1.595-0.209
			c0.669,0,1.256,0.042,1.467,0.167L533.368,36.663z"/>
		<path fill="#121212" d="M561.02,36.034c2.893,0,4.865,0.671,5.956,2.056c1.091,1.343,1.636,3.481,1.636,6.417v13.798
			c-0.251,0.125-0.67,0.208-1.219,0.208l-1.214-0.208l-0.461-3.146c-1.219,2.517-3.565,3.774-7.046,3.774
			c-3.984,0-6.501-2.39-6.501-6.712c0-4.36,2.643-6.542,7.927-6.542c1.803,0,3.607,0.126,5.494,0.336v-2.265
			c0-3.565-1.469-5.116-4.949-5.116c-1.845,0-4.07,0.419-5.116,0.755l-0.753,0.294c-0.295-0.126-0.507-0.461-0.716-0.923
			c-0.125-0.334-0.21-0.753-0.21-1.3C555.987,36.496,558.379,36.034,561.02,36.034z M565.594,48.196
			c-2.559-0.209-4.278-0.334-5.075-0.334c-3.523,0-5.2,1.301-5.2,4.36c0,2.853,1.424,4.278,4.319,4.278
			c3.65,0,5.956-2.768,5.956-6.625V48.196z"/>
		<path fill="#121212" d="M315.636,114.264c-0.315,0.107-0.733,0.177-1.257,0.177c-0.525,0-0.979-0.035-1.118-0.142l-0.141-0.035
			v-12.827c0-2.412-1.257-3.636-3.774-3.636c-1.958,0-3.879,1.224-4.893,3.181v13.282c-0.28,0.104-0.701,0.174-1.258,0.174
			c-0.526,0-0.979-0.034-1.12-0.14l-0.139-0.034V96.229c0.244-0.104,0.663-0.174,1.259-0.174l1.258,0.174v2.203
			c1.432-1.819,3.391-2.728,5.802-2.728c3.354,0,5.382,2.061,5.382,5.244V114.264L315.636,114.264z"/>
		<path fill="#121212" d="M333.78,106.051H322.7c0.245,4.647,1.923,6.501,5.419,6.501c1.573,0,3.18-0.455,3.774-0.84l0.489-0.314
			c0.56,0.455,0.874,1.048,0.909,1.853c-0.141,0.105-0.351,0.279-0.63,0.454c-0.279,0.174-0.908,0.385-1.886,0.664
			c-0.979,0.278-2.028,0.418-3.146,0.418c-5.034,0-7.549-3.216-7.549-9.646c0-6.395,2.866-9.436,7.515-9.436
			c4.194,0,6.571,2.517,6.571,6.745c0,1.293-0.14,2.624-0.279,3.181L333.78,106.051z M327.594,97.766
			c-3.076,0-4.719,2.133-4.894,6.398h8.878c0.07-0.489,0.105-1.153,0.105-1.993C331.683,99.55,330.424,97.766,327.594,97.766z"/>
		<path fill="#121212" d="M341.211,89.519v2.55c-0.315,0.105-0.804,0.175-1.432,0.175c-0.56,0-1.119-0.103-1.293-0.14l-0.141-0.035
			v-2.55c0.315-0.104,0.771-0.174,1.435-0.174L341.211,89.519z M341.037,96.229v18.035c-0.279,0.104-0.699,0.174-1.257,0.174
			c-0.56,0-1.013-0.034-1.153-0.14l-0.104-0.034V96.229c0.244-0.104,0.664-0.174,1.257-0.174L341.037,96.229z"/>
		<path fill="#121212" d="M351.613,95.704c1.853,0,3.566,0.351,4.23,0.629l0.488,0.245c0.035,0.804-0.175,1.398-0.699,1.854
			c-1.119-0.385-2.377-0.596-3.741-0.596c-2.761,0-4.159,1.013-4.159,3.076c0,0.594,0.209,1.119,0.63,1.537
			c0.837,0.839,1.783,1.085,3.459,1.61l0.279,0.068c1.258,0.384,1.817,0.56,2.832,1.154c1.434,0.733,2.306,1.956,2.306,4.122
			c0,3.392-2.202,5.382-6.396,5.382c-2.061,0-4.124-0.488-4.962-0.908l-0.628-0.279c-0.035-0.803,0.174-1.431,0.698-1.887
			c1.504,0.593,3.112,0.874,4.755,0.874c2.48,0,4.019-1.013,4.019-3.111c0-1.224-0.734-2.132-2.167-2.727
			c-0.35-0.14-1.083-0.386-2.203-0.699c-1.502-0.419-2.342-0.769-3.425-1.504c-1.083-0.732-1.643-1.955-1.643-3.528
			C345.288,97.766,347.454,95.704,351.613,95.704z"/>
		<path fill="#121212" d="M365.297,98.047v10.03c0,3.355,0.944,4.613,3.705,4.613l1.712-0.175c0.14,0.282,0.209,0.631,0.209,1.051
			l-0.141,0.944c-0.629,0.173-1.434,0.278-2.447,0.278c-4.019,0-5.556-2.168-5.556-6.605V98.047h-2.726
			c-0.104-0.245-0.174-0.56-0.174-0.979c0-0.419,0.034-0.768,0.139-0.908l0.035-0.104h2.726v-3.322
			c0.663-0.456,1.503-0.63,2.516-0.56v3.88h4.998c0.104,0.244,0.175,0.559,0.175,0.979l-0.175,1.014H365.297z"/>
		<path fill="#121212" d="M373.33,105.248c0-3.356,0.627-5.769,1.887-7.272c1.293-1.502,3.147-2.272,5.593-2.272
			s4.299,0.77,5.557,2.272c1.294,1.503,1.923,3.915,1.923,7.272c0,3.354-0.627,5.8-1.923,7.304c-1.257,1.503-3.11,2.234-5.557,2.234
			s-4.298-0.732-5.593-2.234C373.958,111.048,373.33,108.603,373.33,105.248z M385.703,105.248c0-2.762-0.419-4.72-1.257-5.838
			c-0.804-1.153-2.027-1.713-3.636-1.713s-2.832,0.56-3.67,1.713c-0.804,1.119-1.223,3.075-1.223,5.838
			c0,2.759,0.419,4.718,1.223,5.869c0.838,1.121,2.062,1.681,3.67,1.681s2.832-0.56,3.636-1.681
			C385.283,109.966,385.703,108.007,385.703,105.248z"/>
		<path fill="#121212" d="M393.243,96.229l4.369,11.952c0.419,1.12,0.804,2.518,0.943,3.109l0.106,0.491h0.103
			c0.246-1.083,0.629-2.272,1.084-3.565l4.37-11.988c0.244-0.105,0.629-0.175,1.153-0.175l1.223,0.175l-6.501,18.033
			c-0.385,0.105-0.874,0.177-1.433,0.177l-1.433-0.177l-6.642-18.033c0.315-0.105,0.734-0.175,1.33-0.175
			c0.559,0,1.047,0.034,1.222,0.141L393.243,96.229z"/>
		<path fill="#121212" d="M416.342,95.704c2.412,0,4.055,0.559,4.963,1.712c0.911,1.119,1.364,2.9,1.364,5.35v11.498
			c-0.209,0.104-0.561,0.174-1.013,0.174l-1.014-0.174l-0.385-2.624c-1.014,2.1-2.972,3.146-5.873,3.146
			c-3.318,0-5.418-1.99-5.418-5.592c0-3.635,2.203-5.454,6.606-5.454c1.504,0,3.007,0.107,4.58,0.282v-1.887
			c0-2.972-1.224-4.264-4.125-4.264c-1.538,0-3.39,0.349-4.263,0.629l-0.629,0.245c-0.245-0.104-0.419-0.386-0.595-0.77
			c-0.103-0.28-0.173-0.628-0.173-1.084C412.148,96.089,414.141,95.704,416.342,95.704z M420.153,105.84
			c-2.132-0.175-3.565-0.277-4.229-0.277c-2.937,0-4.335,1.08-4.335,3.635c0,2.376,1.189,3.566,3.602,3.566
			c3.041,0,4.963-2.308,4.963-5.525v-1.398H420.153z"/>
		<path fill="#121212" d="M448.845,111.468c-2.097,0-3.425-0.77-3.95-2.343c-0.873,1.573-2.376,2.343-4.507,2.343
			c-3.671,0-5.523-2.236-5.523-6.747c0-4.509,1.852-6.779,5.523-6.779c1.851,0,3.25,0.595,4.158,1.818v-1.679
			c0.245-0.14,0.594-0.208,1.084-0.208c0.419,0,0.838,0.105,0.978,0.14l0.105,0.07v8.67c0,1.992,0.734,2.971,2.203,2.971
			c2.235,0,3.879-1.956,3.879-5.871c0-3.496-1.013-6.291-3.039-8.355c-1.994-2.062-4.792-3.11-8.355-3.11
			c-3.53,0-6.396,1.12-8.562,3.321c-2.166,2.202-3.25,5.208-3.25,8.982c0,4.055,1.329,7.271,3.53,9.192
			c2.202,1.852,4.893,2.797,8.073,2.797c3.357,0,6.503-0.945,9.473-2.797c0.525,0.245,0.84,0.663,0.875,1.329
			c-3.111,2.202-6.676,3.286-10.697,3.286c-3.634,0-6.919-1.154-9.438-3.392c-2.517-2.204-4.087-5.909-4.087-10.416
			c0-4.264,1.328-7.654,3.949-10.206c2.621-2.551,6.011-3.81,10.136-3.81c4.229,0,7.515,1.188,9.891,3.599
			c2.412,2.413,3.602,5.594,3.602,9.579C454.892,108.636,452.656,111.468,448.845,111.468z M441.086,109.79
			c2.062,0,3.355-1.5,3.46-3.354v-3.392c-0.035-1.853-1.364-3.424-3.46-3.424c-2.413,0-3.846,1.189-3.846,5.101
			C437.242,108.113,438.535,109.79,441.086,109.79z"/>
		<path fill="#121212" d="M474.147,95.739c0.279,0.701,0.279,1.4,0,2.133l-3.145,0.07c0.803,1.013,1.222,2.307,1.222,3.915
			c0,3.879-2.375,6.116-6.606,6.116c-0.804,0-1.398-0.071-1.853-0.175c-0.665,0.875-0.979,1.714-0.943,2.588
			c0.105,1.291,1.887,1.746,4.089,1.992c3.146,0.211,7.27,0.874,7.2,4.963c0,3.392-3.25,5.838-8.736,5.838
			c-4.79,0-7.167-1.993-7.167-4.963c0-2.761,2.203-4.44,3.075-5.032c-0.523-0.526-0.804-1.225-0.804-2.029
			c0-1.224,0.561-2.481,1.643-3.844c-2.062-0.945-3.113-2.763-3.113-5.453c0-3.81,2.413-6.152,6.607-6.152
			c1.433,0,2.691,0.279,3.776,0.839L474.147,95.739z M469.429,115.069c-0.664-0.176-1.361-0.28-2.098-0.386
			c-1.396-0.141-3.426-0.349-4.508-0.733c-1.399,0.979-2.098,2.236-2.098,3.773c0,2.202,1.643,3.566,4.721,3.566
			c3.808,0,6.22-1.468,6.22-3.669C471.666,116.258,470.828,115.452,469.429,115.069z M465.62,97.557
			c-2.517,0-4.125,1.468-4.125,4.263c0,2.795,1.607,4.3,4.125,4.3c2.55,0,4.125-1.468,4.125-4.3
			C469.743,99.025,468.17,97.557,465.62,97.557z"/>
		<path fill="#121212" d="M496.658,95.704c3.216,0,5.068,2.027,5.068,5.244v13.315c-0.279,0.107-0.698,0.177-1.259,0.177
			c-0.524,0-0.979-0.035-1.153-0.142l-0.104-0.035v-12.827c0-2.412-1.154-3.636-3.461-3.636c-1.852,0-3.634,1.119-4.614,3.217
			v13.246c-0.278,0.107-0.699,0.177-1.258,0.177c-0.524,0-0.98-0.035-1.119-0.142l-0.141-0.035v-12.827
			c0-2.412-1.154-3.636-3.461-3.636c-1.817,0-3.599,1.224-4.577,3.181v13.282c-0.281,0.104-0.7,0.174-1.26,0.174
			c-0.522,0-0.979-0.034-1.118-0.14l-0.141-0.034V96.229c0.247-0.104,0.666-0.174,1.259-0.174l1.26,0.174v2.167
			c1.362-1.783,3.18-2.691,5.487-2.691c2.342,0,3.88,1.013,4.615,3.041C492.115,96.718,494.106,95.704,496.658,95.704z"/>
		<path fill="#121212" d="M513.114,95.704c2.412,0,4.054,0.559,4.963,1.712c0.909,1.119,1.364,2.9,1.364,5.35v11.498
			c-0.209,0.104-0.561,0.174-1.015,0.174l-1.013-0.174l-0.385-2.624c-1.015,2.1-2.973,3.146-5.873,3.146
			c-3.321,0-5.417-1.99-5.417-5.592c0-3.635,2.202-5.454,6.606-5.454c1.502,0,3.006,0.107,4.579,0.282v-1.887
			c0-2.972-1.224-4.264-4.125-4.264c-1.538,0-3.391,0.349-4.264,0.629l-0.627,0.245c-0.246-0.104-0.421-0.386-0.595-0.77
			c-0.105-0.28-0.175-0.628-0.175-1.084C508.919,96.089,510.912,95.704,513.114,95.704z M516.924,105.84
			c-2.132-0.175-3.566-0.277-4.23-0.277c-2.935,0-4.333,1.08-4.333,3.635c0,2.376,1.188,3.566,3.601,3.566
			c3.041,0,4.965-2.308,4.965-5.525v-1.398H516.924z"/>
		<path fill="#121212" d="M527.332,89.519v2.55c-0.315,0.105-0.805,0.175-1.433,0.175c-0.56,0-1.118-0.103-1.293-0.14l-0.141-0.035
			v-2.55c0.315-0.104,0.77-0.174,1.434-0.174L527.332,89.519z M527.155,96.229v18.035c-0.277,0.104-0.696,0.174-1.256,0.174
			s-1.015-0.034-1.155-0.14l-0.104-0.034V96.229c0.245-0.104,0.666-0.174,1.26-0.174L527.155,96.229z"/>
		<path fill="#121212" d="M535.039,88.4v25.864c-0.279,0.107-0.699,0.177-1.258,0.177c-0.56,0-1.015-0.035-1.154-0.142l-0.104-0.035
			V88.4c0.244-0.104,0.665-0.175,1.259-0.175L535.039,88.4z"/>
		<path fill="#121212" d="M543.122,111.712v2.552c-0.315,0.104-0.806,0.174-1.433,0.174c-0.561,0-1.119-0.034-1.293-0.14
			l-0.14-0.034v-2.552c0.313-0.104,0.768-0.175,1.433-0.175L543.122,111.712z"/>
		<path fill="#121212" d="M549.582,105.248c0,4.996,1.714,7.304,5.487,7.304c1.224,0,2.45-0.316,3.009-0.49l0.385-0.176
			c0.488,0.386,0.768,1.015,0.803,1.854c-1.082,0.698-2.655,1.047-4.789,1.047c-4.893,0-7.514-3.354-7.514-9.54
			c0-6.188,2.621-9.542,7.514-9.542c1.819,0,3.428,0.351,3.986,0.629l0.417,0.208c0,0.806-0.242,1.434-0.768,1.889
			c-0.803-0.385-1.887-0.595-3.181-0.595C551.261,97.837,549.582,100.214,549.582,105.248z"/>
		<path fill="#121212" d="M561.893,105.248c0-3.356,0.628-5.769,1.886-7.272c1.292-1.502,3.146-2.272,5.592-2.272
			c2.447,0,4.3,0.77,5.56,2.272c1.291,1.503,1.923,3.915,1.923,7.272c0,3.354-0.631,5.8-1.923,7.304
			c-1.26,1.503-3.112,2.234-5.56,2.234c-2.446,0-4.3-0.732-5.592-2.234C562.521,111.048,561.893,108.603,561.893,105.248z
			 M574.264,105.248c0-2.762-0.419-4.72-1.258-5.838c-0.804-1.153-2.026-1.713-3.636-1.713c-1.605,0-2.83,0.56-3.669,1.713
			c-0.804,1.119-1.223,3.075-1.223,5.838c0,2.759,0.419,4.718,1.223,5.869c0.84,1.121,2.063,1.681,3.669,1.681
			c1.609,0,2.832-0.56,3.636-1.681C573.845,109.966,574.264,108.007,574.264,105.248z"/>
		<path fill="#121212" d="M600.008,95.704c3.215,0,5.068,2.027,5.068,5.244v13.315c-0.28,0.107-0.7,0.177-1.26,0.177
			c-0.523,0-0.979-0.035-1.154-0.142l-0.103-0.035v-12.827c0-2.412-1.155-3.636-3.462-3.636c-1.854,0-3.636,1.119-4.615,3.217
			v13.246c-0.277,0.107-0.697,0.177-1.257,0.177c-0.524,0-0.98-0.035-1.119-0.142l-0.141-0.035v-12.827
			c0-2.412-1.155-3.636-3.461-3.636c-1.816,0-3.6,1.224-4.578,3.181v13.282c-0.279,0.104-0.698,0.174-1.257,0.174
			c-0.525,0-0.979-0.034-1.12-0.14l-0.141-0.034V96.229c0.246-0.104,0.667-0.174,1.261-0.174l1.257,0.174v2.167
			c1.364-1.783,3.184-2.691,5.489-2.691c2.342,0,3.88,1.013,4.614,3.041C595.464,96.718,597.455,95.704,600.008,95.704z"/>
		<path fill="#121212" d="M308.017,142.961l0.069,0.105l-0.489,0.731c-0.176,0.317-0.525,1.052-1.049,2.133
			c-1.012,2.132-1.748,4.195-2.412,7.831c-0.593,3.599-0.593,7.234,0,10.834c0.875,5.138,2.622,8.355,3.496,9.962l0.454,0.736
			c-0.14,0.312-0.418,0.558-0.804,0.769c-0.386,0.175-0.769,0.277-0.945,0.277h-0.14l-0.559-0.873
			c-0.209-0.351-0.595-1.119-1.189-2.342c-1.154-2.376-2.027-4.613-2.762-8.354c-0.697-3.775-0.697-7.411,0-11.149
			c1.013-5.382,2.973-8.984,3.985-10.802l0.523-0.805c0.315-0.033,0.664,0.07,1.049,0.279
			C307.633,142.472,307.912,142.788,308.017,142.961z"/>
		<path fill="#121212" d="M314.7,161.205h-5.068c-0.105-0.241-0.174-0.559-0.174-0.978l0.174-0.979h5.068v-5.101
			c0.244-0.106,0.559-0.141,0.979-0.141l0.979,0.141v5.101h5.103c0.104,0.243,0.139,0.562,0.139,0.979l-0.139,0.978h-5.103v5.069
			c-0.246,0.104-0.56,0.173-0.979,0.173l-0.979-0.173V161.205z"/>
		<path fill="#121212" d="M329.806,170.712c-2.203,0-4.371-0.487-5.244-0.908l-0.664-0.279c-0.035-0.77,0.174-1.396,0.664-1.885
			c1.574,0.559,3.285,0.839,5.068,0.839c3.914,0,5.872-1.54,5.872-4.649c0-3.248-1.888-4.859-5.663-4.859h-2.167
			c-0.315-0.699-0.315-1.4,0-2.098h2.167c3.32,0,4.963-1.435,4.963-4.298c0-2.798-1.677-4.194-5.034-4.194
			c-1.643,0-3.39,0.349-4.124,0.628l-0.594,0.206c-0.629-0.419-0.909-1.013-0.837-1.815c1.537-0.771,3.459-1.154,5.802-1.154
			c4.718,0,7.34,2.235,7.34,5.978c0,2.901-1.154,4.786-3.461,5.661c2.797,0.875,4.194,2.971,4.194,6.291
			C338.089,168.129,335.573,170.712,329.806,170.712z"/>
		<path fill="#121212" d="M342.292,164.632c0-2.832,1.571-5.102,4.719-6.885c-2.622-1.433-3.949-3.319-3.949-5.732
			c0-3.533,2.726-5.766,7.166-5.766c4.369,0,7.095,2.131,7.095,5.63c0,2.549-1.257,4.612-3.774,6.15
			c3.041,1.503,4.789,3.216,4.789,6.396c0,3.915-2.97,6.29-8.179,6.29C345.228,170.712,342.292,168.369,342.292,164.632z
			 M355.749,164.525c0.14-1.398-0.804-2.585-1.678-3.283c-0.246-0.246-0.629-0.489-1.189-0.77c-0.56-0.314-0.979-0.524-1.223-0.63
			c-0.245-0.142-0.769-0.351-1.503-0.629l-1.397-0.593c-2.657,1.572-3.984,3.529-3.984,5.872c0,2.517,1.923,4.158,5.523,4.158
			C353.687,168.65,355.749,167.008,355.749,164.525z M345.542,151.84c0,1.083,0.56,2.098,1.084,2.69
			c0.244,0.279,0.698,0.596,1.327,0.978c0.665,0.353,1.12,0.596,1.433,0.735c0.314,0.105,0.874,0.349,1.712,0.698
			c0.314,0.106,0.523,0.208,0.664,0.279c2.132-1.434,3.181-3.144,3.181-5.137c0-2.411-1.783-3.844-4.718-3.844
			C347.324,148.24,345.542,149.636,345.542,151.84z"/>
		<path fill="#121212" d="M362.427,158.481c0-8.426,2.866-12.234,8.459-12.234c5.627,0,8.563,3.737,8.563,12.234
			c0,8.492-2.936,12.23-8.563,12.23C365.294,170.712,362.427,166.974,362.427,158.481z M365.118,158.481
			c0,7.234,1.853,10.065,5.768,10.065c4.02,0,5.801-2.798,5.801-10.065c0-3.672-0.455-6.257-1.397-7.76
			c-0.945-1.538-2.412-2.31-4.404-2.31C366.971,148.412,365.118,151.21,365.118,158.481z"/>
		<path fill="#121212" d="M405.07,148.658c-5.454,0.595-8.775,3.109-9.788,8.423c1.782-0.838,3.494-1.258,5.102-1.258
			c4.3,0,7.167,2.378,7.167,7.445c0,4.86-2.938,7.443-7.656,7.443c-4.718,0-7.619-3.04-7.619-9.329
			c0-9.473,4.684-14.262,12.792-14.785C405.384,147.262,405.384,147.924,405.07,148.658z M400.038,157.886
			c-1.539,0-3.215,0.489-5.068,1.504c-0.07,0.661-0.106,1.363-0.106,2.132c0,4.857,1.959,7.165,5.035,7.165
			c3.042,0,4.998-1.89,4.998-5.418C404.896,159.632,403.009,157.886,400.038,157.886z"/>
		<path fill="#121212" d="M410.151,146.597h14.332c0.104,0.419,0.174,0.907,0.174,1.433c-0.07,3.566-1.712,6.22-3.529,8.633
			c-1.259,1.68-2.551,3.496-3.565,5.558c-1.015,1.993-1.714,4.823-1.714,8.005c-0.663,0.104-1.047,0.139-1.187,0.139
			c-0.106,0-0.56-0.032-1.293-0.139c0-4.476,1.223-8.25,2.797-10.732c2.305-3.562,5.417-6.64,5.906-10.591h-11.92
			c-0.14-0.277-0.209-0.661-0.209-1.151c0-0.456,0.071-0.874,0.176-1.015L410.151,146.597z"/>
		<path fill="#121212" d="M427.021,143.066c0.14-0.278,0.419-0.524,0.805-0.771c0.386-0.172,0.77-0.279,0.944-0.279h0.14
			c0.14,0.178,0.315,0.456,0.524,0.842c0.244,0.383,0.628,1.15,1.189,2.341c1.153,2.377,2.026,4.615,2.724,8.387
			c0.735,3.775,0.735,7.411,0.035,11.149c-0.908,5.316-3.008,9.021-3.95,10.801l-0.524,0.805c-0.314,0.037-0.697-0.069-1.083-0.277
			c-0.385-0.178-0.629-0.491-0.735-0.667l-0.07-0.102l0.453-0.736c0.209-0.312,0.559-1.047,1.085-2.132
			c1.013-2.132,1.783-4.195,2.375-7.794c0.665-3.636,0.629-7.303,0.035-10.834c-0.874-5.208-2.621-8.388-3.495-9.998
			L427.021,143.066z"/>
		<path fill="#121212" d="M447.712,149.358c-0.592-0.457-0.838-1.049-0.733-1.854c1.747-0.838,3.879-1.257,6.43-1.257
			c4.334,0,7.271,1.956,7.271,6.188c0,1.643-0.525,3.04-1.119,3.983c-0.281,0.453-0.77,0.942-1.468,1.5
			c-0.664,0.563-1.257,1.016-1.783,1.331c-0.49,0.313-1.258,0.802-2.305,1.434l-1.189,0.699c-0.629,0.383-1.048,0.628-1.291,0.801
			c-0.246,0.142-0.595,0.423-1.084,0.843c-0.49,0.384-0.839,0.769-1.047,1.08c-0.422,0.666-0.875,1.751-0.875,2.902
			c0,0.525,0.07,1.013,0.07,1.05h11.535c0.14,0.279,0.208,0.662,0.208,1.151c0,0.456-0.07,0.842-0.208,1.154h-13.842
			c-0.14-0.731-0.209-1.537-0.209-2.343c0-1.153,0.105-2.234,0.49-3.109c0.42-0.945,0.594-1.574,1.292-2.306
			c0.7-0.735,0.839-1.015,1.783-1.679l1.015-0.699c0.174-0.141,0.559-0.385,1.083-0.735l1.083-0.661
			c0.909-0.596,1.503-1.015,1.818-1.19c0.315-0.21,0.734-0.56,1.329-1.013c0.595-0.488,1.014-0.91,1.188-1.225
			c0.42-0.663,0.873-1.676,0.873-2.899c0-2.411-1.434-4.124-5.034-4.124c-1.677,0-3.634,0.42-4.577,0.733L447.712,149.358z"/>
		<path fill="#121212" d="M470.408,170.712c-2.202,0-4.371-0.487-5.243-0.908l-0.665-0.279c-0.034-0.77,0.176-1.396,0.665-1.885
			c1.573,0.559,3.285,0.839,5.067,0.839c3.915,0,5.872-1.54,5.872-4.649c0-3.248-1.888-4.859-5.663-4.859h-2.167
			c-0.316-0.699-0.316-1.4,0-2.098h2.167c3.321,0,4.963-1.435,4.963-4.298c0-2.798-1.677-4.194-5.034-4.194
			c-1.643,0-3.389,0.349-4.125,0.628l-0.593,0.206c-0.629-0.419-0.909-1.013-0.839-1.815c1.538-0.771,3.461-1.154,5.803-1.154
			c4.717,0,7.34,2.235,7.34,5.978c0,2.901-1.153,4.786-3.46,5.661c2.797,0.875,4.195,2.971,4.195,6.291
			C478.691,168.129,476.175,170.712,470.408,170.712z"/>
		<path fill="#121212" d="M484.762,168.301c5.455-0.558,8.669-3.073,9.752-8.423c-1.712,0.839-3.426,1.258-5.069,1.258
			c-4.298,0-7.13-2.375-7.13-7.444c0-4.86,2.973-7.444,7.621-7.444c4.752,0,7.654,3.04,7.654,9.331
			c0,9.507-4.719,14.263-12.828,14.785C484.483,169.632,484.483,168.965,484.762,168.301z M489.797,159.074
			c1.641,0,3.355-0.49,5.068-1.505c0.069-0.66,0.104-1.396,0.104-2.132c0-4.857-1.958-7.165-5.034-7.165
			c-3.042,0-4.999,1.89-4.999,5.419C484.938,157.327,486.825,159.074,489.797,159.074z"/>
		<path fill="#121212" d="M509.38,161.205h-6.851c-0.104-0.241-0.174-0.559-0.174-0.978l0.174-0.979h6.851
			c0.103,0.243,0.175,0.562,0.175,0.979L509.38,161.205z"/>
		<path fill="#121212" d="M515.756,168.301c5.453-0.558,8.669-3.073,9.751-8.423c-1.713,0.839-3.426,1.258-5.068,1.258
			c-4.299,0-7.129-2.375-7.129-7.444c0-4.86,2.969-7.444,7.619-7.444c4.752,0,7.655,3.04,7.655,9.331
			c0,9.507-4.72,14.263-12.828,14.785C515.478,169.632,515.478,168.965,515.756,168.301z M520.789,159.074
			c1.643,0,3.356-0.49,5.067-1.505c0.07-0.66,0.104-1.396,0.104-2.132c0-4.857-1.955-7.165-5.034-7.165
			c-3.04,0-4.998,1.89-4.998,5.419C515.932,157.327,517.818,159.074,520.789,159.074z"/>
		<path fill="#121212" d="M531.799,146.597h14.331c0.104,0.419,0.174,0.907,0.174,1.433c-0.069,3.566-1.712,6.22-3.527,8.633
			c-1.261,1.68-2.554,3.496-3.566,5.558c-1.014,1.993-1.713,4.823-1.713,8.005c-0.665,0.104-1.048,0.139-1.188,0.139
			c-0.104,0-0.561-0.032-1.293-0.139c0-4.476,1.223-8.25,2.795-10.732c2.306-3.562,5.419-6.64,5.908-10.591H531.8
			c-0.139-0.277-0.206-0.661-0.206-1.151c0-0.456,0.069-0.874,0.174-1.015L531.799,146.597z"/>
		<path fill="#121212" d="M555.665,161.205h-6.851c-0.105-0.241-0.176-0.559-0.176-0.978l0.176-0.979h6.851
			c0.104,0.243,0.175,0.562,0.175,0.979L555.665,161.205z"/>
		<path fill="#121212" d="M559.655,162.114l11.292-15.308c0.279-0.141,0.733-0.209,1.327-0.209c0.524,0,0.944,0.101,1.085,0.139
			l0.141,0.072v15.308h3.355c0.139,0.247,0.209,0.596,0.209,1.048c0,0.421-0.105,0.769-0.142,0.91l-0.068,0.103h-3.356v5.978
			c-0.314,0.143-0.699,0.209-1.224,0.209c-0.452,0-0.942-0.103-1.083-0.139l-0.139-0.071v-5.977h-11.397
			c-0.139-0.211-0.206-0.56-0.206-1.013c0-0.418,0.103-0.804,0.139-0.944L559.655,162.114z M571.053,150.231l-8.738,11.883h8.738
			V150.231z"/>
		<path fill="#121212" d="M585.646,146.807c0.246-0.141,0.665-0.209,1.223-0.209c0.524,0,0.98,0.101,1.154,0.139l0.104,0.072v23.346
			c-0.243,0.143-0.697,0.209-1.292,0.209c-0.523,0-0.979-0.101-1.153-0.139l-0.14-0.071v-15.309c0-1.888,0.068-3.459,0.174-4.683
			c-1.574,1.853-3.67,3.144-6.36,3.809c-0.594-0.595-0.769-1.292-0.594-2.131C581.663,151.07,583.969,149.394,585.646,146.807z"/>
	</g>
	<g>
		<path fill="#121212" d="M36.154,49.939v8.398c-0.234,0.117-0.587,0.176-1.057,0.176s-0.882-0.089-1-0.117l-0.117-0.059V37.371
			h7.428c1.85,0,3.347,0.588,4.434,1.732c1.087,1.146,1.644,2.643,1.644,4.552c0,1.878-0.557,3.406-1.644,4.552
			c-1.087,1.145-2.583,1.732-4.434,1.732H36.154z M36.154,48.061h5.051c2.554,0,3.994-1.645,3.994-4.376
			c0-2.818-1.439-4.464-3.994-4.464h-5.051V48.061z"/>
		<path fill="#121212" d="M51.333,37.371h7.283c3.729,0,6.077,2.379,6.077,6.021c0,2.966-1.555,5.168-4.227,5.785l5.078,9.161
			c-0.293,0.117-0.705,0.176-1.261,0.176c-0.471,0-0.94-0.089-1.145-0.117l-0.119-0.059l-4.933-8.926h-4.58v8.926
			c-0.235,0.117-0.586,0.176-1.057,0.176c-0.47,0-0.882-0.089-1-0.117l-0.117-0.059V37.371z M53.507,39.221v8.34h4.905
			c2.495,0,3.994-1.555,3.994-4.169s-1.499-4.171-3.994-4.171H53.507z"/>
		<path fill="#121212" d="M76.379,37.078c5.168,0,8.075,3.466,8.075,10.866c0,7.252-2.701,10.863-8.075,10.863
			c-5.375,0-8.075-3.611-8.075-10.863C68.305,40.572,71.211,37.078,76.379,37.078z M82.165,47.944c0-3.231-0.5-5.55-1.499-6.931
			c-0.968-1.409-2.408-2.114-4.286-2.114c-1.878,0-3.318,0.705-4.316,2.114c-0.969,1.381-1.469,3.7-1.469,6.931
			c0,3.228,0.5,5.549,1.469,6.958c0.999,1.382,2.438,2.084,4.316,2.084c1.878,0,3.318-0.703,4.286-2.084
			C81.665,53.491,82.165,51.172,82.165,47.944z"/>
		<path fill="#121212" d="M88.959,37.371h6.138c2.877,0,5.021,0.792,6.43,2.408c1.41,1.615,2.116,4.316,2.116,8.165
			c0,3.847-0.706,6.548-2.116,8.162c-1.409,1.616-3.552,2.408-6.43,2.408h-6.138V37.371z M91.131,56.665h3.788
			c1.439,0,2.584-0.235,3.466-0.676c1.791-0.941,2.936-3.494,2.936-8.045c0-3.494-0.558-5.755-1.734-7.018
			c-1.144-1.263-2.524-1.703-4.668-1.703h-3.788V56.665z"/>
		<path fill="#121212" d="M122.294,37.547v14.066c0,4.552-2.819,7.194-7.166,7.194c-4.344,0-7.135-2.701-7.135-7.194V37.547
			c0.265-0.117,0.616-0.177,1.086-0.177c0.44,0,0.852,0.088,0.998,0.119l0.089,0.058v14.388c0,3.17,1.85,5.021,5.021,5.021
			c3.143,0,4.963-1.851,4.963-5.021V37.547c0.234-0.117,0.586-0.177,1.057-0.177c0.44,0,0.823,0.088,0.969,0.119L122.294,37.547z"/>
		<path fill="#121212" d="M139.257,37.782l0.53,0.265c0.031,0.617-0.206,1.174-0.675,1.644c-1.116-0.499-2.467-0.733-4.023-0.733
			c-1.998,0-3.524,0.675-4.582,2.025c-1.057,1.351-1.585,3.67-1.585,6.989c0,3.318,0.53,5.608,1.585,6.929
			c1.058,1.323,2.584,1.966,4.582,1.966c1.526,0,3.143-0.292,3.846-0.526l0.5-0.206c0.41,0.412,0.645,0.97,0.676,1.673
			c-1.204,0.676-2.967,0.999-5.256,0.999c-5.491,0-8.223-3.611-8.223-10.863c0-7.253,2.732-10.866,8.223-10.866
			C136.732,37.078,138.553,37.46,139.257,37.782z"/>
		<path fill="#121212" d="M143.808,37.371h11.657c0.119,0.265,0.177,0.559,0.177,0.882c0,0.382-0.059,0.675-0.177,0.94h-9.485v7.723
			h8.016c0.118,0.264,0.176,0.528,0.176,0.851c0,0.324-0.058,0.646-0.176,0.941h-8.016v7.985h9.778
			c0.118,0.266,0.176,0.559,0.176,0.882c0,0.323-0.058,0.646-0.176,0.939h-11.952V37.371H143.808z"/>
		<path fill="#121212" d="M159.779,37.371h7.284c3.728,0,6.078,2.379,6.078,6.021c0,2.966-1.555,5.168-4.228,5.785l5.079,9.161
			c-0.294,0.117-0.705,0.176-1.262,0.176c-0.471,0-0.94-0.089-1.144-0.117l-0.119-0.059l-4.934-8.926h-4.581v8.926
			c-0.235,0.117-0.586,0.176-1.057,0.176c-0.469,0-0.882-0.089-1-0.117l-0.118-0.059V37.371H159.779z M161.954,39.221v8.34h4.904
			c2.495,0,3.994-1.555,3.994-4.169s-1.499-4.171-3.994-4.171H161.954z"/>
		<path fill="#121212" d="M33.981,93.298h11.656c0.119,0.264,0.178,0.557,0.178,0.88c0,0.383-0.059,0.676-0.178,0.941h-9.484v7.723
			h8.017c0.118,0.265,0.176,0.526,0.176,0.853c0,0.322-0.058,0.644-0.176,0.938h-8.017v7.987h9.778
			c0.117,0.264,0.176,0.558,0.176,0.881s-0.059,0.646-0.176,0.939H33.98V93.298H33.981z"/>
		<path fill="#121212" d="M66.089,93.473c0.44-0.117,0.91-0.177,1.41-0.177c0.499,0,1.057,0.089,1.262,0.119l0.176,0.058v20.788
			c-0.264,0.118-0.616,0.177-1.086,0.177c-0.44,0-0.822-0.088-0.967-0.117l-0.118-0.06v-12.449c0-3.055,0.058-5.022,0.147-5.873
			h-0.089c-0.264,0.823-0.91,2.261-1.997,4.316l-4.904,8.691c-0.205,0.089-0.439,0.118-0.733,0.118l-0.675-0.118l-4.698-8.633
			c-1.117-2.084-1.792-3.524-2.026-4.375H51.7c0.148,0.764,0.234,2.672,0.234,5.725v12.597c-0.206,0.118-0.558,0.177-0.999,0.177
			c-0.382,0-0.764-0.088-0.91-0.117l-0.089-0.06V93.473c0.323-0.117,0.764-0.177,1.321-0.177l1.321,0.177l5.11,9.337
			c0.792,1.557,1.322,2.644,1.526,3.318h0.118c0.117-0.44,0.44-1.175,0.998-2.173L66.089,93.473z"/>
		<path fill="#121212" d="M80.172,93.473c0.324-0.117,0.705-0.177,1.203-0.177c0.471,0,0.91,0.089,1.058,0.119l0.146,0.058
			l7.782,20.788c-0.264,0.118-0.647,0.177-1.206,0.177c-0.44,0-0.82-0.088-0.968-0.117l-0.088-0.06l-2.115-5.608h-9.367
			l-2.144,5.608c-0.235,0.118-0.588,0.177-1.058,0.177c-0.441,0-0.792-0.088-0.91-0.117l-0.117-0.06L80.172,93.473z M81.347,95.823
			h-0.089c-0.117,0.588-0.324,1.263-0.588,2.026l-3.405,8.984h8.076l-3.406-8.984L81.347,95.823z"/>
		<path fill="#121212" d="M93.816,114.264V93.475c0.234-0.117,0.587-0.177,1.085-0.177c0.441,0,0.851,0.088,0.968,0.118l0.118,0.059
			v20.789c-0.265,0.117-0.617,0.177-1.086,0.177s-0.852-0.09-0.969-0.117L93.816,114.264z"/>
		<path fill="#121212" d="M101.248,114.44V93.473c0.265-0.117,0.617-0.177,1.085-0.177c0.441,0,0.851,0.089,0.969,0.119l0.118,0.058
			v19.056h9.191c0.089,0.353,0.147,0.677,0.147,0.94c0,0.265-0.059,0.589-0.147,0.969h-11.363V114.44z"/>
		<path fill="#121212" d="M36.154,161.788v8.398c-0.234,0.117-0.587,0.177-1.057,0.177s-0.882-0.089-1-0.117l-0.117-0.06v-20.964
			h7.428c1.85,0,3.347,0.587,4.434,1.731s1.644,2.643,1.644,4.552c0,1.879-0.557,3.405-1.644,4.551
			c-1.087,1.147-2.583,1.731-4.434,1.731H36.154L36.154,161.788z M36.154,159.909h5.051c2.554,0,3.994-1.643,3.994-4.373
			c0-2.82-1.439-4.463-3.994-4.463h-5.051V159.909z"/>
		<path fill="#121212" d="M63.432,158.56V149.4c0.264-0.117,0.617-0.177,1.086-0.177c0.44,0,0.822,0.089,0.968,0.118l0.118,0.059
			v20.786c-0.235,0.117-0.586,0.177-1.086,0.177c-0.469,0-0.881-0.087-0.999-0.117l-0.088-0.06V160.5h-9.924v9.687
			c-0.265,0.117-0.617,0.177-1.086,0.177c-0.469,0-0.881-0.087-0.999-0.117l-0.088-0.06V149.4c0.264-0.117,0.617-0.177,1.086-0.177
			c0.44,0,0.822,0.089,0.968,0.118l0.117,0.059v9.159H63.432z"/>
		<path fill="#121212" d="M78.185,148.93c5.167,0,8.075,3.462,8.075,10.862c0,7.254-2.701,10.864-8.075,10.864
			c-5.375,0-8.076-3.608-8.076-10.864C70.109,152.423,73.017,148.93,78.185,148.93z M83.969,159.792c0-3.229-0.5-5.552-1.498-6.928
			c-0.969-1.411-2.408-2.115-4.286-2.115c-1.879,0-3.318,0.704-4.317,2.115c-0.968,1.376-1.468,3.698-1.468,6.928
			c0,3.23,0.5,5.55,1.468,6.961c1,1.382,2.438,2.084,4.317,2.084c1.878,0,3.317-0.702,4.286-2.084
			C83.47,165.342,83.969,163.022,83.969,159.792z"/>
		<path fill="#121212" d="M103.01,170.187l-8.691-14.944c-0.617-1.059-1.204-2.261-1.439-2.819l-0.147-0.411h-0.089
			c0.089,1.057,0.148,2.555,0.148,4.464v13.711c-0.207,0.117-0.56,0.177-1.028,0.177c-0.382,0-0.764-0.089-0.882-0.117l-0.117-0.06
			v-20.788c0.323-0.116,0.734-0.176,1.292-0.176c0.5,0,0.969,0.087,1.175,0.118l0.118,0.058l8.602,14.77
			c0.589,1.028,1.233,2.319,1.498,2.937l0.177,0.47h0.088c-0.118-1.263-0.176-2.702-0.176-4.376v-13.8
			c0.206-0.118,0.557-0.178,1.057-0.178c0.44,0,0.764,0.089,0.882,0.118l0.088,0.06v20.786c-0.266,0.117-0.676,0.176-1.234,0.176
			c-0.498,0-1.027-0.087-1.173-0.117L103.01,170.187z"/>
		<path fill="#121212" d="M110.865,149.223h11.657c0.118,0.263,0.177,0.557,0.177,0.881c0,0.381-0.059,0.676-0.177,0.938h-9.485
			v7.723h8.018c0.117,0.265,0.176,0.527,0.176,0.851c0,0.324-0.059,0.646-0.176,0.94h-8.018v7.987h9.778
			c0.118,0.264,0.177,0.559,0.177,0.878c0,0.324-0.059,0.647-0.177,0.939h-11.951v-21.138H110.865z"/>
	</g>
</g>
</svg>
