<?xml version="1.0" encoding="utf-8"?>
<!-- Generator: Adobe Illustrator 16.0.0, SVG Export Plug-In . SVG Version: 6.00 Build 0)  -->
<!DOCTYPE svg PUBLIC "-//W3C//DTD SVG 1.1//EN" "http://www.w3.org/Graphics/SVG/1.1/DTD/svg11.dtd">
<svg version="1.1" id="Layer_1" xmlns="http://www.w3.org/2000/svg" xmlns:xlink="http://www.w3.org/1999/xlink" x="0px" y="0px"
	 width="775.216px" height="200px" viewBox="0 0 775.216 200" enable-background="new 0 0 775.216 200" xml:space="preserve">
<g>
	<path d="M357.104,161.987L356.995,0h-35.174v178.32L218.741,0h-34.309v200h336.622V0h-34.358L357.104,161.987z M486.695,171.737
		h-93.097l93.097-115.07V171.737z"/>
	<path d="M171.745,68.706c0-19.023-6.694-35.215-20.086-48.62C138.249,6.691,122.043,0,103.047,0h-34.35
		C49.686,0,33.496,6.691,20.085,20.085C6.694,33.491,0,49.683,0,68.706h34.339c0-9.392,3.381-17.483,10.14-24.239
		c6.765-6.735,14.82-10.13,24.218-10.13h34.35c9.381,0,17.453,3.395,24.218,10.13c6.749,6.756,10.141,14.847,10.141,24.239
		c0,9.381-3.392,17.45-10.141,24.196c-6.765,6.768-14.836,10.151-24.218,10.151h-34.35V137.4h34.35
		c9.381,0,17.453,3.373,24.218,10.119c6.749,6.768,10.141,14.848,10.141,24.218c0,9.381-3.392,17.461-10.141,24.229
		c-1.54,1.54-3.175,2.842-4.856,4.034h43.428c3.899-8.6,5.908-18.014,5.908-28.263c0-20.606-7.784-37.764-23.353-51.526
		C163.961,106.469,171.745,89.29,171.745,68.706z"/>
	<polygon points="706.531,25.075 706.531,0 681.349,0 621.818,103.053 569.143,103.053 569.143,0 534.795,0 534.795,200 
		697.649,200 651.557,120.21 	"/>
	<polygon points="706.521,50.843 706.521,85.863 740.857,85.863 740.857,200 775.216,200 775.216,0 740.857,0 	"/>
</g>
</svg>
