<?xml version="1.0" encoding="utf-8"?>
<!-- Generator: Adobe Illustrator 16.0.0, SVG Export Plug-In . SVG Version: 6.00 Build 0)  -->
<!DOCTYPE svg PUBLIC "-//W3C//DTD SVG 1.1//EN" "http://www.w3.org/Graphics/SVG/1.1/DTD/svg11.dtd">
<svg version="1.1" id="Layer_1" xmlns="http://www.w3.org/2000/svg" xmlns:xlink="http://www.w3.org/1999/xlink" x="0px" y="0px"
	 width="206.52px" height="290px" viewBox="0 0 206.52 290" enable-background="new 0 0 206.52 290" xml:space="preserve">
<g>
	<g>
		<path d="M0.044,225.892h4.994v63.564H0.044V225.892z M13.938,255.948l31.327,33.508h-6.447L8.035,256.312l29.875-30.42h6.085
			L13.938,255.948z"/>
		<path d="M85.354,261.668v27.788h-4.994v-27.788l-22.61-35.776h5.812l19.522,31.055l19.613-31.055h5.54L85.354,261.668z"/>
		<path d="M125.786,225.892h4.994v63.564h-4.994V225.892z"/>
		<path d="M178.93,290h-3.541l-27.331-64.108h5.357l23.881,56.479l23.247-56.479h5.084L178.93,290z"/>
	</g>
	<g>
		<g>
			<path d="M0,202.69v-11.884h205.627v11.884H0z"/>
		</g>
	</g>
	<g>
		<path d="M0,166.425v-11.887h52.007v11.887H0z"/>
		<path d="M52.007,107.079l-31.204,24.667h31.204v11.145H0v-9.51l31.352-24.666H0V97.569h52.007V107.079z"/>
		<path d="M0,92.02V48.93h11.145v15.603h40.862v11.887H11.145V92.02H0z"/>
		<path d="M0,43.381V12.547h11.145v18.946h9.138V14.778h11.144v16.716h9.436V11.806h11.145v31.575H0z"/>
		<path d="M128.817,167.169H76.81c0-2.899-0.147-16.196-0.147-17.683c0-14.19,7.057-19.245,16.642-19.245
			c9.658,0,13.596,5.945,15.008,8.768l20.506-15.156v14.412l-18.203,12.631v4.383h18.203V167.169z M87.955,155.279H99.47v-4.307
			c0-4.534-1.635-8.1-6.018-8.1c-2.897,0-5.646,1.486-5.646,7.206C87.806,151.863,87.88,152.829,87.955,155.279z"/>
		<path d="M76.81,118.648V87.815h11.146v18.944h9.137V90.043h11.145v16.716h9.436V87.071h11.146v31.577H76.81z"/>
		<path d="M90.927,80.014c-8.024,0-15.008-6.389-15.008-16.789c0-6.686,2.229-12.038,5.72-15.305l8.916,6.389
			c-2.155,2.304-3.492,4.011-3.492,7.875c0,3.27,1.486,5.203,3.864,5.203c8.618,0,6.538-21.694,23.478-21.694
			c9.063,0,15.304,7.799,15.304,17.829c0,6.984-2.972,15.083-8.544,17.609l-8.099-6.762c3.789-2.97,5.499-7.504,5.499-11.143
			c0-3.121-1.561-4.905-4.012-4.905C106.751,58.319,107.717,80.014,90.927,80.014z"/>
		<path d="M76.81,43.09V0h11.146v15.604h40.862v11.886H87.955V43.09H76.81z"/>
		<path d="M153.621,166.425v-11.887h52.006v11.887H153.621z"/>
		<path d="M205.627,107.079l-31.203,24.667h31.203v11.145h-52.006v-9.51l31.353-24.666h-31.353V97.569h52.006V107.079z"/>
		<path d="M175.983,64.181V41.968h23.181c4.605,4.607,7.355,13.001,7.355,19.466c0,17.831-10.699,27.86-26.896,27.86
			c-14.933,0-26.896-10.029-26.896-26.375c0-7.726,2.081-12.779,5.424-17.014l9.584,4.979c-2.229,2.079-3.863,6.61-3.863,10.623
			c0,8.546,5.052,15.157,15.751,15.157c9.584,0,15.749-6.091,15.749-15.379c0-3.121-1.484-6.984-2.6-8.172h-5.646v11.069H175.983z"
			/>
	</g>
</g>
</svg>
