<?xml version="1.0" encoding="utf-8"?>
<!-- Generator: Adobe Illustrator 16.0.0, SVG Export Plug-In . SVG Version: 6.00 Build 0)  -->
<!DOCTYPE svg PUBLIC "-//W3C//DTD SVG 1.1//EN" "http://www.w3.org/Graphics/SVG/1.1/DTD/svg11.dtd">
<svg version="1.1" id="Layer_1" xmlns="http://www.w3.org/2000/svg" xmlns:xlink="http://www.w3.org/1999/xlink" x="0px" y="0px"
	 width="1046px" height="192.375px" viewBox="0 0 1046 192.375" enable-background="new 0 0 1046 192.375" xml:space="preserve">
<g>
	<g>
		<path d="M371.292,170.65h9.021c6.475,0,10.893,4.357,10.893,10.739c0,6.383-4.418,10.74-10.893,10.74h-9.021V170.65z
			 M380.314,174.179h-4.634v14.422h4.634c3.805,0,6.536-3.007,6.536-7.211S384.118,174.179,380.314,174.179z"/>
		<path d="M394.473,192.13V170.65h4.388v21.479H394.473z"/>
		<path d="M408.842,192.375c-2.884,0-4.971-1.135-6.904-3.1l2.179-2.239c1.074,1.104,2.516,1.81,4.572,1.81
			c2.148,0,3.713-1.135,3.713-2.822c0-3.805-10.034-2.271-10.034-9.359c0-3.866,3.099-6.26,6.996-6.26c3.13,0,5.063,1.166,6.904,3.1
			l-2.117,2.271c-1.197-1.228-2.301-1.841-4.357-1.841c-2.086,0-3.068,1.043-3.068,2.516c0,4.296,10.034,2.731,10.034,9.298
			C416.759,189.828,413.076,192.375,408.842,192.375z"/>
		<path d="M438.216,189.275c-1.995,1.995-4.787,3.1-8.163,3.1c-6.597,0-11.139-4.48-11.139-10.985s4.603-10.985,11.169-10.985
			c3.345,0,6.106,1.166,8.132,3.1l-2.516,2.607c-1.166-1.381-3.161-2.178-5.401-2.178c-4.173,0-6.996,3.068-6.996,7.486
			c0,4.357,2.823,7.426,6.996,7.426c2.24,0,4.235-0.797,5.401-2.178L438.216,189.275z"/>
		<path d="M450.599,170.404c6.598,0,11.139,4.48,11.139,10.985s-4.542,10.985-11.139,10.985c-6.597,0-11.139-4.48-11.139-10.985
			S444.002,170.404,450.599,170.404z M450.599,188.846c4.02,0,6.782-3.129,6.782-7.456s-2.762-7.456-6.782-7.456
			c-3.897,0-6.75,3.129-6.75,7.456S446.702,188.846,450.599,188.846z"/>
		<path d="M481.575,170.65h4.572l-9.728,21.479h-4.48l-9.697-21.479h4.511l7.457,16.969L481.575,170.65z"/>
		<path d="M488.793,170.65h15.373v3.528h-10.985v5.309h10.034v3.528h-10.034v5.585h11.323v3.529h-15.711V170.65z"/>
		<path d="M514.429,183.6h-1.749v8.53h-4.388V170.65h9.328c3.928,0,6.567,2.607,6.567,6.475c0,3.375-1.995,5.769-5.094,6.352
			l6.198,8.653h-4.787L514.429,183.6z M517.13,180.07c1.565,0,2.7-1.228,2.7-2.945c0-1.688-1.135-2.946-2.7-2.946h-4.45v5.892
			H517.13z"/>
		<path d="M551.491,170.65h4.357v11.936c0,6.291-3.835,9.789-9.758,9.789c-5.983,0-9.758-3.498-9.758-9.789V170.65h4.388v11.936
			c0,3.775,2.209,6.26,5.37,6.26c3.283,0,5.4-2.484,5.4-6.26V170.65z"/>
		<path d="M560.082,192.13V170.65h4.388v8.652l8.562-8.652h5.369l-8.744,9.021l9.267,12.458h-4.909l-7.212-9.481l-2.332,2.669v6.812
			H560.082z"/>
		<path d="M587.602,183.6h-1.749v8.53h-4.388V170.65h9.328c3.928,0,6.566,2.607,6.566,6.475c0,3.375-1.994,5.769-5.094,6.352
			l6.199,8.653h-4.787L587.602,183.6z M590.303,180.07c1.564,0,2.699-1.228,2.699-2.945c0-1.688-1.135-2.946-2.699-2.946h-4.45
			v5.892H590.303z"/>
		<path d="M614.828,170.65l9.697,21.479h-4.205l-2.209-4.787h-11.047l-2.178,4.787h-4.266l9.727-21.479H614.828z M608.63,183.814
			h7.947l-4.02-8.654L608.63,183.814z"/>
		<path d="M627.171,192.13V170.65h4.388v21.479H627.171z"/>
		<path d="M640.21,177.492v14.638h-4.388V170.65h4.388l10.771,14.637V170.65h4.389v21.479h-4.389L640.21,177.492z"/>
		<path d="M659.688,170.65h15.373v3.528h-10.985v5.309h10.034v3.528h-10.034v5.585h11.323v3.529h-15.711V170.65z"/>
	</g>
</g>
<path d="M621.971,0l-0.073,2.911c0,12.406-10.058,22.464-22.464,22.464s-22.463-10.058-22.463-22.464V0h-53.5v59.923
	c-7.426-34.187-37.84-59.797-74.251-59.797h-78V54.5l2.911,0.073c12.406,0,22.464,10.057,22.464,22.463S386.537,99.5,374.131,99.5
	h-2.911v52.625h78c37.769,0,69.087-27.555,74.986-63.655c5.104,37.017,36.846,65.53,75.266,65.53c41.973,0,76-34.026,76-76V0
	H621.971z"/>
</svg>
