<?xml version="1.0" encoding="utf-8"?>
<!-- Generator: Adobe Illustrator 16.0.0, SVG Export Plug-In . SVG Version: 6.00 Build 0)  -->
<!DOCTYPE svg PUBLIC "-//W3C//DTD SVG 1.1//EN" "http://www.w3.org/Graphics/SVG/1.1/DTD/svg11.dtd">
<svg version="1.1" id="Layer_1" xmlns="http://www.w3.org/2000/svg" xmlns:xlink="http://www.w3.org/1999/xlink" x="0px" y="0px"
	 width="44px" height="30px" viewBox="0 0 44 30" enable-background="new 0 0 44 30" xml:space="preserve">
<g>
	<path fill="#FF5500" d="M26.206,9.832c0.276-0.871,0.533-1.604,0.533-2.056c0-2.098-1.662-3.799-3.759-3.799
		c-2.099,0-3.78,1.874-3.78,3.972S22.64,18,22.64,18h0.062v-2.94C22.701,12.532,24.294,10.403,26.206,9.832z"/>
</g>
<path fill-rule="evenodd" clip-rule="evenodd" fill="#FF5500" d="M3.238,19.618C1.976,13.296-0.653,7.438,1.783,0.479
	c9.762,5.854,19.067,13.556,19.216,29.257C20.999,29.861,21,30,21,30s-0.38,0-0.76,0C16.251,23.162,9.852,20.799,3.238,19.618"/>
<path fill-rule="evenodd" clip-rule="evenodd" fill="#FF5500" d="M40.763,19.618c1.262-6.322,3.892-12.181,1.454-19.14
	c-9.762,5.854-19.067,13.556-19.215,29.257C23.001,29.861,23,30,23,30s0.38,0,0.76,0C27.749,23.162,34.148,20.799,40.763,19.618"/>
</svg>
