<?xml version="1.0" encoding="UTF-8" standalone="no"?>
<svg width="44px" height="38px" viewBox="0 0 44 38" version="1.1" xmlns="http://www.w3.org/2000/svg" xmlns:xlink="http://www.w3.org/1999/xlink" xmlns:sketch="http://www.bohemiancoding.com/sketch/ns">
    <!-- Generator: Sketch 3.2.2 (9983) - http://www.bohemiancoding.com/sketch -->
    <title>logo</title>
    <desc>Created with Sketch.</desc>
    <defs></defs>
    <g id="Page-1" stroke="none" stroke-width="1" fill="none" fill-rule="evenodd" sketch:type="MSPage">
        <path d="M32.1381142,10.8738462 C32.1569951,10.6489 32.1733695,10.4128081 32.1965471,10.1723077 C32.1733695,4.56655397 27.6097367,0 22.0292165,0 C16.3904494,0 11.8268165,4.56655397 11.8034529,10.1723077 C11.8268165,10.4129943 11.843191,10.6490862 11.8618858,10.8738462 L0,0.935384615 L0,14.6153846 C0,17.7258856 1.37954717,20.6863443 3.73970784,22.6830769 L22.0292165,38 L40.2602922,22.6830769 C42.6204528,20.6863443 44,17.7258856 44,14.6153846 L44,0.935384615 L32.1381142,10.8738462 L32.1381142,10.8738462 Z M15.3882979,10.2307692 C15.3882979,6.54399954 18.367365,3.56615385 22.0585106,3.56615385 C25.6911456,3.56615385 28.6702128,6.54399954 28.6702128,10.2307692 C28.6702128,12.4533569 25.3232998,16.3986349 22.3510638,19.1753846 L22.0585106,19.4092308 L21.7074468,19.1169231 C18.722366,16.3884005 15.3882979,12.4550316 15.3882979,10.2307692 L15.3882979,10.2307692 Z" id="Fill-1" fill="#FF5500" sketch:type="MSShapeGroup"></path>
    </g>
</svg>